%TF.GenerationSoftware,KiCad,Pcbnew,(5.1.8)-1*%
%TF.CreationDate,2021-03-15T17:42:39+02:00*%
%TF.ProjectId,guitar_first,67756974-6172-45f6-9669-7273742e6b69,rev?*%
%TF.SameCoordinates,Original*%
%TF.FileFunction,Legend,Top*%
%TF.FilePolarity,Positive*%
%FSLAX46Y46*%
G04 Gerber Fmt 4.6, Leading zero omitted, Abs format (unit mm)*
G04 Created by KiCad (PCBNEW (5.1.8)-1) date 2021-03-15 17:42:39*
%MOMM*%
%LPD*%
G01*
G04 APERTURE LIST*
%ADD10C,0.120000*%
%ADD11C,0.150000*%
G04 APERTURE END LIST*
D10*
%TO.C,REF\u002A\u002A*%
X443550000Y-255550000D02*
X446450000Y-255550000D01*
X446450000Y-255550000D02*
X446450000Y-258450000D01*
X446450000Y-258450000D02*
X443550000Y-258450000D01*
X443550000Y-258450000D02*
X443550000Y-255550000D01*
X443550000Y-250550000D02*
X446450000Y-250550000D01*
X446450000Y-250550000D02*
X446450000Y-253450000D01*
X446450000Y-253450000D02*
X443550000Y-253450000D01*
X443550000Y-253450000D02*
X443550000Y-250550000D01*
X443550000Y-246550000D02*
X446450000Y-246550000D01*
X446450000Y-246550000D02*
X446450000Y-249450000D01*
X446450000Y-249450000D02*
X443550000Y-249450000D01*
X443550000Y-249450000D02*
X443550000Y-246550000D01*
X443550000Y-241550000D02*
X446450000Y-241550000D01*
X446450000Y-241550000D02*
X446450000Y-244450000D01*
X446450000Y-244450000D02*
X443550000Y-244450000D01*
X443550000Y-244450000D02*
X443550000Y-241550000D01*
X443550000Y-237550000D02*
X446450000Y-237550000D01*
X446450000Y-237550000D02*
X446450000Y-240450000D01*
X446450000Y-240450000D02*
X443550000Y-240450000D01*
X443550000Y-240450000D02*
X443550000Y-237550000D01*
X443550000Y-232550000D02*
X446450000Y-232550000D01*
X446450000Y-232550000D02*
X446450000Y-235450000D01*
X446450000Y-235450000D02*
X443550000Y-235450000D01*
X443550000Y-235450000D02*
X443550000Y-232550000D01*
X443550000Y-228550000D02*
X446450000Y-228550000D01*
X446450000Y-228550000D02*
X446450000Y-231450000D01*
X446450000Y-231450000D02*
X443550000Y-231450000D01*
X443550000Y-231450000D02*
X443550000Y-228550000D01*
X443550000Y-223550000D02*
X446450000Y-223550000D01*
X446450000Y-223550000D02*
X446450000Y-226450000D01*
X446450000Y-226450000D02*
X443550000Y-226450000D01*
X443550000Y-226450000D02*
X443550000Y-223550000D01*
X443550000Y-219550000D02*
X446450000Y-219550000D01*
X446450000Y-219550000D02*
X446450000Y-222450000D01*
X446450000Y-222450000D02*
X443550000Y-222450000D01*
X443550000Y-222450000D02*
X443550000Y-219550000D01*
X443550000Y-214550000D02*
X446450000Y-214550000D01*
X446450000Y-214550000D02*
X446450000Y-217450000D01*
X446450000Y-217450000D02*
X443550000Y-217450000D01*
X443550000Y-217450000D02*
X443550000Y-214550000D01*
X443550000Y-210550000D02*
X446450000Y-210550000D01*
X446450000Y-210550000D02*
X446450000Y-213450000D01*
X446450000Y-213450000D02*
X443550000Y-213450000D01*
X443550000Y-213450000D02*
X443550000Y-210550000D01*
X443550000Y-205550000D02*
X446450000Y-205550000D01*
X446450000Y-205550000D02*
X446450000Y-208450000D01*
X446450000Y-208450000D02*
X443550000Y-208450000D01*
X443550000Y-208450000D02*
X443550000Y-205550000D01*
%TO.C,D1*%
X8485000Y-209265000D02*
X6200000Y-209265000D01*
X8485000Y-210735000D02*
X8485000Y-209265000D01*
X6200000Y-210735000D02*
X8485000Y-210735000D01*
%TO.C,D2*%
X28697500Y-209265000D02*
X26412500Y-209265000D01*
X28697500Y-210735000D02*
X28697500Y-209265000D01*
X26412500Y-210735000D02*
X28697500Y-210735000D01*
%TO.C,D3*%
X65412500Y-210735000D02*
X67697500Y-210735000D01*
X67697500Y-210735000D02*
X67697500Y-209265000D01*
X67697500Y-209265000D02*
X65412500Y-209265000D01*
%TO.C,D4*%
X101697500Y-209265000D02*
X99412500Y-209265000D01*
X101697500Y-210735000D02*
X101697500Y-209265000D01*
X99412500Y-210735000D02*
X101697500Y-210735000D01*
%TO.C,D5*%
X128412500Y-210735000D02*
X130697500Y-210735000D01*
X130697500Y-210735000D02*
X130697500Y-209265000D01*
X130697500Y-209265000D02*
X128412500Y-209265000D01*
%TO.C,D6*%
X160485000Y-209265000D02*
X158200000Y-209265000D01*
X160485000Y-210735000D02*
X160485000Y-209265000D01*
X158200000Y-210735000D02*
X160485000Y-210735000D01*
%TO.C,D7*%
X184200000Y-210735000D02*
X186485000Y-210735000D01*
X186485000Y-210735000D02*
X186485000Y-209265000D01*
X186485000Y-209265000D02*
X184200000Y-209265000D01*
%TO.C,D8*%
X211697500Y-209265000D02*
X209412500Y-209265000D01*
X211697500Y-210735000D02*
X211697500Y-209265000D01*
X209412500Y-210735000D02*
X211697500Y-210735000D01*
%TO.C,D9*%
X233200000Y-210735000D02*
X235485000Y-210735000D01*
X235485000Y-210735000D02*
X235485000Y-209265000D01*
X235485000Y-209265000D02*
X233200000Y-209265000D01*
%TO.C,D10*%
X258485000Y-209265000D02*
X256200000Y-209265000D01*
X258485000Y-210735000D02*
X258485000Y-209265000D01*
X256200000Y-210735000D02*
X258485000Y-210735000D01*
%TO.C,D11*%
X280697500Y-209265000D02*
X278412500Y-209265000D01*
X280697500Y-210735000D02*
X280697500Y-209265000D01*
X278412500Y-210735000D02*
X280697500Y-210735000D01*
%TO.C,D12*%
X301485000Y-209265000D02*
X299200000Y-209265000D01*
X301485000Y-210735000D02*
X301485000Y-209265000D01*
X299200000Y-210735000D02*
X301485000Y-210735000D01*
%TO.C,D13*%
X318200000Y-210735000D02*
X320485000Y-210735000D01*
X320485000Y-210735000D02*
X320485000Y-209265000D01*
X320485000Y-209265000D02*
X318200000Y-209265000D01*
%TO.C,D14*%
X337697500Y-209265000D02*
X335412500Y-209265000D01*
X337697500Y-210735000D02*
X337697500Y-209265000D01*
X335412500Y-210735000D02*
X337697500Y-210735000D01*
%TO.C,D15*%
X353412500Y-210735000D02*
X355697500Y-210735000D01*
X355697500Y-210735000D02*
X355697500Y-209265000D01*
X355697500Y-209265000D02*
X353412500Y-209265000D01*
%TO.C,D16*%
X372485000Y-209265000D02*
X370200000Y-209265000D01*
X372485000Y-210735000D02*
X372485000Y-209265000D01*
X370200000Y-210735000D02*
X372485000Y-210735000D01*
%TO.C,D17*%
X386200000Y-210735000D02*
X388485000Y-210735000D01*
X388485000Y-210735000D02*
X388485000Y-209265000D01*
X388485000Y-209265000D02*
X386200000Y-209265000D01*
%TO.C,D18*%
X402485000Y-209265000D02*
X400200000Y-209265000D01*
X402485000Y-210735000D02*
X402485000Y-209265000D01*
X400200000Y-210735000D02*
X402485000Y-210735000D01*
%TO.C,D19*%
X415697500Y-209265000D02*
X413412500Y-209265000D01*
X415697500Y-210735000D02*
X415697500Y-209265000D01*
X413412500Y-210735000D02*
X415697500Y-210735000D01*
%TO.C,D20*%
X428697500Y-209265000D02*
X426412500Y-209265000D01*
X428697500Y-210735000D02*
X428697500Y-209265000D01*
X426412500Y-210735000D02*
X428697500Y-210735000D01*
%TO.C,D21*%
X438412500Y-210735000D02*
X440697500Y-210735000D01*
X440697500Y-210735000D02*
X440697500Y-209265000D01*
X440697500Y-209265000D02*
X438412500Y-209265000D01*
%TO.C,D23*%
X8485000Y-218265000D02*
X6200000Y-218265000D01*
X8485000Y-219735000D02*
X8485000Y-218265000D01*
X6200000Y-219735000D02*
X8485000Y-219735000D01*
%TO.C,D24*%
X28697500Y-218265000D02*
X26412500Y-218265000D01*
X28697500Y-219735000D02*
X28697500Y-218265000D01*
X26412500Y-219735000D02*
X28697500Y-219735000D01*
%TO.C,D25*%
X65412500Y-219735000D02*
X67697500Y-219735000D01*
X67697500Y-219735000D02*
X67697500Y-218265000D01*
X67697500Y-218265000D02*
X65412500Y-218265000D01*
%TO.C,D26*%
X101697500Y-218265000D02*
X99412500Y-218265000D01*
X101697500Y-219735000D02*
X101697500Y-218265000D01*
X99412500Y-219735000D02*
X101697500Y-219735000D01*
%TO.C,D27*%
X128412500Y-219735000D02*
X130697500Y-219735000D01*
X130697500Y-219735000D02*
X130697500Y-218265000D01*
X130697500Y-218265000D02*
X128412500Y-218265000D01*
%TO.C,D28*%
X160485000Y-218265000D02*
X158200000Y-218265000D01*
X160485000Y-219735000D02*
X160485000Y-218265000D01*
X158200000Y-219735000D02*
X160485000Y-219735000D01*
%TO.C,D29*%
X186485000Y-218265000D02*
X184200000Y-218265000D01*
X186485000Y-219735000D02*
X186485000Y-218265000D01*
X184200000Y-219735000D02*
X186485000Y-219735000D01*
%TO.C,D30*%
X211697500Y-218265000D02*
X209412500Y-218265000D01*
X211697500Y-219735000D02*
X211697500Y-218265000D01*
X209412500Y-219735000D02*
X211697500Y-219735000D01*
%TO.C,D31*%
X233200000Y-219735000D02*
X235485000Y-219735000D01*
X235485000Y-219735000D02*
X235485000Y-218265000D01*
X235485000Y-218265000D02*
X233200000Y-218265000D01*
%TO.C,D32*%
X258485000Y-218265000D02*
X256200000Y-218265000D01*
X258485000Y-219735000D02*
X258485000Y-218265000D01*
X256200000Y-219735000D02*
X258485000Y-219735000D01*
%TO.C,D33*%
X278412500Y-219735000D02*
X280697500Y-219735000D01*
X280697500Y-219735000D02*
X280697500Y-218265000D01*
X280697500Y-218265000D02*
X278412500Y-218265000D01*
%TO.C,D34*%
X299200000Y-219735000D02*
X301485000Y-219735000D01*
X301485000Y-219735000D02*
X301485000Y-218265000D01*
X301485000Y-218265000D02*
X299200000Y-218265000D01*
%TO.C,D35*%
X320485000Y-218265000D02*
X318200000Y-218265000D01*
X320485000Y-219735000D02*
X320485000Y-218265000D01*
X318200000Y-219735000D02*
X320485000Y-219735000D01*
%TO.C,D36*%
X335412500Y-219735000D02*
X337697500Y-219735000D01*
X337697500Y-219735000D02*
X337697500Y-218265000D01*
X337697500Y-218265000D02*
X335412500Y-218265000D01*
%TO.C,D37*%
X353412500Y-219735000D02*
X355697500Y-219735000D01*
X355697500Y-219735000D02*
X355697500Y-218265000D01*
X355697500Y-218265000D02*
X353412500Y-218265000D01*
%TO.C,D38*%
X372485000Y-218265000D02*
X370200000Y-218265000D01*
X372485000Y-219735000D02*
X372485000Y-218265000D01*
X370200000Y-219735000D02*
X372485000Y-219735000D01*
%TO.C,D39*%
X388485000Y-218265000D02*
X386200000Y-218265000D01*
X388485000Y-219735000D02*
X388485000Y-218265000D01*
X386200000Y-219735000D02*
X388485000Y-219735000D01*
%TO.C,D40*%
X402485000Y-218265000D02*
X400200000Y-218265000D01*
X402485000Y-219735000D02*
X402485000Y-218265000D01*
X400200000Y-219735000D02*
X402485000Y-219735000D01*
%TO.C,D41*%
X413412500Y-219735000D02*
X415697500Y-219735000D01*
X415697500Y-219735000D02*
X415697500Y-218265000D01*
X415697500Y-218265000D02*
X413412500Y-218265000D01*
%TO.C,D42*%
X428697500Y-218265000D02*
X426412500Y-218265000D01*
X428697500Y-219735000D02*
X428697500Y-218265000D01*
X426412500Y-219735000D02*
X428697500Y-219735000D01*
%TO.C,D43*%
X438412500Y-219735000D02*
X440697500Y-219735000D01*
X440697500Y-219735000D02*
X440697500Y-218265000D01*
X440697500Y-218265000D02*
X438412500Y-218265000D01*
%TO.C,D45*%
X6200000Y-228735000D02*
X8485000Y-228735000D01*
X8485000Y-228735000D02*
X8485000Y-227265000D01*
X8485000Y-227265000D02*
X6200000Y-227265000D01*
%TO.C,D46*%
X28697500Y-227265000D02*
X26412500Y-227265000D01*
X28697500Y-228735000D02*
X28697500Y-227265000D01*
X26412500Y-228735000D02*
X28697500Y-228735000D01*
%TO.C,D47*%
X65412500Y-228735000D02*
X67697500Y-228735000D01*
X67697500Y-228735000D02*
X67697500Y-227265000D01*
X67697500Y-227265000D02*
X65412500Y-227265000D01*
%TO.C,D48*%
X101697500Y-227265000D02*
X99412500Y-227265000D01*
X101697500Y-228735000D02*
X101697500Y-227265000D01*
X99412500Y-228735000D02*
X101697500Y-228735000D01*
%TO.C,D49*%
X128412500Y-228735000D02*
X130697500Y-228735000D01*
X130697500Y-228735000D02*
X130697500Y-227265000D01*
X130697500Y-227265000D02*
X128412500Y-227265000D01*
%TO.C,D50*%
X160485000Y-227265000D02*
X158200000Y-227265000D01*
X160485000Y-228735000D02*
X160485000Y-227265000D01*
X158200000Y-228735000D02*
X160485000Y-228735000D01*
%TO.C,D51*%
X184200000Y-228735000D02*
X186485000Y-228735000D01*
X186485000Y-228735000D02*
X186485000Y-227265000D01*
X186485000Y-227265000D02*
X184200000Y-227265000D01*
%TO.C,D52*%
X211697500Y-227265000D02*
X209412500Y-227265000D01*
X211697500Y-228735000D02*
X211697500Y-227265000D01*
X209412500Y-228735000D02*
X211697500Y-228735000D01*
%TO.C,D53*%
X233200000Y-228735000D02*
X235485000Y-228735000D01*
X235485000Y-228735000D02*
X235485000Y-227265000D01*
X235485000Y-227265000D02*
X233200000Y-227265000D01*
%TO.C,D54*%
X258485000Y-227265000D02*
X256200000Y-227265000D01*
X258485000Y-228735000D02*
X258485000Y-227265000D01*
X256200000Y-228735000D02*
X258485000Y-228735000D01*
%TO.C,D55*%
X280697500Y-227265000D02*
X278412500Y-227265000D01*
X280697500Y-228735000D02*
X280697500Y-227265000D01*
X278412500Y-228735000D02*
X280697500Y-228735000D01*
%TO.C,D56*%
X299200000Y-228735000D02*
X301485000Y-228735000D01*
X301485000Y-228735000D02*
X301485000Y-227265000D01*
X301485000Y-227265000D02*
X299200000Y-227265000D01*
%TO.C,D57*%
X320485000Y-227265000D02*
X318200000Y-227265000D01*
X320485000Y-228735000D02*
X320485000Y-227265000D01*
X318200000Y-228735000D02*
X320485000Y-228735000D01*
%TO.C,D58*%
X335412500Y-228735000D02*
X337697500Y-228735000D01*
X337697500Y-228735000D02*
X337697500Y-227265000D01*
X337697500Y-227265000D02*
X335412500Y-227265000D01*
%TO.C,D59*%
X355697500Y-227265000D02*
X353412500Y-227265000D01*
X355697500Y-228735000D02*
X355697500Y-227265000D01*
X353412500Y-228735000D02*
X355697500Y-228735000D01*
%TO.C,D60*%
X370200000Y-228735000D02*
X372485000Y-228735000D01*
X372485000Y-228735000D02*
X372485000Y-227265000D01*
X372485000Y-227265000D02*
X370200000Y-227265000D01*
%TO.C,D61*%
X388485000Y-227265000D02*
X386200000Y-227265000D01*
X388485000Y-228735000D02*
X388485000Y-227265000D01*
X386200000Y-228735000D02*
X388485000Y-228735000D01*
%TO.C,D62*%
X400200000Y-228735000D02*
X402485000Y-228735000D01*
X402485000Y-228735000D02*
X402485000Y-227265000D01*
X402485000Y-227265000D02*
X400200000Y-227265000D01*
%TO.C,D63*%
X413412500Y-228735000D02*
X415697500Y-228735000D01*
X415697500Y-228735000D02*
X415697500Y-227265000D01*
X415697500Y-227265000D02*
X413412500Y-227265000D01*
%TO.C,D64*%
X426412500Y-228735000D02*
X428697500Y-228735000D01*
X428697500Y-228735000D02*
X428697500Y-227265000D01*
X428697500Y-227265000D02*
X426412500Y-227265000D01*
%TO.C,D65*%
X440697500Y-227265000D02*
X438412500Y-227265000D01*
X440697500Y-228735000D02*
X440697500Y-227265000D01*
X438412500Y-228735000D02*
X440697500Y-228735000D01*
%TO.C,D67*%
X8485000Y-236265000D02*
X6200000Y-236265000D01*
X8485000Y-237735000D02*
X8485000Y-236265000D01*
X6200000Y-237735000D02*
X8485000Y-237735000D01*
%TO.C,D68*%
X26412500Y-237735000D02*
X28697500Y-237735000D01*
X28697500Y-237735000D02*
X28697500Y-236265000D01*
X28697500Y-236265000D02*
X26412500Y-236265000D01*
%TO.C,D69*%
X67697500Y-236265000D02*
X65412500Y-236265000D01*
X67697500Y-237735000D02*
X67697500Y-236265000D01*
X65412500Y-237735000D02*
X67697500Y-237735000D01*
%TO.C,D70*%
X99412500Y-237735000D02*
X101697500Y-237735000D01*
X101697500Y-237735000D02*
X101697500Y-236265000D01*
X101697500Y-236265000D02*
X99412500Y-236265000D01*
%TO.C,D71*%
X128412500Y-237735000D02*
X130697500Y-237735000D01*
X130697500Y-237735000D02*
X130697500Y-236265000D01*
X130697500Y-236265000D02*
X128412500Y-236265000D01*
%TO.C,D72*%
X160485000Y-236265000D02*
X158200000Y-236265000D01*
X160485000Y-237735000D02*
X160485000Y-236265000D01*
X158200000Y-237735000D02*
X160485000Y-237735000D01*
%TO.C,D73*%
X184200000Y-237735000D02*
X186485000Y-237735000D01*
X186485000Y-237735000D02*
X186485000Y-236265000D01*
X186485000Y-236265000D02*
X184200000Y-236265000D01*
%TO.C,D74*%
X209412500Y-237735000D02*
X211697500Y-237735000D01*
X211697500Y-237735000D02*
X211697500Y-236265000D01*
X211697500Y-236265000D02*
X209412500Y-236265000D01*
%TO.C,D75*%
X235485000Y-236265000D02*
X233200000Y-236265000D01*
X235485000Y-237735000D02*
X235485000Y-236265000D01*
X233200000Y-237735000D02*
X235485000Y-237735000D01*
%TO.C,D76*%
X256200000Y-237735000D02*
X258485000Y-237735000D01*
X258485000Y-237735000D02*
X258485000Y-236265000D01*
X258485000Y-236265000D02*
X256200000Y-236265000D01*
%TO.C,D77*%
X280697500Y-236265000D02*
X278412500Y-236265000D01*
X280697500Y-237735000D02*
X280697500Y-236265000D01*
X278412500Y-237735000D02*
X280697500Y-237735000D01*
%TO.C,D78*%
X301485000Y-236265000D02*
X299200000Y-236265000D01*
X301485000Y-237735000D02*
X301485000Y-236265000D01*
X299200000Y-237735000D02*
X301485000Y-237735000D01*
%TO.C,D79*%
X318200000Y-237735000D02*
X320485000Y-237735000D01*
X320485000Y-237735000D02*
X320485000Y-236265000D01*
X320485000Y-236265000D02*
X318200000Y-236265000D01*
%TO.C,D80*%
X337697500Y-236265000D02*
X335412500Y-236265000D01*
X337697500Y-237735000D02*
X337697500Y-236265000D01*
X335412500Y-237735000D02*
X337697500Y-237735000D01*
%TO.C,D81*%
X353412500Y-237735000D02*
X355697500Y-237735000D01*
X355697500Y-237735000D02*
X355697500Y-236265000D01*
X355697500Y-236265000D02*
X353412500Y-236265000D01*
%TO.C,D82*%
X372485000Y-236265000D02*
X370200000Y-236265000D01*
X372485000Y-237735000D02*
X372485000Y-236265000D01*
X370200000Y-237735000D02*
X372485000Y-237735000D01*
%TO.C,D83*%
X386200000Y-237735000D02*
X388485000Y-237735000D01*
X388485000Y-237735000D02*
X388485000Y-236265000D01*
X388485000Y-236265000D02*
X386200000Y-236265000D01*
%TO.C,D84*%
X402485000Y-236265000D02*
X400200000Y-236265000D01*
X402485000Y-237735000D02*
X402485000Y-236265000D01*
X400200000Y-237735000D02*
X402485000Y-237735000D01*
%TO.C,D85*%
X413412500Y-237735000D02*
X415697500Y-237735000D01*
X415697500Y-237735000D02*
X415697500Y-236265000D01*
X415697500Y-236265000D02*
X413412500Y-236265000D01*
%TO.C,D86*%
X428697500Y-236265000D02*
X426412500Y-236265000D01*
X428697500Y-237735000D02*
X428697500Y-236265000D01*
X426412500Y-237735000D02*
X428697500Y-237735000D01*
%TO.C,D87*%
X438412500Y-237735000D02*
X440697500Y-237735000D01*
X440697500Y-237735000D02*
X440697500Y-236265000D01*
X440697500Y-236265000D02*
X438412500Y-236265000D01*
%TO.C,D89*%
X6200000Y-246735000D02*
X8485000Y-246735000D01*
X8485000Y-246735000D02*
X8485000Y-245265000D01*
X8485000Y-245265000D02*
X6200000Y-245265000D01*
%TO.C,D90*%
X28697500Y-245265000D02*
X26412500Y-245265000D01*
X28697500Y-246735000D02*
X28697500Y-245265000D01*
X26412500Y-246735000D02*
X28697500Y-246735000D01*
%TO.C,D91*%
X65412500Y-246735000D02*
X67697500Y-246735000D01*
X67697500Y-246735000D02*
X67697500Y-245265000D01*
X67697500Y-245265000D02*
X65412500Y-245265000D01*
%TO.C,D92*%
X101697500Y-245265000D02*
X99412500Y-245265000D01*
X101697500Y-246735000D02*
X101697500Y-245265000D01*
X99412500Y-246735000D02*
X101697500Y-246735000D01*
%TO.C,D93*%
X128412500Y-246735000D02*
X130697500Y-246735000D01*
X130697500Y-246735000D02*
X130697500Y-245265000D01*
X130697500Y-245265000D02*
X128412500Y-245265000D01*
%TO.C,D94*%
X160485000Y-245265000D02*
X158200000Y-245265000D01*
X160485000Y-246735000D02*
X160485000Y-245265000D01*
X158200000Y-246735000D02*
X160485000Y-246735000D01*
%TO.C,D95*%
X184200000Y-246735000D02*
X186485000Y-246735000D01*
X186485000Y-246735000D02*
X186485000Y-245265000D01*
X186485000Y-245265000D02*
X184200000Y-245265000D01*
%TO.C,D96*%
X211697500Y-245265000D02*
X209412500Y-245265000D01*
X211697500Y-246735000D02*
X211697500Y-245265000D01*
X209412500Y-246735000D02*
X211697500Y-246735000D01*
%TO.C,D97*%
X233200000Y-246735000D02*
X235485000Y-246735000D01*
X235485000Y-246735000D02*
X235485000Y-245265000D01*
X235485000Y-245265000D02*
X233200000Y-245265000D01*
%TO.C,D98*%
X258485000Y-245265000D02*
X256200000Y-245265000D01*
X258485000Y-246735000D02*
X258485000Y-245265000D01*
X256200000Y-246735000D02*
X258485000Y-246735000D01*
%TO.C,D99*%
X278412500Y-246735000D02*
X280697500Y-246735000D01*
X280697500Y-246735000D02*
X280697500Y-245265000D01*
X280697500Y-245265000D02*
X278412500Y-245265000D01*
%TO.C,D100*%
X301485000Y-245265000D02*
X299200000Y-245265000D01*
X301485000Y-246735000D02*
X301485000Y-245265000D01*
X299200000Y-246735000D02*
X301485000Y-246735000D01*
%TO.C,D101*%
X318200000Y-246735000D02*
X320485000Y-246735000D01*
X320485000Y-246735000D02*
X320485000Y-245265000D01*
X320485000Y-245265000D02*
X318200000Y-245265000D01*
%TO.C,D102*%
X337697500Y-245265000D02*
X335412500Y-245265000D01*
X337697500Y-246735000D02*
X337697500Y-245265000D01*
X335412500Y-246735000D02*
X337697500Y-246735000D01*
%TO.C,D103*%
X353412500Y-246735000D02*
X355697500Y-246735000D01*
X355697500Y-246735000D02*
X355697500Y-245265000D01*
X355697500Y-245265000D02*
X353412500Y-245265000D01*
%TO.C,D104*%
X370200000Y-246735000D02*
X372485000Y-246735000D01*
X372485000Y-246735000D02*
X372485000Y-245265000D01*
X372485000Y-245265000D02*
X370200000Y-245265000D01*
%TO.C,D105*%
X388485000Y-245265000D02*
X386200000Y-245265000D01*
X388485000Y-246735000D02*
X388485000Y-245265000D01*
X386200000Y-246735000D02*
X388485000Y-246735000D01*
%TO.C,D106*%
X402485000Y-245265000D02*
X400200000Y-245265000D01*
X402485000Y-246735000D02*
X402485000Y-245265000D01*
X400200000Y-246735000D02*
X402485000Y-246735000D01*
%TO.C,D107*%
X415697500Y-245265000D02*
X413412500Y-245265000D01*
X415697500Y-246735000D02*
X415697500Y-245265000D01*
X413412500Y-246735000D02*
X415697500Y-246735000D01*
%TO.C,D108*%
X426412500Y-246735000D02*
X428697500Y-246735000D01*
X428697500Y-246735000D02*
X428697500Y-245265000D01*
X428697500Y-245265000D02*
X426412500Y-245265000D01*
%TO.C,D109*%
X440697500Y-245265000D02*
X438412500Y-245265000D01*
X440697500Y-246735000D02*
X440697500Y-245265000D01*
X438412500Y-246735000D02*
X440697500Y-246735000D01*
%TO.C,D111*%
X8485000Y-254265000D02*
X6200000Y-254265000D01*
X8485000Y-255735000D02*
X8485000Y-254265000D01*
X6200000Y-255735000D02*
X8485000Y-255735000D01*
%TO.C,D112*%
X26412500Y-255735000D02*
X28697500Y-255735000D01*
X28697500Y-255735000D02*
X28697500Y-254265000D01*
X28697500Y-254265000D02*
X26412500Y-254265000D01*
%TO.C,D113*%
X67697500Y-254265000D02*
X65412500Y-254265000D01*
X67697500Y-255735000D02*
X67697500Y-254265000D01*
X65412500Y-255735000D02*
X67697500Y-255735000D01*
%TO.C,D114*%
X99412500Y-255735000D02*
X101697500Y-255735000D01*
X101697500Y-255735000D02*
X101697500Y-254265000D01*
X101697500Y-254265000D02*
X99412500Y-254265000D01*
%TO.C,D115*%
X130697500Y-254265000D02*
X128412500Y-254265000D01*
X130697500Y-255735000D02*
X130697500Y-254265000D01*
X128412500Y-255735000D02*
X130697500Y-255735000D01*
%TO.C,D116*%
X158200000Y-255735000D02*
X160485000Y-255735000D01*
X160485000Y-255735000D02*
X160485000Y-254265000D01*
X160485000Y-254265000D02*
X158200000Y-254265000D01*
%TO.C,D117*%
X186485000Y-254265000D02*
X184200000Y-254265000D01*
X186485000Y-255735000D02*
X186485000Y-254265000D01*
X184200000Y-255735000D02*
X186485000Y-255735000D01*
%TO.C,D118*%
X209412500Y-255735000D02*
X211697500Y-255735000D01*
X211697500Y-255735000D02*
X211697500Y-254265000D01*
X211697500Y-254265000D02*
X209412500Y-254265000D01*
%TO.C,D119*%
X235485000Y-254265000D02*
X233200000Y-254265000D01*
X235485000Y-255735000D02*
X235485000Y-254265000D01*
X233200000Y-255735000D02*
X235485000Y-255735000D01*
%TO.C,D120*%
X256200000Y-255735000D02*
X258485000Y-255735000D01*
X258485000Y-255735000D02*
X258485000Y-254265000D01*
X258485000Y-254265000D02*
X256200000Y-254265000D01*
%TO.C,D121*%
X280697500Y-254265000D02*
X278412500Y-254265000D01*
X280697500Y-255735000D02*
X280697500Y-254265000D01*
X278412500Y-255735000D02*
X280697500Y-255735000D01*
%TO.C,D122*%
X299200000Y-255735000D02*
X301485000Y-255735000D01*
X301485000Y-255735000D02*
X301485000Y-254265000D01*
X301485000Y-254265000D02*
X299200000Y-254265000D01*
%TO.C,D123*%
X320485000Y-254265000D02*
X318200000Y-254265000D01*
X320485000Y-255735000D02*
X320485000Y-254265000D01*
X318200000Y-255735000D02*
X320485000Y-255735000D01*
%TO.C,D124*%
X335412500Y-255735000D02*
X337697500Y-255735000D01*
X337697500Y-255735000D02*
X337697500Y-254265000D01*
X337697500Y-254265000D02*
X335412500Y-254265000D01*
%TO.C,D125*%
X355697500Y-254265000D02*
X353412500Y-254265000D01*
X355697500Y-255735000D02*
X355697500Y-254265000D01*
X353412500Y-255735000D02*
X355697500Y-255735000D01*
%TO.C,D126*%
X370200000Y-255735000D02*
X372485000Y-255735000D01*
X372485000Y-255735000D02*
X372485000Y-254265000D01*
X372485000Y-254265000D02*
X370200000Y-254265000D01*
%TO.C,D127*%
X388485000Y-254265000D02*
X386200000Y-254265000D01*
X388485000Y-255735000D02*
X388485000Y-254265000D01*
X386200000Y-255735000D02*
X388485000Y-255735000D01*
%TO.C,D128*%
X400200000Y-255735000D02*
X402485000Y-255735000D01*
X402485000Y-255735000D02*
X402485000Y-254265000D01*
X402485000Y-254265000D02*
X400200000Y-254265000D01*
%TO.C,D129*%
X415697500Y-254265000D02*
X413412500Y-254265000D01*
X415697500Y-255735000D02*
X415697500Y-254265000D01*
X413412500Y-255735000D02*
X415697500Y-255735000D01*
%TO.C,D130*%
X426412500Y-255735000D02*
X428697500Y-255735000D01*
X428697500Y-255735000D02*
X428697500Y-254265000D01*
X428697500Y-254265000D02*
X426412500Y-254265000D01*
%TO.C,D131*%
X440697500Y-254265000D02*
X438412500Y-254265000D01*
X440697500Y-255735000D02*
X440697500Y-254265000D01*
X438412500Y-255735000D02*
X440697500Y-255735000D01*
%TO.C,REF\u002A\u002A*%
D11*
X443666666Y-255304380D02*
X443333333Y-254828190D01*
X443095238Y-255304380D02*
X443095238Y-254304380D01*
X443476190Y-254304380D01*
X443571428Y-254352000D01*
X443619047Y-254399619D01*
X443666666Y-254494857D01*
X443666666Y-254637714D01*
X443619047Y-254732952D01*
X443571428Y-254780571D01*
X443476190Y-254828190D01*
X443095238Y-254828190D01*
X444095238Y-254780571D02*
X444428571Y-254780571D01*
X444571428Y-255304380D02*
X444095238Y-255304380D01*
X444095238Y-254304380D01*
X444571428Y-254304380D01*
X445333333Y-254780571D02*
X445000000Y-254780571D01*
X445000000Y-255304380D02*
X445000000Y-254304380D01*
X445476190Y-254304380D01*
X446000000Y-254304380D02*
X446000000Y-254542476D01*
X445761904Y-254447238D02*
X446000000Y-254542476D01*
X446238095Y-254447238D01*
X445857142Y-254732952D02*
X446000000Y-254542476D01*
X446142857Y-254732952D01*
X446761904Y-254304380D02*
X446761904Y-254542476D01*
X446523809Y-254447238D02*
X446761904Y-254542476D01*
X447000000Y-254447238D01*
X446619047Y-254732952D02*
X446761904Y-254542476D01*
X446904761Y-254732952D01*
X443666666Y-250304380D02*
X443333333Y-249828190D01*
X443095238Y-250304380D02*
X443095238Y-249304380D01*
X443476190Y-249304380D01*
X443571428Y-249352000D01*
X443619047Y-249399619D01*
X443666666Y-249494857D01*
X443666666Y-249637714D01*
X443619047Y-249732952D01*
X443571428Y-249780571D01*
X443476190Y-249828190D01*
X443095238Y-249828190D01*
X444095238Y-249780571D02*
X444428571Y-249780571D01*
X444571428Y-250304380D02*
X444095238Y-250304380D01*
X444095238Y-249304380D01*
X444571428Y-249304380D01*
X445333333Y-249780571D02*
X445000000Y-249780571D01*
X445000000Y-250304380D02*
X445000000Y-249304380D01*
X445476190Y-249304380D01*
X446000000Y-249304380D02*
X446000000Y-249542476D01*
X445761904Y-249447238D02*
X446000000Y-249542476D01*
X446238095Y-249447238D01*
X445857142Y-249732952D02*
X446000000Y-249542476D01*
X446142857Y-249732952D01*
X446761904Y-249304380D02*
X446761904Y-249542476D01*
X446523809Y-249447238D02*
X446761904Y-249542476D01*
X447000000Y-249447238D01*
X446619047Y-249732952D02*
X446761904Y-249542476D01*
X446904761Y-249732952D01*
X443666666Y-246304380D02*
X443333333Y-245828190D01*
X443095238Y-246304380D02*
X443095238Y-245304380D01*
X443476190Y-245304380D01*
X443571428Y-245352000D01*
X443619047Y-245399619D01*
X443666666Y-245494857D01*
X443666666Y-245637714D01*
X443619047Y-245732952D01*
X443571428Y-245780571D01*
X443476190Y-245828190D01*
X443095238Y-245828190D01*
X444095238Y-245780571D02*
X444428571Y-245780571D01*
X444571428Y-246304380D02*
X444095238Y-246304380D01*
X444095238Y-245304380D01*
X444571428Y-245304380D01*
X445333333Y-245780571D02*
X445000000Y-245780571D01*
X445000000Y-246304380D02*
X445000000Y-245304380D01*
X445476190Y-245304380D01*
X446000000Y-245304380D02*
X446000000Y-245542476D01*
X445761904Y-245447238D02*
X446000000Y-245542476D01*
X446238095Y-245447238D01*
X445857142Y-245732952D02*
X446000000Y-245542476D01*
X446142857Y-245732952D01*
X446761904Y-245304380D02*
X446761904Y-245542476D01*
X446523809Y-245447238D02*
X446761904Y-245542476D01*
X447000000Y-245447238D01*
X446619047Y-245732952D02*
X446761904Y-245542476D01*
X446904761Y-245732952D01*
X443666666Y-241304380D02*
X443333333Y-240828190D01*
X443095238Y-241304380D02*
X443095238Y-240304380D01*
X443476190Y-240304380D01*
X443571428Y-240352000D01*
X443619047Y-240399619D01*
X443666666Y-240494857D01*
X443666666Y-240637714D01*
X443619047Y-240732952D01*
X443571428Y-240780571D01*
X443476190Y-240828190D01*
X443095238Y-240828190D01*
X444095238Y-240780571D02*
X444428571Y-240780571D01*
X444571428Y-241304380D02*
X444095238Y-241304380D01*
X444095238Y-240304380D01*
X444571428Y-240304380D01*
X445333333Y-240780571D02*
X445000000Y-240780571D01*
X445000000Y-241304380D02*
X445000000Y-240304380D01*
X445476190Y-240304380D01*
X446000000Y-240304380D02*
X446000000Y-240542476D01*
X445761904Y-240447238D02*
X446000000Y-240542476D01*
X446238095Y-240447238D01*
X445857142Y-240732952D02*
X446000000Y-240542476D01*
X446142857Y-240732952D01*
X446761904Y-240304380D02*
X446761904Y-240542476D01*
X446523809Y-240447238D02*
X446761904Y-240542476D01*
X447000000Y-240447238D01*
X446619047Y-240732952D02*
X446761904Y-240542476D01*
X446904761Y-240732952D01*
X443666666Y-237304380D02*
X443333333Y-236828190D01*
X443095238Y-237304380D02*
X443095238Y-236304380D01*
X443476190Y-236304380D01*
X443571428Y-236352000D01*
X443619047Y-236399619D01*
X443666666Y-236494857D01*
X443666666Y-236637714D01*
X443619047Y-236732952D01*
X443571428Y-236780571D01*
X443476190Y-236828190D01*
X443095238Y-236828190D01*
X444095238Y-236780571D02*
X444428571Y-236780571D01*
X444571428Y-237304380D02*
X444095238Y-237304380D01*
X444095238Y-236304380D01*
X444571428Y-236304380D01*
X445333333Y-236780571D02*
X445000000Y-236780571D01*
X445000000Y-237304380D02*
X445000000Y-236304380D01*
X445476190Y-236304380D01*
X446000000Y-236304380D02*
X446000000Y-236542476D01*
X445761904Y-236447238D02*
X446000000Y-236542476D01*
X446238095Y-236447238D01*
X445857142Y-236732952D02*
X446000000Y-236542476D01*
X446142857Y-236732952D01*
X446761904Y-236304380D02*
X446761904Y-236542476D01*
X446523809Y-236447238D02*
X446761904Y-236542476D01*
X447000000Y-236447238D01*
X446619047Y-236732952D02*
X446761904Y-236542476D01*
X446904761Y-236732952D01*
X443666666Y-232304380D02*
X443333333Y-231828190D01*
X443095238Y-232304380D02*
X443095238Y-231304380D01*
X443476190Y-231304380D01*
X443571428Y-231352000D01*
X443619047Y-231399619D01*
X443666666Y-231494857D01*
X443666666Y-231637714D01*
X443619047Y-231732952D01*
X443571428Y-231780571D01*
X443476190Y-231828190D01*
X443095238Y-231828190D01*
X444095238Y-231780571D02*
X444428571Y-231780571D01*
X444571428Y-232304380D02*
X444095238Y-232304380D01*
X444095238Y-231304380D01*
X444571428Y-231304380D01*
X445333333Y-231780571D02*
X445000000Y-231780571D01*
X445000000Y-232304380D02*
X445000000Y-231304380D01*
X445476190Y-231304380D01*
X446000000Y-231304380D02*
X446000000Y-231542476D01*
X445761904Y-231447238D02*
X446000000Y-231542476D01*
X446238095Y-231447238D01*
X445857142Y-231732952D02*
X446000000Y-231542476D01*
X446142857Y-231732952D01*
X446761904Y-231304380D02*
X446761904Y-231542476D01*
X446523809Y-231447238D02*
X446761904Y-231542476D01*
X447000000Y-231447238D01*
X446619047Y-231732952D02*
X446761904Y-231542476D01*
X446904761Y-231732952D01*
X443666666Y-228304380D02*
X443333333Y-227828190D01*
X443095238Y-228304380D02*
X443095238Y-227304380D01*
X443476190Y-227304380D01*
X443571428Y-227352000D01*
X443619047Y-227399619D01*
X443666666Y-227494857D01*
X443666666Y-227637714D01*
X443619047Y-227732952D01*
X443571428Y-227780571D01*
X443476190Y-227828190D01*
X443095238Y-227828190D01*
X444095238Y-227780571D02*
X444428571Y-227780571D01*
X444571428Y-228304380D02*
X444095238Y-228304380D01*
X444095238Y-227304380D01*
X444571428Y-227304380D01*
X445333333Y-227780571D02*
X445000000Y-227780571D01*
X445000000Y-228304380D02*
X445000000Y-227304380D01*
X445476190Y-227304380D01*
X446000000Y-227304380D02*
X446000000Y-227542476D01*
X445761904Y-227447238D02*
X446000000Y-227542476D01*
X446238095Y-227447238D01*
X445857142Y-227732952D02*
X446000000Y-227542476D01*
X446142857Y-227732952D01*
X446761904Y-227304380D02*
X446761904Y-227542476D01*
X446523809Y-227447238D02*
X446761904Y-227542476D01*
X447000000Y-227447238D01*
X446619047Y-227732952D02*
X446761904Y-227542476D01*
X446904761Y-227732952D01*
X443666666Y-223304380D02*
X443333333Y-222828190D01*
X443095238Y-223304380D02*
X443095238Y-222304380D01*
X443476190Y-222304380D01*
X443571428Y-222352000D01*
X443619047Y-222399619D01*
X443666666Y-222494857D01*
X443666666Y-222637714D01*
X443619047Y-222732952D01*
X443571428Y-222780571D01*
X443476190Y-222828190D01*
X443095238Y-222828190D01*
X444095238Y-222780571D02*
X444428571Y-222780571D01*
X444571428Y-223304380D02*
X444095238Y-223304380D01*
X444095238Y-222304380D01*
X444571428Y-222304380D01*
X445333333Y-222780571D02*
X445000000Y-222780571D01*
X445000000Y-223304380D02*
X445000000Y-222304380D01*
X445476190Y-222304380D01*
X446000000Y-222304380D02*
X446000000Y-222542476D01*
X445761904Y-222447238D02*
X446000000Y-222542476D01*
X446238095Y-222447238D01*
X445857142Y-222732952D02*
X446000000Y-222542476D01*
X446142857Y-222732952D01*
X446761904Y-222304380D02*
X446761904Y-222542476D01*
X446523809Y-222447238D02*
X446761904Y-222542476D01*
X447000000Y-222447238D01*
X446619047Y-222732952D02*
X446761904Y-222542476D01*
X446904761Y-222732952D01*
X443666666Y-219304380D02*
X443333333Y-218828190D01*
X443095238Y-219304380D02*
X443095238Y-218304380D01*
X443476190Y-218304380D01*
X443571428Y-218352000D01*
X443619047Y-218399619D01*
X443666666Y-218494857D01*
X443666666Y-218637714D01*
X443619047Y-218732952D01*
X443571428Y-218780571D01*
X443476190Y-218828190D01*
X443095238Y-218828190D01*
X444095238Y-218780571D02*
X444428571Y-218780571D01*
X444571428Y-219304380D02*
X444095238Y-219304380D01*
X444095238Y-218304380D01*
X444571428Y-218304380D01*
X445333333Y-218780571D02*
X445000000Y-218780571D01*
X445000000Y-219304380D02*
X445000000Y-218304380D01*
X445476190Y-218304380D01*
X446000000Y-218304380D02*
X446000000Y-218542476D01*
X445761904Y-218447238D02*
X446000000Y-218542476D01*
X446238095Y-218447238D01*
X445857142Y-218732952D02*
X446000000Y-218542476D01*
X446142857Y-218732952D01*
X446761904Y-218304380D02*
X446761904Y-218542476D01*
X446523809Y-218447238D02*
X446761904Y-218542476D01*
X447000000Y-218447238D01*
X446619047Y-218732952D02*
X446761904Y-218542476D01*
X446904761Y-218732952D01*
X443666666Y-214304380D02*
X443333333Y-213828190D01*
X443095238Y-214304380D02*
X443095238Y-213304380D01*
X443476190Y-213304380D01*
X443571428Y-213352000D01*
X443619047Y-213399619D01*
X443666666Y-213494857D01*
X443666666Y-213637714D01*
X443619047Y-213732952D01*
X443571428Y-213780571D01*
X443476190Y-213828190D01*
X443095238Y-213828190D01*
X444095238Y-213780571D02*
X444428571Y-213780571D01*
X444571428Y-214304380D02*
X444095238Y-214304380D01*
X444095238Y-213304380D01*
X444571428Y-213304380D01*
X445333333Y-213780571D02*
X445000000Y-213780571D01*
X445000000Y-214304380D02*
X445000000Y-213304380D01*
X445476190Y-213304380D01*
X446000000Y-213304380D02*
X446000000Y-213542476D01*
X445761904Y-213447238D02*
X446000000Y-213542476D01*
X446238095Y-213447238D01*
X445857142Y-213732952D02*
X446000000Y-213542476D01*
X446142857Y-213732952D01*
X446761904Y-213304380D02*
X446761904Y-213542476D01*
X446523809Y-213447238D02*
X446761904Y-213542476D01*
X447000000Y-213447238D01*
X446619047Y-213732952D02*
X446761904Y-213542476D01*
X446904761Y-213732952D01*
X443666666Y-210304380D02*
X443333333Y-209828190D01*
X443095238Y-210304380D02*
X443095238Y-209304380D01*
X443476190Y-209304380D01*
X443571428Y-209352000D01*
X443619047Y-209399619D01*
X443666666Y-209494857D01*
X443666666Y-209637714D01*
X443619047Y-209732952D01*
X443571428Y-209780571D01*
X443476190Y-209828190D01*
X443095238Y-209828190D01*
X444095238Y-209780571D02*
X444428571Y-209780571D01*
X444571428Y-210304380D02*
X444095238Y-210304380D01*
X444095238Y-209304380D01*
X444571428Y-209304380D01*
X445333333Y-209780571D02*
X445000000Y-209780571D01*
X445000000Y-210304380D02*
X445000000Y-209304380D01*
X445476190Y-209304380D01*
X446000000Y-209304380D02*
X446000000Y-209542476D01*
X445761904Y-209447238D02*
X446000000Y-209542476D01*
X446238095Y-209447238D01*
X445857142Y-209732952D02*
X446000000Y-209542476D01*
X446142857Y-209732952D01*
X446761904Y-209304380D02*
X446761904Y-209542476D01*
X446523809Y-209447238D02*
X446761904Y-209542476D01*
X447000000Y-209447238D01*
X446619047Y-209732952D02*
X446761904Y-209542476D01*
X446904761Y-209732952D01*
X443666666Y-205304380D02*
X443333333Y-204828190D01*
X443095238Y-205304380D02*
X443095238Y-204304380D01*
X443476190Y-204304380D01*
X443571428Y-204352000D01*
X443619047Y-204399619D01*
X443666666Y-204494857D01*
X443666666Y-204637714D01*
X443619047Y-204732952D01*
X443571428Y-204780571D01*
X443476190Y-204828190D01*
X443095238Y-204828190D01*
X444095238Y-204780571D02*
X444428571Y-204780571D01*
X444571428Y-205304380D02*
X444095238Y-205304380D01*
X444095238Y-204304380D01*
X444571428Y-204304380D01*
X445333333Y-204780571D02*
X445000000Y-204780571D01*
X445000000Y-205304380D02*
X445000000Y-204304380D01*
X445476190Y-204304380D01*
X446000000Y-204304380D02*
X446000000Y-204542476D01*
X445761904Y-204447238D02*
X446000000Y-204542476D01*
X446238095Y-204447238D01*
X445857142Y-204732952D02*
X446000000Y-204542476D01*
X446142857Y-204732952D01*
X446761904Y-204304380D02*
X446761904Y-204542476D01*
X446523809Y-204447238D02*
X446761904Y-204542476D01*
X447000000Y-204447238D01*
X446619047Y-204732952D02*
X446761904Y-204542476D01*
X446904761Y-204732952D01*
%TO.C,D1*%
X6261904Y-211882380D02*
X6261904Y-210882380D01*
X6500000Y-210882380D01*
X6642857Y-210930000D01*
X6738095Y-211025238D01*
X6785714Y-211120476D01*
X6833333Y-211310952D01*
X6833333Y-211453809D01*
X6785714Y-211644285D01*
X6738095Y-211739523D01*
X6642857Y-211834761D01*
X6500000Y-211882380D01*
X6261904Y-211882380D01*
X7785714Y-211882380D02*
X7214285Y-211882380D01*
X7500000Y-211882380D02*
X7500000Y-210882380D01*
X7404761Y-211025238D01*
X7309523Y-211120476D01*
X7214285Y-211168095D01*
%TO.C,D2*%
X26474404Y-211882380D02*
X26474404Y-210882380D01*
X26712500Y-210882380D01*
X26855357Y-210930000D01*
X26950595Y-211025238D01*
X26998214Y-211120476D01*
X27045833Y-211310952D01*
X27045833Y-211453809D01*
X26998214Y-211644285D01*
X26950595Y-211739523D01*
X26855357Y-211834761D01*
X26712500Y-211882380D01*
X26474404Y-211882380D01*
X27426785Y-210977619D02*
X27474404Y-210930000D01*
X27569642Y-210882380D01*
X27807738Y-210882380D01*
X27902976Y-210930000D01*
X27950595Y-210977619D01*
X27998214Y-211072857D01*
X27998214Y-211168095D01*
X27950595Y-211310952D01*
X27379166Y-211882380D01*
X27998214Y-211882380D01*
%TO.C,D3*%
X65474404Y-211882380D02*
X65474404Y-210882380D01*
X65712500Y-210882380D01*
X65855357Y-210930000D01*
X65950595Y-211025238D01*
X65998214Y-211120476D01*
X66045833Y-211310952D01*
X66045833Y-211453809D01*
X65998214Y-211644285D01*
X65950595Y-211739523D01*
X65855357Y-211834761D01*
X65712500Y-211882380D01*
X65474404Y-211882380D01*
X66379166Y-210882380D02*
X66998214Y-210882380D01*
X66664880Y-211263333D01*
X66807738Y-211263333D01*
X66902976Y-211310952D01*
X66950595Y-211358571D01*
X66998214Y-211453809D01*
X66998214Y-211691904D01*
X66950595Y-211787142D01*
X66902976Y-211834761D01*
X66807738Y-211882380D01*
X66522023Y-211882380D01*
X66426785Y-211834761D01*
X66379166Y-211787142D01*
%TO.C,D4*%
X99474404Y-211882380D02*
X99474404Y-210882380D01*
X99712500Y-210882380D01*
X99855357Y-210930000D01*
X99950595Y-211025238D01*
X99998214Y-211120476D01*
X100045833Y-211310952D01*
X100045833Y-211453809D01*
X99998214Y-211644285D01*
X99950595Y-211739523D01*
X99855357Y-211834761D01*
X99712500Y-211882380D01*
X99474404Y-211882380D01*
X100902976Y-211215714D02*
X100902976Y-211882380D01*
X100664880Y-210834761D02*
X100426785Y-211549047D01*
X101045833Y-211549047D01*
%TO.C,D5*%
X128474404Y-211882380D02*
X128474404Y-210882380D01*
X128712500Y-210882380D01*
X128855357Y-210930000D01*
X128950595Y-211025238D01*
X128998214Y-211120476D01*
X129045833Y-211310952D01*
X129045833Y-211453809D01*
X128998214Y-211644285D01*
X128950595Y-211739523D01*
X128855357Y-211834761D01*
X128712500Y-211882380D01*
X128474404Y-211882380D01*
X129950595Y-210882380D02*
X129474404Y-210882380D01*
X129426785Y-211358571D01*
X129474404Y-211310952D01*
X129569642Y-211263333D01*
X129807738Y-211263333D01*
X129902976Y-211310952D01*
X129950595Y-211358571D01*
X129998214Y-211453809D01*
X129998214Y-211691904D01*
X129950595Y-211787142D01*
X129902976Y-211834761D01*
X129807738Y-211882380D01*
X129569642Y-211882380D01*
X129474404Y-211834761D01*
X129426785Y-211787142D01*
%TO.C,D6*%
X158261904Y-211882380D02*
X158261904Y-210882380D01*
X158500000Y-210882380D01*
X158642857Y-210930000D01*
X158738095Y-211025238D01*
X158785714Y-211120476D01*
X158833333Y-211310952D01*
X158833333Y-211453809D01*
X158785714Y-211644285D01*
X158738095Y-211739523D01*
X158642857Y-211834761D01*
X158500000Y-211882380D01*
X158261904Y-211882380D01*
X159690476Y-210882380D02*
X159500000Y-210882380D01*
X159404761Y-210930000D01*
X159357142Y-210977619D01*
X159261904Y-211120476D01*
X159214285Y-211310952D01*
X159214285Y-211691904D01*
X159261904Y-211787142D01*
X159309523Y-211834761D01*
X159404761Y-211882380D01*
X159595238Y-211882380D01*
X159690476Y-211834761D01*
X159738095Y-211787142D01*
X159785714Y-211691904D01*
X159785714Y-211453809D01*
X159738095Y-211358571D01*
X159690476Y-211310952D01*
X159595238Y-211263333D01*
X159404761Y-211263333D01*
X159309523Y-211310952D01*
X159261904Y-211358571D01*
X159214285Y-211453809D01*
%TO.C,D7*%
X184261904Y-211882380D02*
X184261904Y-210882380D01*
X184500000Y-210882380D01*
X184642857Y-210930000D01*
X184738095Y-211025238D01*
X184785714Y-211120476D01*
X184833333Y-211310952D01*
X184833333Y-211453809D01*
X184785714Y-211644285D01*
X184738095Y-211739523D01*
X184642857Y-211834761D01*
X184500000Y-211882380D01*
X184261904Y-211882380D01*
X185166666Y-210882380D02*
X185833333Y-210882380D01*
X185404761Y-211882380D01*
%TO.C,D8*%
X209474404Y-211882380D02*
X209474404Y-210882380D01*
X209712500Y-210882380D01*
X209855357Y-210930000D01*
X209950595Y-211025238D01*
X209998214Y-211120476D01*
X210045833Y-211310952D01*
X210045833Y-211453809D01*
X209998214Y-211644285D01*
X209950595Y-211739523D01*
X209855357Y-211834761D01*
X209712500Y-211882380D01*
X209474404Y-211882380D01*
X210617261Y-211310952D02*
X210522023Y-211263333D01*
X210474404Y-211215714D01*
X210426785Y-211120476D01*
X210426785Y-211072857D01*
X210474404Y-210977619D01*
X210522023Y-210930000D01*
X210617261Y-210882380D01*
X210807738Y-210882380D01*
X210902976Y-210930000D01*
X210950595Y-210977619D01*
X210998214Y-211072857D01*
X210998214Y-211120476D01*
X210950595Y-211215714D01*
X210902976Y-211263333D01*
X210807738Y-211310952D01*
X210617261Y-211310952D01*
X210522023Y-211358571D01*
X210474404Y-211406190D01*
X210426785Y-211501428D01*
X210426785Y-211691904D01*
X210474404Y-211787142D01*
X210522023Y-211834761D01*
X210617261Y-211882380D01*
X210807738Y-211882380D01*
X210902976Y-211834761D01*
X210950595Y-211787142D01*
X210998214Y-211691904D01*
X210998214Y-211501428D01*
X210950595Y-211406190D01*
X210902976Y-211358571D01*
X210807738Y-211310952D01*
%TO.C,D9*%
X233261904Y-211882380D02*
X233261904Y-210882380D01*
X233500000Y-210882380D01*
X233642857Y-210930000D01*
X233738095Y-211025238D01*
X233785714Y-211120476D01*
X233833333Y-211310952D01*
X233833333Y-211453809D01*
X233785714Y-211644285D01*
X233738095Y-211739523D01*
X233642857Y-211834761D01*
X233500000Y-211882380D01*
X233261904Y-211882380D01*
X234309523Y-211882380D02*
X234500000Y-211882380D01*
X234595238Y-211834761D01*
X234642857Y-211787142D01*
X234738095Y-211644285D01*
X234785714Y-211453809D01*
X234785714Y-211072857D01*
X234738095Y-210977619D01*
X234690476Y-210930000D01*
X234595238Y-210882380D01*
X234404761Y-210882380D01*
X234309523Y-210930000D01*
X234261904Y-210977619D01*
X234214285Y-211072857D01*
X234214285Y-211310952D01*
X234261904Y-211406190D01*
X234309523Y-211453809D01*
X234404761Y-211501428D01*
X234595238Y-211501428D01*
X234690476Y-211453809D01*
X234738095Y-211406190D01*
X234785714Y-211310952D01*
%TO.C,D10*%
X255785714Y-211882380D02*
X255785714Y-210882380D01*
X256023809Y-210882380D01*
X256166666Y-210930000D01*
X256261904Y-211025238D01*
X256309523Y-211120476D01*
X256357142Y-211310952D01*
X256357142Y-211453809D01*
X256309523Y-211644285D01*
X256261904Y-211739523D01*
X256166666Y-211834761D01*
X256023809Y-211882380D01*
X255785714Y-211882380D01*
X257309523Y-211882380D02*
X256738095Y-211882380D01*
X257023809Y-211882380D02*
X257023809Y-210882380D01*
X256928571Y-211025238D01*
X256833333Y-211120476D01*
X256738095Y-211168095D01*
X257928571Y-210882380D02*
X258023809Y-210882380D01*
X258119047Y-210930000D01*
X258166666Y-210977619D01*
X258214285Y-211072857D01*
X258261904Y-211263333D01*
X258261904Y-211501428D01*
X258214285Y-211691904D01*
X258166666Y-211787142D01*
X258119047Y-211834761D01*
X258023809Y-211882380D01*
X257928571Y-211882380D01*
X257833333Y-211834761D01*
X257785714Y-211787142D01*
X257738095Y-211691904D01*
X257690476Y-211501428D01*
X257690476Y-211263333D01*
X257738095Y-211072857D01*
X257785714Y-210977619D01*
X257833333Y-210930000D01*
X257928571Y-210882380D01*
%TO.C,D11*%
X277998214Y-211882380D02*
X277998214Y-210882380D01*
X278236309Y-210882380D01*
X278379166Y-210930000D01*
X278474404Y-211025238D01*
X278522023Y-211120476D01*
X278569642Y-211310952D01*
X278569642Y-211453809D01*
X278522023Y-211644285D01*
X278474404Y-211739523D01*
X278379166Y-211834761D01*
X278236309Y-211882380D01*
X277998214Y-211882380D01*
X279522023Y-211882380D02*
X278950595Y-211882380D01*
X279236309Y-211882380D02*
X279236309Y-210882380D01*
X279141071Y-211025238D01*
X279045833Y-211120476D01*
X278950595Y-211168095D01*
X280474404Y-211882380D02*
X279902976Y-211882380D01*
X280188690Y-211882380D02*
X280188690Y-210882380D01*
X280093452Y-211025238D01*
X279998214Y-211120476D01*
X279902976Y-211168095D01*
%TO.C,D12*%
X298785714Y-211882380D02*
X298785714Y-210882380D01*
X299023809Y-210882380D01*
X299166666Y-210930000D01*
X299261904Y-211025238D01*
X299309523Y-211120476D01*
X299357142Y-211310952D01*
X299357142Y-211453809D01*
X299309523Y-211644285D01*
X299261904Y-211739523D01*
X299166666Y-211834761D01*
X299023809Y-211882380D01*
X298785714Y-211882380D01*
X300309523Y-211882380D02*
X299738095Y-211882380D01*
X300023809Y-211882380D02*
X300023809Y-210882380D01*
X299928571Y-211025238D01*
X299833333Y-211120476D01*
X299738095Y-211168095D01*
X300690476Y-210977619D02*
X300738095Y-210930000D01*
X300833333Y-210882380D01*
X301071428Y-210882380D01*
X301166666Y-210930000D01*
X301214285Y-210977619D01*
X301261904Y-211072857D01*
X301261904Y-211168095D01*
X301214285Y-211310952D01*
X300642857Y-211882380D01*
X301261904Y-211882380D01*
%TO.C,D13*%
X317785714Y-211882380D02*
X317785714Y-210882380D01*
X318023809Y-210882380D01*
X318166666Y-210930000D01*
X318261904Y-211025238D01*
X318309523Y-211120476D01*
X318357142Y-211310952D01*
X318357142Y-211453809D01*
X318309523Y-211644285D01*
X318261904Y-211739523D01*
X318166666Y-211834761D01*
X318023809Y-211882380D01*
X317785714Y-211882380D01*
X319309523Y-211882380D02*
X318738095Y-211882380D01*
X319023809Y-211882380D02*
X319023809Y-210882380D01*
X318928571Y-211025238D01*
X318833333Y-211120476D01*
X318738095Y-211168095D01*
X319642857Y-210882380D02*
X320261904Y-210882380D01*
X319928571Y-211263333D01*
X320071428Y-211263333D01*
X320166666Y-211310952D01*
X320214285Y-211358571D01*
X320261904Y-211453809D01*
X320261904Y-211691904D01*
X320214285Y-211787142D01*
X320166666Y-211834761D01*
X320071428Y-211882380D01*
X319785714Y-211882380D01*
X319690476Y-211834761D01*
X319642857Y-211787142D01*
%TO.C,D14*%
X334998214Y-211882380D02*
X334998214Y-210882380D01*
X335236309Y-210882380D01*
X335379166Y-210930000D01*
X335474404Y-211025238D01*
X335522023Y-211120476D01*
X335569642Y-211310952D01*
X335569642Y-211453809D01*
X335522023Y-211644285D01*
X335474404Y-211739523D01*
X335379166Y-211834761D01*
X335236309Y-211882380D01*
X334998214Y-211882380D01*
X336522023Y-211882380D02*
X335950595Y-211882380D01*
X336236309Y-211882380D02*
X336236309Y-210882380D01*
X336141071Y-211025238D01*
X336045833Y-211120476D01*
X335950595Y-211168095D01*
X337379166Y-211215714D02*
X337379166Y-211882380D01*
X337141071Y-210834761D02*
X336902976Y-211549047D01*
X337522023Y-211549047D01*
%TO.C,D15*%
X352998214Y-211882380D02*
X352998214Y-210882380D01*
X353236309Y-210882380D01*
X353379166Y-210930000D01*
X353474404Y-211025238D01*
X353522023Y-211120476D01*
X353569642Y-211310952D01*
X353569642Y-211453809D01*
X353522023Y-211644285D01*
X353474404Y-211739523D01*
X353379166Y-211834761D01*
X353236309Y-211882380D01*
X352998214Y-211882380D01*
X354522023Y-211882380D02*
X353950595Y-211882380D01*
X354236309Y-211882380D02*
X354236309Y-210882380D01*
X354141071Y-211025238D01*
X354045833Y-211120476D01*
X353950595Y-211168095D01*
X355426785Y-210882380D02*
X354950595Y-210882380D01*
X354902976Y-211358571D01*
X354950595Y-211310952D01*
X355045833Y-211263333D01*
X355283928Y-211263333D01*
X355379166Y-211310952D01*
X355426785Y-211358571D01*
X355474404Y-211453809D01*
X355474404Y-211691904D01*
X355426785Y-211787142D01*
X355379166Y-211834761D01*
X355283928Y-211882380D01*
X355045833Y-211882380D01*
X354950595Y-211834761D01*
X354902976Y-211787142D01*
%TO.C,D16*%
X369785714Y-211882380D02*
X369785714Y-210882380D01*
X370023809Y-210882380D01*
X370166666Y-210930000D01*
X370261904Y-211025238D01*
X370309523Y-211120476D01*
X370357142Y-211310952D01*
X370357142Y-211453809D01*
X370309523Y-211644285D01*
X370261904Y-211739523D01*
X370166666Y-211834761D01*
X370023809Y-211882380D01*
X369785714Y-211882380D01*
X371309523Y-211882380D02*
X370738095Y-211882380D01*
X371023809Y-211882380D02*
X371023809Y-210882380D01*
X370928571Y-211025238D01*
X370833333Y-211120476D01*
X370738095Y-211168095D01*
X372166666Y-210882380D02*
X371976190Y-210882380D01*
X371880952Y-210930000D01*
X371833333Y-210977619D01*
X371738095Y-211120476D01*
X371690476Y-211310952D01*
X371690476Y-211691904D01*
X371738095Y-211787142D01*
X371785714Y-211834761D01*
X371880952Y-211882380D01*
X372071428Y-211882380D01*
X372166666Y-211834761D01*
X372214285Y-211787142D01*
X372261904Y-211691904D01*
X372261904Y-211453809D01*
X372214285Y-211358571D01*
X372166666Y-211310952D01*
X372071428Y-211263333D01*
X371880952Y-211263333D01*
X371785714Y-211310952D01*
X371738095Y-211358571D01*
X371690476Y-211453809D01*
%TO.C,D17*%
X385785714Y-211882380D02*
X385785714Y-210882380D01*
X386023809Y-210882380D01*
X386166666Y-210930000D01*
X386261904Y-211025238D01*
X386309523Y-211120476D01*
X386357142Y-211310952D01*
X386357142Y-211453809D01*
X386309523Y-211644285D01*
X386261904Y-211739523D01*
X386166666Y-211834761D01*
X386023809Y-211882380D01*
X385785714Y-211882380D01*
X387309523Y-211882380D02*
X386738095Y-211882380D01*
X387023809Y-211882380D02*
X387023809Y-210882380D01*
X386928571Y-211025238D01*
X386833333Y-211120476D01*
X386738095Y-211168095D01*
X387642857Y-210882380D02*
X388309523Y-210882380D01*
X387880952Y-211882380D01*
%TO.C,D18*%
X399785714Y-211882380D02*
X399785714Y-210882380D01*
X400023809Y-210882380D01*
X400166666Y-210930000D01*
X400261904Y-211025238D01*
X400309523Y-211120476D01*
X400357142Y-211310952D01*
X400357142Y-211453809D01*
X400309523Y-211644285D01*
X400261904Y-211739523D01*
X400166666Y-211834761D01*
X400023809Y-211882380D01*
X399785714Y-211882380D01*
X401309523Y-211882380D02*
X400738095Y-211882380D01*
X401023809Y-211882380D02*
X401023809Y-210882380D01*
X400928571Y-211025238D01*
X400833333Y-211120476D01*
X400738095Y-211168095D01*
X401880952Y-211310952D02*
X401785714Y-211263333D01*
X401738095Y-211215714D01*
X401690476Y-211120476D01*
X401690476Y-211072857D01*
X401738095Y-210977619D01*
X401785714Y-210930000D01*
X401880952Y-210882380D01*
X402071428Y-210882380D01*
X402166666Y-210930000D01*
X402214285Y-210977619D01*
X402261904Y-211072857D01*
X402261904Y-211120476D01*
X402214285Y-211215714D01*
X402166666Y-211263333D01*
X402071428Y-211310952D01*
X401880952Y-211310952D01*
X401785714Y-211358571D01*
X401738095Y-211406190D01*
X401690476Y-211501428D01*
X401690476Y-211691904D01*
X401738095Y-211787142D01*
X401785714Y-211834761D01*
X401880952Y-211882380D01*
X402071428Y-211882380D01*
X402166666Y-211834761D01*
X402214285Y-211787142D01*
X402261904Y-211691904D01*
X402261904Y-211501428D01*
X402214285Y-211406190D01*
X402166666Y-211358571D01*
X402071428Y-211310952D01*
%TO.C,D19*%
X412998214Y-211882380D02*
X412998214Y-210882380D01*
X413236309Y-210882380D01*
X413379166Y-210930000D01*
X413474404Y-211025238D01*
X413522023Y-211120476D01*
X413569642Y-211310952D01*
X413569642Y-211453809D01*
X413522023Y-211644285D01*
X413474404Y-211739523D01*
X413379166Y-211834761D01*
X413236309Y-211882380D01*
X412998214Y-211882380D01*
X414522023Y-211882380D02*
X413950595Y-211882380D01*
X414236309Y-211882380D02*
X414236309Y-210882380D01*
X414141071Y-211025238D01*
X414045833Y-211120476D01*
X413950595Y-211168095D01*
X414998214Y-211882380D02*
X415188690Y-211882380D01*
X415283928Y-211834761D01*
X415331547Y-211787142D01*
X415426785Y-211644285D01*
X415474404Y-211453809D01*
X415474404Y-211072857D01*
X415426785Y-210977619D01*
X415379166Y-210930000D01*
X415283928Y-210882380D01*
X415093452Y-210882380D01*
X414998214Y-210930000D01*
X414950595Y-210977619D01*
X414902976Y-211072857D01*
X414902976Y-211310952D01*
X414950595Y-211406190D01*
X414998214Y-211453809D01*
X415093452Y-211501428D01*
X415283928Y-211501428D01*
X415379166Y-211453809D01*
X415426785Y-211406190D01*
X415474404Y-211310952D01*
%TO.C,D20*%
X425998214Y-211882380D02*
X425998214Y-210882380D01*
X426236309Y-210882380D01*
X426379166Y-210930000D01*
X426474404Y-211025238D01*
X426522023Y-211120476D01*
X426569642Y-211310952D01*
X426569642Y-211453809D01*
X426522023Y-211644285D01*
X426474404Y-211739523D01*
X426379166Y-211834761D01*
X426236309Y-211882380D01*
X425998214Y-211882380D01*
X426950595Y-210977619D02*
X426998214Y-210930000D01*
X427093452Y-210882380D01*
X427331547Y-210882380D01*
X427426785Y-210930000D01*
X427474404Y-210977619D01*
X427522023Y-211072857D01*
X427522023Y-211168095D01*
X427474404Y-211310952D01*
X426902976Y-211882380D01*
X427522023Y-211882380D01*
X428141071Y-210882380D02*
X428236309Y-210882380D01*
X428331547Y-210930000D01*
X428379166Y-210977619D01*
X428426785Y-211072857D01*
X428474404Y-211263333D01*
X428474404Y-211501428D01*
X428426785Y-211691904D01*
X428379166Y-211787142D01*
X428331547Y-211834761D01*
X428236309Y-211882380D01*
X428141071Y-211882380D01*
X428045833Y-211834761D01*
X427998214Y-211787142D01*
X427950595Y-211691904D01*
X427902976Y-211501428D01*
X427902976Y-211263333D01*
X427950595Y-211072857D01*
X427998214Y-210977619D01*
X428045833Y-210930000D01*
X428141071Y-210882380D01*
%TO.C,D21*%
X437998214Y-211882380D02*
X437998214Y-210882380D01*
X438236309Y-210882380D01*
X438379166Y-210930000D01*
X438474404Y-211025238D01*
X438522023Y-211120476D01*
X438569642Y-211310952D01*
X438569642Y-211453809D01*
X438522023Y-211644285D01*
X438474404Y-211739523D01*
X438379166Y-211834761D01*
X438236309Y-211882380D01*
X437998214Y-211882380D01*
X438950595Y-210977619D02*
X438998214Y-210930000D01*
X439093452Y-210882380D01*
X439331547Y-210882380D01*
X439426785Y-210930000D01*
X439474404Y-210977619D01*
X439522023Y-211072857D01*
X439522023Y-211168095D01*
X439474404Y-211310952D01*
X438902976Y-211882380D01*
X439522023Y-211882380D01*
X440474404Y-211882380D02*
X439902976Y-211882380D01*
X440188690Y-211882380D02*
X440188690Y-210882380D01*
X440093452Y-211025238D01*
X439998214Y-211120476D01*
X439902976Y-211168095D01*
%TO.C,D23*%
X5785714Y-220882380D02*
X5785714Y-219882380D01*
X6023809Y-219882380D01*
X6166666Y-219930000D01*
X6261904Y-220025238D01*
X6309523Y-220120476D01*
X6357142Y-220310952D01*
X6357142Y-220453809D01*
X6309523Y-220644285D01*
X6261904Y-220739523D01*
X6166666Y-220834761D01*
X6023809Y-220882380D01*
X5785714Y-220882380D01*
X6738095Y-219977619D02*
X6785714Y-219930000D01*
X6880952Y-219882380D01*
X7119047Y-219882380D01*
X7214285Y-219930000D01*
X7261904Y-219977619D01*
X7309523Y-220072857D01*
X7309523Y-220168095D01*
X7261904Y-220310952D01*
X6690476Y-220882380D01*
X7309523Y-220882380D01*
X7642857Y-219882380D02*
X8261904Y-219882380D01*
X7928571Y-220263333D01*
X8071428Y-220263333D01*
X8166666Y-220310952D01*
X8214285Y-220358571D01*
X8261904Y-220453809D01*
X8261904Y-220691904D01*
X8214285Y-220787142D01*
X8166666Y-220834761D01*
X8071428Y-220882380D01*
X7785714Y-220882380D01*
X7690476Y-220834761D01*
X7642857Y-220787142D01*
%TO.C,D24*%
X25998214Y-220882380D02*
X25998214Y-219882380D01*
X26236309Y-219882380D01*
X26379166Y-219930000D01*
X26474404Y-220025238D01*
X26522023Y-220120476D01*
X26569642Y-220310952D01*
X26569642Y-220453809D01*
X26522023Y-220644285D01*
X26474404Y-220739523D01*
X26379166Y-220834761D01*
X26236309Y-220882380D01*
X25998214Y-220882380D01*
X26950595Y-219977619D02*
X26998214Y-219930000D01*
X27093452Y-219882380D01*
X27331547Y-219882380D01*
X27426785Y-219930000D01*
X27474404Y-219977619D01*
X27522023Y-220072857D01*
X27522023Y-220168095D01*
X27474404Y-220310952D01*
X26902976Y-220882380D01*
X27522023Y-220882380D01*
X28379166Y-220215714D02*
X28379166Y-220882380D01*
X28141071Y-219834761D02*
X27902976Y-220549047D01*
X28522023Y-220549047D01*
%TO.C,D25*%
X64998214Y-220882380D02*
X64998214Y-219882380D01*
X65236309Y-219882380D01*
X65379166Y-219930000D01*
X65474404Y-220025238D01*
X65522023Y-220120476D01*
X65569642Y-220310952D01*
X65569642Y-220453809D01*
X65522023Y-220644285D01*
X65474404Y-220739523D01*
X65379166Y-220834761D01*
X65236309Y-220882380D01*
X64998214Y-220882380D01*
X65950595Y-219977619D02*
X65998214Y-219930000D01*
X66093452Y-219882380D01*
X66331547Y-219882380D01*
X66426785Y-219930000D01*
X66474404Y-219977619D01*
X66522023Y-220072857D01*
X66522023Y-220168095D01*
X66474404Y-220310952D01*
X65902976Y-220882380D01*
X66522023Y-220882380D01*
X67426785Y-219882380D02*
X66950595Y-219882380D01*
X66902976Y-220358571D01*
X66950595Y-220310952D01*
X67045833Y-220263333D01*
X67283928Y-220263333D01*
X67379166Y-220310952D01*
X67426785Y-220358571D01*
X67474404Y-220453809D01*
X67474404Y-220691904D01*
X67426785Y-220787142D01*
X67379166Y-220834761D01*
X67283928Y-220882380D01*
X67045833Y-220882380D01*
X66950595Y-220834761D01*
X66902976Y-220787142D01*
%TO.C,D26*%
X98998214Y-220882380D02*
X98998214Y-219882380D01*
X99236309Y-219882380D01*
X99379166Y-219930000D01*
X99474404Y-220025238D01*
X99522023Y-220120476D01*
X99569642Y-220310952D01*
X99569642Y-220453809D01*
X99522023Y-220644285D01*
X99474404Y-220739523D01*
X99379166Y-220834761D01*
X99236309Y-220882380D01*
X98998214Y-220882380D01*
X99950595Y-219977619D02*
X99998214Y-219930000D01*
X100093452Y-219882380D01*
X100331547Y-219882380D01*
X100426785Y-219930000D01*
X100474404Y-219977619D01*
X100522023Y-220072857D01*
X100522023Y-220168095D01*
X100474404Y-220310952D01*
X99902976Y-220882380D01*
X100522023Y-220882380D01*
X101379166Y-219882380D02*
X101188690Y-219882380D01*
X101093452Y-219930000D01*
X101045833Y-219977619D01*
X100950595Y-220120476D01*
X100902976Y-220310952D01*
X100902976Y-220691904D01*
X100950595Y-220787142D01*
X100998214Y-220834761D01*
X101093452Y-220882380D01*
X101283928Y-220882380D01*
X101379166Y-220834761D01*
X101426785Y-220787142D01*
X101474404Y-220691904D01*
X101474404Y-220453809D01*
X101426785Y-220358571D01*
X101379166Y-220310952D01*
X101283928Y-220263333D01*
X101093452Y-220263333D01*
X100998214Y-220310952D01*
X100950595Y-220358571D01*
X100902976Y-220453809D01*
%TO.C,D27*%
X127998214Y-220882380D02*
X127998214Y-219882380D01*
X128236309Y-219882380D01*
X128379166Y-219930000D01*
X128474404Y-220025238D01*
X128522023Y-220120476D01*
X128569642Y-220310952D01*
X128569642Y-220453809D01*
X128522023Y-220644285D01*
X128474404Y-220739523D01*
X128379166Y-220834761D01*
X128236309Y-220882380D01*
X127998214Y-220882380D01*
X128950595Y-219977619D02*
X128998214Y-219930000D01*
X129093452Y-219882380D01*
X129331547Y-219882380D01*
X129426785Y-219930000D01*
X129474404Y-219977619D01*
X129522023Y-220072857D01*
X129522023Y-220168095D01*
X129474404Y-220310952D01*
X128902976Y-220882380D01*
X129522023Y-220882380D01*
X129855357Y-219882380D02*
X130522023Y-219882380D01*
X130093452Y-220882380D01*
%TO.C,D28*%
X157785714Y-220882380D02*
X157785714Y-219882380D01*
X158023809Y-219882380D01*
X158166666Y-219930000D01*
X158261904Y-220025238D01*
X158309523Y-220120476D01*
X158357142Y-220310952D01*
X158357142Y-220453809D01*
X158309523Y-220644285D01*
X158261904Y-220739523D01*
X158166666Y-220834761D01*
X158023809Y-220882380D01*
X157785714Y-220882380D01*
X158738095Y-219977619D02*
X158785714Y-219930000D01*
X158880952Y-219882380D01*
X159119047Y-219882380D01*
X159214285Y-219930000D01*
X159261904Y-219977619D01*
X159309523Y-220072857D01*
X159309523Y-220168095D01*
X159261904Y-220310952D01*
X158690476Y-220882380D01*
X159309523Y-220882380D01*
X159880952Y-220310952D02*
X159785714Y-220263333D01*
X159738095Y-220215714D01*
X159690476Y-220120476D01*
X159690476Y-220072857D01*
X159738095Y-219977619D01*
X159785714Y-219930000D01*
X159880952Y-219882380D01*
X160071428Y-219882380D01*
X160166666Y-219930000D01*
X160214285Y-219977619D01*
X160261904Y-220072857D01*
X160261904Y-220120476D01*
X160214285Y-220215714D01*
X160166666Y-220263333D01*
X160071428Y-220310952D01*
X159880952Y-220310952D01*
X159785714Y-220358571D01*
X159738095Y-220406190D01*
X159690476Y-220501428D01*
X159690476Y-220691904D01*
X159738095Y-220787142D01*
X159785714Y-220834761D01*
X159880952Y-220882380D01*
X160071428Y-220882380D01*
X160166666Y-220834761D01*
X160214285Y-220787142D01*
X160261904Y-220691904D01*
X160261904Y-220501428D01*
X160214285Y-220406190D01*
X160166666Y-220358571D01*
X160071428Y-220310952D01*
%TO.C,D29*%
X183785714Y-220882380D02*
X183785714Y-219882380D01*
X184023809Y-219882380D01*
X184166666Y-219930000D01*
X184261904Y-220025238D01*
X184309523Y-220120476D01*
X184357142Y-220310952D01*
X184357142Y-220453809D01*
X184309523Y-220644285D01*
X184261904Y-220739523D01*
X184166666Y-220834761D01*
X184023809Y-220882380D01*
X183785714Y-220882380D01*
X184738095Y-219977619D02*
X184785714Y-219930000D01*
X184880952Y-219882380D01*
X185119047Y-219882380D01*
X185214285Y-219930000D01*
X185261904Y-219977619D01*
X185309523Y-220072857D01*
X185309523Y-220168095D01*
X185261904Y-220310952D01*
X184690476Y-220882380D01*
X185309523Y-220882380D01*
X185785714Y-220882380D02*
X185976190Y-220882380D01*
X186071428Y-220834761D01*
X186119047Y-220787142D01*
X186214285Y-220644285D01*
X186261904Y-220453809D01*
X186261904Y-220072857D01*
X186214285Y-219977619D01*
X186166666Y-219930000D01*
X186071428Y-219882380D01*
X185880952Y-219882380D01*
X185785714Y-219930000D01*
X185738095Y-219977619D01*
X185690476Y-220072857D01*
X185690476Y-220310952D01*
X185738095Y-220406190D01*
X185785714Y-220453809D01*
X185880952Y-220501428D01*
X186071428Y-220501428D01*
X186166666Y-220453809D01*
X186214285Y-220406190D01*
X186261904Y-220310952D01*
%TO.C,D30*%
X208998214Y-220882380D02*
X208998214Y-219882380D01*
X209236309Y-219882380D01*
X209379166Y-219930000D01*
X209474404Y-220025238D01*
X209522023Y-220120476D01*
X209569642Y-220310952D01*
X209569642Y-220453809D01*
X209522023Y-220644285D01*
X209474404Y-220739523D01*
X209379166Y-220834761D01*
X209236309Y-220882380D01*
X208998214Y-220882380D01*
X209902976Y-219882380D02*
X210522023Y-219882380D01*
X210188690Y-220263333D01*
X210331547Y-220263333D01*
X210426785Y-220310952D01*
X210474404Y-220358571D01*
X210522023Y-220453809D01*
X210522023Y-220691904D01*
X210474404Y-220787142D01*
X210426785Y-220834761D01*
X210331547Y-220882380D01*
X210045833Y-220882380D01*
X209950595Y-220834761D01*
X209902976Y-220787142D01*
X211141071Y-219882380D02*
X211236309Y-219882380D01*
X211331547Y-219930000D01*
X211379166Y-219977619D01*
X211426785Y-220072857D01*
X211474404Y-220263333D01*
X211474404Y-220501428D01*
X211426785Y-220691904D01*
X211379166Y-220787142D01*
X211331547Y-220834761D01*
X211236309Y-220882380D01*
X211141071Y-220882380D01*
X211045833Y-220834761D01*
X210998214Y-220787142D01*
X210950595Y-220691904D01*
X210902976Y-220501428D01*
X210902976Y-220263333D01*
X210950595Y-220072857D01*
X210998214Y-219977619D01*
X211045833Y-219930000D01*
X211141071Y-219882380D01*
%TO.C,D31*%
X232785714Y-220882380D02*
X232785714Y-219882380D01*
X233023809Y-219882380D01*
X233166666Y-219930000D01*
X233261904Y-220025238D01*
X233309523Y-220120476D01*
X233357142Y-220310952D01*
X233357142Y-220453809D01*
X233309523Y-220644285D01*
X233261904Y-220739523D01*
X233166666Y-220834761D01*
X233023809Y-220882380D01*
X232785714Y-220882380D01*
X233690476Y-219882380D02*
X234309523Y-219882380D01*
X233976190Y-220263333D01*
X234119047Y-220263333D01*
X234214285Y-220310952D01*
X234261904Y-220358571D01*
X234309523Y-220453809D01*
X234309523Y-220691904D01*
X234261904Y-220787142D01*
X234214285Y-220834761D01*
X234119047Y-220882380D01*
X233833333Y-220882380D01*
X233738095Y-220834761D01*
X233690476Y-220787142D01*
X235261904Y-220882380D02*
X234690476Y-220882380D01*
X234976190Y-220882380D02*
X234976190Y-219882380D01*
X234880952Y-220025238D01*
X234785714Y-220120476D01*
X234690476Y-220168095D01*
%TO.C,D32*%
X255785714Y-220882380D02*
X255785714Y-219882380D01*
X256023809Y-219882380D01*
X256166666Y-219930000D01*
X256261904Y-220025238D01*
X256309523Y-220120476D01*
X256357142Y-220310952D01*
X256357142Y-220453809D01*
X256309523Y-220644285D01*
X256261904Y-220739523D01*
X256166666Y-220834761D01*
X256023809Y-220882380D01*
X255785714Y-220882380D01*
X256690476Y-219882380D02*
X257309523Y-219882380D01*
X256976190Y-220263333D01*
X257119047Y-220263333D01*
X257214285Y-220310952D01*
X257261904Y-220358571D01*
X257309523Y-220453809D01*
X257309523Y-220691904D01*
X257261904Y-220787142D01*
X257214285Y-220834761D01*
X257119047Y-220882380D01*
X256833333Y-220882380D01*
X256738095Y-220834761D01*
X256690476Y-220787142D01*
X257690476Y-219977619D02*
X257738095Y-219930000D01*
X257833333Y-219882380D01*
X258071428Y-219882380D01*
X258166666Y-219930000D01*
X258214285Y-219977619D01*
X258261904Y-220072857D01*
X258261904Y-220168095D01*
X258214285Y-220310952D01*
X257642857Y-220882380D01*
X258261904Y-220882380D01*
%TO.C,D33*%
X277998214Y-220882380D02*
X277998214Y-219882380D01*
X278236309Y-219882380D01*
X278379166Y-219930000D01*
X278474404Y-220025238D01*
X278522023Y-220120476D01*
X278569642Y-220310952D01*
X278569642Y-220453809D01*
X278522023Y-220644285D01*
X278474404Y-220739523D01*
X278379166Y-220834761D01*
X278236309Y-220882380D01*
X277998214Y-220882380D01*
X278902976Y-219882380D02*
X279522023Y-219882380D01*
X279188690Y-220263333D01*
X279331547Y-220263333D01*
X279426785Y-220310952D01*
X279474404Y-220358571D01*
X279522023Y-220453809D01*
X279522023Y-220691904D01*
X279474404Y-220787142D01*
X279426785Y-220834761D01*
X279331547Y-220882380D01*
X279045833Y-220882380D01*
X278950595Y-220834761D01*
X278902976Y-220787142D01*
X279855357Y-219882380D02*
X280474404Y-219882380D01*
X280141071Y-220263333D01*
X280283928Y-220263333D01*
X280379166Y-220310952D01*
X280426785Y-220358571D01*
X280474404Y-220453809D01*
X280474404Y-220691904D01*
X280426785Y-220787142D01*
X280379166Y-220834761D01*
X280283928Y-220882380D01*
X279998214Y-220882380D01*
X279902976Y-220834761D01*
X279855357Y-220787142D01*
%TO.C,D34*%
X298785714Y-220882380D02*
X298785714Y-219882380D01*
X299023809Y-219882380D01*
X299166666Y-219930000D01*
X299261904Y-220025238D01*
X299309523Y-220120476D01*
X299357142Y-220310952D01*
X299357142Y-220453809D01*
X299309523Y-220644285D01*
X299261904Y-220739523D01*
X299166666Y-220834761D01*
X299023809Y-220882380D01*
X298785714Y-220882380D01*
X299690476Y-219882380D02*
X300309523Y-219882380D01*
X299976190Y-220263333D01*
X300119047Y-220263333D01*
X300214285Y-220310952D01*
X300261904Y-220358571D01*
X300309523Y-220453809D01*
X300309523Y-220691904D01*
X300261904Y-220787142D01*
X300214285Y-220834761D01*
X300119047Y-220882380D01*
X299833333Y-220882380D01*
X299738095Y-220834761D01*
X299690476Y-220787142D01*
X301166666Y-220215714D02*
X301166666Y-220882380D01*
X300928571Y-219834761D02*
X300690476Y-220549047D01*
X301309523Y-220549047D01*
%TO.C,D35*%
X317785714Y-220882380D02*
X317785714Y-219882380D01*
X318023809Y-219882380D01*
X318166666Y-219930000D01*
X318261904Y-220025238D01*
X318309523Y-220120476D01*
X318357142Y-220310952D01*
X318357142Y-220453809D01*
X318309523Y-220644285D01*
X318261904Y-220739523D01*
X318166666Y-220834761D01*
X318023809Y-220882380D01*
X317785714Y-220882380D01*
X318690476Y-219882380D02*
X319309523Y-219882380D01*
X318976190Y-220263333D01*
X319119047Y-220263333D01*
X319214285Y-220310952D01*
X319261904Y-220358571D01*
X319309523Y-220453809D01*
X319309523Y-220691904D01*
X319261904Y-220787142D01*
X319214285Y-220834761D01*
X319119047Y-220882380D01*
X318833333Y-220882380D01*
X318738095Y-220834761D01*
X318690476Y-220787142D01*
X320214285Y-219882380D02*
X319738095Y-219882380D01*
X319690476Y-220358571D01*
X319738095Y-220310952D01*
X319833333Y-220263333D01*
X320071428Y-220263333D01*
X320166666Y-220310952D01*
X320214285Y-220358571D01*
X320261904Y-220453809D01*
X320261904Y-220691904D01*
X320214285Y-220787142D01*
X320166666Y-220834761D01*
X320071428Y-220882380D01*
X319833333Y-220882380D01*
X319738095Y-220834761D01*
X319690476Y-220787142D01*
%TO.C,D36*%
X334998214Y-220882380D02*
X334998214Y-219882380D01*
X335236309Y-219882380D01*
X335379166Y-219930000D01*
X335474404Y-220025238D01*
X335522023Y-220120476D01*
X335569642Y-220310952D01*
X335569642Y-220453809D01*
X335522023Y-220644285D01*
X335474404Y-220739523D01*
X335379166Y-220834761D01*
X335236309Y-220882380D01*
X334998214Y-220882380D01*
X335902976Y-219882380D02*
X336522023Y-219882380D01*
X336188690Y-220263333D01*
X336331547Y-220263333D01*
X336426785Y-220310952D01*
X336474404Y-220358571D01*
X336522023Y-220453809D01*
X336522023Y-220691904D01*
X336474404Y-220787142D01*
X336426785Y-220834761D01*
X336331547Y-220882380D01*
X336045833Y-220882380D01*
X335950595Y-220834761D01*
X335902976Y-220787142D01*
X337379166Y-219882380D02*
X337188690Y-219882380D01*
X337093452Y-219930000D01*
X337045833Y-219977619D01*
X336950595Y-220120476D01*
X336902976Y-220310952D01*
X336902976Y-220691904D01*
X336950595Y-220787142D01*
X336998214Y-220834761D01*
X337093452Y-220882380D01*
X337283928Y-220882380D01*
X337379166Y-220834761D01*
X337426785Y-220787142D01*
X337474404Y-220691904D01*
X337474404Y-220453809D01*
X337426785Y-220358571D01*
X337379166Y-220310952D01*
X337283928Y-220263333D01*
X337093452Y-220263333D01*
X336998214Y-220310952D01*
X336950595Y-220358571D01*
X336902976Y-220453809D01*
%TO.C,D37*%
X352998214Y-220882380D02*
X352998214Y-219882380D01*
X353236309Y-219882380D01*
X353379166Y-219930000D01*
X353474404Y-220025238D01*
X353522023Y-220120476D01*
X353569642Y-220310952D01*
X353569642Y-220453809D01*
X353522023Y-220644285D01*
X353474404Y-220739523D01*
X353379166Y-220834761D01*
X353236309Y-220882380D01*
X352998214Y-220882380D01*
X353902976Y-219882380D02*
X354522023Y-219882380D01*
X354188690Y-220263333D01*
X354331547Y-220263333D01*
X354426785Y-220310952D01*
X354474404Y-220358571D01*
X354522023Y-220453809D01*
X354522023Y-220691904D01*
X354474404Y-220787142D01*
X354426785Y-220834761D01*
X354331547Y-220882380D01*
X354045833Y-220882380D01*
X353950595Y-220834761D01*
X353902976Y-220787142D01*
X354855357Y-219882380D02*
X355522023Y-219882380D01*
X355093452Y-220882380D01*
%TO.C,D38*%
X369785714Y-220882380D02*
X369785714Y-219882380D01*
X370023809Y-219882380D01*
X370166666Y-219930000D01*
X370261904Y-220025238D01*
X370309523Y-220120476D01*
X370357142Y-220310952D01*
X370357142Y-220453809D01*
X370309523Y-220644285D01*
X370261904Y-220739523D01*
X370166666Y-220834761D01*
X370023809Y-220882380D01*
X369785714Y-220882380D01*
X370690476Y-219882380D02*
X371309523Y-219882380D01*
X370976190Y-220263333D01*
X371119047Y-220263333D01*
X371214285Y-220310952D01*
X371261904Y-220358571D01*
X371309523Y-220453809D01*
X371309523Y-220691904D01*
X371261904Y-220787142D01*
X371214285Y-220834761D01*
X371119047Y-220882380D01*
X370833333Y-220882380D01*
X370738095Y-220834761D01*
X370690476Y-220787142D01*
X371880952Y-220310952D02*
X371785714Y-220263333D01*
X371738095Y-220215714D01*
X371690476Y-220120476D01*
X371690476Y-220072857D01*
X371738095Y-219977619D01*
X371785714Y-219930000D01*
X371880952Y-219882380D01*
X372071428Y-219882380D01*
X372166666Y-219930000D01*
X372214285Y-219977619D01*
X372261904Y-220072857D01*
X372261904Y-220120476D01*
X372214285Y-220215714D01*
X372166666Y-220263333D01*
X372071428Y-220310952D01*
X371880952Y-220310952D01*
X371785714Y-220358571D01*
X371738095Y-220406190D01*
X371690476Y-220501428D01*
X371690476Y-220691904D01*
X371738095Y-220787142D01*
X371785714Y-220834761D01*
X371880952Y-220882380D01*
X372071428Y-220882380D01*
X372166666Y-220834761D01*
X372214285Y-220787142D01*
X372261904Y-220691904D01*
X372261904Y-220501428D01*
X372214285Y-220406190D01*
X372166666Y-220358571D01*
X372071428Y-220310952D01*
%TO.C,D39*%
X385785714Y-220882380D02*
X385785714Y-219882380D01*
X386023809Y-219882380D01*
X386166666Y-219930000D01*
X386261904Y-220025238D01*
X386309523Y-220120476D01*
X386357142Y-220310952D01*
X386357142Y-220453809D01*
X386309523Y-220644285D01*
X386261904Y-220739523D01*
X386166666Y-220834761D01*
X386023809Y-220882380D01*
X385785714Y-220882380D01*
X386690476Y-219882380D02*
X387309523Y-219882380D01*
X386976190Y-220263333D01*
X387119047Y-220263333D01*
X387214285Y-220310952D01*
X387261904Y-220358571D01*
X387309523Y-220453809D01*
X387309523Y-220691904D01*
X387261904Y-220787142D01*
X387214285Y-220834761D01*
X387119047Y-220882380D01*
X386833333Y-220882380D01*
X386738095Y-220834761D01*
X386690476Y-220787142D01*
X387785714Y-220882380D02*
X387976190Y-220882380D01*
X388071428Y-220834761D01*
X388119047Y-220787142D01*
X388214285Y-220644285D01*
X388261904Y-220453809D01*
X388261904Y-220072857D01*
X388214285Y-219977619D01*
X388166666Y-219930000D01*
X388071428Y-219882380D01*
X387880952Y-219882380D01*
X387785714Y-219930000D01*
X387738095Y-219977619D01*
X387690476Y-220072857D01*
X387690476Y-220310952D01*
X387738095Y-220406190D01*
X387785714Y-220453809D01*
X387880952Y-220501428D01*
X388071428Y-220501428D01*
X388166666Y-220453809D01*
X388214285Y-220406190D01*
X388261904Y-220310952D01*
%TO.C,D40*%
X399785714Y-220882380D02*
X399785714Y-219882380D01*
X400023809Y-219882380D01*
X400166666Y-219930000D01*
X400261904Y-220025238D01*
X400309523Y-220120476D01*
X400357142Y-220310952D01*
X400357142Y-220453809D01*
X400309523Y-220644285D01*
X400261904Y-220739523D01*
X400166666Y-220834761D01*
X400023809Y-220882380D01*
X399785714Y-220882380D01*
X401214285Y-220215714D02*
X401214285Y-220882380D01*
X400976190Y-219834761D02*
X400738095Y-220549047D01*
X401357142Y-220549047D01*
X401928571Y-219882380D02*
X402023809Y-219882380D01*
X402119047Y-219930000D01*
X402166666Y-219977619D01*
X402214285Y-220072857D01*
X402261904Y-220263333D01*
X402261904Y-220501428D01*
X402214285Y-220691904D01*
X402166666Y-220787142D01*
X402119047Y-220834761D01*
X402023809Y-220882380D01*
X401928571Y-220882380D01*
X401833333Y-220834761D01*
X401785714Y-220787142D01*
X401738095Y-220691904D01*
X401690476Y-220501428D01*
X401690476Y-220263333D01*
X401738095Y-220072857D01*
X401785714Y-219977619D01*
X401833333Y-219930000D01*
X401928571Y-219882380D01*
%TO.C,D41*%
X412998214Y-220882380D02*
X412998214Y-219882380D01*
X413236309Y-219882380D01*
X413379166Y-219930000D01*
X413474404Y-220025238D01*
X413522023Y-220120476D01*
X413569642Y-220310952D01*
X413569642Y-220453809D01*
X413522023Y-220644285D01*
X413474404Y-220739523D01*
X413379166Y-220834761D01*
X413236309Y-220882380D01*
X412998214Y-220882380D01*
X414426785Y-220215714D02*
X414426785Y-220882380D01*
X414188690Y-219834761D02*
X413950595Y-220549047D01*
X414569642Y-220549047D01*
X415474404Y-220882380D02*
X414902976Y-220882380D01*
X415188690Y-220882380D02*
X415188690Y-219882380D01*
X415093452Y-220025238D01*
X414998214Y-220120476D01*
X414902976Y-220168095D01*
%TO.C,D42*%
X425998214Y-220882380D02*
X425998214Y-219882380D01*
X426236309Y-219882380D01*
X426379166Y-219930000D01*
X426474404Y-220025238D01*
X426522023Y-220120476D01*
X426569642Y-220310952D01*
X426569642Y-220453809D01*
X426522023Y-220644285D01*
X426474404Y-220739523D01*
X426379166Y-220834761D01*
X426236309Y-220882380D01*
X425998214Y-220882380D01*
X427426785Y-220215714D02*
X427426785Y-220882380D01*
X427188690Y-219834761D02*
X426950595Y-220549047D01*
X427569642Y-220549047D01*
X427902976Y-219977619D02*
X427950595Y-219930000D01*
X428045833Y-219882380D01*
X428283928Y-219882380D01*
X428379166Y-219930000D01*
X428426785Y-219977619D01*
X428474404Y-220072857D01*
X428474404Y-220168095D01*
X428426785Y-220310952D01*
X427855357Y-220882380D01*
X428474404Y-220882380D01*
%TO.C,D43*%
X437998214Y-220882380D02*
X437998214Y-219882380D01*
X438236309Y-219882380D01*
X438379166Y-219930000D01*
X438474404Y-220025238D01*
X438522023Y-220120476D01*
X438569642Y-220310952D01*
X438569642Y-220453809D01*
X438522023Y-220644285D01*
X438474404Y-220739523D01*
X438379166Y-220834761D01*
X438236309Y-220882380D01*
X437998214Y-220882380D01*
X439426785Y-220215714D02*
X439426785Y-220882380D01*
X439188690Y-219834761D02*
X438950595Y-220549047D01*
X439569642Y-220549047D01*
X439855357Y-219882380D02*
X440474404Y-219882380D01*
X440141071Y-220263333D01*
X440283928Y-220263333D01*
X440379166Y-220310952D01*
X440426785Y-220358571D01*
X440474404Y-220453809D01*
X440474404Y-220691904D01*
X440426785Y-220787142D01*
X440379166Y-220834761D01*
X440283928Y-220882380D01*
X439998214Y-220882380D01*
X439902976Y-220834761D01*
X439855357Y-220787142D01*
%TO.C,D45*%
X5785714Y-229882380D02*
X5785714Y-228882380D01*
X6023809Y-228882380D01*
X6166666Y-228930000D01*
X6261904Y-229025238D01*
X6309523Y-229120476D01*
X6357142Y-229310952D01*
X6357142Y-229453809D01*
X6309523Y-229644285D01*
X6261904Y-229739523D01*
X6166666Y-229834761D01*
X6023809Y-229882380D01*
X5785714Y-229882380D01*
X7214285Y-229215714D02*
X7214285Y-229882380D01*
X6976190Y-228834761D02*
X6738095Y-229549047D01*
X7357142Y-229549047D01*
X8214285Y-228882380D02*
X7738095Y-228882380D01*
X7690476Y-229358571D01*
X7738095Y-229310952D01*
X7833333Y-229263333D01*
X8071428Y-229263333D01*
X8166666Y-229310952D01*
X8214285Y-229358571D01*
X8261904Y-229453809D01*
X8261904Y-229691904D01*
X8214285Y-229787142D01*
X8166666Y-229834761D01*
X8071428Y-229882380D01*
X7833333Y-229882380D01*
X7738095Y-229834761D01*
X7690476Y-229787142D01*
%TO.C,D46*%
X25998214Y-229882380D02*
X25998214Y-228882380D01*
X26236309Y-228882380D01*
X26379166Y-228930000D01*
X26474404Y-229025238D01*
X26522023Y-229120476D01*
X26569642Y-229310952D01*
X26569642Y-229453809D01*
X26522023Y-229644285D01*
X26474404Y-229739523D01*
X26379166Y-229834761D01*
X26236309Y-229882380D01*
X25998214Y-229882380D01*
X27426785Y-229215714D02*
X27426785Y-229882380D01*
X27188690Y-228834761D02*
X26950595Y-229549047D01*
X27569642Y-229549047D01*
X28379166Y-228882380D02*
X28188690Y-228882380D01*
X28093452Y-228930000D01*
X28045833Y-228977619D01*
X27950595Y-229120476D01*
X27902976Y-229310952D01*
X27902976Y-229691904D01*
X27950595Y-229787142D01*
X27998214Y-229834761D01*
X28093452Y-229882380D01*
X28283928Y-229882380D01*
X28379166Y-229834761D01*
X28426785Y-229787142D01*
X28474404Y-229691904D01*
X28474404Y-229453809D01*
X28426785Y-229358571D01*
X28379166Y-229310952D01*
X28283928Y-229263333D01*
X28093452Y-229263333D01*
X27998214Y-229310952D01*
X27950595Y-229358571D01*
X27902976Y-229453809D01*
%TO.C,D47*%
X64998214Y-229882380D02*
X64998214Y-228882380D01*
X65236309Y-228882380D01*
X65379166Y-228930000D01*
X65474404Y-229025238D01*
X65522023Y-229120476D01*
X65569642Y-229310952D01*
X65569642Y-229453809D01*
X65522023Y-229644285D01*
X65474404Y-229739523D01*
X65379166Y-229834761D01*
X65236309Y-229882380D01*
X64998214Y-229882380D01*
X66426785Y-229215714D02*
X66426785Y-229882380D01*
X66188690Y-228834761D02*
X65950595Y-229549047D01*
X66569642Y-229549047D01*
X66855357Y-228882380D02*
X67522023Y-228882380D01*
X67093452Y-229882380D01*
%TO.C,D48*%
X98998214Y-229882380D02*
X98998214Y-228882380D01*
X99236309Y-228882380D01*
X99379166Y-228930000D01*
X99474404Y-229025238D01*
X99522023Y-229120476D01*
X99569642Y-229310952D01*
X99569642Y-229453809D01*
X99522023Y-229644285D01*
X99474404Y-229739523D01*
X99379166Y-229834761D01*
X99236309Y-229882380D01*
X98998214Y-229882380D01*
X100426785Y-229215714D02*
X100426785Y-229882380D01*
X100188690Y-228834761D02*
X99950595Y-229549047D01*
X100569642Y-229549047D01*
X101093452Y-229310952D02*
X100998214Y-229263333D01*
X100950595Y-229215714D01*
X100902976Y-229120476D01*
X100902976Y-229072857D01*
X100950595Y-228977619D01*
X100998214Y-228930000D01*
X101093452Y-228882380D01*
X101283928Y-228882380D01*
X101379166Y-228930000D01*
X101426785Y-228977619D01*
X101474404Y-229072857D01*
X101474404Y-229120476D01*
X101426785Y-229215714D01*
X101379166Y-229263333D01*
X101283928Y-229310952D01*
X101093452Y-229310952D01*
X100998214Y-229358571D01*
X100950595Y-229406190D01*
X100902976Y-229501428D01*
X100902976Y-229691904D01*
X100950595Y-229787142D01*
X100998214Y-229834761D01*
X101093452Y-229882380D01*
X101283928Y-229882380D01*
X101379166Y-229834761D01*
X101426785Y-229787142D01*
X101474404Y-229691904D01*
X101474404Y-229501428D01*
X101426785Y-229406190D01*
X101379166Y-229358571D01*
X101283928Y-229310952D01*
%TO.C,D49*%
X127998214Y-229882380D02*
X127998214Y-228882380D01*
X128236309Y-228882380D01*
X128379166Y-228930000D01*
X128474404Y-229025238D01*
X128522023Y-229120476D01*
X128569642Y-229310952D01*
X128569642Y-229453809D01*
X128522023Y-229644285D01*
X128474404Y-229739523D01*
X128379166Y-229834761D01*
X128236309Y-229882380D01*
X127998214Y-229882380D01*
X129426785Y-229215714D02*
X129426785Y-229882380D01*
X129188690Y-228834761D02*
X128950595Y-229549047D01*
X129569642Y-229549047D01*
X129998214Y-229882380D02*
X130188690Y-229882380D01*
X130283928Y-229834761D01*
X130331547Y-229787142D01*
X130426785Y-229644285D01*
X130474404Y-229453809D01*
X130474404Y-229072857D01*
X130426785Y-228977619D01*
X130379166Y-228930000D01*
X130283928Y-228882380D01*
X130093452Y-228882380D01*
X129998214Y-228930000D01*
X129950595Y-228977619D01*
X129902976Y-229072857D01*
X129902976Y-229310952D01*
X129950595Y-229406190D01*
X129998214Y-229453809D01*
X130093452Y-229501428D01*
X130283928Y-229501428D01*
X130379166Y-229453809D01*
X130426785Y-229406190D01*
X130474404Y-229310952D01*
%TO.C,D50*%
X157785714Y-229882380D02*
X157785714Y-228882380D01*
X158023809Y-228882380D01*
X158166666Y-228930000D01*
X158261904Y-229025238D01*
X158309523Y-229120476D01*
X158357142Y-229310952D01*
X158357142Y-229453809D01*
X158309523Y-229644285D01*
X158261904Y-229739523D01*
X158166666Y-229834761D01*
X158023809Y-229882380D01*
X157785714Y-229882380D01*
X159261904Y-228882380D02*
X158785714Y-228882380D01*
X158738095Y-229358571D01*
X158785714Y-229310952D01*
X158880952Y-229263333D01*
X159119047Y-229263333D01*
X159214285Y-229310952D01*
X159261904Y-229358571D01*
X159309523Y-229453809D01*
X159309523Y-229691904D01*
X159261904Y-229787142D01*
X159214285Y-229834761D01*
X159119047Y-229882380D01*
X158880952Y-229882380D01*
X158785714Y-229834761D01*
X158738095Y-229787142D01*
X159928571Y-228882380D02*
X160023809Y-228882380D01*
X160119047Y-228930000D01*
X160166666Y-228977619D01*
X160214285Y-229072857D01*
X160261904Y-229263333D01*
X160261904Y-229501428D01*
X160214285Y-229691904D01*
X160166666Y-229787142D01*
X160119047Y-229834761D01*
X160023809Y-229882380D01*
X159928571Y-229882380D01*
X159833333Y-229834761D01*
X159785714Y-229787142D01*
X159738095Y-229691904D01*
X159690476Y-229501428D01*
X159690476Y-229263333D01*
X159738095Y-229072857D01*
X159785714Y-228977619D01*
X159833333Y-228930000D01*
X159928571Y-228882380D01*
%TO.C,D51*%
X183785714Y-229882380D02*
X183785714Y-228882380D01*
X184023809Y-228882380D01*
X184166666Y-228930000D01*
X184261904Y-229025238D01*
X184309523Y-229120476D01*
X184357142Y-229310952D01*
X184357142Y-229453809D01*
X184309523Y-229644285D01*
X184261904Y-229739523D01*
X184166666Y-229834761D01*
X184023809Y-229882380D01*
X183785714Y-229882380D01*
X185261904Y-228882380D02*
X184785714Y-228882380D01*
X184738095Y-229358571D01*
X184785714Y-229310952D01*
X184880952Y-229263333D01*
X185119047Y-229263333D01*
X185214285Y-229310952D01*
X185261904Y-229358571D01*
X185309523Y-229453809D01*
X185309523Y-229691904D01*
X185261904Y-229787142D01*
X185214285Y-229834761D01*
X185119047Y-229882380D01*
X184880952Y-229882380D01*
X184785714Y-229834761D01*
X184738095Y-229787142D01*
X186261904Y-229882380D02*
X185690476Y-229882380D01*
X185976190Y-229882380D02*
X185976190Y-228882380D01*
X185880952Y-229025238D01*
X185785714Y-229120476D01*
X185690476Y-229168095D01*
%TO.C,D52*%
X208998214Y-229882380D02*
X208998214Y-228882380D01*
X209236309Y-228882380D01*
X209379166Y-228930000D01*
X209474404Y-229025238D01*
X209522023Y-229120476D01*
X209569642Y-229310952D01*
X209569642Y-229453809D01*
X209522023Y-229644285D01*
X209474404Y-229739523D01*
X209379166Y-229834761D01*
X209236309Y-229882380D01*
X208998214Y-229882380D01*
X210474404Y-228882380D02*
X209998214Y-228882380D01*
X209950595Y-229358571D01*
X209998214Y-229310952D01*
X210093452Y-229263333D01*
X210331547Y-229263333D01*
X210426785Y-229310952D01*
X210474404Y-229358571D01*
X210522023Y-229453809D01*
X210522023Y-229691904D01*
X210474404Y-229787142D01*
X210426785Y-229834761D01*
X210331547Y-229882380D01*
X210093452Y-229882380D01*
X209998214Y-229834761D01*
X209950595Y-229787142D01*
X210902976Y-228977619D02*
X210950595Y-228930000D01*
X211045833Y-228882380D01*
X211283928Y-228882380D01*
X211379166Y-228930000D01*
X211426785Y-228977619D01*
X211474404Y-229072857D01*
X211474404Y-229168095D01*
X211426785Y-229310952D01*
X210855357Y-229882380D01*
X211474404Y-229882380D01*
%TO.C,D53*%
X232785714Y-229882380D02*
X232785714Y-228882380D01*
X233023809Y-228882380D01*
X233166666Y-228930000D01*
X233261904Y-229025238D01*
X233309523Y-229120476D01*
X233357142Y-229310952D01*
X233357142Y-229453809D01*
X233309523Y-229644285D01*
X233261904Y-229739523D01*
X233166666Y-229834761D01*
X233023809Y-229882380D01*
X232785714Y-229882380D01*
X234261904Y-228882380D02*
X233785714Y-228882380D01*
X233738095Y-229358571D01*
X233785714Y-229310952D01*
X233880952Y-229263333D01*
X234119047Y-229263333D01*
X234214285Y-229310952D01*
X234261904Y-229358571D01*
X234309523Y-229453809D01*
X234309523Y-229691904D01*
X234261904Y-229787142D01*
X234214285Y-229834761D01*
X234119047Y-229882380D01*
X233880952Y-229882380D01*
X233785714Y-229834761D01*
X233738095Y-229787142D01*
X234642857Y-228882380D02*
X235261904Y-228882380D01*
X234928571Y-229263333D01*
X235071428Y-229263333D01*
X235166666Y-229310952D01*
X235214285Y-229358571D01*
X235261904Y-229453809D01*
X235261904Y-229691904D01*
X235214285Y-229787142D01*
X235166666Y-229834761D01*
X235071428Y-229882380D01*
X234785714Y-229882380D01*
X234690476Y-229834761D01*
X234642857Y-229787142D01*
%TO.C,D54*%
X255785714Y-229882380D02*
X255785714Y-228882380D01*
X256023809Y-228882380D01*
X256166666Y-228930000D01*
X256261904Y-229025238D01*
X256309523Y-229120476D01*
X256357142Y-229310952D01*
X256357142Y-229453809D01*
X256309523Y-229644285D01*
X256261904Y-229739523D01*
X256166666Y-229834761D01*
X256023809Y-229882380D01*
X255785714Y-229882380D01*
X257261904Y-228882380D02*
X256785714Y-228882380D01*
X256738095Y-229358571D01*
X256785714Y-229310952D01*
X256880952Y-229263333D01*
X257119047Y-229263333D01*
X257214285Y-229310952D01*
X257261904Y-229358571D01*
X257309523Y-229453809D01*
X257309523Y-229691904D01*
X257261904Y-229787142D01*
X257214285Y-229834761D01*
X257119047Y-229882380D01*
X256880952Y-229882380D01*
X256785714Y-229834761D01*
X256738095Y-229787142D01*
X258166666Y-229215714D02*
X258166666Y-229882380D01*
X257928571Y-228834761D02*
X257690476Y-229549047D01*
X258309523Y-229549047D01*
%TO.C,D55*%
X277998214Y-229882380D02*
X277998214Y-228882380D01*
X278236309Y-228882380D01*
X278379166Y-228930000D01*
X278474404Y-229025238D01*
X278522023Y-229120476D01*
X278569642Y-229310952D01*
X278569642Y-229453809D01*
X278522023Y-229644285D01*
X278474404Y-229739523D01*
X278379166Y-229834761D01*
X278236309Y-229882380D01*
X277998214Y-229882380D01*
X279474404Y-228882380D02*
X278998214Y-228882380D01*
X278950595Y-229358571D01*
X278998214Y-229310952D01*
X279093452Y-229263333D01*
X279331547Y-229263333D01*
X279426785Y-229310952D01*
X279474404Y-229358571D01*
X279522023Y-229453809D01*
X279522023Y-229691904D01*
X279474404Y-229787142D01*
X279426785Y-229834761D01*
X279331547Y-229882380D01*
X279093452Y-229882380D01*
X278998214Y-229834761D01*
X278950595Y-229787142D01*
X280426785Y-228882380D02*
X279950595Y-228882380D01*
X279902976Y-229358571D01*
X279950595Y-229310952D01*
X280045833Y-229263333D01*
X280283928Y-229263333D01*
X280379166Y-229310952D01*
X280426785Y-229358571D01*
X280474404Y-229453809D01*
X280474404Y-229691904D01*
X280426785Y-229787142D01*
X280379166Y-229834761D01*
X280283928Y-229882380D01*
X280045833Y-229882380D01*
X279950595Y-229834761D01*
X279902976Y-229787142D01*
%TO.C,D56*%
X298785714Y-229882380D02*
X298785714Y-228882380D01*
X299023809Y-228882380D01*
X299166666Y-228930000D01*
X299261904Y-229025238D01*
X299309523Y-229120476D01*
X299357142Y-229310952D01*
X299357142Y-229453809D01*
X299309523Y-229644285D01*
X299261904Y-229739523D01*
X299166666Y-229834761D01*
X299023809Y-229882380D01*
X298785714Y-229882380D01*
X300261904Y-228882380D02*
X299785714Y-228882380D01*
X299738095Y-229358571D01*
X299785714Y-229310952D01*
X299880952Y-229263333D01*
X300119047Y-229263333D01*
X300214285Y-229310952D01*
X300261904Y-229358571D01*
X300309523Y-229453809D01*
X300309523Y-229691904D01*
X300261904Y-229787142D01*
X300214285Y-229834761D01*
X300119047Y-229882380D01*
X299880952Y-229882380D01*
X299785714Y-229834761D01*
X299738095Y-229787142D01*
X301166666Y-228882380D02*
X300976190Y-228882380D01*
X300880952Y-228930000D01*
X300833333Y-228977619D01*
X300738095Y-229120476D01*
X300690476Y-229310952D01*
X300690476Y-229691904D01*
X300738095Y-229787142D01*
X300785714Y-229834761D01*
X300880952Y-229882380D01*
X301071428Y-229882380D01*
X301166666Y-229834761D01*
X301214285Y-229787142D01*
X301261904Y-229691904D01*
X301261904Y-229453809D01*
X301214285Y-229358571D01*
X301166666Y-229310952D01*
X301071428Y-229263333D01*
X300880952Y-229263333D01*
X300785714Y-229310952D01*
X300738095Y-229358571D01*
X300690476Y-229453809D01*
%TO.C,D57*%
X317785714Y-229882380D02*
X317785714Y-228882380D01*
X318023809Y-228882380D01*
X318166666Y-228930000D01*
X318261904Y-229025238D01*
X318309523Y-229120476D01*
X318357142Y-229310952D01*
X318357142Y-229453809D01*
X318309523Y-229644285D01*
X318261904Y-229739523D01*
X318166666Y-229834761D01*
X318023809Y-229882380D01*
X317785714Y-229882380D01*
X319261904Y-228882380D02*
X318785714Y-228882380D01*
X318738095Y-229358571D01*
X318785714Y-229310952D01*
X318880952Y-229263333D01*
X319119047Y-229263333D01*
X319214285Y-229310952D01*
X319261904Y-229358571D01*
X319309523Y-229453809D01*
X319309523Y-229691904D01*
X319261904Y-229787142D01*
X319214285Y-229834761D01*
X319119047Y-229882380D01*
X318880952Y-229882380D01*
X318785714Y-229834761D01*
X318738095Y-229787142D01*
X319642857Y-228882380D02*
X320309523Y-228882380D01*
X319880952Y-229882380D01*
%TO.C,D58*%
X334998214Y-229882380D02*
X334998214Y-228882380D01*
X335236309Y-228882380D01*
X335379166Y-228930000D01*
X335474404Y-229025238D01*
X335522023Y-229120476D01*
X335569642Y-229310952D01*
X335569642Y-229453809D01*
X335522023Y-229644285D01*
X335474404Y-229739523D01*
X335379166Y-229834761D01*
X335236309Y-229882380D01*
X334998214Y-229882380D01*
X336474404Y-228882380D02*
X335998214Y-228882380D01*
X335950595Y-229358571D01*
X335998214Y-229310952D01*
X336093452Y-229263333D01*
X336331547Y-229263333D01*
X336426785Y-229310952D01*
X336474404Y-229358571D01*
X336522023Y-229453809D01*
X336522023Y-229691904D01*
X336474404Y-229787142D01*
X336426785Y-229834761D01*
X336331547Y-229882380D01*
X336093452Y-229882380D01*
X335998214Y-229834761D01*
X335950595Y-229787142D01*
X337093452Y-229310952D02*
X336998214Y-229263333D01*
X336950595Y-229215714D01*
X336902976Y-229120476D01*
X336902976Y-229072857D01*
X336950595Y-228977619D01*
X336998214Y-228930000D01*
X337093452Y-228882380D01*
X337283928Y-228882380D01*
X337379166Y-228930000D01*
X337426785Y-228977619D01*
X337474404Y-229072857D01*
X337474404Y-229120476D01*
X337426785Y-229215714D01*
X337379166Y-229263333D01*
X337283928Y-229310952D01*
X337093452Y-229310952D01*
X336998214Y-229358571D01*
X336950595Y-229406190D01*
X336902976Y-229501428D01*
X336902976Y-229691904D01*
X336950595Y-229787142D01*
X336998214Y-229834761D01*
X337093452Y-229882380D01*
X337283928Y-229882380D01*
X337379166Y-229834761D01*
X337426785Y-229787142D01*
X337474404Y-229691904D01*
X337474404Y-229501428D01*
X337426785Y-229406190D01*
X337379166Y-229358571D01*
X337283928Y-229310952D01*
%TO.C,D59*%
X352998214Y-229882380D02*
X352998214Y-228882380D01*
X353236309Y-228882380D01*
X353379166Y-228930000D01*
X353474404Y-229025238D01*
X353522023Y-229120476D01*
X353569642Y-229310952D01*
X353569642Y-229453809D01*
X353522023Y-229644285D01*
X353474404Y-229739523D01*
X353379166Y-229834761D01*
X353236309Y-229882380D01*
X352998214Y-229882380D01*
X354474404Y-228882380D02*
X353998214Y-228882380D01*
X353950595Y-229358571D01*
X353998214Y-229310952D01*
X354093452Y-229263333D01*
X354331547Y-229263333D01*
X354426785Y-229310952D01*
X354474404Y-229358571D01*
X354522023Y-229453809D01*
X354522023Y-229691904D01*
X354474404Y-229787142D01*
X354426785Y-229834761D01*
X354331547Y-229882380D01*
X354093452Y-229882380D01*
X353998214Y-229834761D01*
X353950595Y-229787142D01*
X354998214Y-229882380D02*
X355188690Y-229882380D01*
X355283928Y-229834761D01*
X355331547Y-229787142D01*
X355426785Y-229644285D01*
X355474404Y-229453809D01*
X355474404Y-229072857D01*
X355426785Y-228977619D01*
X355379166Y-228930000D01*
X355283928Y-228882380D01*
X355093452Y-228882380D01*
X354998214Y-228930000D01*
X354950595Y-228977619D01*
X354902976Y-229072857D01*
X354902976Y-229310952D01*
X354950595Y-229406190D01*
X354998214Y-229453809D01*
X355093452Y-229501428D01*
X355283928Y-229501428D01*
X355379166Y-229453809D01*
X355426785Y-229406190D01*
X355474404Y-229310952D01*
%TO.C,D60*%
X369785714Y-229882380D02*
X369785714Y-228882380D01*
X370023809Y-228882380D01*
X370166666Y-228930000D01*
X370261904Y-229025238D01*
X370309523Y-229120476D01*
X370357142Y-229310952D01*
X370357142Y-229453809D01*
X370309523Y-229644285D01*
X370261904Y-229739523D01*
X370166666Y-229834761D01*
X370023809Y-229882380D01*
X369785714Y-229882380D01*
X371214285Y-228882380D02*
X371023809Y-228882380D01*
X370928571Y-228930000D01*
X370880952Y-228977619D01*
X370785714Y-229120476D01*
X370738095Y-229310952D01*
X370738095Y-229691904D01*
X370785714Y-229787142D01*
X370833333Y-229834761D01*
X370928571Y-229882380D01*
X371119047Y-229882380D01*
X371214285Y-229834761D01*
X371261904Y-229787142D01*
X371309523Y-229691904D01*
X371309523Y-229453809D01*
X371261904Y-229358571D01*
X371214285Y-229310952D01*
X371119047Y-229263333D01*
X370928571Y-229263333D01*
X370833333Y-229310952D01*
X370785714Y-229358571D01*
X370738095Y-229453809D01*
X371928571Y-228882380D02*
X372023809Y-228882380D01*
X372119047Y-228930000D01*
X372166666Y-228977619D01*
X372214285Y-229072857D01*
X372261904Y-229263333D01*
X372261904Y-229501428D01*
X372214285Y-229691904D01*
X372166666Y-229787142D01*
X372119047Y-229834761D01*
X372023809Y-229882380D01*
X371928571Y-229882380D01*
X371833333Y-229834761D01*
X371785714Y-229787142D01*
X371738095Y-229691904D01*
X371690476Y-229501428D01*
X371690476Y-229263333D01*
X371738095Y-229072857D01*
X371785714Y-228977619D01*
X371833333Y-228930000D01*
X371928571Y-228882380D01*
%TO.C,D61*%
X385785714Y-229882380D02*
X385785714Y-228882380D01*
X386023809Y-228882380D01*
X386166666Y-228930000D01*
X386261904Y-229025238D01*
X386309523Y-229120476D01*
X386357142Y-229310952D01*
X386357142Y-229453809D01*
X386309523Y-229644285D01*
X386261904Y-229739523D01*
X386166666Y-229834761D01*
X386023809Y-229882380D01*
X385785714Y-229882380D01*
X387214285Y-228882380D02*
X387023809Y-228882380D01*
X386928571Y-228930000D01*
X386880952Y-228977619D01*
X386785714Y-229120476D01*
X386738095Y-229310952D01*
X386738095Y-229691904D01*
X386785714Y-229787142D01*
X386833333Y-229834761D01*
X386928571Y-229882380D01*
X387119047Y-229882380D01*
X387214285Y-229834761D01*
X387261904Y-229787142D01*
X387309523Y-229691904D01*
X387309523Y-229453809D01*
X387261904Y-229358571D01*
X387214285Y-229310952D01*
X387119047Y-229263333D01*
X386928571Y-229263333D01*
X386833333Y-229310952D01*
X386785714Y-229358571D01*
X386738095Y-229453809D01*
X388261904Y-229882380D02*
X387690476Y-229882380D01*
X387976190Y-229882380D02*
X387976190Y-228882380D01*
X387880952Y-229025238D01*
X387785714Y-229120476D01*
X387690476Y-229168095D01*
%TO.C,D62*%
X399785714Y-229882380D02*
X399785714Y-228882380D01*
X400023809Y-228882380D01*
X400166666Y-228930000D01*
X400261904Y-229025238D01*
X400309523Y-229120476D01*
X400357142Y-229310952D01*
X400357142Y-229453809D01*
X400309523Y-229644285D01*
X400261904Y-229739523D01*
X400166666Y-229834761D01*
X400023809Y-229882380D01*
X399785714Y-229882380D01*
X401214285Y-228882380D02*
X401023809Y-228882380D01*
X400928571Y-228930000D01*
X400880952Y-228977619D01*
X400785714Y-229120476D01*
X400738095Y-229310952D01*
X400738095Y-229691904D01*
X400785714Y-229787142D01*
X400833333Y-229834761D01*
X400928571Y-229882380D01*
X401119047Y-229882380D01*
X401214285Y-229834761D01*
X401261904Y-229787142D01*
X401309523Y-229691904D01*
X401309523Y-229453809D01*
X401261904Y-229358571D01*
X401214285Y-229310952D01*
X401119047Y-229263333D01*
X400928571Y-229263333D01*
X400833333Y-229310952D01*
X400785714Y-229358571D01*
X400738095Y-229453809D01*
X401690476Y-228977619D02*
X401738095Y-228930000D01*
X401833333Y-228882380D01*
X402071428Y-228882380D01*
X402166666Y-228930000D01*
X402214285Y-228977619D01*
X402261904Y-229072857D01*
X402261904Y-229168095D01*
X402214285Y-229310952D01*
X401642857Y-229882380D01*
X402261904Y-229882380D01*
%TO.C,D63*%
X412998214Y-229882380D02*
X412998214Y-228882380D01*
X413236309Y-228882380D01*
X413379166Y-228930000D01*
X413474404Y-229025238D01*
X413522023Y-229120476D01*
X413569642Y-229310952D01*
X413569642Y-229453809D01*
X413522023Y-229644285D01*
X413474404Y-229739523D01*
X413379166Y-229834761D01*
X413236309Y-229882380D01*
X412998214Y-229882380D01*
X414426785Y-228882380D02*
X414236309Y-228882380D01*
X414141071Y-228930000D01*
X414093452Y-228977619D01*
X413998214Y-229120476D01*
X413950595Y-229310952D01*
X413950595Y-229691904D01*
X413998214Y-229787142D01*
X414045833Y-229834761D01*
X414141071Y-229882380D01*
X414331547Y-229882380D01*
X414426785Y-229834761D01*
X414474404Y-229787142D01*
X414522023Y-229691904D01*
X414522023Y-229453809D01*
X414474404Y-229358571D01*
X414426785Y-229310952D01*
X414331547Y-229263333D01*
X414141071Y-229263333D01*
X414045833Y-229310952D01*
X413998214Y-229358571D01*
X413950595Y-229453809D01*
X414855357Y-228882380D02*
X415474404Y-228882380D01*
X415141071Y-229263333D01*
X415283928Y-229263333D01*
X415379166Y-229310952D01*
X415426785Y-229358571D01*
X415474404Y-229453809D01*
X415474404Y-229691904D01*
X415426785Y-229787142D01*
X415379166Y-229834761D01*
X415283928Y-229882380D01*
X414998214Y-229882380D01*
X414902976Y-229834761D01*
X414855357Y-229787142D01*
%TO.C,D64*%
X425998214Y-229882380D02*
X425998214Y-228882380D01*
X426236309Y-228882380D01*
X426379166Y-228930000D01*
X426474404Y-229025238D01*
X426522023Y-229120476D01*
X426569642Y-229310952D01*
X426569642Y-229453809D01*
X426522023Y-229644285D01*
X426474404Y-229739523D01*
X426379166Y-229834761D01*
X426236309Y-229882380D01*
X425998214Y-229882380D01*
X427426785Y-228882380D02*
X427236309Y-228882380D01*
X427141071Y-228930000D01*
X427093452Y-228977619D01*
X426998214Y-229120476D01*
X426950595Y-229310952D01*
X426950595Y-229691904D01*
X426998214Y-229787142D01*
X427045833Y-229834761D01*
X427141071Y-229882380D01*
X427331547Y-229882380D01*
X427426785Y-229834761D01*
X427474404Y-229787142D01*
X427522023Y-229691904D01*
X427522023Y-229453809D01*
X427474404Y-229358571D01*
X427426785Y-229310952D01*
X427331547Y-229263333D01*
X427141071Y-229263333D01*
X427045833Y-229310952D01*
X426998214Y-229358571D01*
X426950595Y-229453809D01*
X428379166Y-229215714D02*
X428379166Y-229882380D01*
X428141071Y-228834761D02*
X427902976Y-229549047D01*
X428522023Y-229549047D01*
%TO.C,D65*%
X437998214Y-229882380D02*
X437998214Y-228882380D01*
X438236309Y-228882380D01*
X438379166Y-228930000D01*
X438474404Y-229025238D01*
X438522023Y-229120476D01*
X438569642Y-229310952D01*
X438569642Y-229453809D01*
X438522023Y-229644285D01*
X438474404Y-229739523D01*
X438379166Y-229834761D01*
X438236309Y-229882380D01*
X437998214Y-229882380D01*
X439426785Y-228882380D02*
X439236309Y-228882380D01*
X439141071Y-228930000D01*
X439093452Y-228977619D01*
X438998214Y-229120476D01*
X438950595Y-229310952D01*
X438950595Y-229691904D01*
X438998214Y-229787142D01*
X439045833Y-229834761D01*
X439141071Y-229882380D01*
X439331547Y-229882380D01*
X439426785Y-229834761D01*
X439474404Y-229787142D01*
X439522023Y-229691904D01*
X439522023Y-229453809D01*
X439474404Y-229358571D01*
X439426785Y-229310952D01*
X439331547Y-229263333D01*
X439141071Y-229263333D01*
X439045833Y-229310952D01*
X438998214Y-229358571D01*
X438950595Y-229453809D01*
X440426785Y-228882380D02*
X439950595Y-228882380D01*
X439902976Y-229358571D01*
X439950595Y-229310952D01*
X440045833Y-229263333D01*
X440283928Y-229263333D01*
X440379166Y-229310952D01*
X440426785Y-229358571D01*
X440474404Y-229453809D01*
X440474404Y-229691904D01*
X440426785Y-229787142D01*
X440379166Y-229834761D01*
X440283928Y-229882380D01*
X440045833Y-229882380D01*
X439950595Y-229834761D01*
X439902976Y-229787142D01*
%TO.C,D67*%
X5785714Y-238882380D02*
X5785714Y-237882380D01*
X6023809Y-237882380D01*
X6166666Y-237930000D01*
X6261904Y-238025238D01*
X6309523Y-238120476D01*
X6357142Y-238310952D01*
X6357142Y-238453809D01*
X6309523Y-238644285D01*
X6261904Y-238739523D01*
X6166666Y-238834761D01*
X6023809Y-238882380D01*
X5785714Y-238882380D01*
X7214285Y-237882380D02*
X7023809Y-237882380D01*
X6928571Y-237930000D01*
X6880952Y-237977619D01*
X6785714Y-238120476D01*
X6738095Y-238310952D01*
X6738095Y-238691904D01*
X6785714Y-238787142D01*
X6833333Y-238834761D01*
X6928571Y-238882380D01*
X7119047Y-238882380D01*
X7214285Y-238834761D01*
X7261904Y-238787142D01*
X7309523Y-238691904D01*
X7309523Y-238453809D01*
X7261904Y-238358571D01*
X7214285Y-238310952D01*
X7119047Y-238263333D01*
X6928571Y-238263333D01*
X6833333Y-238310952D01*
X6785714Y-238358571D01*
X6738095Y-238453809D01*
X7642857Y-237882380D02*
X8309523Y-237882380D01*
X7880952Y-238882380D01*
%TO.C,D68*%
X25998214Y-238882380D02*
X25998214Y-237882380D01*
X26236309Y-237882380D01*
X26379166Y-237930000D01*
X26474404Y-238025238D01*
X26522023Y-238120476D01*
X26569642Y-238310952D01*
X26569642Y-238453809D01*
X26522023Y-238644285D01*
X26474404Y-238739523D01*
X26379166Y-238834761D01*
X26236309Y-238882380D01*
X25998214Y-238882380D01*
X27426785Y-237882380D02*
X27236309Y-237882380D01*
X27141071Y-237930000D01*
X27093452Y-237977619D01*
X26998214Y-238120476D01*
X26950595Y-238310952D01*
X26950595Y-238691904D01*
X26998214Y-238787142D01*
X27045833Y-238834761D01*
X27141071Y-238882380D01*
X27331547Y-238882380D01*
X27426785Y-238834761D01*
X27474404Y-238787142D01*
X27522023Y-238691904D01*
X27522023Y-238453809D01*
X27474404Y-238358571D01*
X27426785Y-238310952D01*
X27331547Y-238263333D01*
X27141071Y-238263333D01*
X27045833Y-238310952D01*
X26998214Y-238358571D01*
X26950595Y-238453809D01*
X28093452Y-238310952D02*
X27998214Y-238263333D01*
X27950595Y-238215714D01*
X27902976Y-238120476D01*
X27902976Y-238072857D01*
X27950595Y-237977619D01*
X27998214Y-237930000D01*
X28093452Y-237882380D01*
X28283928Y-237882380D01*
X28379166Y-237930000D01*
X28426785Y-237977619D01*
X28474404Y-238072857D01*
X28474404Y-238120476D01*
X28426785Y-238215714D01*
X28379166Y-238263333D01*
X28283928Y-238310952D01*
X28093452Y-238310952D01*
X27998214Y-238358571D01*
X27950595Y-238406190D01*
X27902976Y-238501428D01*
X27902976Y-238691904D01*
X27950595Y-238787142D01*
X27998214Y-238834761D01*
X28093452Y-238882380D01*
X28283928Y-238882380D01*
X28379166Y-238834761D01*
X28426785Y-238787142D01*
X28474404Y-238691904D01*
X28474404Y-238501428D01*
X28426785Y-238406190D01*
X28379166Y-238358571D01*
X28283928Y-238310952D01*
%TO.C,D69*%
X64998214Y-238882380D02*
X64998214Y-237882380D01*
X65236309Y-237882380D01*
X65379166Y-237930000D01*
X65474404Y-238025238D01*
X65522023Y-238120476D01*
X65569642Y-238310952D01*
X65569642Y-238453809D01*
X65522023Y-238644285D01*
X65474404Y-238739523D01*
X65379166Y-238834761D01*
X65236309Y-238882380D01*
X64998214Y-238882380D01*
X66426785Y-237882380D02*
X66236309Y-237882380D01*
X66141071Y-237930000D01*
X66093452Y-237977619D01*
X65998214Y-238120476D01*
X65950595Y-238310952D01*
X65950595Y-238691904D01*
X65998214Y-238787142D01*
X66045833Y-238834761D01*
X66141071Y-238882380D01*
X66331547Y-238882380D01*
X66426785Y-238834761D01*
X66474404Y-238787142D01*
X66522023Y-238691904D01*
X66522023Y-238453809D01*
X66474404Y-238358571D01*
X66426785Y-238310952D01*
X66331547Y-238263333D01*
X66141071Y-238263333D01*
X66045833Y-238310952D01*
X65998214Y-238358571D01*
X65950595Y-238453809D01*
X66998214Y-238882380D02*
X67188690Y-238882380D01*
X67283928Y-238834761D01*
X67331547Y-238787142D01*
X67426785Y-238644285D01*
X67474404Y-238453809D01*
X67474404Y-238072857D01*
X67426785Y-237977619D01*
X67379166Y-237930000D01*
X67283928Y-237882380D01*
X67093452Y-237882380D01*
X66998214Y-237930000D01*
X66950595Y-237977619D01*
X66902976Y-238072857D01*
X66902976Y-238310952D01*
X66950595Y-238406190D01*
X66998214Y-238453809D01*
X67093452Y-238501428D01*
X67283928Y-238501428D01*
X67379166Y-238453809D01*
X67426785Y-238406190D01*
X67474404Y-238310952D01*
%TO.C,D70*%
X98998214Y-238882380D02*
X98998214Y-237882380D01*
X99236309Y-237882380D01*
X99379166Y-237930000D01*
X99474404Y-238025238D01*
X99522023Y-238120476D01*
X99569642Y-238310952D01*
X99569642Y-238453809D01*
X99522023Y-238644285D01*
X99474404Y-238739523D01*
X99379166Y-238834761D01*
X99236309Y-238882380D01*
X98998214Y-238882380D01*
X99902976Y-237882380D02*
X100569642Y-237882380D01*
X100141071Y-238882380D01*
X101141071Y-237882380D02*
X101236309Y-237882380D01*
X101331547Y-237930000D01*
X101379166Y-237977619D01*
X101426785Y-238072857D01*
X101474404Y-238263333D01*
X101474404Y-238501428D01*
X101426785Y-238691904D01*
X101379166Y-238787142D01*
X101331547Y-238834761D01*
X101236309Y-238882380D01*
X101141071Y-238882380D01*
X101045833Y-238834761D01*
X100998214Y-238787142D01*
X100950595Y-238691904D01*
X100902976Y-238501428D01*
X100902976Y-238263333D01*
X100950595Y-238072857D01*
X100998214Y-237977619D01*
X101045833Y-237930000D01*
X101141071Y-237882380D01*
%TO.C,D71*%
X127998214Y-238882380D02*
X127998214Y-237882380D01*
X128236309Y-237882380D01*
X128379166Y-237930000D01*
X128474404Y-238025238D01*
X128522023Y-238120476D01*
X128569642Y-238310952D01*
X128569642Y-238453809D01*
X128522023Y-238644285D01*
X128474404Y-238739523D01*
X128379166Y-238834761D01*
X128236309Y-238882380D01*
X127998214Y-238882380D01*
X128902976Y-237882380D02*
X129569642Y-237882380D01*
X129141071Y-238882380D01*
X130474404Y-238882380D02*
X129902976Y-238882380D01*
X130188690Y-238882380D02*
X130188690Y-237882380D01*
X130093452Y-238025238D01*
X129998214Y-238120476D01*
X129902976Y-238168095D01*
%TO.C,D72*%
X157785714Y-238882380D02*
X157785714Y-237882380D01*
X158023809Y-237882380D01*
X158166666Y-237930000D01*
X158261904Y-238025238D01*
X158309523Y-238120476D01*
X158357142Y-238310952D01*
X158357142Y-238453809D01*
X158309523Y-238644285D01*
X158261904Y-238739523D01*
X158166666Y-238834761D01*
X158023809Y-238882380D01*
X157785714Y-238882380D01*
X158690476Y-237882380D02*
X159357142Y-237882380D01*
X158928571Y-238882380D01*
X159690476Y-237977619D02*
X159738095Y-237930000D01*
X159833333Y-237882380D01*
X160071428Y-237882380D01*
X160166666Y-237930000D01*
X160214285Y-237977619D01*
X160261904Y-238072857D01*
X160261904Y-238168095D01*
X160214285Y-238310952D01*
X159642857Y-238882380D01*
X160261904Y-238882380D01*
%TO.C,D73*%
X183785714Y-238882380D02*
X183785714Y-237882380D01*
X184023809Y-237882380D01*
X184166666Y-237930000D01*
X184261904Y-238025238D01*
X184309523Y-238120476D01*
X184357142Y-238310952D01*
X184357142Y-238453809D01*
X184309523Y-238644285D01*
X184261904Y-238739523D01*
X184166666Y-238834761D01*
X184023809Y-238882380D01*
X183785714Y-238882380D01*
X184690476Y-237882380D02*
X185357142Y-237882380D01*
X184928571Y-238882380D01*
X185642857Y-237882380D02*
X186261904Y-237882380D01*
X185928571Y-238263333D01*
X186071428Y-238263333D01*
X186166666Y-238310952D01*
X186214285Y-238358571D01*
X186261904Y-238453809D01*
X186261904Y-238691904D01*
X186214285Y-238787142D01*
X186166666Y-238834761D01*
X186071428Y-238882380D01*
X185785714Y-238882380D01*
X185690476Y-238834761D01*
X185642857Y-238787142D01*
%TO.C,D74*%
X208998214Y-238882380D02*
X208998214Y-237882380D01*
X209236309Y-237882380D01*
X209379166Y-237930000D01*
X209474404Y-238025238D01*
X209522023Y-238120476D01*
X209569642Y-238310952D01*
X209569642Y-238453809D01*
X209522023Y-238644285D01*
X209474404Y-238739523D01*
X209379166Y-238834761D01*
X209236309Y-238882380D01*
X208998214Y-238882380D01*
X209902976Y-237882380D02*
X210569642Y-237882380D01*
X210141071Y-238882380D01*
X211379166Y-238215714D02*
X211379166Y-238882380D01*
X211141071Y-237834761D02*
X210902976Y-238549047D01*
X211522023Y-238549047D01*
%TO.C,D75*%
X232785714Y-238882380D02*
X232785714Y-237882380D01*
X233023809Y-237882380D01*
X233166666Y-237930000D01*
X233261904Y-238025238D01*
X233309523Y-238120476D01*
X233357142Y-238310952D01*
X233357142Y-238453809D01*
X233309523Y-238644285D01*
X233261904Y-238739523D01*
X233166666Y-238834761D01*
X233023809Y-238882380D01*
X232785714Y-238882380D01*
X233690476Y-237882380D02*
X234357142Y-237882380D01*
X233928571Y-238882380D01*
X235214285Y-237882380D02*
X234738095Y-237882380D01*
X234690476Y-238358571D01*
X234738095Y-238310952D01*
X234833333Y-238263333D01*
X235071428Y-238263333D01*
X235166666Y-238310952D01*
X235214285Y-238358571D01*
X235261904Y-238453809D01*
X235261904Y-238691904D01*
X235214285Y-238787142D01*
X235166666Y-238834761D01*
X235071428Y-238882380D01*
X234833333Y-238882380D01*
X234738095Y-238834761D01*
X234690476Y-238787142D01*
%TO.C,D76*%
X255785714Y-238882380D02*
X255785714Y-237882380D01*
X256023809Y-237882380D01*
X256166666Y-237930000D01*
X256261904Y-238025238D01*
X256309523Y-238120476D01*
X256357142Y-238310952D01*
X256357142Y-238453809D01*
X256309523Y-238644285D01*
X256261904Y-238739523D01*
X256166666Y-238834761D01*
X256023809Y-238882380D01*
X255785714Y-238882380D01*
X256690476Y-237882380D02*
X257357142Y-237882380D01*
X256928571Y-238882380D01*
X258166666Y-237882380D02*
X257976190Y-237882380D01*
X257880952Y-237930000D01*
X257833333Y-237977619D01*
X257738095Y-238120476D01*
X257690476Y-238310952D01*
X257690476Y-238691904D01*
X257738095Y-238787142D01*
X257785714Y-238834761D01*
X257880952Y-238882380D01*
X258071428Y-238882380D01*
X258166666Y-238834761D01*
X258214285Y-238787142D01*
X258261904Y-238691904D01*
X258261904Y-238453809D01*
X258214285Y-238358571D01*
X258166666Y-238310952D01*
X258071428Y-238263333D01*
X257880952Y-238263333D01*
X257785714Y-238310952D01*
X257738095Y-238358571D01*
X257690476Y-238453809D01*
%TO.C,D77*%
X277998214Y-238882380D02*
X277998214Y-237882380D01*
X278236309Y-237882380D01*
X278379166Y-237930000D01*
X278474404Y-238025238D01*
X278522023Y-238120476D01*
X278569642Y-238310952D01*
X278569642Y-238453809D01*
X278522023Y-238644285D01*
X278474404Y-238739523D01*
X278379166Y-238834761D01*
X278236309Y-238882380D01*
X277998214Y-238882380D01*
X278902976Y-237882380D02*
X279569642Y-237882380D01*
X279141071Y-238882380D01*
X279855357Y-237882380D02*
X280522023Y-237882380D01*
X280093452Y-238882380D01*
%TO.C,D78*%
X298785714Y-238882380D02*
X298785714Y-237882380D01*
X299023809Y-237882380D01*
X299166666Y-237930000D01*
X299261904Y-238025238D01*
X299309523Y-238120476D01*
X299357142Y-238310952D01*
X299357142Y-238453809D01*
X299309523Y-238644285D01*
X299261904Y-238739523D01*
X299166666Y-238834761D01*
X299023809Y-238882380D01*
X298785714Y-238882380D01*
X299690476Y-237882380D02*
X300357142Y-237882380D01*
X299928571Y-238882380D01*
X300880952Y-238310952D02*
X300785714Y-238263333D01*
X300738095Y-238215714D01*
X300690476Y-238120476D01*
X300690476Y-238072857D01*
X300738095Y-237977619D01*
X300785714Y-237930000D01*
X300880952Y-237882380D01*
X301071428Y-237882380D01*
X301166666Y-237930000D01*
X301214285Y-237977619D01*
X301261904Y-238072857D01*
X301261904Y-238120476D01*
X301214285Y-238215714D01*
X301166666Y-238263333D01*
X301071428Y-238310952D01*
X300880952Y-238310952D01*
X300785714Y-238358571D01*
X300738095Y-238406190D01*
X300690476Y-238501428D01*
X300690476Y-238691904D01*
X300738095Y-238787142D01*
X300785714Y-238834761D01*
X300880952Y-238882380D01*
X301071428Y-238882380D01*
X301166666Y-238834761D01*
X301214285Y-238787142D01*
X301261904Y-238691904D01*
X301261904Y-238501428D01*
X301214285Y-238406190D01*
X301166666Y-238358571D01*
X301071428Y-238310952D01*
%TO.C,D79*%
X317785714Y-238882380D02*
X317785714Y-237882380D01*
X318023809Y-237882380D01*
X318166666Y-237930000D01*
X318261904Y-238025238D01*
X318309523Y-238120476D01*
X318357142Y-238310952D01*
X318357142Y-238453809D01*
X318309523Y-238644285D01*
X318261904Y-238739523D01*
X318166666Y-238834761D01*
X318023809Y-238882380D01*
X317785714Y-238882380D01*
X318690476Y-237882380D02*
X319357142Y-237882380D01*
X318928571Y-238882380D01*
X319785714Y-238882380D02*
X319976190Y-238882380D01*
X320071428Y-238834761D01*
X320119047Y-238787142D01*
X320214285Y-238644285D01*
X320261904Y-238453809D01*
X320261904Y-238072857D01*
X320214285Y-237977619D01*
X320166666Y-237930000D01*
X320071428Y-237882380D01*
X319880952Y-237882380D01*
X319785714Y-237930000D01*
X319738095Y-237977619D01*
X319690476Y-238072857D01*
X319690476Y-238310952D01*
X319738095Y-238406190D01*
X319785714Y-238453809D01*
X319880952Y-238501428D01*
X320071428Y-238501428D01*
X320166666Y-238453809D01*
X320214285Y-238406190D01*
X320261904Y-238310952D01*
%TO.C,D80*%
X334998214Y-238882380D02*
X334998214Y-237882380D01*
X335236309Y-237882380D01*
X335379166Y-237930000D01*
X335474404Y-238025238D01*
X335522023Y-238120476D01*
X335569642Y-238310952D01*
X335569642Y-238453809D01*
X335522023Y-238644285D01*
X335474404Y-238739523D01*
X335379166Y-238834761D01*
X335236309Y-238882380D01*
X334998214Y-238882380D01*
X336141071Y-238310952D02*
X336045833Y-238263333D01*
X335998214Y-238215714D01*
X335950595Y-238120476D01*
X335950595Y-238072857D01*
X335998214Y-237977619D01*
X336045833Y-237930000D01*
X336141071Y-237882380D01*
X336331547Y-237882380D01*
X336426785Y-237930000D01*
X336474404Y-237977619D01*
X336522023Y-238072857D01*
X336522023Y-238120476D01*
X336474404Y-238215714D01*
X336426785Y-238263333D01*
X336331547Y-238310952D01*
X336141071Y-238310952D01*
X336045833Y-238358571D01*
X335998214Y-238406190D01*
X335950595Y-238501428D01*
X335950595Y-238691904D01*
X335998214Y-238787142D01*
X336045833Y-238834761D01*
X336141071Y-238882380D01*
X336331547Y-238882380D01*
X336426785Y-238834761D01*
X336474404Y-238787142D01*
X336522023Y-238691904D01*
X336522023Y-238501428D01*
X336474404Y-238406190D01*
X336426785Y-238358571D01*
X336331547Y-238310952D01*
X337141071Y-237882380D02*
X337236309Y-237882380D01*
X337331547Y-237930000D01*
X337379166Y-237977619D01*
X337426785Y-238072857D01*
X337474404Y-238263333D01*
X337474404Y-238501428D01*
X337426785Y-238691904D01*
X337379166Y-238787142D01*
X337331547Y-238834761D01*
X337236309Y-238882380D01*
X337141071Y-238882380D01*
X337045833Y-238834761D01*
X336998214Y-238787142D01*
X336950595Y-238691904D01*
X336902976Y-238501428D01*
X336902976Y-238263333D01*
X336950595Y-238072857D01*
X336998214Y-237977619D01*
X337045833Y-237930000D01*
X337141071Y-237882380D01*
%TO.C,D81*%
X352998214Y-238882380D02*
X352998214Y-237882380D01*
X353236309Y-237882380D01*
X353379166Y-237930000D01*
X353474404Y-238025238D01*
X353522023Y-238120476D01*
X353569642Y-238310952D01*
X353569642Y-238453809D01*
X353522023Y-238644285D01*
X353474404Y-238739523D01*
X353379166Y-238834761D01*
X353236309Y-238882380D01*
X352998214Y-238882380D01*
X354141071Y-238310952D02*
X354045833Y-238263333D01*
X353998214Y-238215714D01*
X353950595Y-238120476D01*
X353950595Y-238072857D01*
X353998214Y-237977619D01*
X354045833Y-237930000D01*
X354141071Y-237882380D01*
X354331547Y-237882380D01*
X354426785Y-237930000D01*
X354474404Y-237977619D01*
X354522023Y-238072857D01*
X354522023Y-238120476D01*
X354474404Y-238215714D01*
X354426785Y-238263333D01*
X354331547Y-238310952D01*
X354141071Y-238310952D01*
X354045833Y-238358571D01*
X353998214Y-238406190D01*
X353950595Y-238501428D01*
X353950595Y-238691904D01*
X353998214Y-238787142D01*
X354045833Y-238834761D01*
X354141071Y-238882380D01*
X354331547Y-238882380D01*
X354426785Y-238834761D01*
X354474404Y-238787142D01*
X354522023Y-238691904D01*
X354522023Y-238501428D01*
X354474404Y-238406190D01*
X354426785Y-238358571D01*
X354331547Y-238310952D01*
X355474404Y-238882380D02*
X354902976Y-238882380D01*
X355188690Y-238882380D02*
X355188690Y-237882380D01*
X355093452Y-238025238D01*
X354998214Y-238120476D01*
X354902976Y-238168095D01*
%TO.C,D82*%
X369785714Y-238882380D02*
X369785714Y-237882380D01*
X370023809Y-237882380D01*
X370166666Y-237930000D01*
X370261904Y-238025238D01*
X370309523Y-238120476D01*
X370357142Y-238310952D01*
X370357142Y-238453809D01*
X370309523Y-238644285D01*
X370261904Y-238739523D01*
X370166666Y-238834761D01*
X370023809Y-238882380D01*
X369785714Y-238882380D01*
X370928571Y-238310952D02*
X370833333Y-238263333D01*
X370785714Y-238215714D01*
X370738095Y-238120476D01*
X370738095Y-238072857D01*
X370785714Y-237977619D01*
X370833333Y-237930000D01*
X370928571Y-237882380D01*
X371119047Y-237882380D01*
X371214285Y-237930000D01*
X371261904Y-237977619D01*
X371309523Y-238072857D01*
X371309523Y-238120476D01*
X371261904Y-238215714D01*
X371214285Y-238263333D01*
X371119047Y-238310952D01*
X370928571Y-238310952D01*
X370833333Y-238358571D01*
X370785714Y-238406190D01*
X370738095Y-238501428D01*
X370738095Y-238691904D01*
X370785714Y-238787142D01*
X370833333Y-238834761D01*
X370928571Y-238882380D01*
X371119047Y-238882380D01*
X371214285Y-238834761D01*
X371261904Y-238787142D01*
X371309523Y-238691904D01*
X371309523Y-238501428D01*
X371261904Y-238406190D01*
X371214285Y-238358571D01*
X371119047Y-238310952D01*
X371690476Y-237977619D02*
X371738095Y-237930000D01*
X371833333Y-237882380D01*
X372071428Y-237882380D01*
X372166666Y-237930000D01*
X372214285Y-237977619D01*
X372261904Y-238072857D01*
X372261904Y-238168095D01*
X372214285Y-238310952D01*
X371642857Y-238882380D01*
X372261904Y-238882380D01*
%TO.C,D83*%
X385785714Y-238882380D02*
X385785714Y-237882380D01*
X386023809Y-237882380D01*
X386166666Y-237930000D01*
X386261904Y-238025238D01*
X386309523Y-238120476D01*
X386357142Y-238310952D01*
X386357142Y-238453809D01*
X386309523Y-238644285D01*
X386261904Y-238739523D01*
X386166666Y-238834761D01*
X386023809Y-238882380D01*
X385785714Y-238882380D01*
X386928571Y-238310952D02*
X386833333Y-238263333D01*
X386785714Y-238215714D01*
X386738095Y-238120476D01*
X386738095Y-238072857D01*
X386785714Y-237977619D01*
X386833333Y-237930000D01*
X386928571Y-237882380D01*
X387119047Y-237882380D01*
X387214285Y-237930000D01*
X387261904Y-237977619D01*
X387309523Y-238072857D01*
X387309523Y-238120476D01*
X387261904Y-238215714D01*
X387214285Y-238263333D01*
X387119047Y-238310952D01*
X386928571Y-238310952D01*
X386833333Y-238358571D01*
X386785714Y-238406190D01*
X386738095Y-238501428D01*
X386738095Y-238691904D01*
X386785714Y-238787142D01*
X386833333Y-238834761D01*
X386928571Y-238882380D01*
X387119047Y-238882380D01*
X387214285Y-238834761D01*
X387261904Y-238787142D01*
X387309523Y-238691904D01*
X387309523Y-238501428D01*
X387261904Y-238406190D01*
X387214285Y-238358571D01*
X387119047Y-238310952D01*
X387642857Y-237882380D02*
X388261904Y-237882380D01*
X387928571Y-238263333D01*
X388071428Y-238263333D01*
X388166666Y-238310952D01*
X388214285Y-238358571D01*
X388261904Y-238453809D01*
X388261904Y-238691904D01*
X388214285Y-238787142D01*
X388166666Y-238834761D01*
X388071428Y-238882380D01*
X387785714Y-238882380D01*
X387690476Y-238834761D01*
X387642857Y-238787142D01*
%TO.C,D84*%
X399785714Y-238882380D02*
X399785714Y-237882380D01*
X400023809Y-237882380D01*
X400166666Y-237930000D01*
X400261904Y-238025238D01*
X400309523Y-238120476D01*
X400357142Y-238310952D01*
X400357142Y-238453809D01*
X400309523Y-238644285D01*
X400261904Y-238739523D01*
X400166666Y-238834761D01*
X400023809Y-238882380D01*
X399785714Y-238882380D01*
X400928571Y-238310952D02*
X400833333Y-238263333D01*
X400785714Y-238215714D01*
X400738095Y-238120476D01*
X400738095Y-238072857D01*
X400785714Y-237977619D01*
X400833333Y-237930000D01*
X400928571Y-237882380D01*
X401119047Y-237882380D01*
X401214285Y-237930000D01*
X401261904Y-237977619D01*
X401309523Y-238072857D01*
X401309523Y-238120476D01*
X401261904Y-238215714D01*
X401214285Y-238263333D01*
X401119047Y-238310952D01*
X400928571Y-238310952D01*
X400833333Y-238358571D01*
X400785714Y-238406190D01*
X400738095Y-238501428D01*
X400738095Y-238691904D01*
X400785714Y-238787142D01*
X400833333Y-238834761D01*
X400928571Y-238882380D01*
X401119047Y-238882380D01*
X401214285Y-238834761D01*
X401261904Y-238787142D01*
X401309523Y-238691904D01*
X401309523Y-238501428D01*
X401261904Y-238406190D01*
X401214285Y-238358571D01*
X401119047Y-238310952D01*
X402166666Y-238215714D02*
X402166666Y-238882380D01*
X401928571Y-237834761D02*
X401690476Y-238549047D01*
X402309523Y-238549047D01*
%TO.C,D85*%
X412998214Y-238882380D02*
X412998214Y-237882380D01*
X413236309Y-237882380D01*
X413379166Y-237930000D01*
X413474404Y-238025238D01*
X413522023Y-238120476D01*
X413569642Y-238310952D01*
X413569642Y-238453809D01*
X413522023Y-238644285D01*
X413474404Y-238739523D01*
X413379166Y-238834761D01*
X413236309Y-238882380D01*
X412998214Y-238882380D01*
X414141071Y-238310952D02*
X414045833Y-238263333D01*
X413998214Y-238215714D01*
X413950595Y-238120476D01*
X413950595Y-238072857D01*
X413998214Y-237977619D01*
X414045833Y-237930000D01*
X414141071Y-237882380D01*
X414331547Y-237882380D01*
X414426785Y-237930000D01*
X414474404Y-237977619D01*
X414522023Y-238072857D01*
X414522023Y-238120476D01*
X414474404Y-238215714D01*
X414426785Y-238263333D01*
X414331547Y-238310952D01*
X414141071Y-238310952D01*
X414045833Y-238358571D01*
X413998214Y-238406190D01*
X413950595Y-238501428D01*
X413950595Y-238691904D01*
X413998214Y-238787142D01*
X414045833Y-238834761D01*
X414141071Y-238882380D01*
X414331547Y-238882380D01*
X414426785Y-238834761D01*
X414474404Y-238787142D01*
X414522023Y-238691904D01*
X414522023Y-238501428D01*
X414474404Y-238406190D01*
X414426785Y-238358571D01*
X414331547Y-238310952D01*
X415426785Y-237882380D02*
X414950595Y-237882380D01*
X414902976Y-238358571D01*
X414950595Y-238310952D01*
X415045833Y-238263333D01*
X415283928Y-238263333D01*
X415379166Y-238310952D01*
X415426785Y-238358571D01*
X415474404Y-238453809D01*
X415474404Y-238691904D01*
X415426785Y-238787142D01*
X415379166Y-238834761D01*
X415283928Y-238882380D01*
X415045833Y-238882380D01*
X414950595Y-238834761D01*
X414902976Y-238787142D01*
%TO.C,D86*%
X425998214Y-238882380D02*
X425998214Y-237882380D01*
X426236309Y-237882380D01*
X426379166Y-237930000D01*
X426474404Y-238025238D01*
X426522023Y-238120476D01*
X426569642Y-238310952D01*
X426569642Y-238453809D01*
X426522023Y-238644285D01*
X426474404Y-238739523D01*
X426379166Y-238834761D01*
X426236309Y-238882380D01*
X425998214Y-238882380D01*
X427141071Y-238310952D02*
X427045833Y-238263333D01*
X426998214Y-238215714D01*
X426950595Y-238120476D01*
X426950595Y-238072857D01*
X426998214Y-237977619D01*
X427045833Y-237930000D01*
X427141071Y-237882380D01*
X427331547Y-237882380D01*
X427426785Y-237930000D01*
X427474404Y-237977619D01*
X427522023Y-238072857D01*
X427522023Y-238120476D01*
X427474404Y-238215714D01*
X427426785Y-238263333D01*
X427331547Y-238310952D01*
X427141071Y-238310952D01*
X427045833Y-238358571D01*
X426998214Y-238406190D01*
X426950595Y-238501428D01*
X426950595Y-238691904D01*
X426998214Y-238787142D01*
X427045833Y-238834761D01*
X427141071Y-238882380D01*
X427331547Y-238882380D01*
X427426785Y-238834761D01*
X427474404Y-238787142D01*
X427522023Y-238691904D01*
X427522023Y-238501428D01*
X427474404Y-238406190D01*
X427426785Y-238358571D01*
X427331547Y-238310952D01*
X428379166Y-237882380D02*
X428188690Y-237882380D01*
X428093452Y-237930000D01*
X428045833Y-237977619D01*
X427950595Y-238120476D01*
X427902976Y-238310952D01*
X427902976Y-238691904D01*
X427950595Y-238787142D01*
X427998214Y-238834761D01*
X428093452Y-238882380D01*
X428283928Y-238882380D01*
X428379166Y-238834761D01*
X428426785Y-238787142D01*
X428474404Y-238691904D01*
X428474404Y-238453809D01*
X428426785Y-238358571D01*
X428379166Y-238310952D01*
X428283928Y-238263333D01*
X428093452Y-238263333D01*
X427998214Y-238310952D01*
X427950595Y-238358571D01*
X427902976Y-238453809D01*
%TO.C,D87*%
X437998214Y-238882380D02*
X437998214Y-237882380D01*
X438236309Y-237882380D01*
X438379166Y-237930000D01*
X438474404Y-238025238D01*
X438522023Y-238120476D01*
X438569642Y-238310952D01*
X438569642Y-238453809D01*
X438522023Y-238644285D01*
X438474404Y-238739523D01*
X438379166Y-238834761D01*
X438236309Y-238882380D01*
X437998214Y-238882380D01*
X439141071Y-238310952D02*
X439045833Y-238263333D01*
X438998214Y-238215714D01*
X438950595Y-238120476D01*
X438950595Y-238072857D01*
X438998214Y-237977619D01*
X439045833Y-237930000D01*
X439141071Y-237882380D01*
X439331547Y-237882380D01*
X439426785Y-237930000D01*
X439474404Y-237977619D01*
X439522023Y-238072857D01*
X439522023Y-238120476D01*
X439474404Y-238215714D01*
X439426785Y-238263333D01*
X439331547Y-238310952D01*
X439141071Y-238310952D01*
X439045833Y-238358571D01*
X438998214Y-238406190D01*
X438950595Y-238501428D01*
X438950595Y-238691904D01*
X438998214Y-238787142D01*
X439045833Y-238834761D01*
X439141071Y-238882380D01*
X439331547Y-238882380D01*
X439426785Y-238834761D01*
X439474404Y-238787142D01*
X439522023Y-238691904D01*
X439522023Y-238501428D01*
X439474404Y-238406190D01*
X439426785Y-238358571D01*
X439331547Y-238310952D01*
X439855357Y-237882380D02*
X440522023Y-237882380D01*
X440093452Y-238882380D01*
%TO.C,D89*%
X5785714Y-247882380D02*
X5785714Y-246882380D01*
X6023809Y-246882380D01*
X6166666Y-246930000D01*
X6261904Y-247025238D01*
X6309523Y-247120476D01*
X6357142Y-247310952D01*
X6357142Y-247453809D01*
X6309523Y-247644285D01*
X6261904Y-247739523D01*
X6166666Y-247834761D01*
X6023809Y-247882380D01*
X5785714Y-247882380D01*
X6928571Y-247310952D02*
X6833333Y-247263333D01*
X6785714Y-247215714D01*
X6738095Y-247120476D01*
X6738095Y-247072857D01*
X6785714Y-246977619D01*
X6833333Y-246930000D01*
X6928571Y-246882380D01*
X7119047Y-246882380D01*
X7214285Y-246930000D01*
X7261904Y-246977619D01*
X7309523Y-247072857D01*
X7309523Y-247120476D01*
X7261904Y-247215714D01*
X7214285Y-247263333D01*
X7119047Y-247310952D01*
X6928571Y-247310952D01*
X6833333Y-247358571D01*
X6785714Y-247406190D01*
X6738095Y-247501428D01*
X6738095Y-247691904D01*
X6785714Y-247787142D01*
X6833333Y-247834761D01*
X6928571Y-247882380D01*
X7119047Y-247882380D01*
X7214285Y-247834761D01*
X7261904Y-247787142D01*
X7309523Y-247691904D01*
X7309523Y-247501428D01*
X7261904Y-247406190D01*
X7214285Y-247358571D01*
X7119047Y-247310952D01*
X7785714Y-247882380D02*
X7976190Y-247882380D01*
X8071428Y-247834761D01*
X8119047Y-247787142D01*
X8214285Y-247644285D01*
X8261904Y-247453809D01*
X8261904Y-247072857D01*
X8214285Y-246977619D01*
X8166666Y-246930000D01*
X8071428Y-246882380D01*
X7880952Y-246882380D01*
X7785714Y-246930000D01*
X7738095Y-246977619D01*
X7690476Y-247072857D01*
X7690476Y-247310952D01*
X7738095Y-247406190D01*
X7785714Y-247453809D01*
X7880952Y-247501428D01*
X8071428Y-247501428D01*
X8166666Y-247453809D01*
X8214285Y-247406190D01*
X8261904Y-247310952D01*
%TO.C,D90*%
X25998214Y-247882380D02*
X25998214Y-246882380D01*
X26236309Y-246882380D01*
X26379166Y-246930000D01*
X26474404Y-247025238D01*
X26522023Y-247120476D01*
X26569642Y-247310952D01*
X26569642Y-247453809D01*
X26522023Y-247644285D01*
X26474404Y-247739523D01*
X26379166Y-247834761D01*
X26236309Y-247882380D01*
X25998214Y-247882380D01*
X27045833Y-247882380D02*
X27236309Y-247882380D01*
X27331547Y-247834761D01*
X27379166Y-247787142D01*
X27474404Y-247644285D01*
X27522023Y-247453809D01*
X27522023Y-247072857D01*
X27474404Y-246977619D01*
X27426785Y-246930000D01*
X27331547Y-246882380D01*
X27141071Y-246882380D01*
X27045833Y-246930000D01*
X26998214Y-246977619D01*
X26950595Y-247072857D01*
X26950595Y-247310952D01*
X26998214Y-247406190D01*
X27045833Y-247453809D01*
X27141071Y-247501428D01*
X27331547Y-247501428D01*
X27426785Y-247453809D01*
X27474404Y-247406190D01*
X27522023Y-247310952D01*
X28141071Y-246882380D02*
X28236309Y-246882380D01*
X28331547Y-246930000D01*
X28379166Y-246977619D01*
X28426785Y-247072857D01*
X28474404Y-247263333D01*
X28474404Y-247501428D01*
X28426785Y-247691904D01*
X28379166Y-247787142D01*
X28331547Y-247834761D01*
X28236309Y-247882380D01*
X28141071Y-247882380D01*
X28045833Y-247834761D01*
X27998214Y-247787142D01*
X27950595Y-247691904D01*
X27902976Y-247501428D01*
X27902976Y-247263333D01*
X27950595Y-247072857D01*
X27998214Y-246977619D01*
X28045833Y-246930000D01*
X28141071Y-246882380D01*
%TO.C,D91*%
X64998214Y-247882380D02*
X64998214Y-246882380D01*
X65236309Y-246882380D01*
X65379166Y-246930000D01*
X65474404Y-247025238D01*
X65522023Y-247120476D01*
X65569642Y-247310952D01*
X65569642Y-247453809D01*
X65522023Y-247644285D01*
X65474404Y-247739523D01*
X65379166Y-247834761D01*
X65236309Y-247882380D01*
X64998214Y-247882380D01*
X66045833Y-247882380D02*
X66236309Y-247882380D01*
X66331547Y-247834761D01*
X66379166Y-247787142D01*
X66474404Y-247644285D01*
X66522023Y-247453809D01*
X66522023Y-247072857D01*
X66474404Y-246977619D01*
X66426785Y-246930000D01*
X66331547Y-246882380D01*
X66141071Y-246882380D01*
X66045833Y-246930000D01*
X65998214Y-246977619D01*
X65950595Y-247072857D01*
X65950595Y-247310952D01*
X65998214Y-247406190D01*
X66045833Y-247453809D01*
X66141071Y-247501428D01*
X66331547Y-247501428D01*
X66426785Y-247453809D01*
X66474404Y-247406190D01*
X66522023Y-247310952D01*
X67474404Y-247882380D02*
X66902976Y-247882380D01*
X67188690Y-247882380D02*
X67188690Y-246882380D01*
X67093452Y-247025238D01*
X66998214Y-247120476D01*
X66902976Y-247168095D01*
%TO.C,D92*%
X98998214Y-247882380D02*
X98998214Y-246882380D01*
X99236309Y-246882380D01*
X99379166Y-246930000D01*
X99474404Y-247025238D01*
X99522023Y-247120476D01*
X99569642Y-247310952D01*
X99569642Y-247453809D01*
X99522023Y-247644285D01*
X99474404Y-247739523D01*
X99379166Y-247834761D01*
X99236309Y-247882380D01*
X98998214Y-247882380D01*
X100045833Y-247882380D02*
X100236309Y-247882380D01*
X100331547Y-247834761D01*
X100379166Y-247787142D01*
X100474404Y-247644285D01*
X100522023Y-247453809D01*
X100522023Y-247072857D01*
X100474404Y-246977619D01*
X100426785Y-246930000D01*
X100331547Y-246882380D01*
X100141071Y-246882380D01*
X100045833Y-246930000D01*
X99998214Y-246977619D01*
X99950595Y-247072857D01*
X99950595Y-247310952D01*
X99998214Y-247406190D01*
X100045833Y-247453809D01*
X100141071Y-247501428D01*
X100331547Y-247501428D01*
X100426785Y-247453809D01*
X100474404Y-247406190D01*
X100522023Y-247310952D01*
X100902976Y-246977619D02*
X100950595Y-246930000D01*
X101045833Y-246882380D01*
X101283928Y-246882380D01*
X101379166Y-246930000D01*
X101426785Y-246977619D01*
X101474404Y-247072857D01*
X101474404Y-247168095D01*
X101426785Y-247310952D01*
X100855357Y-247882380D01*
X101474404Y-247882380D01*
%TO.C,D93*%
X127998214Y-247882380D02*
X127998214Y-246882380D01*
X128236309Y-246882380D01*
X128379166Y-246930000D01*
X128474404Y-247025238D01*
X128522023Y-247120476D01*
X128569642Y-247310952D01*
X128569642Y-247453809D01*
X128522023Y-247644285D01*
X128474404Y-247739523D01*
X128379166Y-247834761D01*
X128236309Y-247882380D01*
X127998214Y-247882380D01*
X129045833Y-247882380D02*
X129236309Y-247882380D01*
X129331547Y-247834761D01*
X129379166Y-247787142D01*
X129474404Y-247644285D01*
X129522023Y-247453809D01*
X129522023Y-247072857D01*
X129474404Y-246977619D01*
X129426785Y-246930000D01*
X129331547Y-246882380D01*
X129141071Y-246882380D01*
X129045833Y-246930000D01*
X128998214Y-246977619D01*
X128950595Y-247072857D01*
X128950595Y-247310952D01*
X128998214Y-247406190D01*
X129045833Y-247453809D01*
X129141071Y-247501428D01*
X129331547Y-247501428D01*
X129426785Y-247453809D01*
X129474404Y-247406190D01*
X129522023Y-247310952D01*
X129855357Y-246882380D02*
X130474404Y-246882380D01*
X130141071Y-247263333D01*
X130283928Y-247263333D01*
X130379166Y-247310952D01*
X130426785Y-247358571D01*
X130474404Y-247453809D01*
X130474404Y-247691904D01*
X130426785Y-247787142D01*
X130379166Y-247834761D01*
X130283928Y-247882380D01*
X129998214Y-247882380D01*
X129902976Y-247834761D01*
X129855357Y-247787142D01*
%TO.C,D94*%
X157785714Y-247882380D02*
X157785714Y-246882380D01*
X158023809Y-246882380D01*
X158166666Y-246930000D01*
X158261904Y-247025238D01*
X158309523Y-247120476D01*
X158357142Y-247310952D01*
X158357142Y-247453809D01*
X158309523Y-247644285D01*
X158261904Y-247739523D01*
X158166666Y-247834761D01*
X158023809Y-247882380D01*
X157785714Y-247882380D01*
X158833333Y-247882380D02*
X159023809Y-247882380D01*
X159119047Y-247834761D01*
X159166666Y-247787142D01*
X159261904Y-247644285D01*
X159309523Y-247453809D01*
X159309523Y-247072857D01*
X159261904Y-246977619D01*
X159214285Y-246930000D01*
X159119047Y-246882380D01*
X158928571Y-246882380D01*
X158833333Y-246930000D01*
X158785714Y-246977619D01*
X158738095Y-247072857D01*
X158738095Y-247310952D01*
X158785714Y-247406190D01*
X158833333Y-247453809D01*
X158928571Y-247501428D01*
X159119047Y-247501428D01*
X159214285Y-247453809D01*
X159261904Y-247406190D01*
X159309523Y-247310952D01*
X160166666Y-247215714D02*
X160166666Y-247882380D01*
X159928571Y-246834761D02*
X159690476Y-247549047D01*
X160309523Y-247549047D01*
%TO.C,D95*%
X183785714Y-247882380D02*
X183785714Y-246882380D01*
X184023809Y-246882380D01*
X184166666Y-246930000D01*
X184261904Y-247025238D01*
X184309523Y-247120476D01*
X184357142Y-247310952D01*
X184357142Y-247453809D01*
X184309523Y-247644285D01*
X184261904Y-247739523D01*
X184166666Y-247834761D01*
X184023809Y-247882380D01*
X183785714Y-247882380D01*
X184833333Y-247882380D02*
X185023809Y-247882380D01*
X185119047Y-247834761D01*
X185166666Y-247787142D01*
X185261904Y-247644285D01*
X185309523Y-247453809D01*
X185309523Y-247072857D01*
X185261904Y-246977619D01*
X185214285Y-246930000D01*
X185119047Y-246882380D01*
X184928571Y-246882380D01*
X184833333Y-246930000D01*
X184785714Y-246977619D01*
X184738095Y-247072857D01*
X184738095Y-247310952D01*
X184785714Y-247406190D01*
X184833333Y-247453809D01*
X184928571Y-247501428D01*
X185119047Y-247501428D01*
X185214285Y-247453809D01*
X185261904Y-247406190D01*
X185309523Y-247310952D01*
X186214285Y-246882380D02*
X185738095Y-246882380D01*
X185690476Y-247358571D01*
X185738095Y-247310952D01*
X185833333Y-247263333D01*
X186071428Y-247263333D01*
X186166666Y-247310952D01*
X186214285Y-247358571D01*
X186261904Y-247453809D01*
X186261904Y-247691904D01*
X186214285Y-247787142D01*
X186166666Y-247834761D01*
X186071428Y-247882380D01*
X185833333Y-247882380D01*
X185738095Y-247834761D01*
X185690476Y-247787142D01*
%TO.C,D96*%
X208998214Y-247882380D02*
X208998214Y-246882380D01*
X209236309Y-246882380D01*
X209379166Y-246930000D01*
X209474404Y-247025238D01*
X209522023Y-247120476D01*
X209569642Y-247310952D01*
X209569642Y-247453809D01*
X209522023Y-247644285D01*
X209474404Y-247739523D01*
X209379166Y-247834761D01*
X209236309Y-247882380D01*
X208998214Y-247882380D01*
X210045833Y-247882380D02*
X210236309Y-247882380D01*
X210331547Y-247834761D01*
X210379166Y-247787142D01*
X210474404Y-247644285D01*
X210522023Y-247453809D01*
X210522023Y-247072857D01*
X210474404Y-246977619D01*
X210426785Y-246930000D01*
X210331547Y-246882380D01*
X210141071Y-246882380D01*
X210045833Y-246930000D01*
X209998214Y-246977619D01*
X209950595Y-247072857D01*
X209950595Y-247310952D01*
X209998214Y-247406190D01*
X210045833Y-247453809D01*
X210141071Y-247501428D01*
X210331547Y-247501428D01*
X210426785Y-247453809D01*
X210474404Y-247406190D01*
X210522023Y-247310952D01*
X211379166Y-246882380D02*
X211188690Y-246882380D01*
X211093452Y-246930000D01*
X211045833Y-246977619D01*
X210950595Y-247120476D01*
X210902976Y-247310952D01*
X210902976Y-247691904D01*
X210950595Y-247787142D01*
X210998214Y-247834761D01*
X211093452Y-247882380D01*
X211283928Y-247882380D01*
X211379166Y-247834761D01*
X211426785Y-247787142D01*
X211474404Y-247691904D01*
X211474404Y-247453809D01*
X211426785Y-247358571D01*
X211379166Y-247310952D01*
X211283928Y-247263333D01*
X211093452Y-247263333D01*
X210998214Y-247310952D01*
X210950595Y-247358571D01*
X210902976Y-247453809D01*
%TO.C,D97*%
X232785714Y-247882380D02*
X232785714Y-246882380D01*
X233023809Y-246882380D01*
X233166666Y-246930000D01*
X233261904Y-247025238D01*
X233309523Y-247120476D01*
X233357142Y-247310952D01*
X233357142Y-247453809D01*
X233309523Y-247644285D01*
X233261904Y-247739523D01*
X233166666Y-247834761D01*
X233023809Y-247882380D01*
X232785714Y-247882380D01*
X233833333Y-247882380D02*
X234023809Y-247882380D01*
X234119047Y-247834761D01*
X234166666Y-247787142D01*
X234261904Y-247644285D01*
X234309523Y-247453809D01*
X234309523Y-247072857D01*
X234261904Y-246977619D01*
X234214285Y-246930000D01*
X234119047Y-246882380D01*
X233928571Y-246882380D01*
X233833333Y-246930000D01*
X233785714Y-246977619D01*
X233738095Y-247072857D01*
X233738095Y-247310952D01*
X233785714Y-247406190D01*
X233833333Y-247453809D01*
X233928571Y-247501428D01*
X234119047Y-247501428D01*
X234214285Y-247453809D01*
X234261904Y-247406190D01*
X234309523Y-247310952D01*
X234642857Y-246882380D02*
X235309523Y-246882380D01*
X234880952Y-247882380D01*
%TO.C,D98*%
X255785714Y-247882380D02*
X255785714Y-246882380D01*
X256023809Y-246882380D01*
X256166666Y-246930000D01*
X256261904Y-247025238D01*
X256309523Y-247120476D01*
X256357142Y-247310952D01*
X256357142Y-247453809D01*
X256309523Y-247644285D01*
X256261904Y-247739523D01*
X256166666Y-247834761D01*
X256023809Y-247882380D01*
X255785714Y-247882380D01*
X256833333Y-247882380D02*
X257023809Y-247882380D01*
X257119047Y-247834761D01*
X257166666Y-247787142D01*
X257261904Y-247644285D01*
X257309523Y-247453809D01*
X257309523Y-247072857D01*
X257261904Y-246977619D01*
X257214285Y-246930000D01*
X257119047Y-246882380D01*
X256928571Y-246882380D01*
X256833333Y-246930000D01*
X256785714Y-246977619D01*
X256738095Y-247072857D01*
X256738095Y-247310952D01*
X256785714Y-247406190D01*
X256833333Y-247453809D01*
X256928571Y-247501428D01*
X257119047Y-247501428D01*
X257214285Y-247453809D01*
X257261904Y-247406190D01*
X257309523Y-247310952D01*
X257880952Y-247310952D02*
X257785714Y-247263333D01*
X257738095Y-247215714D01*
X257690476Y-247120476D01*
X257690476Y-247072857D01*
X257738095Y-246977619D01*
X257785714Y-246930000D01*
X257880952Y-246882380D01*
X258071428Y-246882380D01*
X258166666Y-246930000D01*
X258214285Y-246977619D01*
X258261904Y-247072857D01*
X258261904Y-247120476D01*
X258214285Y-247215714D01*
X258166666Y-247263333D01*
X258071428Y-247310952D01*
X257880952Y-247310952D01*
X257785714Y-247358571D01*
X257738095Y-247406190D01*
X257690476Y-247501428D01*
X257690476Y-247691904D01*
X257738095Y-247787142D01*
X257785714Y-247834761D01*
X257880952Y-247882380D01*
X258071428Y-247882380D01*
X258166666Y-247834761D01*
X258214285Y-247787142D01*
X258261904Y-247691904D01*
X258261904Y-247501428D01*
X258214285Y-247406190D01*
X258166666Y-247358571D01*
X258071428Y-247310952D01*
%TO.C,D99*%
X277998214Y-247882380D02*
X277998214Y-246882380D01*
X278236309Y-246882380D01*
X278379166Y-246930000D01*
X278474404Y-247025238D01*
X278522023Y-247120476D01*
X278569642Y-247310952D01*
X278569642Y-247453809D01*
X278522023Y-247644285D01*
X278474404Y-247739523D01*
X278379166Y-247834761D01*
X278236309Y-247882380D01*
X277998214Y-247882380D01*
X279045833Y-247882380D02*
X279236309Y-247882380D01*
X279331547Y-247834761D01*
X279379166Y-247787142D01*
X279474404Y-247644285D01*
X279522023Y-247453809D01*
X279522023Y-247072857D01*
X279474404Y-246977619D01*
X279426785Y-246930000D01*
X279331547Y-246882380D01*
X279141071Y-246882380D01*
X279045833Y-246930000D01*
X278998214Y-246977619D01*
X278950595Y-247072857D01*
X278950595Y-247310952D01*
X278998214Y-247406190D01*
X279045833Y-247453809D01*
X279141071Y-247501428D01*
X279331547Y-247501428D01*
X279426785Y-247453809D01*
X279474404Y-247406190D01*
X279522023Y-247310952D01*
X279998214Y-247882380D02*
X280188690Y-247882380D01*
X280283928Y-247834761D01*
X280331547Y-247787142D01*
X280426785Y-247644285D01*
X280474404Y-247453809D01*
X280474404Y-247072857D01*
X280426785Y-246977619D01*
X280379166Y-246930000D01*
X280283928Y-246882380D01*
X280093452Y-246882380D01*
X279998214Y-246930000D01*
X279950595Y-246977619D01*
X279902976Y-247072857D01*
X279902976Y-247310952D01*
X279950595Y-247406190D01*
X279998214Y-247453809D01*
X280093452Y-247501428D01*
X280283928Y-247501428D01*
X280379166Y-247453809D01*
X280426785Y-247406190D01*
X280474404Y-247310952D01*
%TO.C,D100*%
X298309523Y-247882380D02*
X298309523Y-246882380D01*
X298547619Y-246882380D01*
X298690476Y-246930000D01*
X298785714Y-247025238D01*
X298833333Y-247120476D01*
X298880952Y-247310952D01*
X298880952Y-247453809D01*
X298833333Y-247644285D01*
X298785714Y-247739523D01*
X298690476Y-247834761D01*
X298547619Y-247882380D01*
X298309523Y-247882380D01*
X299833333Y-247882380D02*
X299261904Y-247882380D01*
X299547619Y-247882380D02*
X299547619Y-246882380D01*
X299452380Y-247025238D01*
X299357142Y-247120476D01*
X299261904Y-247168095D01*
X300452380Y-246882380D02*
X300547619Y-246882380D01*
X300642857Y-246930000D01*
X300690476Y-246977619D01*
X300738095Y-247072857D01*
X300785714Y-247263333D01*
X300785714Y-247501428D01*
X300738095Y-247691904D01*
X300690476Y-247787142D01*
X300642857Y-247834761D01*
X300547619Y-247882380D01*
X300452380Y-247882380D01*
X300357142Y-247834761D01*
X300309523Y-247787142D01*
X300261904Y-247691904D01*
X300214285Y-247501428D01*
X300214285Y-247263333D01*
X300261904Y-247072857D01*
X300309523Y-246977619D01*
X300357142Y-246930000D01*
X300452380Y-246882380D01*
X301404761Y-246882380D02*
X301500000Y-246882380D01*
X301595238Y-246930000D01*
X301642857Y-246977619D01*
X301690476Y-247072857D01*
X301738095Y-247263333D01*
X301738095Y-247501428D01*
X301690476Y-247691904D01*
X301642857Y-247787142D01*
X301595238Y-247834761D01*
X301500000Y-247882380D01*
X301404761Y-247882380D01*
X301309523Y-247834761D01*
X301261904Y-247787142D01*
X301214285Y-247691904D01*
X301166666Y-247501428D01*
X301166666Y-247263333D01*
X301214285Y-247072857D01*
X301261904Y-246977619D01*
X301309523Y-246930000D01*
X301404761Y-246882380D01*
%TO.C,D101*%
X317309523Y-247882380D02*
X317309523Y-246882380D01*
X317547619Y-246882380D01*
X317690476Y-246930000D01*
X317785714Y-247025238D01*
X317833333Y-247120476D01*
X317880952Y-247310952D01*
X317880952Y-247453809D01*
X317833333Y-247644285D01*
X317785714Y-247739523D01*
X317690476Y-247834761D01*
X317547619Y-247882380D01*
X317309523Y-247882380D01*
X318833333Y-247882380D02*
X318261904Y-247882380D01*
X318547619Y-247882380D02*
X318547619Y-246882380D01*
X318452380Y-247025238D01*
X318357142Y-247120476D01*
X318261904Y-247168095D01*
X319452380Y-246882380D02*
X319547619Y-246882380D01*
X319642857Y-246930000D01*
X319690476Y-246977619D01*
X319738095Y-247072857D01*
X319785714Y-247263333D01*
X319785714Y-247501428D01*
X319738095Y-247691904D01*
X319690476Y-247787142D01*
X319642857Y-247834761D01*
X319547619Y-247882380D01*
X319452380Y-247882380D01*
X319357142Y-247834761D01*
X319309523Y-247787142D01*
X319261904Y-247691904D01*
X319214285Y-247501428D01*
X319214285Y-247263333D01*
X319261904Y-247072857D01*
X319309523Y-246977619D01*
X319357142Y-246930000D01*
X319452380Y-246882380D01*
X320738095Y-247882380D02*
X320166666Y-247882380D01*
X320452380Y-247882380D02*
X320452380Y-246882380D01*
X320357142Y-247025238D01*
X320261904Y-247120476D01*
X320166666Y-247168095D01*
%TO.C,D102*%
X334522023Y-247882380D02*
X334522023Y-246882380D01*
X334760119Y-246882380D01*
X334902976Y-246930000D01*
X334998214Y-247025238D01*
X335045833Y-247120476D01*
X335093452Y-247310952D01*
X335093452Y-247453809D01*
X335045833Y-247644285D01*
X334998214Y-247739523D01*
X334902976Y-247834761D01*
X334760119Y-247882380D01*
X334522023Y-247882380D01*
X336045833Y-247882380D02*
X335474404Y-247882380D01*
X335760119Y-247882380D02*
X335760119Y-246882380D01*
X335664880Y-247025238D01*
X335569642Y-247120476D01*
X335474404Y-247168095D01*
X336664880Y-246882380D02*
X336760119Y-246882380D01*
X336855357Y-246930000D01*
X336902976Y-246977619D01*
X336950595Y-247072857D01*
X336998214Y-247263333D01*
X336998214Y-247501428D01*
X336950595Y-247691904D01*
X336902976Y-247787142D01*
X336855357Y-247834761D01*
X336760119Y-247882380D01*
X336664880Y-247882380D01*
X336569642Y-247834761D01*
X336522023Y-247787142D01*
X336474404Y-247691904D01*
X336426785Y-247501428D01*
X336426785Y-247263333D01*
X336474404Y-247072857D01*
X336522023Y-246977619D01*
X336569642Y-246930000D01*
X336664880Y-246882380D01*
X337379166Y-246977619D02*
X337426785Y-246930000D01*
X337522023Y-246882380D01*
X337760119Y-246882380D01*
X337855357Y-246930000D01*
X337902976Y-246977619D01*
X337950595Y-247072857D01*
X337950595Y-247168095D01*
X337902976Y-247310952D01*
X337331547Y-247882380D01*
X337950595Y-247882380D01*
%TO.C,D103*%
X352522023Y-247882380D02*
X352522023Y-246882380D01*
X352760119Y-246882380D01*
X352902976Y-246930000D01*
X352998214Y-247025238D01*
X353045833Y-247120476D01*
X353093452Y-247310952D01*
X353093452Y-247453809D01*
X353045833Y-247644285D01*
X352998214Y-247739523D01*
X352902976Y-247834761D01*
X352760119Y-247882380D01*
X352522023Y-247882380D01*
X354045833Y-247882380D02*
X353474404Y-247882380D01*
X353760119Y-247882380D02*
X353760119Y-246882380D01*
X353664880Y-247025238D01*
X353569642Y-247120476D01*
X353474404Y-247168095D01*
X354664880Y-246882380D02*
X354760119Y-246882380D01*
X354855357Y-246930000D01*
X354902976Y-246977619D01*
X354950595Y-247072857D01*
X354998214Y-247263333D01*
X354998214Y-247501428D01*
X354950595Y-247691904D01*
X354902976Y-247787142D01*
X354855357Y-247834761D01*
X354760119Y-247882380D01*
X354664880Y-247882380D01*
X354569642Y-247834761D01*
X354522023Y-247787142D01*
X354474404Y-247691904D01*
X354426785Y-247501428D01*
X354426785Y-247263333D01*
X354474404Y-247072857D01*
X354522023Y-246977619D01*
X354569642Y-246930000D01*
X354664880Y-246882380D01*
X355331547Y-246882380D02*
X355950595Y-246882380D01*
X355617261Y-247263333D01*
X355760119Y-247263333D01*
X355855357Y-247310952D01*
X355902976Y-247358571D01*
X355950595Y-247453809D01*
X355950595Y-247691904D01*
X355902976Y-247787142D01*
X355855357Y-247834761D01*
X355760119Y-247882380D01*
X355474404Y-247882380D01*
X355379166Y-247834761D01*
X355331547Y-247787142D01*
%TO.C,D104*%
X369309523Y-247882380D02*
X369309523Y-246882380D01*
X369547619Y-246882380D01*
X369690476Y-246930000D01*
X369785714Y-247025238D01*
X369833333Y-247120476D01*
X369880952Y-247310952D01*
X369880952Y-247453809D01*
X369833333Y-247644285D01*
X369785714Y-247739523D01*
X369690476Y-247834761D01*
X369547619Y-247882380D01*
X369309523Y-247882380D01*
X370833333Y-247882380D02*
X370261904Y-247882380D01*
X370547619Y-247882380D02*
X370547619Y-246882380D01*
X370452380Y-247025238D01*
X370357142Y-247120476D01*
X370261904Y-247168095D01*
X371452380Y-246882380D02*
X371547619Y-246882380D01*
X371642857Y-246930000D01*
X371690476Y-246977619D01*
X371738095Y-247072857D01*
X371785714Y-247263333D01*
X371785714Y-247501428D01*
X371738095Y-247691904D01*
X371690476Y-247787142D01*
X371642857Y-247834761D01*
X371547619Y-247882380D01*
X371452380Y-247882380D01*
X371357142Y-247834761D01*
X371309523Y-247787142D01*
X371261904Y-247691904D01*
X371214285Y-247501428D01*
X371214285Y-247263333D01*
X371261904Y-247072857D01*
X371309523Y-246977619D01*
X371357142Y-246930000D01*
X371452380Y-246882380D01*
X372642857Y-247215714D02*
X372642857Y-247882380D01*
X372404761Y-246834761D02*
X372166666Y-247549047D01*
X372785714Y-247549047D01*
%TO.C,D105*%
X385309523Y-247882380D02*
X385309523Y-246882380D01*
X385547619Y-246882380D01*
X385690476Y-246930000D01*
X385785714Y-247025238D01*
X385833333Y-247120476D01*
X385880952Y-247310952D01*
X385880952Y-247453809D01*
X385833333Y-247644285D01*
X385785714Y-247739523D01*
X385690476Y-247834761D01*
X385547619Y-247882380D01*
X385309523Y-247882380D01*
X386833333Y-247882380D02*
X386261904Y-247882380D01*
X386547619Y-247882380D02*
X386547619Y-246882380D01*
X386452380Y-247025238D01*
X386357142Y-247120476D01*
X386261904Y-247168095D01*
X387452380Y-246882380D02*
X387547619Y-246882380D01*
X387642857Y-246930000D01*
X387690476Y-246977619D01*
X387738095Y-247072857D01*
X387785714Y-247263333D01*
X387785714Y-247501428D01*
X387738095Y-247691904D01*
X387690476Y-247787142D01*
X387642857Y-247834761D01*
X387547619Y-247882380D01*
X387452380Y-247882380D01*
X387357142Y-247834761D01*
X387309523Y-247787142D01*
X387261904Y-247691904D01*
X387214285Y-247501428D01*
X387214285Y-247263333D01*
X387261904Y-247072857D01*
X387309523Y-246977619D01*
X387357142Y-246930000D01*
X387452380Y-246882380D01*
X388690476Y-246882380D02*
X388214285Y-246882380D01*
X388166666Y-247358571D01*
X388214285Y-247310952D01*
X388309523Y-247263333D01*
X388547619Y-247263333D01*
X388642857Y-247310952D01*
X388690476Y-247358571D01*
X388738095Y-247453809D01*
X388738095Y-247691904D01*
X388690476Y-247787142D01*
X388642857Y-247834761D01*
X388547619Y-247882380D01*
X388309523Y-247882380D01*
X388214285Y-247834761D01*
X388166666Y-247787142D01*
%TO.C,D106*%
X399309523Y-247882380D02*
X399309523Y-246882380D01*
X399547619Y-246882380D01*
X399690476Y-246930000D01*
X399785714Y-247025238D01*
X399833333Y-247120476D01*
X399880952Y-247310952D01*
X399880952Y-247453809D01*
X399833333Y-247644285D01*
X399785714Y-247739523D01*
X399690476Y-247834761D01*
X399547619Y-247882380D01*
X399309523Y-247882380D01*
X400833333Y-247882380D02*
X400261904Y-247882380D01*
X400547619Y-247882380D02*
X400547619Y-246882380D01*
X400452380Y-247025238D01*
X400357142Y-247120476D01*
X400261904Y-247168095D01*
X401452380Y-246882380D02*
X401547619Y-246882380D01*
X401642857Y-246930000D01*
X401690476Y-246977619D01*
X401738095Y-247072857D01*
X401785714Y-247263333D01*
X401785714Y-247501428D01*
X401738095Y-247691904D01*
X401690476Y-247787142D01*
X401642857Y-247834761D01*
X401547619Y-247882380D01*
X401452380Y-247882380D01*
X401357142Y-247834761D01*
X401309523Y-247787142D01*
X401261904Y-247691904D01*
X401214285Y-247501428D01*
X401214285Y-247263333D01*
X401261904Y-247072857D01*
X401309523Y-246977619D01*
X401357142Y-246930000D01*
X401452380Y-246882380D01*
X402642857Y-246882380D02*
X402452380Y-246882380D01*
X402357142Y-246930000D01*
X402309523Y-246977619D01*
X402214285Y-247120476D01*
X402166666Y-247310952D01*
X402166666Y-247691904D01*
X402214285Y-247787142D01*
X402261904Y-247834761D01*
X402357142Y-247882380D01*
X402547619Y-247882380D01*
X402642857Y-247834761D01*
X402690476Y-247787142D01*
X402738095Y-247691904D01*
X402738095Y-247453809D01*
X402690476Y-247358571D01*
X402642857Y-247310952D01*
X402547619Y-247263333D01*
X402357142Y-247263333D01*
X402261904Y-247310952D01*
X402214285Y-247358571D01*
X402166666Y-247453809D01*
%TO.C,D107*%
X412522023Y-247882380D02*
X412522023Y-246882380D01*
X412760119Y-246882380D01*
X412902976Y-246930000D01*
X412998214Y-247025238D01*
X413045833Y-247120476D01*
X413093452Y-247310952D01*
X413093452Y-247453809D01*
X413045833Y-247644285D01*
X412998214Y-247739523D01*
X412902976Y-247834761D01*
X412760119Y-247882380D01*
X412522023Y-247882380D01*
X414045833Y-247882380D02*
X413474404Y-247882380D01*
X413760119Y-247882380D02*
X413760119Y-246882380D01*
X413664880Y-247025238D01*
X413569642Y-247120476D01*
X413474404Y-247168095D01*
X414664880Y-246882380D02*
X414760119Y-246882380D01*
X414855357Y-246930000D01*
X414902976Y-246977619D01*
X414950595Y-247072857D01*
X414998214Y-247263333D01*
X414998214Y-247501428D01*
X414950595Y-247691904D01*
X414902976Y-247787142D01*
X414855357Y-247834761D01*
X414760119Y-247882380D01*
X414664880Y-247882380D01*
X414569642Y-247834761D01*
X414522023Y-247787142D01*
X414474404Y-247691904D01*
X414426785Y-247501428D01*
X414426785Y-247263333D01*
X414474404Y-247072857D01*
X414522023Y-246977619D01*
X414569642Y-246930000D01*
X414664880Y-246882380D01*
X415331547Y-246882380D02*
X415998214Y-246882380D01*
X415569642Y-247882380D01*
%TO.C,D108*%
X425522023Y-247882380D02*
X425522023Y-246882380D01*
X425760119Y-246882380D01*
X425902976Y-246930000D01*
X425998214Y-247025238D01*
X426045833Y-247120476D01*
X426093452Y-247310952D01*
X426093452Y-247453809D01*
X426045833Y-247644285D01*
X425998214Y-247739523D01*
X425902976Y-247834761D01*
X425760119Y-247882380D01*
X425522023Y-247882380D01*
X427045833Y-247882380D02*
X426474404Y-247882380D01*
X426760119Y-247882380D02*
X426760119Y-246882380D01*
X426664880Y-247025238D01*
X426569642Y-247120476D01*
X426474404Y-247168095D01*
X427664880Y-246882380D02*
X427760119Y-246882380D01*
X427855357Y-246930000D01*
X427902976Y-246977619D01*
X427950595Y-247072857D01*
X427998214Y-247263333D01*
X427998214Y-247501428D01*
X427950595Y-247691904D01*
X427902976Y-247787142D01*
X427855357Y-247834761D01*
X427760119Y-247882380D01*
X427664880Y-247882380D01*
X427569642Y-247834761D01*
X427522023Y-247787142D01*
X427474404Y-247691904D01*
X427426785Y-247501428D01*
X427426785Y-247263333D01*
X427474404Y-247072857D01*
X427522023Y-246977619D01*
X427569642Y-246930000D01*
X427664880Y-246882380D01*
X428569642Y-247310952D02*
X428474404Y-247263333D01*
X428426785Y-247215714D01*
X428379166Y-247120476D01*
X428379166Y-247072857D01*
X428426785Y-246977619D01*
X428474404Y-246930000D01*
X428569642Y-246882380D01*
X428760119Y-246882380D01*
X428855357Y-246930000D01*
X428902976Y-246977619D01*
X428950595Y-247072857D01*
X428950595Y-247120476D01*
X428902976Y-247215714D01*
X428855357Y-247263333D01*
X428760119Y-247310952D01*
X428569642Y-247310952D01*
X428474404Y-247358571D01*
X428426785Y-247406190D01*
X428379166Y-247501428D01*
X428379166Y-247691904D01*
X428426785Y-247787142D01*
X428474404Y-247834761D01*
X428569642Y-247882380D01*
X428760119Y-247882380D01*
X428855357Y-247834761D01*
X428902976Y-247787142D01*
X428950595Y-247691904D01*
X428950595Y-247501428D01*
X428902976Y-247406190D01*
X428855357Y-247358571D01*
X428760119Y-247310952D01*
%TO.C,D109*%
X437522023Y-247882380D02*
X437522023Y-246882380D01*
X437760119Y-246882380D01*
X437902976Y-246930000D01*
X437998214Y-247025238D01*
X438045833Y-247120476D01*
X438093452Y-247310952D01*
X438093452Y-247453809D01*
X438045833Y-247644285D01*
X437998214Y-247739523D01*
X437902976Y-247834761D01*
X437760119Y-247882380D01*
X437522023Y-247882380D01*
X439045833Y-247882380D02*
X438474404Y-247882380D01*
X438760119Y-247882380D02*
X438760119Y-246882380D01*
X438664880Y-247025238D01*
X438569642Y-247120476D01*
X438474404Y-247168095D01*
X439664880Y-246882380D02*
X439760119Y-246882380D01*
X439855357Y-246930000D01*
X439902976Y-246977619D01*
X439950595Y-247072857D01*
X439998214Y-247263333D01*
X439998214Y-247501428D01*
X439950595Y-247691904D01*
X439902976Y-247787142D01*
X439855357Y-247834761D01*
X439760119Y-247882380D01*
X439664880Y-247882380D01*
X439569642Y-247834761D01*
X439522023Y-247787142D01*
X439474404Y-247691904D01*
X439426785Y-247501428D01*
X439426785Y-247263333D01*
X439474404Y-247072857D01*
X439522023Y-246977619D01*
X439569642Y-246930000D01*
X439664880Y-246882380D01*
X440474404Y-247882380D02*
X440664880Y-247882380D01*
X440760119Y-247834761D01*
X440807738Y-247787142D01*
X440902976Y-247644285D01*
X440950595Y-247453809D01*
X440950595Y-247072857D01*
X440902976Y-246977619D01*
X440855357Y-246930000D01*
X440760119Y-246882380D01*
X440569642Y-246882380D01*
X440474404Y-246930000D01*
X440426785Y-246977619D01*
X440379166Y-247072857D01*
X440379166Y-247310952D01*
X440426785Y-247406190D01*
X440474404Y-247453809D01*
X440569642Y-247501428D01*
X440760119Y-247501428D01*
X440855357Y-247453809D01*
X440902976Y-247406190D01*
X440950595Y-247310952D01*
%TO.C,D111*%
X5309523Y-256882380D02*
X5309523Y-255882380D01*
X5547619Y-255882380D01*
X5690476Y-255930000D01*
X5785714Y-256025238D01*
X5833333Y-256120476D01*
X5880952Y-256310952D01*
X5880952Y-256453809D01*
X5833333Y-256644285D01*
X5785714Y-256739523D01*
X5690476Y-256834761D01*
X5547619Y-256882380D01*
X5309523Y-256882380D01*
X6833333Y-256882380D02*
X6261904Y-256882380D01*
X6547619Y-256882380D02*
X6547619Y-255882380D01*
X6452380Y-256025238D01*
X6357142Y-256120476D01*
X6261904Y-256168095D01*
X7785714Y-256882380D02*
X7214285Y-256882380D01*
X7500000Y-256882380D02*
X7500000Y-255882380D01*
X7404761Y-256025238D01*
X7309523Y-256120476D01*
X7214285Y-256168095D01*
X8738095Y-256882380D02*
X8166666Y-256882380D01*
X8452380Y-256882380D02*
X8452380Y-255882380D01*
X8357142Y-256025238D01*
X8261904Y-256120476D01*
X8166666Y-256168095D01*
%TO.C,D112*%
X25522023Y-256882380D02*
X25522023Y-255882380D01*
X25760119Y-255882380D01*
X25902976Y-255930000D01*
X25998214Y-256025238D01*
X26045833Y-256120476D01*
X26093452Y-256310952D01*
X26093452Y-256453809D01*
X26045833Y-256644285D01*
X25998214Y-256739523D01*
X25902976Y-256834761D01*
X25760119Y-256882380D01*
X25522023Y-256882380D01*
X27045833Y-256882380D02*
X26474404Y-256882380D01*
X26760119Y-256882380D02*
X26760119Y-255882380D01*
X26664880Y-256025238D01*
X26569642Y-256120476D01*
X26474404Y-256168095D01*
X27998214Y-256882380D02*
X27426785Y-256882380D01*
X27712500Y-256882380D02*
X27712500Y-255882380D01*
X27617261Y-256025238D01*
X27522023Y-256120476D01*
X27426785Y-256168095D01*
X28379166Y-255977619D02*
X28426785Y-255930000D01*
X28522023Y-255882380D01*
X28760119Y-255882380D01*
X28855357Y-255930000D01*
X28902976Y-255977619D01*
X28950595Y-256072857D01*
X28950595Y-256168095D01*
X28902976Y-256310952D01*
X28331547Y-256882380D01*
X28950595Y-256882380D01*
%TO.C,D113*%
X64522023Y-256882380D02*
X64522023Y-255882380D01*
X64760119Y-255882380D01*
X64902976Y-255930000D01*
X64998214Y-256025238D01*
X65045833Y-256120476D01*
X65093452Y-256310952D01*
X65093452Y-256453809D01*
X65045833Y-256644285D01*
X64998214Y-256739523D01*
X64902976Y-256834761D01*
X64760119Y-256882380D01*
X64522023Y-256882380D01*
X66045833Y-256882380D02*
X65474404Y-256882380D01*
X65760119Y-256882380D02*
X65760119Y-255882380D01*
X65664880Y-256025238D01*
X65569642Y-256120476D01*
X65474404Y-256168095D01*
X66998214Y-256882380D02*
X66426785Y-256882380D01*
X66712500Y-256882380D02*
X66712500Y-255882380D01*
X66617261Y-256025238D01*
X66522023Y-256120476D01*
X66426785Y-256168095D01*
X67331547Y-255882380D02*
X67950595Y-255882380D01*
X67617261Y-256263333D01*
X67760119Y-256263333D01*
X67855357Y-256310952D01*
X67902976Y-256358571D01*
X67950595Y-256453809D01*
X67950595Y-256691904D01*
X67902976Y-256787142D01*
X67855357Y-256834761D01*
X67760119Y-256882380D01*
X67474404Y-256882380D01*
X67379166Y-256834761D01*
X67331547Y-256787142D01*
%TO.C,D114*%
X98522023Y-256882380D02*
X98522023Y-255882380D01*
X98760119Y-255882380D01*
X98902976Y-255930000D01*
X98998214Y-256025238D01*
X99045833Y-256120476D01*
X99093452Y-256310952D01*
X99093452Y-256453809D01*
X99045833Y-256644285D01*
X98998214Y-256739523D01*
X98902976Y-256834761D01*
X98760119Y-256882380D01*
X98522023Y-256882380D01*
X100045833Y-256882380D02*
X99474404Y-256882380D01*
X99760119Y-256882380D02*
X99760119Y-255882380D01*
X99664880Y-256025238D01*
X99569642Y-256120476D01*
X99474404Y-256168095D01*
X100998214Y-256882380D02*
X100426785Y-256882380D01*
X100712500Y-256882380D02*
X100712500Y-255882380D01*
X100617261Y-256025238D01*
X100522023Y-256120476D01*
X100426785Y-256168095D01*
X101855357Y-256215714D02*
X101855357Y-256882380D01*
X101617261Y-255834761D02*
X101379166Y-256549047D01*
X101998214Y-256549047D01*
%TO.C,D115*%
X127522023Y-256882380D02*
X127522023Y-255882380D01*
X127760119Y-255882380D01*
X127902976Y-255930000D01*
X127998214Y-256025238D01*
X128045833Y-256120476D01*
X128093452Y-256310952D01*
X128093452Y-256453809D01*
X128045833Y-256644285D01*
X127998214Y-256739523D01*
X127902976Y-256834761D01*
X127760119Y-256882380D01*
X127522023Y-256882380D01*
X129045833Y-256882380D02*
X128474404Y-256882380D01*
X128760119Y-256882380D02*
X128760119Y-255882380D01*
X128664880Y-256025238D01*
X128569642Y-256120476D01*
X128474404Y-256168095D01*
X129998214Y-256882380D02*
X129426785Y-256882380D01*
X129712500Y-256882380D02*
X129712500Y-255882380D01*
X129617261Y-256025238D01*
X129522023Y-256120476D01*
X129426785Y-256168095D01*
X130902976Y-255882380D02*
X130426785Y-255882380D01*
X130379166Y-256358571D01*
X130426785Y-256310952D01*
X130522023Y-256263333D01*
X130760119Y-256263333D01*
X130855357Y-256310952D01*
X130902976Y-256358571D01*
X130950595Y-256453809D01*
X130950595Y-256691904D01*
X130902976Y-256787142D01*
X130855357Y-256834761D01*
X130760119Y-256882380D01*
X130522023Y-256882380D01*
X130426785Y-256834761D01*
X130379166Y-256787142D01*
%TO.C,D116*%
X157309523Y-256882380D02*
X157309523Y-255882380D01*
X157547619Y-255882380D01*
X157690476Y-255930000D01*
X157785714Y-256025238D01*
X157833333Y-256120476D01*
X157880952Y-256310952D01*
X157880952Y-256453809D01*
X157833333Y-256644285D01*
X157785714Y-256739523D01*
X157690476Y-256834761D01*
X157547619Y-256882380D01*
X157309523Y-256882380D01*
X158833333Y-256882380D02*
X158261904Y-256882380D01*
X158547619Y-256882380D02*
X158547619Y-255882380D01*
X158452380Y-256025238D01*
X158357142Y-256120476D01*
X158261904Y-256168095D01*
X159785714Y-256882380D02*
X159214285Y-256882380D01*
X159500000Y-256882380D02*
X159500000Y-255882380D01*
X159404761Y-256025238D01*
X159309523Y-256120476D01*
X159214285Y-256168095D01*
X160642857Y-255882380D02*
X160452380Y-255882380D01*
X160357142Y-255930000D01*
X160309523Y-255977619D01*
X160214285Y-256120476D01*
X160166666Y-256310952D01*
X160166666Y-256691904D01*
X160214285Y-256787142D01*
X160261904Y-256834761D01*
X160357142Y-256882380D01*
X160547619Y-256882380D01*
X160642857Y-256834761D01*
X160690476Y-256787142D01*
X160738095Y-256691904D01*
X160738095Y-256453809D01*
X160690476Y-256358571D01*
X160642857Y-256310952D01*
X160547619Y-256263333D01*
X160357142Y-256263333D01*
X160261904Y-256310952D01*
X160214285Y-256358571D01*
X160166666Y-256453809D01*
%TO.C,D117*%
X183309523Y-256882380D02*
X183309523Y-255882380D01*
X183547619Y-255882380D01*
X183690476Y-255930000D01*
X183785714Y-256025238D01*
X183833333Y-256120476D01*
X183880952Y-256310952D01*
X183880952Y-256453809D01*
X183833333Y-256644285D01*
X183785714Y-256739523D01*
X183690476Y-256834761D01*
X183547619Y-256882380D01*
X183309523Y-256882380D01*
X184833333Y-256882380D02*
X184261904Y-256882380D01*
X184547619Y-256882380D02*
X184547619Y-255882380D01*
X184452380Y-256025238D01*
X184357142Y-256120476D01*
X184261904Y-256168095D01*
X185785714Y-256882380D02*
X185214285Y-256882380D01*
X185500000Y-256882380D02*
X185500000Y-255882380D01*
X185404761Y-256025238D01*
X185309523Y-256120476D01*
X185214285Y-256168095D01*
X186119047Y-255882380D02*
X186785714Y-255882380D01*
X186357142Y-256882380D01*
%TO.C,D118*%
X208522023Y-256882380D02*
X208522023Y-255882380D01*
X208760119Y-255882380D01*
X208902976Y-255930000D01*
X208998214Y-256025238D01*
X209045833Y-256120476D01*
X209093452Y-256310952D01*
X209093452Y-256453809D01*
X209045833Y-256644285D01*
X208998214Y-256739523D01*
X208902976Y-256834761D01*
X208760119Y-256882380D01*
X208522023Y-256882380D01*
X210045833Y-256882380D02*
X209474404Y-256882380D01*
X209760119Y-256882380D02*
X209760119Y-255882380D01*
X209664880Y-256025238D01*
X209569642Y-256120476D01*
X209474404Y-256168095D01*
X210998214Y-256882380D02*
X210426785Y-256882380D01*
X210712500Y-256882380D02*
X210712500Y-255882380D01*
X210617261Y-256025238D01*
X210522023Y-256120476D01*
X210426785Y-256168095D01*
X211569642Y-256310952D02*
X211474404Y-256263333D01*
X211426785Y-256215714D01*
X211379166Y-256120476D01*
X211379166Y-256072857D01*
X211426785Y-255977619D01*
X211474404Y-255930000D01*
X211569642Y-255882380D01*
X211760119Y-255882380D01*
X211855357Y-255930000D01*
X211902976Y-255977619D01*
X211950595Y-256072857D01*
X211950595Y-256120476D01*
X211902976Y-256215714D01*
X211855357Y-256263333D01*
X211760119Y-256310952D01*
X211569642Y-256310952D01*
X211474404Y-256358571D01*
X211426785Y-256406190D01*
X211379166Y-256501428D01*
X211379166Y-256691904D01*
X211426785Y-256787142D01*
X211474404Y-256834761D01*
X211569642Y-256882380D01*
X211760119Y-256882380D01*
X211855357Y-256834761D01*
X211902976Y-256787142D01*
X211950595Y-256691904D01*
X211950595Y-256501428D01*
X211902976Y-256406190D01*
X211855357Y-256358571D01*
X211760119Y-256310952D01*
%TO.C,D119*%
X232309523Y-256882380D02*
X232309523Y-255882380D01*
X232547619Y-255882380D01*
X232690476Y-255930000D01*
X232785714Y-256025238D01*
X232833333Y-256120476D01*
X232880952Y-256310952D01*
X232880952Y-256453809D01*
X232833333Y-256644285D01*
X232785714Y-256739523D01*
X232690476Y-256834761D01*
X232547619Y-256882380D01*
X232309523Y-256882380D01*
X233833333Y-256882380D02*
X233261904Y-256882380D01*
X233547619Y-256882380D02*
X233547619Y-255882380D01*
X233452380Y-256025238D01*
X233357142Y-256120476D01*
X233261904Y-256168095D01*
X234785714Y-256882380D02*
X234214285Y-256882380D01*
X234500000Y-256882380D02*
X234500000Y-255882380D01*
X234404761Y-256025238D01*
X234309523Y-256120476D01*
X234214285Y-256168095D01*
X235261904Y-256882380D02*
X235452380Y-256882380D01*
X235547619Y-256834761D01*
X235595238Y-256787142D01*
X235690476Y-256644285D01*
X235738095Y-256453809D01*
X235738095Y-256072857D01*
X235690476Y-255977619D01*
X235642857Y-255930000D01*
X235547619Y-255882380D01*
X235357142Y-255882380D01*
X235261904Y-255930000D01*
X235214285Y-255977619D01*
X235166666Y-256072857D01*
X235166666Y-256310952D01*
X235214285Y-256406190D01*
X235261904Y-256453809D01*
X235357142Y-256501428D01*
X235547619Y-256501428D01*
X235642857Y-256453809D01*
X235690476Y-256406190D01*
X235738095Y-256310952D01*
%TO.C,D120*%
X255309523Y-256882380D02*
X255309523Y-255882380D01*
X255547619Y-255882380D01*
X255690476Y-255930000D01*
X255785714Y-256025238D01*
X255833333Y-256120476D01*
X255880952Y-256310952D01*
X255880952Y-256453809D01*
X255833333Y-256644285D01*
X255785714Y-256739523D01*
X255690476Y-256834761D01*
X255547619Y-256882380D01*
X255309523Y-256882380D01*
X256833333Y-256882380D02*
X256261904Y-256882380D01*
X256547619Y-256882380D02*
X256547619Y-255882380D01*
X256452380Y-256025238D01*
X256357142Y-256120476D01*
X256261904Y-256168095D01*
X257214285Y-255977619D02*
X257261904Y-255930000D01*
X257357142Y-255882380D01*
X257595238Y-255882380D01*
X257690476Y-255930000D01*
X257738095Y-255977619D01*
X257785714Y-256072857D01*
X257785714Y-256168095D01*
X257738095Y-256310952D01*
X257166666Y-256882380D01*
X257785714Y-256882380D01*
X258404761Y-255882380D02*
X258500000Y-255882380D01*
X258595238Y-255930000D01*
X258642857Y-255977619D01*
X258690476Y-256072857D01*
X258738095Y-256263333D01*
X258738095Y-256501428D01*
X258690476Y-256691904D01*
X258642857Y-256787142D01*
X258595238Y-256834761D01*
X258500000Y-256882380D01*
X258404761Y-256882380D01*
X258309523Y-256834761D01*
X258261904Y-256787142D01*
X258214285Y-256691904D01*
X258166666Y-256501428D01*
X258166666Y-256263333D01*
X258214285Y-256072857D01*
X258261904Y-255977619D01*
X258309523Y-255930000D01*
X258404761Y-255882380D01*
%TO.C,D121*%
X277522023Y-256882380D02*
X277522023Y-255882380D01*
X277760119Y-255882380D01*
X277902976Y-255930000D01*
X277998214Y-256025238D01*
X278045833Y-256120476D01*
X278093452Y-256310952D01*
X278093452Y-256453809D01*
X278045833Y-256644285D01*
X277998214Y-256739523D01*
X277902976Y-256834761D01*
X277760119Y-256882380D01*
X277522023Y-256882380D01*
X279045833Y-256882380D02*
X278474404Y-256882380D01*
X278760119Y-256882380D02*
X278760119Y-255882380D01*
X278664880Y-256025238D01*
X278569642Y-256120476D01*
X278474404Y-256168095D01*
X279426785Y-255977619D02*
X279474404Y-255930000D01*
X279569642Y-255882380D01*
X279807738Y-255882380D01*
X279902976Y-255930000D01*
X279950595Y-255977619D01*
X279998214Y-256072857D01*
X279998214Y-256168095D01*
X279950595Y-256310952D01*
X279379166Y-256882380D01*
X279998214Y-256882380D01*
X280950595Y-256882380D02*
X280379166Y-256882380D01*
X280664880Y-256882380D02*
X280664880Y-255882380D01*
X280569642Y-256025238D01*
X280474404Y-256120476D01*
X280379166Y-256168095D01*
%TO.C,D122*%
X298309523Y-256882380D02*
X298309523Y-255882380D01*
X298547619Y-255882380D01*
X298690476Y-255930000D01*
X298785714Y-256025238D01*
X298833333Y-256120476D01*
X298880952Y-256310952D01*
X298880952Y-256453809D01*
X298833333Y-256644285D01*
X298785714Y-256739523D01*
X298690476Y-256834761D01*
X298547619Y-256882380D01*
X298309523Y-256882380D01*
X299833333Y-256882380D02*
X299261904Y-256882380D01*
X299547619Y-256882380D02*
X299547619Y-255882380D01*
X299452380Y-256025238D01*
X299357142Y-256120476D01*
X299261904Y-256168095D01*
X300214285Y-255977619D02*
X300261904Y-255930000D01*
X300357142Y-255882380D01*
X300595238Y-255882380D01*
X300690476Y-255930000D01*
X300738095Y-255977619D01*
X300785714Y-256072857D01*
X300785714Y-256168095D01*
X300738095Y-256310952D01*
X300166666Y-256882380D01*
X300785714Y-256882380D01*
X301166666Y-255977619D02*
X301214285Y-255930000D01*
X301309523Y-255882380D01*
X301547619Y-255882380D01*
X301642857Y-255930000D01*
X301690476Y-255977619D01*
X301738095Y-256072857D01*
X301738095Y-256168095D01*
X301690476Y-256310952D01*
X301119047Y-256882380D01*
X301738095Y-256882380D01*
%TO.C,D123*%
X317309523Y-256882380D02*
X317309523Y-255882380D01*
X317547619Y-255882380D01*
X317690476Y-255930000D01*
X317785714Y-256025238D01*
X317833333Y-256120476D01*
X317880952Y-256310952D01*
X317880952Y-256453809D01*
X317833333Y-256644285D01*
X317785714Y-256739523D01*
X317690476Y-256834761D01*
X317547619Y-256882380D01*
X317309523Y-256882380D01*
X318833333Y-256882380D02*
X318261904Y-256882380D01*
X318547619Y-256882380D02*
X318547619Y-255882380D01*
X318452380Y-256025238D01*
X318357142Y-256120476D01*
X318261904Y-256168095D01*
X319214285Y-255977619D02*
X319261904Y-255930000D01*
X319357142Y-255882380D01*
X319595238Y-255882380D01*
X319690476Y-255930000D01*
X319738095Y-255977619D01*
X319785714Y-256072857D01*
X319785714Y-256168095D01*
X319738095Y-256310952D01*
X319166666Y-256882380D01*
X319785714Y-256882380D01*
X320119047Y-255882380D02*
X320738095Y-255882380D01*
X320404761Y-256263333D01*
X320547619Y-256263333D01*
X320642857Y-256310952D01*
X320690476Y-256358571D01*
X320738095Y-256453809D01*
X320738095Y-256691904D01*
X320690476Y-256787142D01*
X320642857Y-256834761D01*
X320547619Y-256882380D01*
X320261904Y-256882380D01*
X320166666Y-256834761D01*
X320119047Y-256787142D01*
%TO.C,D124*%
X334522023Y-256882380D02*
X334522023Y-255882380D01*
X334760119Y-255882380D01*
X334902976Y-255930000D01*
X334998214Y-256025238D01*
X335045833Y-256120476D01*
X335093452Y-256310952D01*
X335093452Y-256453809D01*
X335045833Y-256644285D01*
X334998214Y-256739523D01*
X334902976Y-256834761D01*
X334760119Y-256882380D01*
X334522023Y-256882380D01*
X336045833Y-256882380D02*
X335474404Y-256882380D01*
X335760119Y-256882380D02*
X335760119Y-255882380D01*
X335664880Y-256025238D01*
X335569642Y-256120476D01*
X335474404Y-256168095D01*
X336426785Y-255977619D02*
X336474404Y-255930000D01*
X336569642Y-255882380D01*
X336807738Y-255882380D01*
X336902976Y-255930000D01*
X336950595Y-255977619D01*
X336998214Y-256072857D01*
X336998214Y-256168095D01*
X336950595Y-256310952D01*
X336379166Y-256882380D01*
X336998214Y-256882380D01*
X337855357Y-256215714D02*
X337855357Y-256882380D01*
X337617261Y-255834761D02*
X337379166Y-256549047D01*
X337998214Y-256549047D01*
%TO.C,D125*%
X352522023Y-256882380D02*
X352522023Y-255882380D01*
X352760119Y-255882380D01*
X352902976Y-255930000D01*
X352998214Y-256025238D01*
X353045833Y-256120476D01*
X353093452Y-256310952D01*
X353093452Y-256453809D01*
X353045833Y-256644285D01*
X352998214Y-256739523D01*
X352902976Y-256834761D01*
X352760119Y-256882380D01*
X352522023Y-256882380D01*
X354045833Y-256882380D02*
X353474404Y-256882380D01*
X353760119Y-256882380D02*
X353760119Y-255882380D01*
X353664880Y-256025238D01*
X353569642Y-256120476D01*
X353474404Y-256168095D01*
X354426785Y-255977619D02*
X354474404Y-255930000D01*
X354569642Y-255882380D01*
X354807738Y-255882380D01*
X354902976Y-255930000D01*
X354950595Y-255977619D01*
X354998214Y-256072857D01*
X354998214Y-256168095D01*
X354950595Y-256310952D01*
X354379166Y-256882380D01*
X354998214Y-256882380D01*
X355902976Y-255882380D02*
X355426785Y-255882380D01*
X355379166Y-256358571D01*
X355426785Y-256310952D01*
X355522023Y-256263333D01*
X355760119Y-256263333D01*
X355855357Y-256310952D01*
X355902976Y-256358571D01*
X355950595Y-256453809D01*
X355950595Y-256691904D01*
X355902976Y-256787142D01*
X355855357Y-256834761D01*
X355760119Y-256882380D01*
X355522023Y-256882380D01*
X355426785Y-256834761D01*
X355379166Y-256787142D01*
%TO.C,D126*%
X369309523Y-256882380D02*
X369309523Y-255882380D01*
X369547619Y-255882380D01*
X369690476Y-255930000D01*
X369785714Y-256025238D01*
X369833333Y-256120476D01*
X369880952Y-256310952D01*
X369880952Y-256453809D01*
X369833333Y-256644285D01*
X369785714Y-256739523D01*
X369690476Y-256834761D01*
X369547619Y-256882380D01*
X369309523Y-256882380D01*
X370833333Y-256882380D02*
X370261904Y-256882380D01*
X370547619Y-256882380D02*
X370547619Y-255882380D01*
X370452380Y-256025238D01*
X370357142Y-256120476D01*
X370261904Y-256168095D01*
X371214285Y-255977619D02*
X371261904Y-255930000D01*
X371357142Y-255882380D01*
X371595238Y-255882380D01*
X371690476Y-255930000D01*
X371738095Y-255977619D01*
X371785714Y-256072857D01*
X371785714Y-256168095D01*
X371738095Y-256310952D01*
X371166666Y-256882380D01*
X371785714Y-256882380D01*
X372642857Y-255882380D02*
X372452380Y-255882380D01*
X372357142Y-255930000D01*
X372309523Y-255977619D01*
X372214285Y-256120476D01*
X372166666Y-256310952D01*
X372166666Y-256691904D01*
X372214285Y-256787142D01*
X372261904Y-256834761D01*
X372357142Y-256882380D01*
X372547619Y-256882380D01*
X372642857Y-256834761D01*
X372690476Y-256787142D01*
X372738095Y-256691904D01*
X372738095Y-256453809D01*
X372690476Y-256358571D01*
X372642857Y-256310952D01*
X372547619Y-256263333D01*
X372357142Y-256263333D01*
X372261904Y-256310952D01*
X372214285Y-256358571D01*
X372166666Y-256453809D01*
%TO.C,D127*%
X385309523Y-256882380D02*
X385309523Y-255882380D01*
X385547619Y-255882380D01*
X385690476Y-255930000D01*
X385785714Y-256025238D01*
X385833333Y-256120476D01*
X385880952Y-256310952D01*
X385880952Y-256453809D01*
X385833333Y-256644285D01*
X385785714Y-256739523D01*
X385690476Y-256834761D01*
X385547619Y-256882380D01*
X385309523Y-256882380D01*
X386833333Y-256882380D02*
X386261904Y-256882380D01*
X386547619Y-256882380D02*
X386547619Y-255882380D01*
X386452380Y-256025238D01*
X386357142Y-256120476D01*
X386261904Y-256168095D01*
X387214285Y-255977619D02*
X387261904Y-255930000D01*
X387357142Y-255882380D01*
X387595238Y-255882380D01*
X387690476Y-255930000D01*
X387738095Y-255977619D01*
X387785714Y-256072857D01*
X387785714Y-256168095D01*
X387738095Y-256310952D01*
X387166666Y-256882380D01*
X387785714Y-256882380D01*
X388119047Y-255882380D02*
X388785714Y-255882380D01*
X388357142Y-256882380D01*
%TO.C,D128*%
X399309523Y-256882380D02*
X399309523Y-255882380D01*
X399547619Y-255882380D01*
X399690476Y-255930000D01*
X399785714Y-256025238D01*
X399833333Y-256120476D01*
X399880952Y-256310952D01*
X399880952Y-256453809D01*
X399833333Y-256644285D01*
X399785714Y-256739523D01*
X399690476Y-256834761D01*
X399547619Y-256882380D01*
X399309523Y-256882380D01*
X400833333Y-256882380D02*
X400261904Y-256882380D01*
X400547619Y-256882380D02*
X400547619Y-255882380D01*
X400452380Y-256025238D01*
X400357142Y-256120476D01*
X400261904Y-256168095D01*
X401214285Y-255977619D02*
X401261904Y-255930000D01*
X401357142Y-255882380D01*
X401595238Y-255882380D01*
X401690476Y-255930000D01*
X401738095Y-255977619D01*
X401785714Y-256072857D01*
X401785714Y-256168095D01*
X401738095Y-256310952D01*
X401166666Y-256882380D01*
X401785714Y-256882380D01*
X402357142Y-256310952D02*
X402261904Y-256263333D01*
X402214285Y-256215714D01*
X402166666Y-256120476D01*
X402166666Y-256072857D01*
X402214285Y-255977619D01*
X402261904Y-255930000D01*
X402357142Y-255882380D01*
X402547619Y-255882380D01*
X402642857Y-255930000D01*
X402690476Y-255977619D01*
X402738095Y-256072857D01*
X402738095Y-256120476D01*
X402690476Y-256215714D01*
X402642857Y-256263333D01*
X402547619Y-256310952D01*
X402357142Y-256310952D01*
X402261904Y-256358571D01*
X402214285Y-256406190D01*
X402166666Y-256501428D01*
X402166666Y-256691904D01*
X402214285Y-256787142D01*
X402261904Y-256834761D01*
X402357142Y-256882380D01*
X402547619Y-256882380D01*
X402642857Y-256834761D01*
X402690476Y-256787142D01*
X402738095Y-256691904D01*
X402738095Y-256501428D01*
X402690476Y-256406190D01*
X402642857Y-256358571D01*
X402547619Y-256310952D01*
%TO.C,D129*%
X412522023Y-256882380D02*
X412522023Y-255882380D01*
X412760119Y-255882380D01*
X412902976Y-255930000D01*
X412998214Y-256025238D01*
X413045833Y-256120476D01*
X413093452Y-256310952D01*
X413093452Y-256453809D01*
X413045833Y-256644285D01*
X412998214Y-256739523D01*
X412902976Y-256834761D01*
X412760119Y-256882380D01*
X412522023Y-256882380D01*
X414045833Y-256882380D02*
X413474404Y-256882380D01*
X413760119Y-256882380D02*
X413760119Y-255882380D01*
X413664880Y-256025238D01*
X413569642Y-256120476D01*
X413474404Y-256168095D01*
X414426785Y-255977619D02*
X414474404Y-255930000D01*
X414569642Y-255882380D01*
X414807738Y-255882380D01*
X414902976Y-255930000D01*
X414950595Y-255977619D01*
X414998214Y-256072857D01*
X414998214Y-256168095D01*
X414950595Y-256310952D01*
X414379166Y-256882380D01*
X414998214Y-256882380D01*
X415474404Y-256882380D02*
X415664880Y-256882380D01*
X415760119Y-256834761D01*
X415807738Y-256787142D01*
X415902976Y-256644285D01*
X415950595Y-256453809D01*
X415950595Y-256072857D01*
X415902976Y-255977619D01*
X415855357Y-255930000D01*
X415760119Y-255882380D01*
X415569642Y-255882380D01*
X415474404Y-255930000D01*
X415426785Y-255977619D01*
X415379166Y-256072857D01*
X415379166Y-256310952D01*
X415426785Y-256406190D01*
X415474404Y-256453809D01*
X415569642Y-256501428D01*
X415760119Y-256501428D01*
X415855357Y-256453809D01*
X415902976Y-256406190D01*
X415950595Y-256310952D01*
%TO.C,D130*%
X425522023Y-256882380D02*
X425522023Y-255882380D01*
X425760119Y-255882380D01*
X425902976Y-255930000D01*
X425998214Y-256025238D01*
X426045833Y-256120476D01*
X426093452Y-256310952D01*
X426093452Y-256453809D01*
X426045833Y-256644285D01*
X425998214Y-256739523D01*
X425902976Y-256834761D01*
X425760119Y-256882380D01*
X425522023Y-256882380D01*
X427045833Y-256882380D02*
X426474404Y-256882380D01*
X426760119Y-256882380D02*
X426760119Y-255882380D01*
X426664880Y-256025238D01*
X426569642Y-256120476D01*
X426474404Y-256168095D01*
X427379166Y-255882380D02*
X427998214Y-255882380D01*
X427664880Y-256263333D01*
X427807738Y-256263333D01*
X427902976Y-256310952D01*
X427950595Y-256358571D01*
X427998214Y-256453809D01*
X427998214Y-256691904D01*
X427950595Y-256787142D01*
X427902976Y-256834761D01*
X427807738Y-256882380D01*
X427522023Y-256882380D01*
X427426785Y-256834761D01*
X427379166Y-256787142D01*
X428617261Y-255882380D02*
X428712500Y-255882380D01*
X428807738Y-255930000D01*
X428855357Y-255977619D01*
X428902976Y-256072857D01*
X428950595Y-256263333D01*
X428950595Y-256501428D01*
X428902976Y-256691904D01*
X428855357Y-256787142D01*
X428807738Y-256834761D01*
X428712500Y-256882380D01*
X428617261Y-256882380D01*
X428522023Y-256834761D01*
X428474404Y-256787142D01*
X428426785Y-256691904D01*
X428379166Y-256501428D01*
X428379166Y-256263333D01*
X428426785Y-256072857D01*
X428474404Y-255977619D01*
X428522023Y-255930000D01*
X428617261Y-255882380D01*
%TO.C,D131*%
X437522023Y-256882380D02*
X437522023Y-255882380D01*
X437760119Y-255882380D01*
X437902976Y-255930000D01*
X437998214Y-256025238D01*
X438045833Y-256120476D01*
X438093452Y-256310952D01*
X438093452Y-256453809D01*
X438045833Y-256644285D01*
X437998214Y-256739523D01*
X437902976Y-256834761D01*
X437760119Y-256882380D01*
X437522023Y-256882380D01*
X439045833Y-256882380D02*
X438474404Y-256882380D01*
X438760119Y-256882380D02*
X438760119Y-255882380D01*
X438664880Y-256025238D01*
X438569642Y-256120476D01*
X438474404Y-256168095D01*
X439379166Y-255882380D02*
X439998214Y-255882380D01*
X439664880Y-256263333D01*
X439807738Y-256263333D01*
X439902976Y-256310952D01*
X439950595Y-256358571D01*
X439998214Y-256453809D01*
X439998214Y-256691904D01*
X439950595Y-256787142D01*
X439902976Y-256834761D01*
X439807738Y-256882380D01*
X439522023Y-256882380D01*
X439426785Y-256834761D01*
X439379166Y-256787142D01*
X440950595Y-256882380D02*
X440379166Y-256882380D01*
X440664880Y-256882380D02*
X440664880Y-255882380D01*
X440569642Y-256025238D01*
X440474404Y-256120476D01*
X440379166Y-256168095D01*
%TD*%
M02*
