M48
; DRILL file {KiCad (5.1.8)-1} date 03/15/21 17:42:44
; FORMAT={-:-/ absolute / inch / decimal}
; #@! TF.CreationDate,2021-03-15T17:42:44+02:00
; #@! TF.GenerationSoftware,Kicad,Pcbnew,(5.1.8)-1
FMAT,2
INCH
T1C0.0157
%
G90
G05
T1
X0.1575Y-8.2677
X0.1575Y-8.622
X0.1575Y-8.9764
X0.1575Y-9.3307
X0.1575Y-9.685
X0.1575Y-10.0394
X0.6693Y-8.2677
X0.6693Y-8.622
X0.6693Y-8.9764
X0.6693Y-9.3307
X0.6693Y-9.685
X0.9055Y-10.0394
X1.9291Y-8.2677
X1.9291Y-8.622
X1.9291Y-8.9764
X1.9291Y-9.3307
X1.9291Y-9.7638
X2.0866Y-9.685
X2.0866Y-10.0394
X3.7402Y-8.2677
X3.7402Y-8.622
X3.7402Y-8.9764
X3.7402Y-9.3307
X3.7402Y-9.685
X3.7402Y-10.0394
X4.6457Y-8.2677
X4.6457Y-8.622
X4.6457Y-8.9764
X4.6457Y-9.3307
X4.9213Y-9.2913
X4.9213Y-9.685
X4.9213Y-10.0394
X5.9449Y-8.2677
X5.9449Y-8.622
X5.9449Y-8.9764
X6.063Y-9.3307
X6.063Y-9.685
X6.063Y-10.0394
X7.0079Y-8.2677
X7.0079Y-8.622
X7.0079Y-8.9764
X7.0866Y-9.3307
X7.0866Y-9.685
X7.0866Y-10.0394
X8.0315Y-8.9764
X8.0315Y-9.3307
X8.0315Y-9.685
X8.0315Y-10.0394
X8.0709Y-8.2677
X8.0709Y-8.622
X8.8976Y-8.2677
X8.8976Y-8.622
X9.0157Y-8.9764
X9.0157Y-9.3307
X9.0157Y-9.685
X9.0157Y-10.0394
X9.3799Y-8.622
X9.9213Y-8.622
X9.9213Y-8.9764
X9.9213Y-9.3307
X9.9213Y-9.685
X9.9213Y-10.0394
X10.6693Y-8.2677
X10.7874Y-8.622
X10.7874Y-8.9764
X10.7874Y-9.3307
X10.7874Y-9.685
X10.7874Y-10.0394
X11.2205Y-8.2677
X11.6142Y-8.2677
X11.6142Y-8.622
X11.6142Y-8.9764
X11.6142Y-9.3307
X11.6142Y-9.685
X11.6142Y-10.0394
X12.3622Y-9.8425
X12.4016Y-8.2677
X12.4016Y-8.622
X12.4016Y-8.9764
X12.4016Y-9.3307
X12.4016Y-9.685
X12.4409Y-10.0394
X12.7165Y-9.685
X13.0709Y-8.2677
X13.0709Y-8.622
X13.0709Y-8.9764
X13.0709Y-9.3307
X13.1102Y-9.685
X13.1102Y-10.0394
X13.8189Y-8.2677
X13.8189Y-8.622
X13.8189Y-8.9764
X13.8189Y-9.3307
X13.8189Y-9.685
X13.8189Y-10.0394
X14.1339Y-9.3307
X14.4488Y-8.2677
X14.4488Y-8.622
X14.4488Y-8.9764
X14.4488Y-9.3307
X14.4488Y-9.685
X14.4488Y-10.0394
X15.0787Y-8.2677
X15.0787Y-8.622
X15.0787Y-8.9764
X15.0787Y-9.3307
X15.0787Y-9.685
X15.0787Y-10.0394
X15.3937Y-8.9764
X15.6299Y-8.2677
X15.6299Y-8.622
X15.6299Y-8.9764
X15.6299Y-9.3307
X15.6299Y-9.685
X15.6299Y-10.0394
X16.1417Y-8.2677
X16.1417Y-8.622
X16.1417Y-8.9764
X16.1417Y-9.3307
X16.1417Y-9.685
X16.1417Y-10.0394
X16.4961Y-8.622
X16.6929Y-8.2677
X16.6929Y-8.622
X16.6929Y-8.9764
X16.6929Y-9.3307
X16.6929Y-9.685
X16.6929Y-10.0394
X17.1654Y-8.2677
X17.1654Y-8.622
X17.1654Y-8.9764
X17.1654Y-9.3307
X17.1654Y-9.685
X17.1654Y-10.0394
X17.3917Y-8.2677
T0
M30
