%TF.GenerationSoftware,KiCad,Pcbnew,(5.1.8)-1*%
%TF.CreationDate,2021-03-15T17:42:39+02:00*%
%TF.ProjectId,guitar_first,67756974-6172-45f6-9669-7273742e6b69,rev?*%
%TF.SameCoordinates,Original*%
%TF.FileFunction,Copper,L2,Bot*%
%TF.FilePolarity,Positive*%
%FSLAX46Y46*%
G04 Gerber Fmt 4.6, Leading zero omitted, Abs format (unit mm)*
G04 Created by KiCad (PCBNEW (5.1.8)-1) date 2021-03-15 17:42:39*
%MOMM*%
%LPD*%
G01*
G04 APERTURE LIST*
%TA.AperFunction,SMDPad,CuDef*%
%ADD10R,2.500000X2.500000*%
%TD*%
%TA.AperFunction,ViaPad*%
%ADD11C,0.800000*%
%TD*%
%TA.AperFunction,Conductor*%
%ADD12C,0.350000*%
%TD*%
G04 APERTURE END LIST*
D10*
%TO.P,REF\u002A\u002A,1*%
%TO.N,N/C*%
X445000000Y-257000000D03*
%TD*%
%TO.P,REF\u002A\u002A,1*%
%TO.N,N/C*%
X445000000Y-252000000D03*
%TD*%
%TO.P,REF\u002A\u002A,1*%
%TO.N,N/C*%
X445000000Y-248000000D03*
%TD*%
%TO.P,REF\u002A\u002A,1*%
%TO.N,N/C*%
X445000000Y-243000000D03*
%TD*%
%TO.P,REF\u002A\u002A,1*%
%TO.N,N/C*%
X445000000Y-239000000D03*
%TD*%
%TO.P,REF\u002A\u002A,1*%
%TO.N,N/C*%
X445000000Y-234000000D03*
%TD*%
%TO.P,REF\u002A\u002A,1*%
%TO.N,N/C*%
X445000000Y-230000000D03*
%TD*%
%TO.P,REF\u002A\u002A,1*%
%TO.N,N/C*%
X445000000Y-225000000D03*
%TD*%
%TO.P,REF\u002A\u002A,1*%
%TO.N,N/C*%
X445000000Y-221000000D03*
%TD*%
%TO.P,REF\u002A\u002A,1*%
%TO.N,N/C*%
X445000000Y-216000000D03*
%TD*%
%TO.P,REF\u002A\u002A,1*%
%TO.N,N/C*%
X445000000Y-212000000D03*
%TD*%
%TO.P,REF\u002A\u002A,1*%
%TO.N,N/C*%
X445000000Y-207000000D03*
%TD*%
D11*
%TO.N,/P12*%
X285000000Y-210000000D03*
X274000000Y-219000000D03*
X274000000Y-228000000D03*
X274000000Y-237000000D03*
X274000000Y-246000000D03*
X274000000Y-255000000D03*
%TO.N,/P1*%
X4000000Y-210000000D03*
X4000000Y-219000000D03*
X4000000Y-228000000D03*
X4000000Y-237000000D03*
X4000000Y-246000000D03*
X4000000Y-255000000D03*
X295000000Y-219000000D03*
X295000000Y-228000000D03*
X295000000Y-237000000D03*
X295000000Y-246000000D03*
X295000000Y-255000000D03*
X295000000Y-210000000D03*
%TO.N,/P2*%
X315000000Y-210000000D03*
X315000000Y-219000000D03*
X314000000Y-250000000D03*
X315000000Y-246000000D03*
X315000000Y-237000000D03*
X315000000Y-228000000D03*
X17000000Y-219000000D03*
X17000000Y-228000000D03*
X17000000Y-237000000D03*
X17000000Y-210000000D03*
X17000000Y-246000000D03*
%TO.N,/P3*%
X332000000Y-210000000D03*
X332000000Y-219000000D03*
X332000000Y-228000000D03*
X332000000Y-237000000D03*
X316000000Y-255000000D03*
X323000000Y-246000000D03*
X49000000Y-210000000D03*
X49000000Y-219000000D03*
X49000000Y-228000000D03*
X23000000Y-255000000D03*
X49000000Y-237000000D03*
X49000000Y-248000000D03*
%TO.N,/P4*%
X333000000Y-255000000D03*
X333000000Y-246000000D03*
X351000000Y-237000000D03*
X351000000Y-228000000D03*
X351000000Y-219000000D03*
X351000000Y-210000000D03*
X95000000Y-237000000D03*
X95000000Y-228000000D03*
X95000000Y-219000000D03*
X95000000Y-210000000D03*
X53000000Y-255000000D03*
X53000000Y-246000000D03*
%TO.N,/P5*%
X367000000Y-228000000D03*
X367000000Y-219000000D03*
X367000000Y-210000000D03*
X351000000Y-246000000D03*
X351000000Y-255000000D03*
X118000000Y-228000000D03*
X118000000Y-219000000D03*
X118000000Y-210000000D03*
X118000000Y-237000000D03*
X95000000Y-255000000D03*
X95000000Y-246000000D03*
X359000000Y-237000000D03*
%TO.N,/P6*%
X367000000Y-255000000D03*
X367000000Y-246000000D03*
X367000000Y-237000000D03*
X383000000Y-210000000D03*
X383000000Y-219000000D03*
X383000000Y-228000000D03*
X151000000Y-210000000D03*
X151000000Y-219000000D03*
X151000000Y-228000000D03*
X125000000Y-255000000D03*
X125000000Y-246000000D03*
X125000000Y-236000000D03*
%TO.N,/P7*%
X397000000Y-219000000D03*
X397000000Y-210000000D03*
X391000000Y-228000000D03*
X383000000Y-246000000D03*
X383000000Y-255000000D03*
X383000000Y-237000000D03*
X178000000Y-210000000D03*
X178000000Y-219000000D03*
X178000000Y-228000000D03*
X154000000Y-237000000D03*
X154000000Y-246000000D03*
X154000000Y-255000000D03*
%TO.N,/P8*%
X397000000Y-255000000D03*
X397000000Y-246000000D03*
X397000000Y-237000000D03*
X397000000Y-228000000D03*
X410000000Y-210000000D03*
X410000000Y-219000000D03*
X205000000Y-210000000D03*
X205000000Y-219000000D03*
X180000000Y-255000000D03*
X180000000Y-246000000D03*
X180000000Y-237000000D03*
%TO.N,/P9*%
X419000000Y-219000000D03*
X424000000Y-210000000D03*
X410000000Y-228000000D03*
X410000000Y-237000000D03*
X410000000Y-246000000D03*
X410000000Y-255000000D03*
X226000000Y-219000000D03*
X226000000Y-210000000D03*
X204000000Y-255000000D03*
X204000000Y-246000000D03*
X204000000Y-237000000D03*
X204000000Y-228000000D03*
%TO.N,/P10*%
X238250000Y-219000000D03*
X424000000Y-219000000D03*
X424000000Y-228000000D03*
X424000000Y-237000000D03*
X436000000Y-210000000D03*
X424000000Y-246000000D03*
X424000000Y-255000000D03*
X229000000Y-228000000D03*
X229000000Y-237000000D03*
X229000000Y-246000000D03*
X229000000Y-255000000D03*
%TO.N,/P11*%
X441750000Y-210000000D03*
X436000000Y-219000000D03*
X436000000Y-228000000D03*
X436000000Y-237000000D03*
X436000000Y-246000000D03*
X436000000Y-255000000D03*
X271000000Y-210000000D03*
X252000000Y-219000000D03*
X252000000Y-255000000D03*
X252000000Y-246000000D03*
X252000000Y-237000000D03*
X252000000Y-228000000D03*
%TD*%
D12*
%TO.N,/P12*%
X272250000Y-253250000D02*
X274000000Y-255000000D01*
X274000000Y-219000000D02*
X272250000Y-220750000D01*
X273250000Y-246000000D02*
X272250000Y-247000000D01*
X274000000Y-246000000D02*
X273250000Y-246000000D01*
X272250000Y-247000000D02*
X272250000Y-253250000D01*
X273250000Y-237000000D02*
X272250000Y-238000000D01*
X274000000Y-237000000D02*
X273250000Y-237000000D01*
X272250000Y-238000000D02*
X272250000Y-247000000D01*
X274000000Y-228000000D02*
X273000000Y-228000000D01*
X273000000Y-228000000D02*
X272250000Y-228750000D01*
X272250000Y-228750000D02*
X272250000Y-238000000D01*
X272250000Y-220750000D02*
X272250000Y-228750000D01*
X276000000Y-219000000D02*
X285000000Y-210000000D01*
X274000000Y-219000000D02*
X276000000Y-219000000D01*
%TO.N,/P1*%
X4000000Y-210000000D02*
X2500000Y-211500000D01*
X3250000Y-237000000D02*
X2500000Y-237750000D01*
X4000000Y-237000000D02*
X3250000Y-237000000D01*
X3250000Y-228000000D02*
X2500000Y-228750000D01*
X4000000Y-228000000D02*
X3250000Y-228000000D01*
X2500000Y-228750000D02*
X2500000Y-237750000D01*
X3000000Y-219000000D02*
X2500000Y-219500000D01*
X4000000Y-219000000D02*
X3000000Y-219000000D01*
X2500000Y-219500000D02*
X2500000Y-228750000D01*
X2500000Y-211500000D02*
X2500000Y-219500000D01*
X2500000Y-253500000D02*
X4000000Y-255000000D01*
X3000000Y-246000000D02*
X2500000Y-246500000D01*
X4000000Y-246000000D02*
X3000000Y-246000000D01*
X2500000Y-246500000D02*
X2500000Y-253500000D01*
X2500000Y-237750000D02*
X2500000Y-246500000D01*
X295000000Y-210000000D02*
X293250000Y-211750000D01*
X293250000Y-253250000D02*
X295000000Y-255000000D01*
X294000000Y-246000000D02*
X293250000Y-246750000D01*
X295000000Y-246000000D02*
X294000000Y-246000000D01*
X293250000Y-246750000D02*
X293250000Y-253250000D01*
X294250000Y-237000000D02*
X293250000Y-238000000D01*
X293250000Y-238000000D02*
X293250000Y-246750000D01*
X295000000Y-237000000D02*
X294250000Y-237000000D01*
X294250000Y-228000000D02*
X293250000Y-229000000D01*
X295000000Y-228000000D02*
X294250000Y-228000000D01*
X293250000Y-229000000D02*
X293250000Y-238000000D01*
X294000000Y-219000000D02*
X293250000Y-219750000D01*
X295000000Y-219000000D02*
X294000000Y-219000000D01*
X293250000Y-219750000D02*
X293250000Y-229000000D01*
X293250000Y-211750000D02*
X293250000Y-219750000D01*
%TO.N,/P2*%
X15750000Y-237000000D02*
X15250000Y-237500000D01*
X17000000Y-237000000D02*
X15750000Y-237000000D01*
X16250000Y-228000000D02*
X15250000Y-229000000D01*
X17000000Y-228000000D02*
X16250000Y-228000000D01*
X16000000Y-219000000D02*
X15250000Y-219750000D01*
X17000000Y-219000000D02*
X16000000Y-219000000D01*
X15250000Y-219750000D02*
X15250000Y-229000000D01*
X15250000Y-212250000D02*
X15250000Y-219750000D01*
X15250000Y-211750000D02*
X15250000Y-212250000D01*
X17000000Y-210000000D02*
X15250000Y-211750000D01*
X15250000Y-244250000D02*
X17000000Y-246000000D01*
X15250000Y-237000000D02*
X15250000Y-244250000D01*
X15250000Y-229000000D02*
X15250000Y-237000000D01*
X15250000Y-237000000D02*
X15250000Y-237500000D01*
X313250000Y-249250000D02*
X314000000Y-250000000D01*
X315000000Y-210000000D02*
X313250000Y-211750000D01*
X314000000Y-246000000D02*
X313250000Y-246750000D01*
X315000000Y-246000000D02*
X314000000Y-246000000D01*
X313250000Y-246750000D02*
X313250000Y-249250000D01*
X314000000Y-237000000D02*
X313250000Y-237750000D01*
X313250000Y-237750000D02*
X313250000Y-246750000D01*
X315000000Y-237000000D02*
X314000000Y-237000000D01*
X313750000Y-228000000D02*
X313250000Y-228500000D01*
X315000000Y-228000000D02*
X313750000Y-228000000D01*
X313250000Y-228500000D02*
X313250000Y-237750000D01*
X314000000Y-219000000D02*
X313250000Y-219750000D01*
X315000000Y-219000000D02*
X314000000Y-219000000D01*
X313250000Y-219750000D02*
X313250000Y-228500000D01*
X313250000Y-211750000D02*
X313250000Y-219750000D01*
%TO.N,/P3*%
X23000000Y-255000000D02*
X30000000Y-248000000D01*
X30000000Y-248000000D02*
X49000000Y-248000000D01*
X49000000Y-210000000D02*
X46750000Y-212250000D01*
X48000000Y-237000000D02*
X46750000Y-238250000D01*
X49000000Y-237000000D02*
X48000000Y-237000000D01*
X47750000Y-228000000D02*
X46750000Y-229000000D01*
X49000000Y-228000000D02*
X47750000Y-228000000D01*
X48000000Y-219000000D02*
X46750000Y-220250000D01*
X49000000Y-219000000D02*
X48000000Y-219000000D01*
X46750000Y-220250000D02*
X46750000Y-229000000D01*
X46750000Y-212250000D02*
X46750000Y-220250000D01*
X46750000Y-229000000D02*
X46750000Y-238250000D01*
X46750000Y-245750000D02*
X49000000Y-248000000D01*
X46750000Y-238250000D02*
X46750000Y-245750000D01*
X332000000Y-210000000D02*
X330250000Y-211750000D01*
X330250000Y-235250000D02*
X332000000Y-237000000D01*
X331000000Y-219000000D02*
X330250000Y-219750000D01*
X332000000Y-219000000D02*
X331000000Y-219000000D01*
X330250000Y-211750000D02*
X330250000Y-219750000D01*
X331000000Y-228000000D02*
X330250000Y-228750000D01*
X332000000Y-228000000D02*
X331000000Y-228000000D01*
X330250000Y-228750000D02*
X330250000Y-235250000D01*
X330250000Y-219750000D02*
X330250000Y-228750000D01*
X316000000Y-253000000D02*
X323000000Y-246000000D01*
X316000000Y-255000000D02*
X316000000Y-253000000D01*
X323000000Y-246000000D02*
X332000000Y-237000000D01*
%TO.N,/P4*%
X53000000Y-255000000D02*
X53000000Y-246000000D01*
X92750000Y-234750000D02*
X95000000Y-237000000D01*
X95000000Y-210000000D02*
X92750000Y-212250000D01*
X93750000Y-219000000D02*
X92750000Y-220000000D01*
X95000000Y-219000000D02*
X93750000Y-219000000D01*
X92750000Y-212250000D02*
X92750000Y-220000000D01*
X94000000Y-228000000D02*
X92750000Y-229250000D01*
X95000000Y-228000000D02*
X94000000Y-228000000D01*
X92750000Y-229250000D02*
X92750000Y-234750000D01*
X92750000Y-220000000D02*
X92750000Y-229250000D01*
X333000000Y-246000000D02*
X333000000Y-255000000D01*
X333000000Y-246000000D02*
X342000000Y-237000000D01*
X342000000Y-237000000D02*
X351000000Y-237000000D01*
X349250000Y-235250000D02*
X351000000Y-237000000D01*
X351000000Y-210000000D02*
X349250000Y-211750000D01*
X351000000Y-219000000D02*
X350000000Y-219000000D01*
X350000000Y-219000000D02*
X349250000Y-219750000D01*
X349250000Y-211750000D02*
X349250000Y-219750000D01*
X351000000Y-228000000D02*
X350250000Y-228000000D01*
X349250000Y-229000000D02*
X349250000Y-235250000D01*
X350250000Y-228000000D02*
X349250000Y-229000000D01*
X349250000Y-219750000D02*
X349250000Y-229000000D01*
%TO.N,/P5*%
X367000000Y-210000000D02*
X364750000Y-212250000D01*
X359500000Y-237000000D02*
X359000000Y-237000000D01*
X364750000Y-231750000D02*
X359500000Y-237000000D01*
X366250000Y-219000000D02*
X364750000Y-220500000D01*
X367000000Y-219000000D02*
X366250000Y-219000000D01*
X364750000Y-212250000D02*
X364750000Y-220500000D01*
X365750000Y-228000000D02*
X364750000Y-229000000D01*
X367000000Y-228000000D02*
X365750000Y-228000000D01*
X364750000Y-229000000D02*
X364750000Y-231750000D01*
X364750000Y-220500000D02*
X364750000Y-229000000D01*
X95000000Y-255000000D02*
X95000000Y-246000000D01*
X95000000Y-246000000D02*
X104000000Y-237000000D01*
X104000000Y-237000000D02*
X118000000Y-237000000D01*
X118000000Y-210000000D02*
X116000000Y-212000000D01*
X118000000Y-236000000D02*
X118000000Y-237000000D01*
X116000000Y-234000000D02*
X118000000Y-236000000D01*
X118000000Y-219000000D02*
X117000000Y-219000000D01*
X117000000Y-219000000D02*
X116000000Y-220000000D01*
X116000000Y-212000000D02*
X116000000Y-220000000D01*
X117250000Y-228000000D02*
X116000000Y-229250000D01*
X118000000Y-228000000D02*
X117250000Y-228000000D01*
X116000000Y-229250000D02*
X116000000Y-234000000D01*
X116000000Y-220000000D02*
X116000000Y-229250000D01*
X351000000Y-245000000D02*
X359000000Y-237000000D01*
X351000000Y-246000000D02*
X351000000Y-245000000D01*
X351000000Y-255000000D02*
X351000000Y-246000000D01*
%TO.N,/P6*%
X383000000Y-210000000D02*
X382000000Y-210000000D01*
X382000000Y-210000000D02*
X381250000Y-210750000D01*
X382000000Y-219000000D02*
X381250000Y-219750000D01*
X383000000Y-219000000D02*
X382000000Y-219000000D01*
X381250000Y-219750000D02*
X381250000Y-222750000D01*
X381250000Y-210750000D02*
X381250000Y-219750000D01*
X383000000Y-228000000D02*
X376000000Y-228000000D01*
X376000000Y-228000000D02*
X367000000Y-237000000D01*
X381250000Y-222750000D02*
X376000000Y-228000000D01*
X367000000Y-237000000D02*
X365500000Y-238500000D01*
X365500000Y-253500000D02*
X367000000Y-255000000D01*
X367000000Y-246000000D02*
X365500000Y-244500000D01*
X365500000Y-244500000D02*
X365500000Y-253500000D01*
X365500000Y-238500000D02*
X365500000Y-244500000D01*
X122750000Y-252750000D02*
X125000000Y-255000000D01*
X125000000Y-236000000D02*
X122750000Y-238250000D01*
X123750000Y-246000000D02*
X122750000Y-247000000D01*
X125000000Y-246000000D02*
X123750000Y-246000000D01*
X122750000Y-247000000D02*
X122750000Y-252750000D01*
X122750000Y-238250000D02*
X122750000Y-247000000D01*
X151000000Y-210000000D02*
X149000000Y-212000000D01*
X151000000Y-226750000D02*
X151000000Y-228000000D01*
X149000000Y-224750000D02*
X151000000Y-226750000D01*
X150000000Y-219000000D02*
X149000000Y-220000000D01*
X151000000Y-219000000D02*
X150000000Y-219000000D01*
X149000000Y-220000000D02*
X149000000Y-224750000D01*
X149000000Y-212000000D02*
X149000000Y-220000000D01*
%TO.N,/P7*%
X397000000Y-210000000D02*
X397000000Y-219000000D01*
X397000000Y-222000000D02*
X391000000Y-228000000D01*
X397000000Y-219000000D02*
X397000000Y-222000000D01*
X383000000Y-236000000D02*
X391000000Y-228000000D01*
X383000000Y-237000000D02*
X383000000Y-236000000D01*
X383000000Y-237000000D02*
X380250000Y-239750000D01*
X380250000Y-252250000D02*
X383000000Y-255000000D01*
X381250000Y-246000000D02*
X380250000Y-245000000D01*
X383000000Y-246000000D02*
X381250000Y-246000000D01*
X380250000Y-245000000D02*
X380250000Y-252250000D01*
X380250000Y-239750000D02*
X380250000Y-245000000D01*
X152250000Y-253250000D02*
X154000000Y-255000000D01*
X154000000Y-237000000D02*
X152250000Y-238750000D01*
X153000000Y-246000000D02*
X152250000Y-246750000D01*
X154000000Y-246000000D02*
X153000000Y-246000000D01*
X152250000Y-246750000D02*
X152250000Y-253250000D01*
X152250000Y-238750000D02*
X152250000Y-246750000D01*
X154000000Y-237000000D02*
X163000000Y-228000000D01*
X163000000Y-228000000D02*
X178000000Y-228000000D01*
X176000000Y-226000000D02*
X178000000Y-228000000D01*
X178000000Y-210000000D02*
X176000000Y-212000000D01*
X177250000Y-219000000D02*
X176000000Y-220250000D01*
X178000000Y-219000000D02*
X177250000Y-219000000D01*
X176000000Y-220250000D02*
X176000000Y-226000000D01*
X176000000Y-212000000D02*
X176000000Y-220250000D01*
%TO.N,/P8*%
X180000000Y-237000000D02*
X180000000Y-235750000D01*
X196750000Y-219000000D02*
X205000000Y-219000000D01*
X180000000Y-235750000D02*
X196750000Y-219000000D01*
X395250000Y-253250000D02*
X397000000Y-255000000D01*
X397000000Y-228000000D02*
X395250000Y-229750000D01*
X396000000Y-246000000D02*
X395250000Y-245250000D01*
X397000000Y-246000000D02*
X396000000Y-246000000D01*
X395250000Y-245250000D02*
X395250000Y-253250000D01*
X395750000Y-235750000D02*
X395250000Y-235750000D01*
X397000000Y-237000000D02*
X395750000Y-235750000D01*
X395250000Y-235750000D02*
X395250000Y-245250000D01*
X395250000Y-229750000D02*
X395250000Y-235750000D01*
X397000000Y-228000000D02*
X406250000Y-218750000D01*
X409750000Y-218750000D02*
X410000000Y-219000000D01*
X406250000Y-218750000D02*
X409750000Y-218750000D01*
X410000000Y-210000000D02*
X410000000Y-219000000D01*
X180000000Y-237000000D02*
X177750000Y-239250000D01*
X177750000Y-252750000D02*
X180000000Y-255000000D01*
X179250000Y-246000000D02*
X177750000Y-247500000D01*
X180000000Y-246000000D02*
X179250000Y-246000000D01*
X177750000Y-247500000D02*
X177750000Y-252750000D01*
X177750000Y-239250000D02*
X177750000Y-247500000D01*
X205000000Y-210000000D02*
X205000000Y-219000000D01*
%TO.N,/P9*%
X419000000Y-215000000D02*
X424000000Y-210000000D01*
X419000000Y-219000000D02*
X419000000Y-215000000D01*
X408000000Y-253000000D02*
X410000000Y-255000000D01*
X410000000Y-228000000D02*
X408000000Y-230000000D01*
X410000000Y-237000000D02*
X409250000Y-237000000D01*
X409250000Y-237000000D02*
X408000000Y-235750000D01*
X408000000Y-230000000D02*
X408000000Y-235750000D01*
X409000000Y-246000000D02*
X408000000Y-245000000D01*
X410000000Y-246000000D02*
X409000000Y-246000000D01*
X408000000Y-245000000D02*
X408000000Y-253000000D01*
X408000000Y-235750000D02*
X408000000Y-245000000D01*
X410000000Y-228000000D02*
X419000000Y-219000000D01*
X204000000Y-228000000D02*
X202250000Y-229750000D01*
X202250000Y-253250000D02*
X204000000Y-255000000D01*
X203000000Y-237000000D02*
X202250000Y-237750000D01*
X204000000Y-237000000D02*
X203000000Y-237000000D01*
X202250000Y-229750000D02*
X202250000Y-237750000D01*
X204000000Y-246000000D02*
X203250000Y-246000000D01*
X203250000Y-246000000D02*
X202250000Y-247000000D01*
X202250000Y-247000000D02*
X202250000Y-253250000D01*
X202250000Y-237750000D02*
X202250000Y-247000000D01*
X226000000Y-210000000D02*
X226000000Y-219000000D01*
X204000000Y-228000000D02*
X213000000Y-219000000D01*
X213000000Y-219000000D02*
X226000000Y-219000000D01*
%TO.N,/P10*%
X238000000Y-219000000D02*
X238250000Y-219000000D01*
X229000000Y-228000000D02*
X238000000Y-219000000D01*
X424000000Y-219000000D02*
X422750000Y-220250000D01*
X424000000Y-255000000D02*
X424000000Y-253750000D01*
X424000000Y-253750000D02*
X422750000Y-252500000D01*
X423250000Y-245250000D02*
X422750000Y-245250000D01*
X422750000Y-245250000D02*
X422750000Y-252500000D01*
X424000000Y-246000000D02*
X423250000Y-245250000D01*
X423000000Y-237000000D02*
X422750000Y-236750000D01*
X424000000Y-237000000D02*
X423000000Y-237000000D01*
X422750000Y-236750000D02*
X422750000Y-245250000D01*
X424000000Y-228000000D02*
X423000000Y-228000000D01*
X423000000Y-228000000D02*
X422750000Y-227750000D01*
X422750000Y-227750000D02*
X422750000Y-236750000D01*
X422750000Y-220250000D02*
X422750000Y-227750000D01*
X424000000Y-219000000D02*
X433000000Y-210000000D01*
X433000000Y-210000000D02*
X436000000Y-210000000D01*
X229000000Y-228000000D02*
X227250000Y-229750000D01*
X227250000Y-253250000D02*
X229000000Y-255000000D01*
X228250000Y-237000000D02*
X227250000Y-238000000D01*
X229000000Y-237000000D02*
X228250000Y-237000000D01*
X227250000Y-229750000D02*
X227250000Y-238000000D01*
X228250000Y-246000000D02*
X227250000Y-247000000D01*
X229000000Y-246000000D02*
X228250000Y-246000000D01*
X227250000Y-247000000D02*
X227250000Y-253250000D01*
X227250000Y-238000000D02*
X227250000Y-247000000D01*
%TO.N,/P11*%
X441750000Y-210000000D02*
X440750000Y-210000000D01*
X440750000Y-210000000D02*
X434000000Y-216750000D01*
X434000000Y-253000000D02*
X436000000Y-255000000D01*
X434750000Y-246000000D02*
X434000000Y-245250000D01*
X436000000Y-246000000D02*
X434750000Y-246000000D01*
X434000000Y-245250000D02*
X434000000Y-253000000D01*
X434750000Y-237000000D02*
X434000000Y-236250000D01*
X436000000Y-237000000D02*
X434750000Y-237000000D01*
X434000000Y-236250000D02*
X434000000Y-245250000D01*
X434750000Y-228000000D02*
X434000000Y-227250000D01*
X436000000Y-228000000D02*
X434750000Y-228000000D01*
X434000000Y-227250000D02*
X434000000Y-236250000D01*
X434750000Y-219000000D02*
X434000000Y-218250000D01*
X436000000Y-219000000D02*
X434750000Y-219000000D01*
X434000000Y-218250000D02*
X434000000Y-227250000D01*
X434000000Y-216750000D02*
X434000000Y-218250000D01*
X252000000Y-219000000D02*
X250000000Y-221000000D01*
X250000000Y-253000000D02*
X252000000Y-255000000D01*
X251000000Y-246000000D02*
X250000000Y-247000000D01*
X252000000Y-246000000D02*
X251000000Y-246000000D01*
X250000000Y-247000000D02*
X250000000Y-253000000D01*
X251000000Y-237000000D02*
X250000000Y-238000000D01*
X252000000Y-237000000D02*
X251000000Y-237000000D01*
X250000000Y-238000000D02*
X250000000Y-247000000D01*
X251250000Y-228000000D02*
X250000000Y-229250000D01*
X252000000Y-228000000D02*
X251250000Y-228000000D01*
X250000000Y-229250000D02*
X250000000Y-238000000D01*
X250000000Y-221000000D02*
X250000000Y-229250000D01*
X252000000Y-219000000D02*
X261000000Y-210000000D01*
X261000000Y-210000000D02*
X271000000Y-210000000D01*
%TD*%
M02*
