%TF.GenerationSoftware,KiCad,Pcbnew,(5.1.8)-1*%
%TF.CreationDate,2021-03-15T17:42:39+02:00*%
%TF.ProjectId,guitar_first,67756974-6172-45f6-9669-7273742e6b69,rev?*%
%TF.SameCoordinates,Original*%
%TF.FileFunction,Legend,Bot*%
%TF.FilePolarity,Positive*%
%FSLAX46Y46*%
G04 Gerber Fmt 4.6, Leading zero omitted, Abs format (unit mm)*
G04 Created by KiCad (PCBNEW (5.1.8)-1) date 2021-03-15 17:42:39*
%MOMM*%
%LPD*%
G01*
G04 APERTURE LIST*
%ADD10C,0.120000*%
%ADD11C,0.150000*%
G04 APERTURE END LIST*
D10*
%TO.C,REF\u002A\u002A*%
X443550000Y-258450000D02*
X446450000Y-258450000D01*
X446450000Y-258450000D02*
X446450000Y-255550000D01*
X446450000Y-255550000D02*
X443550000Y-255550000D01*
X443550000Y-255550000D02*
X443550000Y-258450000D01*
X443550000Y-253450000D02*
X446450000Y-253450000D01*
X446450000Y-253450000D02*
X446450000Y-250550000D01*
X446450000Y-250550000D02*
X443550000Y-250550000D01*
X443550000Y-250550000D02*
X443550000Y-253450000D01*
X443550000Y-249450000D02*
X446450000Y-249450000D01*
X446450000Y-249450000D02*
X446450000Y-246550000D01*
X446450000Y-246550000D02*
X443550000Y-246550000D01*
X443550000Y-246550000D02*
X443550000Y-249450000D01*
X443550000Y-244450000D02*
X446450000Y-244450000D01*
X446450000Y-244450000D02*
X446450000Y-241550000D01*
X446450000Y-241550000D02*
X443550000Y-241550000D01*
X443550000Y-241550000D02*
X443550000Y-244450000D01*
X443550000Y-240450000D02*
X446450000Y-240450000D01*
X446450000Y-240450000D02*
X446450000Y-237550000D01*
X446450000Y-237550000D02*
X443550000Y-237550000D01*
X443550000Y-237550000D02*
X443550000Y-240450000D01*
X443550000Y-235450000D02*
X446450000Y-235450000D01*
X446450000Y-235450000D02*
X446450000Y-232550000D01*
X446450000Y-232550000D02*
X443550000Y-232550000D01*
X443550000Y-232550000D02*
X443550000Y-235450000D01*
X443550000Y-231450000D02*
X446450000Y-231450000D01*
X446450000Y-231450000D02*
X446450000Y-228550000D01*
X446450000Y-228550000D02*
X443550000Y-228550000D01*
X443550000Y-228550000D02*
X443550000Y-231450000D01*
X443550000Y-226450000D02*
X446450000Y-226450000D01*
X446450000Y-226450000D02*
X446450000Y-223550000D01*
X446450000Y-223550000D02*
X443550000Y-223550000D01*
X443550000Y-223550000D02*
X443550000Y-226450000D01*
X443550000Y-222450000D02*
X446450000Y-222450000D01*
X446450000Y-222450000D02*
X446450000Y-219550000D01*
X446450000Y-219550000D02*
X443550000Y-219550000D01*
X443550000Y-219550000D02*
X443550000Y-222450000D01*
X443550000Y-217450000D02*
X446450000Y-217450000D01*
X446450000Y-217450000D02*
X446450000Y-214550000D01*
X446450000Y-214550000D02*
X443550000Y-214550000D01*
X443550000Y-214550000D02*
X443550000Y-217450000D01*
X443550000Y-213450000D02*
X446450000Y-213450000D01*
X446450000Y-213450000D02*
X446450000Y-210550000D01*
X446450000Y-210550000D02*
X443550000Y-210550000D01*
X443550000Y-210550000D02*
X443550000Y-213450000D01*
X443550000Y-208450000D02*
X446450000Y-208450000D01*
X446450000Y-208450000D02*
X446450000Y-205550000D01*
X446450000Y-205550000D02*
X443550000Y-205550000D01*
X443550000Y-205550000D02*
X443550000Y-208450000D01*
D11*
X446333333Y-259600380D02*
X446666666Y-259124190D01*
X446904761Y-259600380D02*
X446904761Y-258600380D01*
X446523809Y-258600380D01*
X446428571Y-258648000D01*
X446380952Y-258695619D01*
X446333333Y-258790857D01*
X446333333Y-258933714D01*
X446380952Y-259028952D01*
X446428571Y-259076571D01*
X446523809Y-259124190D01*
X446904761Y-259124190D01*
X445904761Y-259076571D02*
X445571428Y-259076571D01*
X445428571Y-259600380D02*
X445904761Y-259600380D01*
X445904761Y-258600380D01*
X445428571Y-258600380D01*
X444666666Y-259076571D02*
X445000000Y-259076571D01*
X445000000Y-259600380D02*
X445000000Y-258600380D01*
X444523809Y-258600380D01*
X444000000Y-258600380D02*
X444000000Y-258838476D01*
X444238095Y-258743238D02*
X444000000Y-258838476D01*
X443761904Y-258743238D01*
X444142857Y-259028952D02*
X444000000Y-258838476D01*
X443857142Y-259028952D01*
X443238095Y-258600380D02*
X443238095Y-258838476D01*
X443476190Y-258743238D02*
X443238095Y-258838476D01*
X443000000Y-258743238D01*
X443380952Y-259028952D02*
X443238095Y-258838476D01*
X443095238Y-259028952D01*
X446333333Y-254600380D02*
X446666666Y-254124190D01*
X446904761Y-254600380D02*
X446904761Y-253600380D01*
X446523809Y-253600380D01*
X446428571Y-253648000D01*
X446380952Y-253695619D01*
X446333333Y-253790857D01*
X446333333Y-253933714D01*
X446380952Y-254028952D01*
X446428571Y-254076571D01*
X446523809Y-254124190D01*
X446904761Y-254124190D01*
X445904761Y-254076571D02*
X445571428Y-254076571D01*
X445428571Y-254600380D02*
X445904761Y-254600380D01*
X445904761Y-253600380D01*
X445428571Y-253600380D01*
X444666666Y-254076571D02*
X445000000Y-254076571D01*
X445000000Y-254600380D02*
X445000000Y-253600380D01*
X444523809Y-253600380D01*
X444000000Y-253600380D02*
X444000000Y-253838476D01*
X444238095Y-253743238D02*
X444000000Y-253838476D01*
X443761904Y-253743238D01*
X444142857Y-254028952D02*
X444000000Y-253838476D01*
X443857142Y-254028952D01*
X443238095Y-253600380D02*
X443238095Y-253838476D01*
X443476190Y-253743238D02*
X443238095Y-253838476D01*
X443000000Y-253743238D01*
X443380952Y-254028952D02*
X443238095Y-253838476D01*
X443095238Y-254028952D01*
X446333333Y-250600380D02*
X446666666Y-250124190D01*
X446904761Y-250600380D02*
X446904761Y-249600380D01*
X446523809Y-249600380D01*
X446428571Y-249648000D01*
X446380952Y-249695619D01*
X446333333Y-249790857D01*
X446333333Y-249933714D01*
X446380952Y-250028952D01*
X446428571Y-250076571D01*
X446523809Y-250124190D01*
X446904761Y-250124190D01*
X445904761Y-250076571D02*
X445571428Y-250076571D01*
X445428571Y-250600380D02*
X445904761Y-250600380D01*
X445904761Y-249600380D01*
X445428571Y-249600380D01*
X444666666Y-250076571D02*
X445000000Y-250076571D01*
X445000000Y-250600380D02*
X445000000Y-249600380D01*
X444523809Y-249600380D01*
X444000000Y-249600380D02*
X444000000Y-249838476D01*
X444238095Y-249743238D02*
X444000000Y-249838476D01*
X443761904Y-249743238D01*
X444142857Y-250028952D02*
X444000000Y-249838476D01*
X443857142Y-250028952D01*
X443238095Y-249600380D02*
X443238095Y-249838476D01*
X443476190Y-249743238D02*
X443238095Y-249838476D01*
X443000000Y-249743238D01*
X443380952Y-250028952D02*
X443238095Y-249838476D01*
X443095238Y-250028952D01*
X446333333Y-245600380D02*
X446666666Y-245124190D01*
X446904761Y-245600380D02*
X446904761Y-244600380D01*
X446523809Y-244600380D01*
X446428571Y-244648000D01*
X446380952Y-244695619D01*
X446333333Y-244790857D01*
X446333333Y-244933714D01*
X446380952Y-245028952D01*
X446428571Y-245076571D01*
X446523809Y-245124190D01*
X446904761Y-245124190D01*
X445904761Y-245076571D02*
X445571428Y-245076571D01*
X445428571Y-245600380D02*
X445904761Y-245600380D01*
X445904761Y-244600380D01*
X445428571Y-244600380D01*
X444666666Y-245076571D02*
X445000000Y-245076571D01*
X445000000Y-245600380D02*
X445000000Y-244600380D01*
X444523809Y-244600380D01*
X444000000Y-244600380D02*
X444000000Y-244838476D01*
X444238095Y-244743238D02*
X444000000Y-244838476D01*
X443761904Y-244743238D01*
X444142857Y-245028952D02*
X444000000Y-244838476D01*
X443857142Y-245028952D01*
X443238095Y-244600380D02*
X443238095Y-244838476D01*
X443476190Y-244743238D02*
X443238095Y-244838476D01*
X443000000Y-244743238D01*
X443380952Y-245028952D02*
X443238095Y-244838476D01*
X443095238Y-245028952D01*
X446333333Y-241600380D02*
X446666666Y-241124190D01*
X446904761Y-241600380D02*
X446904761Y-240600380D01*
X446523809Y-240600380D01*
X446428571Y-240648000D01*
X446380952Y-240695619D01*
X446333333Y-240790857D01*
X446333333Y-240933714D01*
X446380952Y-241028952D01*
X446428571Y-241076571D01*
X446523809Y-241124190D01*
X446904761Y-241124190D01*
X445904761Y-241076571D02*
X445571428Y-241076571D01*
X445428571Y-241600380D02*
X445904761Y-241600380D01*
X445904761Y-240600380D01*
X445428571Y-240600380D01*
X444666666Y-241076571D02*
X445000000Y-241076571D01*
X445000000Y-241600380D02*
X445000000Y-240600380D01*
X444523809Y-240600380D01*
X444000000Y-240600380D02*
X444000000Y-240838476D01*
X444238095Y-240743238D02*
X444000000Y-240838476D01*
X443761904Y-240743238D01*
X444142857Y-241028952D02*
X444000000Y-240838476D01*
X443857142Y-241028952D01*
X443238095Y-240600380D02*
X443238095Y-240838476D01*
X443476190Y-240743238D02*
X443238095Y-240838476D01*
X443000000Y-240743238D01*
X443380952Y-241028952D02*
X443238095Y-240838476D01*
X443095238Y-241028952D01*
X446333333Y-236600380D02*
X446666666Y-236124190D01*
X446904761Y-236600380D02*
X446904761Y-235600380D01*
X446523809Y-235600380D01*
X446428571Y-235648000D01*
X446380952Y-235695619D01*
X446333333Y-235790857D01*
X446333333Y-235933714D01*
X446380952Y-236028952D01*
X446428571Y-236076571D01*
X446523809Y-236124190D01*
X446904761Y-236124190D01*
X445904761Y-236076571D02*
X445571428Y-236076571D01*
X445428571Y-236600380D02*
X445904761Y-236600380D01*
X445904761Y-235600380D01*
X445428571Y-235600380D01*
X444666666Y-236076571D02*
X445000000Y-236076571D01*
X445000000Y-236600380D02*
X445000000Y-235600380D01*
X444523809Y-235600380D01*
X444000000Y-235600380D02*
X444000000Y-235838476D01*
X444238095Y-235743238D02*
X444000000Y-235838476D01*
X443761904Y-235743238D01*
X444142857Y-236028952D02*
X444000000Y-235838476D01*
X443857142Y-236028952D01*
X443238095Y-235600380D02*
X443238095Y-235838476D01*
X443476190Y-235743238D02*
X443238095Y-235838476D01*
X443000000Y-235743238D01*
X443380952Y-236028952D02*
X443238095Y-235838476D01*
X443095238Y-236028952D01*
X446333333Y-232600380D02*
X446666666Y-232124190D01*
X446904761Y-232600380D02*
X446904761Y-231600380D01*
X446523809Y-231600380D01*
X446428571Y-231648000D01*
X446380952Y-231695619D01*
X446333333Y-231790857D01*
X446333333Y-231933714D01*
X446380952Y-232028952D01*
X446428571Y-232076571D01*
X446523809Y-232124190D01*
X446904761Y-232124190D01*
X445904761Y-232076571D02*
X445571428Y-232076571D01*
X445428571Y-232600380D02*
X445904761Y-232600380D01*
X445904761Y-231600380D01*
X445428571Y-231600380D01*
X444666666Y-232076571D02*
X445000000Y-232076571D01*
X445000000Y-232600380D02*
X445000000Y-231600380D01*
X444523809Y-231600380D01*
X444000000Y-231600380D02*
X444000000Y-231838476D01*
X444238095Y-231743238D02*
X444000000Y-231838476D01*
X443761904Y-231743238D01*
X444142857Y-232028952D02*
X444000000Y-231838476D01*
X443857142Y-232028952D01*
X443238095Y-231600380D02*
X443238095Y-231838476D01*
X443476190Y-231743238D02*
X443238095Y-231838476D01*
X443000000Y-231743238D01*
X443380952Y-232028952D02*
X443238095Y-231838476D01*
X443095238Y-232028952D01*
X446333333Y-227600380D02*
X446666666Y-227124190D01*
X446904761Y-227600380D02*
X446904761Y-226600380D01*
X446523809Y-226600380D01*
X446428571Y-226648000D01*
X446380952Y-226695619D01*
X446333333Y-226790857D01*
X446333333Y-226933714D01*
X446380952Y-227028952D01*
X446428571Y-227076571D01*
X446523809Y-227124190D01*
X446904761Y-227124190D01*
X445904761Y-227076571D02*
X445571428Y-227076571D01*
X445428571Y-227600380D02*
X445904761Y-227600380D01*
X445904761Y-226600380D01*
X445428571Y-226600380D01*
X444666666Y-227076571D02*
X445000000Y-227076571D01*
X445000000Y-227600380D02*
X445000000Y-226600380D01*
X444523809Y-226600380D01*
X444000000Y-226600380D02*
X444000000Y-226838476D01*
X444238095Y-226743238D02*
X444000000Y-226838476D01*
X443761904Y-226743238D01*
X444142857Y-227028952D02*
X444000000Y-226838476D01*
X443857142Y-227028952D01*
X443238095Y-226600380D02*
X443238095Y-226838476D01*
X443476190Y-226743238D02*
X443238095Y-226838476D01*
X443000000Y-226743238D01*
X443380952Y-227028952D02*
X443238095Y-226838476D01*
X443095238Y-227028952D01*
X446333333Y-223600380D02*
X446666666Y-223124190D01*
X446904761Y-223600380D02*
X446904761Y-222600380D01*
X446523809Y-222600380D01*
X446428571Y-222648000D01*
X446380952Y-222695619D01*
X446333333Y-222790857D01*
X446333333Y-222933714D01*
X446380952Y-223028952D01*
X446428571Y-223076571D01*
X446523809Y-223124190D01*
X446904761Y-223124190D01*
X445904761Y-223076571D02*
X445571428Y-223076571D01*
X445428571Y-223600380D02*
X445904761Y-223600380D01*
X445904761Y-222600380D01*
X445428571Y-222600380D01*
X444666666Y-223076571D02*
X445000000Y-223076571D01*
X445000000Y-223600380D02*
X445000000Y-222600380D01*
X444523809Y-222600380D01*
X444000000Y-222600380D02*
X444000000Y-222838476D01*
X444238095Y-222743238D02*
X444000000Y-222838476D01*
X443761904Y-222743238D01*
X444142857Y-223028952D02*
X444000000Y-222838476D01*
X443857142Y-223028952D01*
X443238095Y-222600380D02*
X443238095Y-222838476D01*
X443476190Y-222743238D02*
X443238095Y-222838476D01*
X443000000Y-222743238D01*
X443380952Y-223028952D02*
X443238095Y-222838476D01*
X443095238Y-223028952D01*
X446333333Y-218600380D02*
X446666666Y-218124190D01*
X446904761Y-218600380D02*
X446904761Y-217600380D01*
X446523809Y-217600380D01*
X446428571Y-217648000D01*
X446380952Y-217695619D01*
X446333333Y-217790857D01*
X446333333Y-217933714D01*
X446380952Y-218028952D01*
X446428571Y-218076571D01*
X446523809Y-218124190D01*
X446904761Y-218124190D01*
X445904761Y-218076571D02*
X445571428Y-218076571D01*
X445428571Y-218600380D02*
X445904761Y-218600380D01*
X445904761Y-217600380D01*
X445428571Y-217600380D01*
X444666666Y-218076571D02*
X445000000Y-218076571D01*
X445000000Y-218600380D02*
X445000000Y-217600380D01*
X444523809Y-217600380D01*
X444000000Y-217600380D02*
X444000000Y-217838476D01*
X444238095Y-217743238D02*
X444000000Y-217838476D01*
X443761904Y-217743238D01*
X444142857Y-218028952D02*
X444000000Y-217838476D01*
X443857142Y-218028952D01*
X443238095Y-217600380D02*
X443238095Y-217838476D01*
X443476190Y-217743238D02*
X443238095Y-217838476D01*
X443000000Y-217743238D01*
X443380952Y-218028952D02*
X443238095Y-217838476D01*
X443095238Y-218028952D01*
X446333333Y-214600380D02*
X446666666Y-214124190D01*
X446904761Y-214600380D02*
X446904761Y-213600380D01*
X446523809Y-213600380D01*
X446428571Y-213648000D01*
X446380952Y-213695619D01*
X446333333Y-213790857D01*
X446333333Y-213933714D01*
X446380952Y-214028952D01*
X446428571Y-214076571D01*
X446523809Y-214124190D01*
X446904761Y-214124190D01*
X445904761Y-214076571D02*
X445571428Y-214076571D01*
X445428571Y-214600380D02*
X445904761Y-214600380D01*
X445904761Y-213600380D01*
X445428571Y-213600380D01*
X444666666Y-214076571D02*
X445000000Y-214076571D01*
X445000000Y-214600380D02*
X445000000Y-213600380D01*
X444523809Y-213600380D01*
X444000000Y-213600380D02*
X444000000Y-213838476D01*
X444238095Y-213743238D02*
X444000000Y-213838476D01*
X443761904Y-213743238D01*
X444142857Y-214028952D02*
X444000000Y-213838476D01*
X443857142Y-214028952D01*
X443238095Y-213600380D02*
X443238095Y-213838476D01*
X443476190Y-213743238D02*
X443238095Y-213838476D01*
X443000000Y-213743238D01*
X443380952Y-214028952D02*
X443238095Y-213838476D01*
X443095238Y-214028952D01*
X446333333Y-209600380D02*
X446666666Y-209124190D01*
X446904761Y-209600380D02*
X446904761Y-208600380D01*
X446523809Y-208600380D01*
X446428571Y-208648000D01*
X446380952Y-208695619D01*
X446333333Y-208790857D01*
X446333333Y-208933714D01*
X446380952Y-209028952D01*
X446428571Y-209076571D01*
X446523809Y-209124190D01*
X446904761Y-209124190D01*
X445904761Y-209076571D02*
X445571428Y-209076571D01*
X445428571Y-209600380D02*
X445904761Y-209600380D01*
X445904761Y-208600380D01*
X445428571Y-208600380D01*
X444666666Y-209076571D02*
X445000000Y-209076571D01*
X445000000Y-209600380D02*
X445000000Y-208600380D01*
X444523809Y-208600380D01*
X444000000Y-208600380D02*
X444000000Y-208838476D01*
X444238095Y-208743238D02*
X444000000Y-208838476D01*
X443761904Y-208743238D01*
X444142857Y-209028952D02*
X444000000Y-208838476D01*
X443857142Y-209028952D01*
X443238095Y-208600380D02*
X443238095Y-208838476D01*
X443476190Y-208743238D02*
X443238095Y-208838476D01*
X443000000Y-208743238D01*
X443380952Y-209028952D02*
X443238095Y-208838476D01*
X443095238Y-209028952D01*
%TD*%
M02*
