%TF.GenerationSoftware,KiCad,Pcbnew,(5.1.8)-1*%
%TF.CreationDate,2021-03-15T17:42:39+02:00*%
%TF.ProjectId,guitar_first,67756974-6172-45f6-9669-7273742e6b69,rev?*%
%TF.SameCoordinates,Original*%
%TF.FileFunction,Soldermask,Top*%
%TF.FilePolarity,Negative*%
%FSLAX46Y46*%
G04 Gerber Fmt 4.6, Leading zero omitted, Abs format (unit mm)*
G04 Created by KiCad (PCBNEW (5.1.8)-1) date 2021-03-15 17:42:39*
%MOMM*%
%LPD*%
G01*
G04 APERTURE LIST*
%ADD10R,2.500000X2.500000*%
G04 APERTURE END LIST*
D10*
%TO.C,REF\u002A\u002A*%
X445000000Y-257000000D03*
%TD*%
%TO.C,REF\u002A\u002A*%
X445000000Y-252000000D03*
%TD*%
%TO.C,REF\u002A\u002A*%
X445000000Y-248000000D03*
%TD*%
%TO.C,REF\u002A\u002A*%
X445000000Y-243000000D03*
%TD*%
%TO.C,REF\u002A\u002A*%
X445000000Y-239000000D03*
%TD*%
%TO.C,REF\u002A\u002A*%
X445000000Y-234000000D03*
%TD*%
%TO.C,REF\u002A\u002A*%
X445000000Y-230000000D03*
%TD*%
%TO.C,REF\u002A\u002A*%
X445000000Y-225000000D03*
%TD*%
%TO.C,REF\u002A\u002A*%
X445000000Y-221000000D03*
%TD*%
%TO.C,REF\u002A\u002A*%
X445000000Y-216000000D03*
%TD*%
%TO.C,REF\u002A\u002A*%
X445000000Y-212000000D03*
%TD*%
%TO.C,REF\u002A\u002A*%
X445000000Y-207000000D03*
%TD*%
%TO.C,D1*%
G36*
G01*
X8225000Y-209743750D02*
X8225000Y-210256250D01*
G75*
G02*
X8006250Y-210475000I-218750J0D01*
G01*
X7568750Y-210475000D01*
G75*
G02*
X7350000Y-210256250I0J218750D01*
G01*
X7350000Y-209743750D01*
G75*
G02*
X7568750Y-209525000I218750J0D01*
G01*
X8006250Y-209525000D01*
G75*
G02*
X8225000Y-209743750I0J-218750D01*
G01*
G37*
G36*
G01*
X6650000Y-209743750D02*
X6650000Y-210256250D01*
G75*
G02*
X6431250Y-210475000I-218750J0D01*
G01*
X5993750Y-210475000D01*
G75*
G02*
X5775000Y-210256250I0J218750D01*
G01*
X5775000Y-209743750D01*
G75*
G02*
X5993750Y-209525000I218750J0D01*
G01*
X6431250Y-209525000D01*
G75*
G02*
X6650000Y-209743750I0J-218750D01*
G01*
G37*
%TD*%
%TO.C,D2*%
G36*
G01*
X28437500Y-209743750D02*
X28437500Y-210256250D01*
G75*
G02*
X28218750Y-210475000I-218750J0D01*
G01*
X27781250Y-210475000D01*
G75*
G02*
X27562500Y-210256250I0J218750D01*
G01*
X27562500Y-209743750D01*
G75*
G02*
X27781250Y-209525000I218750J0D01*
G01*
X28218750Y-209525000D01*
G75*
G02*
X28437500Y-209743750I0J-218750D01*
G01*
G37*
G36*
G01*
X26862500Y-209743750D02*
X26862500Y-210256250D01*
G75*
G02*
X26643750Y-210475000I-218750J0D01*
G01*
X26206250Y-210475000D01*
G75*
G02*
X25987500Y-210256250I0J218750D01*
G01*
X25987500Y-209743750D01*
G75*
G02*
X26206250Y-209525000I218750J0D01*
G01*
X26643750Y-209525000D01*
G75*
G02*
X26862500Y-209743750I0J-218750D01*
G01*
G37*
%TD*%
%TO.C,D3*%
G36*
G01*
X65862500Y-209743750D02*
X65862500Y-210256250D01*
G75*
G02*
X65643750Y-210475000I-218750J0D01*
G01*
X65206250Y-210475000D01*
G75*
G02*
X64987500Y-210256250I0J218750D01*
G01*
X64987500Y-209743750D01*
G75*
G02*
X65206250Y-209525000I218750J0D01*
G01*
X65643750Y-209525000D01*
G75*
G02*
X65862500Y-209743750I0J-218750D01*
G01*
G37*
G36*
G01*
X67437500Y-209743750D02*
X67437500Y-210256250D01*
G75*
G02*
X67218750Y-210475000I-218750J0D01*
G01*
X66781250Y-210475000D01*
G75*
G02*
X66562500Y-210256250I0J218750D01*
G01*
X66562500Y-209743750D01*
G75*
G02*
X66781250Y-209525000I218750J0D01*
G01*
X67218750Y-209525000D01*
G75*
G02*
X67437500Y-209743750I0J-218750D01*
G01*
G37*
%TD*%
%TO.C,D4*%
G36*
G01*
X101437500Y-209743750D02*
X101437500Y-210256250D01*
G75*
G02*
X101218750Y-210475000I-218750J0D01*
G01*
X100781250Y-210475000D01*
G75*
G02*
X100562500Y-210256250I0J218750D01*
G01*
X100562500Y-209743750D01*
G75*
G02*
X100781250Y-209525000I218750J0D01*
G01*
X101218750Y-209525000D01*
G75*
G02*
X101437500Y-209743750I0J-218750D01*
G01*
G37*
G36*
G01*
X99862500Y-209743750D02*
X99862500Y-210256250D01*
G75*
G02*
X99643750Y-210475000I-218750J0D01*
G01*
X99206250Y-210475000D01*
G75*
G02*
X98987500Y-210256250I0J218750D01*
G01*
X98987500Y-209743750D01*
G75*
G02*
X99206250Y-209525000I218750J0D01*
G01*
X99643750Y-209525000D01*
G75*
G02*
X99862500Y-209743750I0J-218750D01*
G01*
G37*
%TD*%
%TO.C,D5*%
G36*
G01*
X128862500Y-209743750D02*
X128862500Y-210256250D01*
G75*
G02*
X128643750Y-210475000I-218750J0D01*
G01*
X128206250Y-210475000D01*
G75*
G02*
X127987500Y-210256250I0J218750D01*
G01*
X127987500Y-209743750D01*
G75*
G02*
X128206250Y-209525000I218750J0D01*
G01*
X128643750Y-209525000D01*
G75*
G02*
X128862500Y-209743750I0J-218750D01*
G01*
G37*
G36*
G01*
X130437500Y-209743750D02*
X130437500Y-210256250D01*
G75*
G02*
X130218750Y-210475000I-218750J0D01*
G01*
X129781250Y-210475000D01*
G75*
G02*
X129562500Y-210256250I0J218750D01*
G01*
X129562500Y-209743750D01*
G75*
G02*
X129781250Y-209525000I218750J0D01*
G01*
X130218750Y-209525000D01*
G75*
G02*
X130437500Y-209743750I0J-218750D01*
G01*
G37*
%TD*%
%TO.C,D6*%
G36*
G01*
X160225000Y-209743750D02*
X160225000Y-210256250D01*
G75*
G02*
X160006250Y-210475000I-218750J0D01*
G01*
X159568750Y-210475000D01*
G75*
G02*
X159350000Y-210256250I0J218750D01*
G01*
X159350000Y-209743750D01*
G75*
G02*
X159568750Y-209525000I218750J0D01*
G01*
X160006250Y-209525000D01*
G75*
G02*
X160225000Y-209743750I0J-218750D01*
G01*
G37*
G36*
G01*
X158650000Y-209743750D02*
X158650000Y-210256250D01*
G75*
G02*
X158431250Y-210475000I-218750J0D01*
G01*
X157993750Y-210475000D01*
G75*
G02*
X157775000Y-210256250I0J218750D01*
G01*
X157775000Y-209743750D01*
G75*
G02*
X157993750Y-209525000I218750J0D01*
G01*
X158431250Y-209525000D01*
G75*
G02*
X158650000Y-209743750I0J-218750D01*
G01*
G37*
%TD*%
%TO.C,D7*%
G36*
G01*
X184650000Y-209743750D02*
X184650000Y-210256250D01*
G75*
G02*
X184431250Y-210475000I-218750J0D01*
G01*
X183993750Y-210475000D01*
G75*
G02*
X183775000Y-210256250I0J218750D01*
G01*
X183775000Y-209743750D01*
G75*
G02*
X183993750Y-209525000I218750J0D01*
G01*
X184431250Y-209525000D01*
G75*
G02*
X184650000Y-209743750I0J-218750D01*
G01*
G37*
G36*
G01*
X186225000Y-209743750D02*
X186225000Y-210256250D01*
G75*
G02*
X186006250Y-210475000I-218750J0D01*
G01*
X185568750Y-210475000D01*
G75*
G02*
X185350000Y-210256250I0J218750D01*
G01*
X185350000Y-209743750D01*
G75*
G02*
X185568750Y-209525000I218750J0D01*
G01*
X186006250Y-209525000D01*
G75*
G02*
X186225000Y-209743750I0J-218750D01*
G01*
G37*
%TD*%
%TO.C,D8*%
G36*
G01*
X211437500Y-209743750D02*
X211437500Y-210256250D01*
G75*
G02*
X211218750Y-210475000I-218750J0D01*
G01*
X210781250Y-210475000D01*
G75*
G02*
X210562500Y-210256250I0J218750D01*
G01*
X210562500Y-209743750D01*
G75*
G02*
X210781250Y-209525000I218750J0D01*
G01*
X211218750Y-209525000D01*
G75*
G02*
X211437500Y-209743750I0J-218750D01*
G01*
G37*
G36*
G01*
X209862500Y-209743750D02*
X209862500Y-210256250D01*
G75*
G02*
X209643750Y-210475000I-218750J0D01*
G01*
X209206250Y-210475000D01*
G75*
G02*
X208987500Y-210256250I0J218750D01*
G01*
X208987500Y-209743750D01*
G75*
G02*
X209206250Y-209525000I218750J0D01*
G01*
X209643750Y-209525000D01*
G75*
G02*
X209862500Y-209743750I0J-218750D01*
G01*
G37*
%TD*%
%TO.C,D9*%
G36*
G01*
X233650000Y-209743750D02*
X233650000Y-210256250D01*
G75*
G02*
X233431250Y-210475000I-218750J0D01*
G01*
X232993750Y-210475000D01*
G75*
G02*
X232775000Y-210256250I0J218750D01*
G01*
X232775000Y-209743750D01*
G75*
G02*
X232993750Y-209525000I218750J0D01*
G01*
X233431250Y-209525000D01*
G75*
G02*
X233650000Y-209743750I0J-218750D01*
G01*
G37*
G36*
G01*
X235225000Y-209743750D02*
X235225000Y-210256250D01*
G75*
G02*
X235006250Y-210475000I-218750J0D01*
G01*
X234568750Y-210475000D01*
G75*
G02*
X234350000Y-210256250I0J218750D01*
G01*
X234350000Y-209743750D01*
G75*
G02*
X234568750Y-209525000I218750J0D01*
G01*
X235006250Y-209525000D01*
G75*
G02*
X235225000Y-209743750I0J-218750D01*
G01*
G37*
%TD*%
%TO.C,D10*%
G36*
G01*
X258225000Y-209743750D02*
X258225000Y-210256250D01*
G75*
G02*
X258006250Y-210475000I-218750J0D01*
G01*
X257568750Y-210475000D01*
G75*
G02*
X257350000Y-210256250I0J218750D01*
G01*
X257350000Y-209743750D01*
G75*
G02*
X257568750Y-209525000I218750J0D01*
G01*
X258006250Y-209525000D01*
G75*
G02*
X258225000Y-209743750I0J-218750D01*
G01*
G37*
G36*
G01*
X256650000Y-209743750D02*
X256650000Y-210256250D01*
G75*
G02*
X256431250Y-210475000I-218750J0D01*
G01*
X255993750Y-210475000D01*
G75*
G02*
X255775000Y-210256250I0J218750D01*
G01*
X255775000Y-209743750D01*
G75*
G02*
X255993750Y-209525000I218750J0D01*
G01*
X256431250Y-209525000D01*
G75*
G02*
X256650000Y-209743750I0J-218750D01*
G01*
G37*
%TD*%
%TO.C,D11*%
G36*
G01*
X280437500Y-209743750D02*
X280437500Y-210256250D01*
G75*
G02*
X280218750Y-210475000I-218750J0D01*
G01*
X279781250Y-210475000D01*
G75*
G02*
X279562500Y-210256250I0J218750D01*
G01*
X279562500Y-209743750D01*
G75*
G02*
X279781250Y-209525000I218750J0D01*
G01*
X280218750Y-209525000D01*
G75*
G02*
X280437500Y-209743750I0J-218750D01*
G01*
G37*
G36*
G01*
X278862500Y-209743750D02*
X278862500Y-210256250D01*
G75*
G02*
X278643750Y-210475000I-218750J0D01*
G01*
X278206250Y-210475000D01*
G75*
G02*
X277987500Y-210256250I0J218750D01*
G01*
X277987500Y-209743750D01*
G75*
G02*
X278206250Y-209525000I218750J0D01*
G01*
X278643750Y-209525000D01*
G75*
G02*
X278862500Y-209743750I0J-218750D01*
G01*
G37*
%TD*%
%TO.C,D12*%
G36*
G01*
X301225000Y-209743750D02*
X301225000Y-210256250D01*
G75*
G02*
X301006250Y-210475000I-218750J0D01*
G01*
X300568750Y-210475000D01*
G75*
G02*
X300350000Y-210256250I0J218750D01*
G01*
X300350000Y-209743750D01*
G75*
G02*
X300568750Y-209525000I218750J0D01*
G01*
X301006250Y-209525000D01*
G75*
G02*
X301225000Y-209743750I0J-218750D01*
G01*
G37*
G36*
G01*
X299650000Y-209743750D02*
X299650000Y-210256250D01*
G75*
G02*
X299431250Y-210475000I-218750J0D01*
G01*
X298993750Y-210475000D01*
G75*
G02*
X298775000Y-210256250I0J218750D01*
G01*
X298775000Y-209743750D01*
G75*
G02*
X298993750Y-209525000I218750J0D01*
G01*
X299431250Y-209525000D01*
G75*
G02*
X299650000Y-209743750I0J-218750D01*
G01*
G37*
%TD*%
%TO.C,D13*%
G36*
G01*
X318650000Y-209743750D02*
X318650000Y-210256250D01*
G75*
G02*
X318431250Y-210475000I-218750J0D01*
G01*
X317993750Y-210475000D01*
G75*
G02*
X317775000Y-210256250I0J218750D01*
G01*
X317775000Y-209743750D01*
G75*
G02*
X317993750Y-209525000I218750J0D01*
G01*
X318431250Y-209525000D01*
G75*
G02*
X318650000Y-209743750I0J-218750D01*
G01*
G37*
G36*
G01*
X320225000Y-209743750D02*
X320225000Y-210256250D01*
G75*
G02*
X320006250Y-210475000I-218750J0D01*
G01*
X319568750Y-210475000D01*
G75*
G02*
X319350000Y-210256250I0J218750D01*
G01*
X319350000Y-209743750D01*
G75*
G02*
X319568750Y-209525000I218750J0D01*
G01*
X320006250Y-209525000D01*
G75*
G02*
X320225000Y-209743750I0J-218750D01*
G01*
G37*
%TD*%
%TO.C,D14*%
G36*
G01*
X337437500Y-209743750D02*
X337437500Y-210256250D01*
G75*
G02*
X337218750Y-210475000I-218750J0D01*
G01*
X336781250Y-210475000D01*
G75*
G02*
X336562500Y-210256250I0J218750D01*
G01*
X336562500Y-209743750D01*
G75*
G02*
X336781250Y-209525000I218750J0D01*
G01*
X337218750Y-209525000D01*
G75*
G02*
X337437500Y-209743750I0J-218750D01*
G01*
G37*
G36*
G01*
X335862500Y-209743750D02*
X335862500Y-210256250D01*
G75*
G02*
X335643750Y-210475000I-218750J0D01*
G01*
X335206250Y-210475000D01*
G75*
G02*
X334987500Y-210256250I0J218750D01*
G01*
X334987500Y-209743750D01*
G75*
G02*
X335206250Y-209525000I218750J0D01*
G01*
X335643750Y-209525000D01*
G75*
G02*
X335862500Y-209743750I0J-218750D01*
G01*
G37*
%TD*%
%TO.C,D15*%
G36*
G01*
X353862500Y-209743750D02*
X353862500Y-210256250D01*
G75*
G02*
X353643750Y-210475000I-218750J0D01*
G01*
X353206250Y-210475000D01*
G75*
G02*
X352987500Y-210256250I0J218750D01*
G01*
X352987500Y-209743750D01*
G75*
G02*
X353206250Y-209525000I218750J0D01*
G01*
X353643750Y-209525000D01*
G75*
G02*
X353862500Y-209743750I0J-218750D01*
G01*
G37*
G36*
G01*
X355437500Y-209743750D02*
X355437500Y-210256250D01*
G75*
G02*
X355218750Y-210475000I-218750J0D01*
G01*
X354781250Y-210475000D01*
G75*
G02*
X354562500Y-210256250I0J218750D01*
G01*
X354562500Y-209743750D01*
G75*
G02*
X354781250Y-209525000I218750J0D01*
G01*
X355218750Y-209525000D01*
G75*
G02*
X355437500Y-209743750I0J-218750D01*
G01*
G37*
%TD*%
%TO.C,D16*%
G36*
G01*
X372225000Y-209743750D02*
X372225000Y-210256250D01*
G75*
G02*
X372006250Y-210475000I-218750J0D01*
G01*
X371568750Y-210475000D01*
G75*
G02*
X371350000Y-210256250I0J218750D01*
G01*
X371350000Y-209743750D01*
G75*
G02*
X371568750Y-209525000I218750J0D01*
G01*
X372006250Y-209525000D01*
G75*
G02*
X372225000Y-209743750I0J-218750D01*
G01*
G37*
G36*
G01*
X370650000Y-209743750D02*
X370650000Y-210256250D01*
G75*
G02*
X370431250Y-210475000I-218750J0D01*
G01*
X369993750Y-210475000D01*
G75*
G02*
X369775000Y-210256250I0J218750D01*
G01*
X369775000Y-209743750D01*
G75*
G02*
X369993750Y-209525000I218750J0D01*
G01*
X370431250Y-209525000D01*
G75*
G02*
X370650000Y-209743750I0J-218750D01*
G01*
G37*
%TD*%
%TO.C,D17*%
G36*
G01*
X386650000Y-209743750D02*
X386650000Y-210256250D01*
G75*
G02*
X386431250Y-210475000I-218750J0D01*
G01*
X385993750Y-210475000D01*
G75*
G02*
X385775000Y-210256250I0J218750D01*
G01*
X385775000Y-209743750D01*
G75*
G02*
X385993750Y-209525000I218750J0D01*
G01*
X386431250Y-209525000D01*
G75*
G02*
X386650000Y-209743750I0J-218750D01*
G01*
G37*
G36*
G01*
X388225000Y-209743750D02*
X388225000Y-210256250D01*
G75*
G02*
X388006250Y-210475000I-218750J0D01*
G01*
X387568750Y-210475000D01*
G75*
G02*
X387350000Y-210256250I0J218750D01*
G01*
X387350000Y-209743750D01*
G75*
G02*
X387568750Y-209525000I218750J0D01*
G01*
X388006250Y-209525000D01*
G75*
G02*
X388225000Y-209743750I0J-218750D01*
G01*
G37*
%TD*%
%TO.C,D18*%
G36*
G01*
X402225000Y-209743750D02*
X402225000Y-210256250D01*
G75*
G02*
X402006250Y-210475000I-218750J0D01*
G01*
X401568750Y-210475000D01*
G75*
G02*
X401350000Y-210256250I0J218750D01*
G01*
X401350000Y-209743750D01*
G75*
G02*
X401568750Y-209525000I218750J0D01*
G01*
X402006250Y-209525000D01*
G75*
G02*
X402225000Y-209743750I0J-218750D01*
G01*
G37*
G36*
G01*
X400650000Y-209743750D02*
X400650000Y-210256250D01*
G75*
G02*
X400431250Y-210475000I-218750J0D01*
G01*
X399993750Y-210475000D01*
G75*
G02*
X399775000Y-210256250I0J218750D01*
G01*
X399775000Y-209743750D01*
G75*
G02*
X399993750Y-209525000I218750J0D01*
G01*
X400431250Y-209525000D01*
G75*
G02*
X400650000Y-209743750I0J-218750D01*
G01*
G37*
%TD*%
%TO.C,D19*%
G36*
G01*
X415437500Y-209743750D02*
X415437500Y-210256250D01*
G75*
G02*
X415218750Y-210475000I-218750J0D01*
G01*
X414781250Y-210475000D01*
G75*
G02*
X414562500Y-210256250I0J218750D01*
G01*
X414562500Y-209743750D01*
G75*
G02*
X414781250Y-209525000I218750J0D01*
G01*
X415218750Y-209525000D01*
G75*
G02*
X415437500Y-209743750I0J-218750D01*
G01*
G37*
G36*
G01*
X413862500Y-209743750D02*
X413862500Y-210256250D01*
G75*
G02*
X413643750Y-210475000I-218750J0D01*
G01*
X413206250Y-210475000D01*
G75*
G02*
X412987500Y-210256250I0J218750D01*
G01*
X412987500Y-209743750D01*
G75*
G02*
X413206250Y-209525000I218750J0D01*
G01*
X413643750Y-209525000D01*
G75*
G02*
X413862500Y-209743750I0J-218750D01*
G01*
G37*
%TD*%
%TO.C,D20*%
G36*
G01*
X428437500Y-209743750D02*
X428437500Y-210256250D01*
G75*
G02*
X428218750Y-210475000I-218750J0D01*
G01*
X427781250Y-210475000D01*
G75*
G02*
X427562500Y-210256250I0J218750D01*
G01*
X427562500Y-209743750D01*
G75*
G02*
X427781250Y-209525000I218750J0D01*
G01*
X428218750Y-209525000D01*
G75*
G02*
X428437500Y-209743750I0J-218750D01*
G01*
G37*
G36*
G01*
X426862500Y-209743750D02*
X426862500Y-210256250D01*
G75*
G02*
X426643750Y-210475000I-218750J0D01*
G01*
X426206250Y-210475000D01*
G75*
G02*
X425987500Y-210256250I0J218750D01*
G01*
X425987500Y-209743750D01*
G75*
G02*
X426206250Y-209525000I218750J0D01*
G01*
X426643750Y-209525000D01*
G75*
G02*
X426862500Y-209743750I0J-218750D01*
G01*
G37*
%TD*%
%TO.C,D21*%
G36*
G01*
X438862500Y-209743750D02*
X438862500Y-210256250D01*
G75*
G02*
X438643750Y-210475000I-218750J0D01*
G01*
X438206250Y-210475000D01*
G75*
G02*
X437987500Y-210256250I0J218750D01*
G01*
X437987500Y-209743750D01*
G75*
G02*
X438206250Y-209525000I218750J0D01*
G01*
X438643750Y-209525000D01*
G75*
G02*
X438862500Y-209743750I0J-218750D01*
G01*
G37*
G36*
G01*
X440437500Y-209743750D02*
X440437500Y-210256250D01*
G75*
G02*
X440218750Y-210475000I-218750J0D01*
G01*
X439781250Y-210475000D01*
G75*
G02*
X439562500Y-210256250I0J218750D01*
G01*
X439562500Y-209743750D01*
G75*
G02*
X439781250Y-209525000I218750J0D01*
G01*
X440218750Y-209525000D01*
G75*
G02*
X440437500Y-209743750I0J-218750D01*
G01*
G37*
%TD*%
%TO.C,D23*%
G36*
G01*
X8225000Y-218743750D02*
X8225000Y-219256250D01*
G75*
G02*
X8006250Y-219475000I-218750J0D01*
G01*
X7568750Y-219475000D01*
G75*
G02*
X7350000Y-219256250I0J218750D01*
G01*
X7350000Y-218743750D01*
G75*
G02*
X7568750Y-218525000I218750J0D01*
G01*
X8006250Y-218525000D01*
G75*
G02*
X8225000Y-218743750I0J-218750D01*
G01*
G37*
G36*
G01*
X6650000Y-218743750D02*
X6650000Y-219256250D01*
G75*
G02*
X6431250Y-219475000I-218750J0D01*
G01*
X5993750Y-219475000D01*
G75*
G02*
X5775000Y-219256250I0J218750D01*
G01*
X5775000Y-218743750D01*
G75*
G02*
X5993750Y-218525000I218750J0D01*
G01*
X6431250Y-218525000D01*
G75*
G02*
X6650000Y-218743750I0J-218750D01*
G01*
G37*
%TD*%
%TO.C,D24*%
G36*
G01*
X28437500Y-218743750D02*
X28437500Y-219256250D01*
G75*
G02*
X28218750Y-219475000I-218750J0D01*
G01*
X27781250Y-219475000D01*
G75*
G02*
X27562500Y-219256250I0J218750D01*
G01*
X27562500Y-218743750D01*
G75*
G02*
X27781250Y-218525000I218750J0D01*
G01*
X28218750Y-218525000D01*
G75*
G02*
X28437500Y-218743750I0J-218750D01*
G01*
G37*
G36*
G01*
X26862500Y-218743750D02*
X26862500Y-219256250D01*
G75*
G02*
X26643750Y-219475000I-218750J0D01*
G01*
X26206250Y-219475000D01*
G75*
G02*
X25987500Y-219256250I0J218750D01*
G01*
X25987500Y-218743750D01*
G75*
G02*
X26206250Y-218525000I218750J0D01*
G01*
X26643750Y-218525000D01*
G75*
G02*
X26862500Y-218743750I0J-218750D01*
G01*
G37*
%TD*%
%TO.C,D25*%
G36*
G01*
X65862500Y-218743750D02*
X65862500Y-219256250D01*
G75*
G02*
X65643750Y-219475000I-218750J0D01*
G01*
X65206250Y-219475000D01*
G75*
G02*
X64987500Y-219256250I0J218750D01*
G01*
X64987500Y-218743750D01*
G75*
G02*
X65206250Y-218525000I218750J0D01*
G01*
X65643750Y-218525000D01*
G75*
G02*
X65862500Y-218743750I0J-218750D01*
G01*
G37*
G36*
G01*
X67437500Y-218743750D02*
X67437500Y-219256250D01*
G75*
G02*
X67218750Y-219475000I-218750J0D01*
G01*
X66781250Y-219475000D01*
G75*
G02*
X66562500Y-219256250I0J218750D01*
G01*
X66562500Y-218743750D01*
G75*
G02*
X66781250Y-218525000I218750J0D01*
G01*
X67218750Y-218525000D01*
G75*
G02*
X67437500Y-218743750I0J-218750D01*
G01*
G37*
%TD*%
%TO.C,D26*%
G36*
G01*
X101437500Y-218743750D02*
X101437500Y-219256250D01*
G75*
G02*
X101218750Y-219475000I-218750J0D01*
G01*
X100781250Y-219475000D01*
G75*
G02*
X100562500Y-219256250I0J218750D01*
G01*
X100562500Y-218743750D01*
G75*
G02*
X100781250Y-218525000I218750J0D01*
G01*
X101218750Y-218525000D01*
G75*
G02*
X101437500Y-218743750I0J-218750D01*
G01*
G37*
G36*
G01*
X99862500Y-218743750D02*
X99862500Y-219256250D01*
G75*
G02*
X99643750Y-219475000I-218750J0D01*
G01*
X99206250Y-219475000D01*
G75*
G02*
X98987500Y-219256250I0J218750D01*
G01*
X98987500Y-218743750D01*
G75*
G02*
X99206250Y-218525000I218750J0D01*
G01*
X99643750Y-218525000D01*
G75*
G02*
X99862500Y-218743750I0J-218750D01*
G01*
G37*
%TD*%
%TO.C,D27*%
G36*
G01*
X128862500Y-218743750D02*
X128862500Y-219256250D01*
G75*
G02*
X128643750Y-219475000I-218750J0D01*
G01*
X128206250Y-219475000D01*
G75*
G02*
X127987500Y-219256250I0J218750D01*
G01*
X127987500Y-218743750D01*
G75*
G02*
X128206250Y-218525000I218750J0D01*
G01*
X128643750Y-218525000D01*
G75*
G02*
X128862500Y-218743750I0J-218750D01*
G01*
G37*
G36*
G01*
X130437500Y-218743750D02*
X130437500Y-219256250D01*
G75*
G02*
X130218750Y-219475000I-218750J0D01*
G01*
X129781250Y-219475000D01*
G75*
G02*
X129562500Y-219256250I0J218750D01*
G01*
X129562500Y-218743750D01*
G75*
G02*
X129781250Y-218525000I218750J0D01*
G01*
X130218750Y-218525000D01*
G75*
G02*
X130437500Y-218743750I0J-218750D01*
G01*
G37*
%TD*%
%TO.C,D28*%
G36*
G01*
X160225000Y-218743750D02*
X160225000Y-219256250D01*
G75*
G02*
X160006250Y-219475000I-218750J0D01*
G01*
X159568750Y-219475000D01*
G75*
G02*
X159350000Y-219256250I0J218750D01*
G01*
X159350000Y-218743750D01*
G75*
G02*
X159568750Y-218525000I218750J0D01*
G01*
X160006250Y-218525000D01*
G75*
G02*
X160225000Y-218743750I0J-218750D01*
G01*
G37*
G36*
G01*
X158650000Y-218743750D02*
X158650000Y-219256250D01*
G75*
G02*
X158431250Y-219475000I-218750J0D01*
G01*
X157993750Y-219475000D01*
G75*
G02*
X157775000Y-219256250I0J218750D01*
G01*
X157775000Y-218743750D01*
G75*
G02*
X157993750Y-218525000I218750J0D01*
G01*
X158431250Y-218525000D01*
G75*
G02*
X158650000Y-218743750I0J-218750D01*
G01*
G37*
%TD*%
%TO.C,D29*%
G36*
G01*
X186225000Y-218743750D02*
X186225000Y-219256250D01*
G75*
G02*
X186006250Y-219475000I-218750J0D01*
G01*
X185568750Y-219475000D01*
G75*
G02*
X185350000Y-219256250I0J218750D01*
G01*
X185350000Y-218743750D01*
G75*
G02*
X185568750Y-218525000I218750J0D01*
G01*
X186006250Y-218525000D01*
G75*
G02*
X186225000Y-218743750I0J-218750D01*
G01*
G37*
G36*
G01*
X184650000Y-218743750D02*
X184650000Y-219256250D01*
G75*
G02*
X184431250Y-219475000I-218750J0D01*
G01*
X183993750Y-219475000D01*
G75*
G02*
X183775000Y-219256250I0J218750D01*
G01*
X183775000Y-218743750D01*
G75*
G02*
X183993750Y-218525000I218750J0D01*
G01*
X184431250Y-218525000D01*
G75*
G02*
X184650000Y-218743750I0J-218750D01*
G01*
G37*
%TD*%
%TO.C,D30*%
G36*
G01*
X211437500Y-218743750D02*
X211437500Y-219256250D01*
G75*
G02*
X211218750Y-219475000I-218750J0D01*
G01*
X210781250Y-219475000D01*
G75*
G02*
X210562500Y-219256250I0J218750D01*
G01*
X210562500Y-218743750D01*
G75*
G02*
X210781250Y-218525000I218750J0D01*
G01*
X211218750Y-218525000D01*
G75*
G02*
X211437500Y-218743750I0J-218750D01*
G01*
G37*
G36*
G01*
X209862500Y-218743750D02*
X209862500Y-219256250D01*
G75*
G02*
X209643750Y-219475000I-218750J0D01*
G01*
X209206250Y-219475000D01*
G75*
G02*
X208987500Y-219256250I0J218750D01*
G01*
X208987500Y-218743750D01*
G75*
G02*
X209206250Y-218525000I218750J0D01*
G01*
X209643750Y-218525000D01*
G75*
G02*
X209862500Y-218743750I0J-218750D01*
G01*
G37*
%TD*%
%TO.C,D31*%
G36*
G01*
X233650000Y-218743750D02*
X233650000Y-219256250D01*
G75*
G02*
X233431250Y-219475000I-218750J0D01*
G01*
X232993750Y-219475000D01*
G75*
G02*
X232775000Y-219256250I0J218750D01*
G01*
X232775000Y-218743750D01*
G75*
G02*
X232993750Y-218525000I218750J0D01*
G01*
X233431250Y-218525000D01*
G75*
G02*
X233650000Y-218743750I0J-218750D01*
G01*
G37*
G36*
G01*
X235225000Y-218743750D02*
X235225000Y-219256250D01*
G75*
G02*
X235006250Y-219475000I-218750J0D01*
G01*
X234568750Y-219475000D01*
G75*
G02*
X234350000Y-219256250I0J218750D01*
G01*
X234350000Y-218743750D01*
G75*
G02*
X234568750Y-218525000I218750J0D01*
G01*
X235006250Y-218525000D01*
G75*
G02*
X235225000Y-218743750I0J-218750D01*
G01*
G37*
%TD*%
%TO.C,D32*%
G36*
G01*
X258225000Y-218743750D02*
X258225000Y-219256250D01*
G75*
G02*
X258006250Y-219475000I-218750J0D01*
G01*
X257568750Y-219475000D01*
G75*
G02*
X257350000Y-219256250I0J218750D01*
G01*
X257350000Y-218743750D01*
G75*
G02*
X257568750Y-218525000I218750J0D01*
G01*
X258006250Y-218525000D01*
G75*
G02*
X258225000Y-218743750I0J-218750D01*
G01*
G37*
G36*
G01*
X256650000Y-218743750D02*
X256650000Y-219256250D01*
G75*
G02*
X256431250Y-219475000I-218750J0D01*
G01*
X255993750Y-219475000D01*
G75*
G02*
X255775000Y-219256250I0J218750D01*
G01*
X255775000Y-218743750D01*
G75*
G02*
X255993750Y-218525000I218750J0D01*
G01*
X256431250Y-218525000D01*
G75*
G02*
X256650000Y-218743750I0J-218750D01*
G01*
G37*
%TD*%
%TO.C,D33*%
G36*
G01*
X278862500Y-218743750D02*
X278862500Y-219256250D01*
G75*
G02*
X278643750Y-219475000I-218750J0D01*
G01*
X278206250Y-219475000D01*
G75*
G02*
X277987500Y-219256250I0J218750D01*
G01*
X277987500Y-218743750D01*
G75*
G02*
X278206250Y-218525000I218750J0D01*
G01*
X278643750Y-218525000D01*
G75*
G02*
X278862500Y-218743750I0J-218750D01*
G01*
G37*
G36*
G01*
X280437500Y-218743750D02*
X280437500Y-219256250D01*
G75*
G02*
X280218750Y-219475000I-218750J0D01*
G01*
X279781250Y-219475000D01*
G75*
G02*
X279562500Y-219256250I0J218750D01*
G01*
X279562500Y-218743750D01*
G75*
G02*
X279781250Y-218525000I218750J0D01*
G01*
X280218750Y-218525000D01*
G75*
G02*
X280437500Y-218743750I0J-218750D01*
G01*
G37*
%TD*%
%TO.C,D34*%
G36*
G01*
X299650000Y-218743750D02*
X299650000Y-219256250D01*
G75*
G02*
X299431250Y-219475000I-218750J0D01*
G01*
X298993750Y-219475000D01*
G75*
G02*
X298775000Y-219256250I0J218750D01*
G01*
X298775000Y-218743750D01*
G75*
G02*
X298993750Y-218525000I218750J0D01*
G01*
X299431250Y-218525000D01*
G75*
G02*
X299650000Y-218743750I0J-218750D01*
G01*
G37*
G36*
G01*
X301225000Y-218743750D02*
X301225000Y-219256250D01*
G75*
G02*
X301006250Y-219475000I-218750J0D01*
G01*
X300568750Y-219475000D01*
G75*
G02*
X300350000Y-219256250I0J218750D01*
G01*
X300350000Y-218743750D01*
G75*
G02*
X300568750Y-218525000I218750J0D01*
G01*
X301006250Y-218525000D01*
G75*
G02*
X301225000Y-218743750I0J-218750D01*
G01*
G37*
%TD*%
%TO.C,D35*%
G36*
G01*
X320225000Y-218743750D02*
X320225000Y-219256250D01*
G75*
G02*
X320006250Y-219475000I-218750J0D01*
G01*
X319568750Y-219475000D01*
G75*
G02*
X319350000Y-219256250I0J218750D01*
G01*
X319350000Y-218743750D01*
G75*
G02*
X319568750Y-218525000I218750J0D01*
G01*
X320006250Y-218525000D01*
G75*
G02*
X320225000Y-218743750I0J-218750D01*
G01*
G37*
G36*
G01*
X318650000Y-218743750D02*
X318650000Y-219256250D01*
G75*
G02*
X318431250Y-219475000I-218750J0D01*
G01*
X317993750Y-219475000D01*
G75*
G02*
X317775000Y-219256250I0J218750D01*
G01*
X317775000Y-218743750D01*
G75*
G02*
X317993750Y-218525000I218750J0D01*
G01*
X318431250Y-218525000D01*
G75*
G02*
X318650000Y-218743750I0J-218750D01*
G01*
G37*
%TD*%
%TO.C,D36*%
G36*
G01*
X335862500Y-218743750D02*
X335862500Y-219256250D01*
G75*
G02*
X335643750Y-219475000I-218750J0D01*
G01*
X335206250Y-219475000D01*
G75*
G02*
X334987500Y-219256250I0J218750D01*
G01*
X334987500Y-218743750D01*
G75*
G02*
X335206250Y-218525000I218750J0D01*
G01*
X335643750Y-218525000D01*
G75*
G02*
X335862500Y-218743750I0J-218750D01*
G01*
G37*
G36*
G01*
X337437500Y-218743750D02*
X337437500Y-219256250D01*
G75*
G02*
X337218750Y-219475000I-218750J0D01*
G01*
X336781250Y-219475000D01*
G75*
G02*
X336562500Y-219256250I0J218750D01*
G01*
X336562500Y-218743750D01*
G75*
G02*
X336781250Y-218525000I218750J0D01*
G01*
X337218750Y-218525000D01*
G75*
G02*
X337437500Y-218743750I0J-218750D01*
G01*
G37*
%TD*%
%TO.C,D37*%
G36*
G01*
X353862500Y-218743750D02*
X353862500Y-219256250D01*
G75*
G02*
X353643750Y-219475000I-218750J0D01*
G01*
X353206250Y-219475000D01*
G75*
G02*
X352987500Y-219256250I0J218750D01*
G01*
X352987500Y-218743750D01*
G75*
G02*
X353206250Y-218525000I218750J0D01*
G01*
X353643750Y-218525000D01*
G75*
G02*
X353862500Y-218743750I0J-218750D01*
G01*
G37*
G36*
G01*
X355437500Y-218743750D02*
X355437500Y-219256250D01*
G75*
G02*
X355218750Y-219475000I-218750J0D01*
G01*
X354781250Y-219475000D01*
G75*
G02*
X354562500Y-219256250I0J218750D01*
G01*
X354562500Y-218743750D01*
G75*
G02*
X354781250Y-218525000I218750J0D01*
G01*
X355218750Y-218525000D01*
G75*
G02*
X355437500Y-218743750I0J-218750D01*
G01*
G37*
%TD*%
%TO.C,D38*%
G36*
G01*
X372225000Y-218743750D02*
X372225000Y-219256250D01*
G75*
G02*
X372006250Y-219475000I-218750J0D01*
G01*
X371568750Y-219475000D01*
G75*
G02*
X371350000Y-219256250I0J218750D01*
G01*
X371350000Y-218743750D01*
G75*
G02*
X371568750Y-218525000I218750J0D01*
G01*
X372006250Y-218525000D01*
G75*
G02*
X372225000Y-218743750I0J-218750D01*
G01*
G37*
G36*
G01*
X370650000Y-218743750D02*
X370650000Y-219256250D01*
G75*
G02*
X370431250Y-219475000I-218750J0D01*
G01*
X369993750Y-219475000D01*
G75*
G02*
X369775000Y-219256250I0J218750D01*
G01*
X369775000Y-218743750D01*
G75*
G02*
X369993750Y-218525000I218750J0D01*
G01*
X370431250Y-218525000D01*
G75*
G02*
X370650000Y-218743750I0J-218750D01*
G01*
G37*
%TD*%
%TO.C,D39*%
G36*
G01*
X388225000Y-218743750D02*
X388225000Y-219256250D01*
G75*
G02*
X388006250Y-219475000I-218750J0D01*
G01*
X387568750Y-219475000D01*
G75*
G02*
X387350000Y-219256250I0J218750D01*
G01*
X387350000Y-218743750D01*
G75*
G02*
X387568750Y-218525000I218750J0D01*
G01*
X388006250Y-218525000D01*
G75*
G02*
X388225000Y-218743750I0J-218750D01*
G01*
G37*
G36*
G01*
X386650000Y-218743750D02*
X386650000Y-219256250D01*
G75*
G02*
X386431250Y-219475000I-218750J0D01*
G01*
X385993750Y-219475000D01*
G75*
G02*
X385775000Y-219256250I0J218750D01*
G01*
X385775000Y-218743750D01*
G75*
G02*
X385993750Y-218525000I218750J0D01*
G01*
X386431250Y-218525000D01*
G75*
G02*
X386650000Y-218743750I0J-218750D01*
G01*
G37*
%TD*%
%TO.C,D40*%
G36*
G01*
X402225000Y-218743750D02*
X402225000Y-219256250D01*
G75*
G02*
X402006250Y-219475000I-218750J0D01*
G01*
X401568750Y-219475000D01*
G75*
G02*
X401350000Y-219256250I0J218750D01*
G01*
X401350000Y-218743750D01*
G75*
G02*
X401568750Y-218525000I218750J0D01*
G01*
X402006250Y-218525000D01*
G75*
G02*
X402225000Y-218743750I0J-218750D01*
G01*
G37*
G36*
G01*
X400650000Y-218743750D02*
X400650000Y-219256250D01*
G75*
G02*
X400431250Y-219475000I-218750J0D01*
G01*
X399993750Y-219475000D01*
G75*
G02*
X399775000Y-219256250I0J218750D01*
G01*
X399775000Y-218743750D01*
G75*
G02*
X399993750Y-218525000I218750J0D01*
G01*
X400431250Y-218525000D01*
G75*
G02*
X400650000Y-218743750I0J-218750D01*
G01*
G37*
%TD*%
%TO.C,D41*%
G36*
G01*
X413862500Y-218743750D02*
X413862500Y-219256250D01*
G75*
G02*
X413643750Y-219475000I-218750J0D01*
G01*
X413206250Y-219475000D01*
G75*
G02*
X412987500Y-219256250I0J218750D01*
G01*
X412987500Y-218743750D01*
G75*
G02*
X413206250Y-218525000I218750J0D01*
G01*
X413643750Y-218525000D01*
G75*
G02*
X413862500Y-218743750I0J-218750D01*
G01*
G37*
G36*
G01*
X415437500Y-218743750D02*
X415437500Y-219256250D01*
G75*
G02*
X415218750Y-219475000I-218750J0D01*
G01*
X414781250Y-219475000D01*
G75*
G02*
X414562500Y-219256250I0J218750D01*
G01*
X414562500Y-218743750D01*
G75*
G02*
X414781250Y-218525000I218750J0D01*
G01*
X415218750Y-218525000D01*
G75*
G02*
X415437500Y-218743750I0J-218750D01*
G01*
G37*
%TD*%
%TO.C,D42*%
G36*
G01*
X428437500Y-218743750D02*
X428437500Y-219256250D01*
G75*
G02*
X428218750Y-219475000I-218750J0D01*
G01*
X427781250Y-219475000D01*
G75*
G02*
X427562500Y-219256250I0J218750D01*
G01*
X427562500Y-218743750D01*
G75*
G02*
X427781250Y-218525000I218750J0D01*
G01*
X428218750Y-218525000D01*
G75*
G02*
X428437500Y-218743750I0J-218750D01*
G01*
G37*
G36*
G01*
X426862500Y-218743750D02*
X426862500Y-219256250D01*
G75*
G02*
X426643750Y-219475000I-218750J0D01*
G01*
X426206250Y-219475000D01*
G75*
G02*
X425987500Y-219256250I0J218750D01*
G01*
X425987500Y-218743750D01*
G75*
G02*
X426206250Y-218525000I218750J0D01*
G01*
X426643750Y-218525000D01*
G75*
G02*
X426862500Y-218743750I0J-218750D01*
G01*
G37*
%TD*%
%TO.C,D43*%
G36*
G01*
X438862500Y-218743750D02*
X438862500Y-219256250D01*
G75*
G02*
X438643750Y-219475000I-218750J0D01*
G01*
X438206250Y-219475000D01*
G75*
G02*
X437987500Y-219256250I0J218750D01*
G01*
X437987500Y-218743750D01*
G75*
G02*
X438206250Y-218525000I218750J0D01*
G01*
X438643750Y-218525000D01*
G75*
G02*
X438862500Y-218743750I0J-218750D01*
G01*
G37*
G36*
G01*
X440437500Y-218743750D02*
X440437500Y-219256250D01*
G75*
G02*
X440218750Y-219475000I-218750J0D01*
G01*
X439781250Y-219475000D01*
G75*
G02*
X439562500Y-219256250I0J218750D01*
G01*
X439562500Y-218743750D01*
G75*
G02*
X439781250Y-218525000I218750J0D01*
G01*
X440218750Y-218525000D01*
G75*
G02*
X440437500Y-218743750I0J-218750D01*
G01*
G37*
%TD*%
%TO.C,D45*%
G36*
G01*
X6650000Y-227743750D02*
X6650000Y-228256250D01*
G75*
G02*
X6431250Y-228475000I-218750J0D01*
G01*
X5993750Y-228475000D01*
G75*
G02*
X5775000Y-228256250I0J218750D01*
G01*
X5775000Y-227743750D01*
G75*
G02*
X5993750Y-227525000I218750J0D01*
G01*
X6431250Y-227525000D01*
G75*
G02*
X6650000Y-227743750I0J-218750D01*
G01*
G37*
G36*
G01*
X8225000Y-227743750D02*
X8225000Y-228256250D01*
G75*
G02*
X8006250Y-228475000I-218750J0D01*
G01*
X7568750Y-228475000D01*
G75*
G02*
X7350000Y-228256250I0J218750D01*
G01*
X7350000Y-227743750D01*
G75*
G02*
X7568750Y-227525000I218750J0D01*
G01*
X8006250Y-227525000D01*
G75*
G02*
X8225000Y-227743750I0J-218750D01*
G01*
G37*
%TD*%
%TO.C,D46*%
G36*
G01*
X28437500Y-227743750D02*
X28437500Y-228256250D01*
G75*
G02*
X28218750Y-228475000I-218750J0D01*
G01*
X27781250Y-228475000D01*
G75*
G02*
X27562500Y-228256250I0J218750D01*
G01*
X27562500Y-227743750D01*
G75*
G02*
X27781250Y-227525000I218750J0D01*
G01*
X28218750Y-227525000D01*
G75*
G02*
X28437500Y-227743750I0J-218750D01*
G01*
G37*
G36*
G01*
X26862500Y-227743750D02*
X26862500Y-228256250D01*
G75*
G02*
X26643750Y-228475000I-218750J0D01*
G01*
X26206250Y-228475000D01*
G75*
G02*
X25987500Y-228256250I0J218750D01*
G01*
X25987500Y-227743750D01*
G75*
G02*
X26206250Y-227525000I218750J0D01*
G01*
X26643750Y-227525000D01*
G75*
G02*
X26862500Y-227743750I0J-218750D01*
G01*
G37*
%TD*%
%TO.C,D47*%
G36*
G01*
X65862500Y-227743750D02*
X65862500Y-228256250D01*
G75*
G02*
X65643750Y-228475000I-218750J0D01*
G01*
X65206250Y-228475000D01*
G75*
G02*
X64987500Y-228256250I0J218750D01*
G01*
X64987500Y-227743750D01*
G75*
G02*
X65206250Y-227525000I218750J0D01*
G01*
X65643750Y-227525000D01*
G75*
G02*
X65862500Y-227743750I0J-218750D01*
G01*
G37*
G36*
G01*
X67437500Y-227743750D02*
X67437500Y-228256250D01*
G75*
G02*
X67218750Y-228475000I-218750J0D01*
G01*
X66781250Y-228475000D01*
G75*
G02*
X66562500Y-228256250I0J218750D01*
G01*
X66562500Y-227743750D01*
G75*
G02*
X66781250Y-227525000I218750J0D01*
G01*
X67218750Y-227525000D01*
G75*
G02*
X67437500Y-227743750I0J-218750D01*
G01*
G37*
%TD*%
%TO.C,D48*%
G36*
G01*
X101437500Y-227743750D02*
X101437500Y-228256250D01*
G75*
G02*
X101218750Y-228475000I-218750J0D01*
G01*
X100781250Y-228475000D01*
G75*
G02*
X100562500Y-228256250I0J218750D01*
G01*
X100562500Y-227743750D01*
G75*
G02*
X100781250Y-227525000I218750J0D01*
G01*
X101218750Y-227525000D01*
G75*
G02*
X101437500Y-227743750I0J-218750D01*
G01*
G37*
G36*
G01*
X99862500Y-227743750D02*
X99862500Y-228256250D01*
G75*
G02*
X99643750Y-228475000I-218750J0D01*
G01*
X99206250Y-228475000D01*
G75*
G02*
X98987500Y-228256250I0J218750D01*
G01*
X98987500Y-227743750D01*
G75*
G02*
X99206250Y-227525000I218750J0D01*
G01*
X99643750Y-227525000D01*
G75*
G02*
X99862500Y-227743750I0J-218750D01*
G01*
G37*
%TD*%
%TO.C,D49*%
G36*
G01*
X128862500Y-227743750D02*
X128862500Y-228256250D01*
G75*
G02*
X128643750Y-228475000I-218750J0D01*
G01*
X128206250Y-228475000D01*
G75*
G02*
X127987500Y-228256250I0J218750D01*
G01*
X127987500Y-227743750D01*
G75*
G02*
X128206250Y-227525000I218750J0D01*
G01*
X128643750Y-227525000D01*
G75*
G02*
X128862500Y-227743750I0J-218750D01*
G01*
G37*
G36*
G01*
X130437500Y-227743750D02*
X130437500Y-228256250D01*
G75*
G02*
X130218750Y-228475000I-218750J0D01*
G01*
X129781250Y-228475000D01*
G75*
G02*
X129562500Y-228256250I0J218750D01*
G01*
X129562500Y-227743750D01*
G75*
G02*
X129781250Y-227525000I218750J0D01*
G01*
X130218750Y-227525000D01*
G75*
G02*
X130437500Y-227743750I0J-218750D01*
G01*
G37*
%TD*%
%TO.C,D50*%
G36*
G01*
X160225000Y-227743750D02*
X160225000Y-228256250D01*
G75*
G02*
X160006250Y-228475000I-218750J0D01*
G01*
X159568750Y-228475000D01*
G75*
G02*
X159350000Y-228256250I0J218750D01*
G01*
X159350000Y-227743750D01*
G75*
G02*
X159568750Y-227525000I218750J0D01*
G01*
X160006250Y-227525000D01*
G75*
G02*
X160225000Y-227743750I0J-218750D01*
G01*
G37*
G36*
G01*
X158650000Y-227743750D02*
X158650000Y-228256250D01*
G75*
G02*
X158431250Y-228475000I-218750J0D01*
G01*
X157993750Y-228475000D01*
G75*
G02*
X157775000Y-228256250I0J218750D01*
G01*
X157775000Y-227743750D01*
G75*
G02*
X157993750Y-227525000I218750J0D01*
G01*
X158431250Y-227525000D01*
G75*
G02*
X158650000Y-227743750I0J-218750D01*
G01*
G37*
%TD*%
%TO.C,D51*%
G36*
G01*
X184650000Y-227743750D02*
X184650000Y-228256250D01*
G75*
G02*
X184431250Y-228475000I-218750J0D01*
G01*
X183993750Y-228475000D01*
G75*
G02*
X183775000Y-228256250I0J218750D01*
G01*
X183775000Y-227743750D01*
G75*
G02*
X183993750Y-227525000I218750J0D01*
G01*
X184431250Y-227525000D01*
G75*
G02*
X184650000Y-227743750I0J-218750D01*
G01*
G37*
G36*
G01*
X186225000Y-227743750D02*
X186225000Y-228256250D01*
G75*
G02*
X186006250Y-228475000I-218750J0D01*
G01*
X185568750Y-228475000D01*
G75*
G02*
X185350000Y-228256250I0J218750D01*
G01*
X185350000Y-227743750D01*
G75*
G02*
X185568750Y-227525000I218750J0D01*
G01*
X186006250Y-227525000D01*
G75*
G02*
X186225000Y-227743750I0J-218750D01*
G01*
G37*
%TD*%
%TO.C,D52*%
G36*
G01*
X211437500Y-227743750D02*
X211437500Y-228256250D01*
G75*
G02*
X211218750Y-228475000I-218750J0D01*
G01*
X210781250Y-228475000D01*
G75*
G02*
X210562500Y-228256250I0J218750D01*
G01*
X210562500Y-227743750D01*
G75*
G02*
X210781250Y-227525000I218750J0D01*
G01*
X211218750Y-227525000D01*
G75*
G02*
X211437500Y-227743750I0J-218750D01*
G01*
G37*
G36*
G01*
X209862500Y-227743750D02*
X209862500Y-228256250D01*
G75*
G02*
X209643750Y-228475000I-218750J0D01*
G01*
X209206250Y-228475000D01*
G75*
G02*
X208987500Y-228256250I0J218750D01*
G01*
X208987500Y-227743750D01*
G75*
G02*
X209206250Y-227525000I218750J0D01*
G01*
X209643750Y-227525000D01*
G75*
G02*
X209862500Y-227743750I0J-218750D01*
G01*
G37*
%TD*%
%TO.C,D53*%
G36*
G01*
X233650000Y-227743750D02*
X233650000Y-228256250D01*
G75*
G02*
X233431250Y-228475000I-218750J0D01*
G01*
X232993750Y-228475000D01*
G75*
G02*
X232775000Y-228256250I0J218750D01*
G01*
X232775000Y-227743750D01*
G75*
G02*
X232993750Y-227525000I218750J0D01*
G01*
X233431250Y-227525000D01*
G75*
G02*
X233650000Y-227743750I0J-218750D01*
G01*
G37*
G36*
G01*
X235225000Y-227743750D02*
X235225000Y-228256250D01*
G75*
G02*
X235006250Y-228475000I-218750J0D01*
G01*
X234568750Y-228475000D01*
G75*
G02*
X234350000Y-228256250I0J218750D01*
G01*
X234350000Y-227743750D01*
G75*
G02*
X234568750Y-227525000I218750J0D01*
G01*
X235006250Y-227525000D01*
G75*
G02*
X235225000Y-227743750I0J-218750D01*
G01*
G37*
%TD*%
%TO.C,D54*%
G36*
G01*
X258225000Y-227743750D02*
X258225000Y-228256250D01*
G75*
G02*
X258006250Y-228475000I-218750J0D01*
G01*
X257568750Y-228475000D01*
G75*
G02*
X257350000Y-228256250I0J218750D01*
G01*
X257350000Y-227743750D01*
G75*
G02*
X257568750Y-227525000I218750J0D01*
G01*
X258006250Y-227525000D01*
G75*
G02*
X258225000Y-227743750I0J-218750D01*
G01*
G37*
G36*
G01*
X256650000Y-227743750D02*
X256650000Y-228256250D01*
G75*
G02*
X256431250Y-228475000I-218750J0D01*
G01*
X255993750Y-228475000D01*
G75*
G02*
X255775000Y-228256250I0J218750D01*
G01*
X255775000Y-227743750D01*
G75*
G02*
X255993750Y-227525000I218750J0D01*
G01*
X256431250Y-227525000D01*
G75*
G02*
X256650000Y-227743750I0J-218750D01*
G01*
G37*
%TD*%
%TO.C,D55*%
G36*
G01*
X280437500Y-227743750D02*
X280437500Y-228256250D01*
G75*
G02*
X280218750Y-228475000I-218750J0D01*
G01*
X279781250Y-228475000D01*
G75*
G02*
X279562500Y-228256250I0J218750D01*
G01*
X279562500Y-227743750D01*
G75*
G02*
X279781250Y-227525000I218750J0D01*
G01*
X280218750Y-227525000D01*
G75*
G02*
X280437500Y-227743750I0J-218750D01*
G01*
G37*
G36*
G01*
X278862500Y-227743750D02*
X278862500Y-228256250D01*
G75*
G02*
X278643750Y-228475000I-218750J0D01*
G01*
X278206250Y-228475000D01*
G75*
G02*
X277987500Y-228256250I0J218750D01*
G01*
X277987500Y-227743750D01*
G75*
G02*
X278206250Y-227525000I218750J0D01*
G01*
X278643750Y-227525000D01*
G75*
G02*
X278862500Y-227743750I0J-218750D01*
G01*
G37*
%TD*%
%TO.C,D56*%
G36*
G01*
X299650000Y-227743750D02*
X299650000Y-228256250D01*
G75*
G02*
X299431250Y-228475000I-218750J0D01*
G01*
X298993750Y-228475000D01*
G75*
G02*
X298775000Y-228256250I0J218750D01*
G01*
X298775000Y-227743750D01*
G75*
G02*
X298993750Y-227525000I218750J0D01*
G01*
X299431250Y-227525000D01*
G75*
G02*
X299650000Y-227743750I0J-218750D01*
G01*
G37*
G36*
G01*
X301225000Y-227743750D02*
X301225000Y-228256250D01*
G75*
G02*
X301006250Y-228475000I-218750J0D01*
G01*
X300568750Y-228475000D01*
G75*
G02*
X300350000Y-228256250I0J218750D01*
G01*
X300350000Y-227743750D01*
G75*
G02*
X300568750Y-227525000I218750J0D01*
G01*
X301006250Y-227525000D01*
G75*
G02*
X301225000Y-227743750I0J-218750D01*
G01*
G37*
%TD*%
%TO.C,D57*%
G36*
G01*
X320225000Y-227743750D02*
X320225000Y-228256250D01*
G75*
G02*
X320006250Y-228475000I-218750J0D01*
G01*
X319568750Y-228475000D01*
G75*
G02*
X319350000Y-228256250I0J218750D01*
G01*
X319350000Y-227743750D01*
G75*
G02*
X319568750Y-227525000I218750J0D01*
G01*
X320006250Y-227525000D01*
G75*
G02*
X320225000Y-227743750I0J-218750D01*
G01*
G37*
G36*
G01*
X318650000Y-227743750D02*
X318650000Y-228256250D01*
G75*
G02*
X318431250Y-228475000I-218750J0D01*
G01*
X317993750Y-228475000D01*
G75*
G02*
X317775000Y-228256250I0J218750D01*
G01*
X317775000Y-227743750D01*
G75*
G02*
X317993750Y-227525000I218750J0D01*
G01*
X318431250Y-227525000D01*
G75*
G02*
X318650000Y-227743750I0J-218750D01*
G01*
G37*
%TD*%
%TO.C,D58*%
G36*
G01*
X335862500Y-227743750D02*
X335862500Y-228256250D01*
G75*
G02*
X335643750Y-228475000I-218750J0D01*
G01*
X335206250Y-228475000D01*
G75*
G02*
X334987500Y-228256250I0J218750D01*
G01*
X334987500Y-227743750D01*
G75*
G02*
X335206250Y-227525000I218750J0D01*
G01*
X335643750Y-227525000D01*
G75*
G02*
X335862500Y-227743750I0J-218750D01*
G01*
G37*
G36*
G01*
X337437500Y-227743750D02*
X337437500Y-228256250D01*
G75*
G02*
X337218750Y-228475000I-218750J0D01*
G01*
X336781250Y-228475000D01*
G75*
G02*
X336562500Y-228256250I0J218750D01*
G01*
X336562500Y-227743750D01*
G75*
G02*
X336781250Y-227525000I218750J0D01*
G01*
X337218750Y-227525000D01*
G75*
G02*
X337437500Y-227743750I0J-218750D01*
G01*
G37*
%TD*%
%TO.C,D59*%
G36*
G01*
X355437500Y-227743750D02*
X355437500Y-228256250D01*
G75*
G02*
X355218750Y-228475000I-218750J0D01*
G01*
X354781250Y-228475000D01*
G75*
G02*
X354562500Y-228256250I0J218750D01*
G01*
X354562500Y-227743750D01*
G75*
G02*
X354781250Y-227525000I218750J0D01*
G01*
X355218750Y-227525000D01*
G75*
G02*
X355437500Y-227743750I0J-218750D01*
G01*
G37*
G36*
G01*
X353862500Y-227743750D02*
X353862500Y-228256250D01*
G75*
G02*
X353643750Y-228475000I-218750J0D01*
G01*
X353206250Y-228475000D01*
G75*
G02*
X352987500Y-228256250I0J218750D01*
G01*
X352987500Y-227743750D01*
G75*
G02*
X353206250Y-227525000I218750J0D01*
G01*
X353643750Y-227525000D01*
G75*
G02*
X353862500Y-227743750I0J-218750D01*
G01*
G37*
%TD*%
%TO.C,D60*%
G36*
G01*
X370650000Y-227743750D02*
X370650000Y-228256250D01*
G75*
G02*
X370431250Y-228475000I-218750J0D01*
G01*
X369993750Y-228475000D01*
G75*
G02*
X369775000Y-228256250I0J218750D01*
G01*
X369775000Y-227743750D01*
G75*
G02*
X369993750Y-227525000I218750J0D01*
G01*
X370431250Y-227525000D01*
G75*
G02*
X370650000Y-227743750I0J-218750D01*
G01*
G37*
G36*
G01*
X372225000Y-227743750D02*
X372225000Y-228256250D01*
G75*
G02*
X372006250Y-228475000I-218750J0D01*
G01*
X371568750Y-228475000D01*
G75*
G02*
X371350000Y-228256250I0J218750D01*
G01*
X371350000Y-227743750D01*
G75*
G02*
X371568750Y-227525000I218750J0D01*
G01*
X372006250Y-227525000D01*
G75*
G02*
X372225000Y-227743750I0J-218750D01*
G01*
G37*
%TD*%
%TO.C,D61*%
G36*
G01*
X388225000Y-227743750D02*
X388225000Y-228256250D01*
G75*
G02*
X388006250Y-228475000I-218750J0D01*
G01*
X387568750Y-228475000D01*
G75*
G02*
X387350000Y-228256250I0J218750D01*
G01*
X387350000Y-227743750D01*
G75*
G02*
X387568750Y-227525000I218750J0D01*
G01*
X388006250Y-227525000D01*
G75*
G02*
X388225000Y-227743750I0J-218750D01*
G01*
G37*
G36*
G01*
X386650000Y-227743750D02*
X386650000Y-228256250D01*
G75*
G02*
X386431250Y-228475000I-218750J0D01*
G01*
X385993750Y-228475000D01*
G75*
G02*
X385775000Y-228256250I0J218750D01*
G01*
X385775000Y-227743750D01*
G75*
G02*
X385993750Y-227525000I218750J0D01*
G01*
X386431250Y-227525000D01*
G75*
G02*
X386650000Y-227743750I0J-218750D01*
G01*
G37*
%TD*%
%TO.C,D62*%
G36*
G01*
X400650000Y-227743750D02*
X400650000Y-228256250D01*
G75*
G02*
X400431250Y-228475000I-218750J0D01*
G01*
X399993750Y-228475000D01*
G75*
G02*
X399775000Y-228256250I0J218750D01*
G01*
X399775000Y-227743750D01*
G75*
G02*
X399993750Y-227525000I218750J0D01*
G01*
X400431250Y-227525000D01*
G75*
G02*
X400650000Y-227743750I0J-218750D01*
G01*
G37*
G36*
G01*
X402225000Y-227743750D02*
X402225000Y-228256250D01*
G75*
G02*
X402006250Y-228475000I-218750J0D01*
G01*
X401568750Y-228475000D01*
G75*
G02*
X401350000Y-228256250I0J218750D01*
G01*
X401350000Y-227743750D01*
G75*
G02*
X401568750Y-227525000I218750J0D01*
G01*
X402006250Y-227525000D01*
G75*
G02*
X402225000Y-227743750I0J-218750D01*
G01*
G37*
%TD*%
%TO.C,D63*%
G36*
G01*
X413862500Y-227743750D02*
X413862500Y-228256250D01*
G75*
G02*
X413643750Y-228475000I-218750J0D01*
G01*
X413206250Y-228475000D01*
G75*
G02*
X412987500Y-228256250I0J218750D01*
G01*
X412987500Y-227743750D01*
G75*
G02*
X413206250Y-227525000I218750J0D01*
G01*
X413643750Y-227525000D01*
G75*
G02*
X413862500Y-227743750I0J-218750D01*
G01*
G37*
G36*
G01*
X415437500Y-227743750D02*
X415437500Y-228256250D01*
G75*
G02*
X415218750Y-228475000I-218750J0D01*
G01*
X414781250Y-228475000D01*
G75*
G02*
X414562500Y-228256250I0J218750D01*
G01*
X414562500Y-227743750D01*
G75*
G02*
X414781250Y-227525000I218750J0D01*
G01*
X415218750Y-227525000D01*
G75*
G02*
X415437500Y-227743750I0J-218750D01*
G01*
G37*
%TD*%
%TO.C,D64*%
G36*
G01*
X426862500Y-227743750D02*
X426862500Y-228256250D01*
G75*
G02*
X426643750Y-228475000I-218750J0D01*
G01*
X426206250Y-228475000D01*
G75*
G02*
X425987500Y-228256250I0J218750D01*
G01*
X425987500Y-227743750D01*
G75*
G02*
X426206250Y-227525000I218750J0D01*
G01*
X426643750Y-227525000D01*
G75*
G02*
X426862500Y-227743750I0J-218750D01*
G01*
G37*
G36*
G01*
X428437500Y-227743750D02*
X428437500Y-228256250D01*
G75*
G02*
X428218750Y-228475000I-218750J0D01*
G01*
X427781250Y-228475000D01*
G75*
G02*
X427562500Y-228256250I0J218750D01*
G01*
X427562500Y-227743750D01*
G75*
G02*
X427781250Y-227525000I218750J0D01*
G01*
X428218750Y-227525000D01*
G75*
G02*
X428437500Y-227743750I0J-218750D01*
G01*
G37*
%TD*%
%TO.C,D65*%
G36*
G01*
X440437500Y-227743750D02*
X440437500Y-228256250D01*
G75*
G02*
X440218750Y-228475000I-218750J0D01*
G01*
X439781250Y-228475000D01*
G75*
G02*
X439562500Y-228256250I0J218750D01*
G01*
X439562500Y-227743750D01*
G75*
G02*
X439781250Y-227525000I218750J0D01*
G01*
X440218750Y-227525000D01*
G75*
G02*
X440437500Y-227743750I0J-218750D01*
G01*
G37*
G36*
G01*
X438862500Y-227743750D02*
X438862500Y-228256250D01*
G75*
G02*
X438643750Y-228475000I-218750J0D01*
G01*
X438206250Y-228475000D01*
G75*
G02*
X437987500Y-228256250I0J218750D01*
G01*
X437987500Y-227743750D01*
G75*
G02*
X438206250Y-227525000I218750J0D01*
G01*
X438643750Y-227525000D01*
G75*
G02*
X438862500Y-227743750I0J-218750D01*
G01*
G37*
%TD*%
%TO.C,D67*%
G36*
G01*
X8225000Y-236743750D02*
X8225000Y-237256250D01*
G75*
G02*
X8006250Y-237475000I-218750J0D01*
G01*
X7568750Y-237475000D01*
G75*
G02*
X7350000Y-237256250I0J218750D01*
G01*
X7350000Y-236743750D01*
G75*
G02*
X7568750Y-236525000I218750J0D01*
G01*
X8006250Y-236525000D01*
G75*
G02*
X8225000Y-236743750I0J-218750D01*
G01*
G37*
G36*
G01*
X6650000Y-236743750D02*
X6650000Y-237256250D01*
G75*
G02*
X6431250Y-237475000I-218750J0D01*
G01*
X5993750Y-237475000D01*
G75*
G02*
X5775000Y-237256250I0J218750D01*
G01*
X5775000Y-236743750D01*
G75*
G02*
X5993750Y-236525000I218750J0D01*
G01*
X6431250Y-236525000D01*
G75*
G02*
X6650000Y-236743750I0J-218750D01*
G01*
G37*
%TD*%
%TO.C,D68*%
G36*
G01*
X26862500Y-236743750D02*
X26862500Y-237256250D01*
G75*
G02*
X26643750Y-237475000I-218750J0D01*
G01*
X26206250Y-237475000D01*
G75*
G02*
X25987500Y-237256250I0J218750D01*
G01*
X25987500Y-236743750D01*
G75*
G02*
X26206250Y-236525000I218750J0D01*
G01*
X26643750Y-236525000D01*
G75*
G02*
X26862500Y-236743750I0J-218750D01*
G01*
G37*
G36*
G01*
X28437500Y-236743750D02*
X28437500Y-237256250D01*
G75*
G02*
X28218750Y-237475000I-218750J0D01*
G01*
X27781250Y-237475000D01*
G75*
G02*
X27562500Y-237256250I0J218750D01*
G01*
X27562500Y-236743750D01*
G75*
G02*
X27781250Y-236525000I218750J0D01*
G01*
X28218750Y-236525000D01*
G75*
G02*
X28437500Y-236743750I0J-218750D01*
G01*
G37*
%TD*%
%TO.C,D69*%
G36*
G01*
X67437500Y-236743750D02*
X67437500Y-237256250D01*
G75*
G02*
X67218750Y-237475000I-218750J0D01*
G01*
X66781250Y-237475000D01*
G75*
G02*
X66562500Y-237256250I0J218750D01*
G01*
X66562500Y-236743750D01*
G75*
G02*
X66781250Y-236525000I218750J0D01*
G01*
X67218750Y-236525000D01*
G75*
G02*
X67437500Y-236743750I0J-218750D01*
G01*
G37*
G36*
G01*
X65862500Y-236743750D02*
X65862500Y-237256250D01*
G75*
G02*
X65643750Y-237475000I-218750J0D01*
G01*
X65206250Y-237475000D01*
G75*
G02*
X64987500Y-237256250I0J218750D01*
G01*
X64987500Y-236743750D01*
G75*
G02*
X65206250Y-236525000I218750J0D01*
G01*
X65643750Y-236525000D01*
G75*
G02*
X65862500Y-236743750I0J-218750D01*
G01*
G37*
%TD*%
%TO.C,D70*%
G36*
G01*
X99862500Y-236743750D02*
X99862500Y-237256250D01*
G75*
G02*
X99643750Y-237475000I-218750J0D01*
G01*
X99206250Y-237475000D01*
G75*
G02*
X98987500Y-237256250I0J218750D01*
G01*
X98987500Y-236743750D01*
G75*
G02*
X99206250Y-236525000I218750J0D01*
G01*
X99643750Y-236525000D01*
G75*
G02*
X99862500Y-236743750I0J-218750D01*
G01*
G37*
G36*
G01*
X101437500Y-236743750D02*
X101437500Y-237256250D01*
G75*
G02*
X101218750Y-237475000I-218750J0D01*
G01*
X100781250Y-237475000D01*
G75*
G02*
X100562500Y-237256250I0J218750D01*
G01*
X100562500Y-236743750D01*
G75*
G02*
X100781250Y-236525000I218750J0D01*
G01*
X101218750Y-236525000D01*
G75*
G02*
X101437500Y-236743750I0J-218750D01*
G01*
G37*
%TD*%
%TO.C,D71*%
G36*
G01*
X128862500Y-236743750D02*
X128862500Y-237256250D01*
G75*
G02*
X128643750Y-237475000I-218750J0D01*
G01*
X128206250Y-237475000D01*
G75*
G02*
X127987500Y-237256250I0J218750D01*
G01*
X127987500Y-236743750D01*
G75*
G02*
X128206250Y-236525000I218750J0D01*
G01*
X128643750Y-236525000D01*
G75*
G02*
X128862500Y-236743750I0J-218750D01*
G01*
G37*
G36*
G01*
X130437500Y-236743750D02*
X130437500Y-237256250D01*
G75*
G02*
X130218750Y-237475000I-218750J0D01*
G01*
X129781250Y-237475000D01*
G75*
G02*
X129562500Y-237256250I0J218750D01*
G01*
X129562500Y-236743750D01*
G75*
G02*
X129781250Y-236525000I218750J0D01*
G01*
X130218750Y-236525000D01*
G75*
G02*
X130437500Y-236743750I0J-218750D01*
G01*
G37*
%TD*%
%TO.C,D72*%
G36*
G01*
X160225000Y-236743750D02*
X160225000Y-237256250D01*
G75*
G02*
X160006250Y-237475000I-218750J0D01*
G01*
X159568750Y-237475000D01*
G75*
G02*
X159350000Y-237256250I0J218750D01*
G01*
X159350000Y-236743750D01*
G75*
G02*
X159568750Y-236525000I218750J0D01*
G01*
X160006250Y-236525000D01*
G75*
G02*
X160225000Y-236743750I0J-218750D01*
G01*
G37*
G36*
G01*
X158650000Y-236743750D02*
X158650000Y-237256250D01*
G75*
G02*
X158431250Y-237475000I-218750J0D01*
G01*
X157993750Y-237475000D01*
G75*
G02*
X157775000Y-237256250I0J218750D01*
G01*
X157775000Y-236743750D01*
G75*
G02*
X157993750Y-236525000I218750J0D01*
G01*
X158431250Y-236525000D01*
G75*
G02*
X158650000Y-236743750I0J-218750D01*
G01*
G37*
%TD*%
%TO.C,D73*%
G36*
G01*
X184650000Y-236743750D02*
X184650000Y-237256250D01*
G75*
G02*
X184431250Y-237475000I-218750J0D01*
G01*
X183993750Y-237475000D01*
G75*
G02*
X183775000Y-237256250I0J218750D01*
G01*
X183775000Y-236743750D01*
G75*
G02*
X183993750Y-236525000I218750J0D01*
G01*
X184431250Y-236525000D01*
G75*
G02*
X184650000Y-236743750I0J-218750D01*
G01*
G37*
G36*
G01*
X186225000Y-236743750D02*
X186225000Y-237256250D01*
G75*
G02*
X186006250Y-237475000I-218750J0D01*
G01*
X185568750Y-237475000D01*
G75*
G02*
X185350000Y-237256250I0J218750D01*
G01*
X185350000Y-236743750D01*
G75*
G02*
X185568750Y-236525000I218750J0D01*
G01*
X186006250Y-236525000D01*
G75*
G02*
X186225000Y-236743750I0J-218750D01*
G01*
G37*
%TD*%
%TO.C,D74*%
G36*
G01*
X209862500Y-236743750D02*
X209862500Y-237256250D01*
G75*
G02*
X209643750Y-237475000I-218750J0D01*
G01*
X209206250Y-237475000D01*
G75*
G02*
X208987500Y-237256250I0J218750D01*
G01*
X208987500Y-236743750D01*
G75*
G02*
X209206250Y-236525000I218750J0D01*
G01*
X209643750Y-236525000D01*
G75*
G02*
X209862500Y-236743750I0J-218750D01*
G01*
G37*
G36*
G01*
X211437500Y-236743750D02*
X211437500Y-237256250D01*
G75*
G02*
X211218750Y-237475000I-218750J0D01*
G01*
X210781250Y-237475000D01*
G75*
G02*
X210562500Y-237256250I0J218750D01*
G01*
X210562500Y-236743750D01*
G75*
G02*
X210781250Y-236525000I218750J0D01*
G01*
X211218750Y-236525000D01*
G75*
G02*
X211437500Y-236743750I0J-218750D01*
G01*
G37*
%TD*%
%TO.C,D75*%
G36*
G01*
X235225000Y-236743750D02*
X235225000Y-237256250D01*
G75*
G02*
X235006250Y-237475000I-218750J0D01*
G01*
X234568750Y-237475000D01*
G75*
G02*
X234350000Y-237256250I0J218750D01*
G01*
X234350000Y-236743750D01*
G75*
G02*
X234568750Y-236525000I218750J0D01*
G01*
X235006250Y-236525000D01*
G75*
G02*
X235225000Y-236743750I0J-218750D01*
G01*
G37*
G36*
G01*
X233650000Y-236743750D02*
X233650000Y-237256250D01*
G75*
G02*
X233431250Y-237475000I-218750J0D01*
G01*
X232993750Y-237475000D01*
G75*
G02*
X232775000Y-237256250I0J218750D01*
G01*
X232775000Y-236743750D01*
G75*
G02*
X232993750Y-236525000I218750J0D01*
G01*
X233431250Y-236525000D01*
G75*
G02*
X233650000Y-236743750I0J-218750D01*
G01*
G37*
%TD*%
%TO.C,D76*%
G36*
G01*
X256650000Y-236743750D02*
X256650000Y-237256250D01*
G75*
G02*
X256431250Y-237475000I-218750J0D01*
G01*
X255993750Y-237475000D01*
G75*
G02*
X255775000Y-237256250I0J218750D01*
G01*
X255775000Y-236743750D01*
G75*
G02*
X255993750Y-236525000I218750J0D01*
G01*
X256431250Y-236525000D01*
G75*
G02*
X256650000Y-236743750I0J-218750D01*
G01*
G37*
G36*
G01*
X258225000Y-236743750D02*
X258225000Y-237256250D01*
G75*
G02*
X258006250Y-237475000I-218750J0D01*
G01*
X257568750Y-237475000D01*
G75*
G02*
X257350000Y-237256250I0J218750D01*
G01*
X257350000Y-236743750D01*
G75*
G02*
X257568750Y-236525000I218750J0D01*
G01*
X258006250Y-236525000D01*
G75*
G02*
X258225000Y-236743750I0J-218750D01*
G01*
G37*
%TD*%
%TO.C,D77*%
G36*
G01*
X280437500Y-236743750D02*
X280437500Y-237256250D01*
G75*
G02*
X280218750Y-237475000I-218750J0D01*
G01*
X279781250Y-237475000D01*
G75*
G02*
X279562500Y-237256250I0J218750D01*
G01*
X279562500Y-236743750D01*
G75*
G02*
X279781250Y-236525000I218750J0D01*
G01*
X280218750Y-236525000D01*
G75*
G02*
X280437500Y-236743750I0J-218750D01*
G01*
G37*
G36*
G01*
X278862500Y-236743750D02*
X278862500Y-237256250D01*
G75*
G02*
X278643750Y-237475000I-218750J0D01*
G01*
X278206250Y-237475000D01*
G75*
G02*
X277987500Y-237256250I0J218750D01*
G01*
X277987500Y-236743750D01*
G75*
G02*
X278206250Y-236525000I218750J0D01*
G01*
X278643750Y-236525000D01*
G75*
G02*
X278862500Y-236743750I0J-218750D01*
G01*
G37*
%TD*%
%TO.C,D78*%
G36*
G01*
X301225000Y-236743750D02*
X301225000Y-237256250D01*
G75*
G02*
X301006250Y-237475000I-218750J0D01*
G01*
X300568750Y-237475000D01*
G75*
G02*
X300350000Y-237256250I0J218750D01*
G01*
X300350000Y-236743750D01*
G75*
G02*
X300568750Y-236525000I218750J0D01*
G01*
X301006250Y-236525000D01*
G75*
G02*
X301225000Y-236743750I0J-218750D01*
G01*
G37*
G36*
G01*
X299650000Y-236743750D02*
X299650000Y-237256250D01*
G75*
G02*
X299431250Y-237475000I-218750J0D01*
G01*
X298993750Y-237475000D01*
G75*
G02*
X298775000Y-237256250I0J218750D01*
G01*
X298775000Y-236743750D01*
G75*
G02*
X298993750Y-236525000I218750J0D01*
G01*
X299431250Y-236525000D01*
G75*
G02*
X299650000Y-236743750I0J-218750D01*
G01*
G37*
%TD*%
%TO.C,D79*%
G36*
G01*
X318650000Y-236743750D02*
X318650000Y-237256250D01*
G75*
G02*
X318431250Y-237475000I-218750J0D01*
G01*
X317993750Y-237475000D01*
G75*
G02*
X317775000Y-237256250I0J218750D01*
G01*
X317775000Y-236743750D01*
G75*
G02*
X317993750Y-236525000I218750J0D01*
G01*
X318431250Y-236525000D01*
G75*
G02*
X318650000Y-236743750I0J-218750D01*
G01*
G37*
G36*
G01*
X320225000Y-236743750D02*
X320225000Y-237256250D01*
G75*
G02*
X320006250Y-237475000I-218750J0D01*
G01*
X319568750Y-237475000D01*
G75*
G02*
X319350000Y-237256250I0J218750D01*
G01*
X319350000Y-236743750D01*
G75*
G02*
X319568750Y-236525000I218750J0D01*
G01*
X320006250Y-236525000D01*
G75*
G02*
X320225000Y-236743750I0J-218750D01*
G01*
G37*
%TD*%
%TO.C,D80*%
G36*
G01*
X337437500Y-236743750D02*
X337437500Y-237256250D01*
G75*
G02*
X337218750Y-237475000I-218750J0D01*
G01*
X336781250Y-237475000D01*
G75*
G02*
X336562500Y-237256250I0J218750D01*
G01*
X336562500Y-236743750D01*
G75*
G02*
X336781250Y-236525000I218750J0D01*
G01*
X337218750Y-236525000D01*
G75*
G02*
X337437500Y-236743750I0J-218750D01*
G01*
G37*
G36*
G01*
X335862500Y-236743750D02*
X335862500Y-237256250D01*
G75*
G02*
X335643750Y-237475000I-218750J0D01*
G01*
X335206250Y-237475000D01*
G75*
G02*
X334987500Y-237256250I0J218750D01*
G01*
X334987500Y-236743750D01*
G75*
G02*
X335206250Y-236525000I218750J0D01*
G01*
X335643750Y-236525000D01*
G75*
G02*
X335862500Y-236743750I0J-218750D01*
G01*
G37*
%TD*%
%TO.C,D81*%
G36*
G01*
X353862500Y-236743750D02*
X353862500Y-237256250D01*
G75*
G02*
X353643750Y-237475000I-218750J0D01*
G01*
X353206250Y-237475000D01*
G75*
G02*
X352987500Y-237256250I0J218750D01*
G01*
X352987500Y-236743750D01*
G75*
G02*
X353206250Y-236525000I218750J0D01*
G01*
X353643750Y-236525000D01*
G75*
G02*
X353862500Y-236743750I0J-218750D01*
G01*
G37*
G36*
G01*
X355437500Y-236743750D02*
X355437500Y-237256250D01*
G75*
G02*
X355218750Y-237475000I-218750J0D01*
G01*
X354781250Y-237475000D01*
G75*
G02*
X354562500Y-237256250I0J218750D01*
G01*
X354562500Y-236743750D01*
G75*
G02*
X354781250Y-236525000I218750J0D01*
G01*
X355218750Y-236525000D01*
G75*
G02*
X355437500Y-236743750I0J-218750D01*
G01*
G37*
%TD*%
%TO.C,D82*%
G36*
G01*
X372225000Y-236743750D02*
X372225000Y-237256250D01*
G75*
G02*
X372006250Y-237475000I-218750J0D01*
G01*
X371568750Y-237475000D01*
G75*
G02*
X371350000Y-237256250I0J218750D01*
G01*
X371350000Y-236743750D01*
G75*
G02*
X371568750Y-236525000I218750J0D01*
G01*
X372006250Y-236525000D01*
G75*
G02*
X372225000Y-236743750I0J-218750D01*
G01*
G37*
G36*
G01*
X370650000Y-236743750D02*
X370650000Y-237256250D01*
G75*
G02*
X370431250Y-237475000I-218750J0D01*
G01*
X369993750Y-237475000D01*
G75*
G02*
X369775000Y-237256250I0J218750D01*
G01*
X369775000Y-236743750D01*
G75*
G02*
X369993750Y-236525000I218750J0D01*
G01*
X370431250Y-236525000D01*
G75*
G02*
X370650000Y-236743750I0J-218750D01*
G01*
G37*
%TD*%
%TO.C,D83*%
G36*
G01*
X386650000Y-236743750D02*
X386650000Y-237256250D01*
G75*
G02*
X386431250Y-237475000I-218750J0D01*
G01*
X385993750Y-237475000D01*
G75*
G02*
X385775000Y-237256250I0J218750D01*
G01*
X385775000Y-236743750D01*
G75*
G02*
X385993750Y-236525000I218750J0D01*
G01*
X386431250Y-236525000D01*
G75*
G02*
X386650000Y-236743750I0J-218750D01*
G01*
G37*
G36*
G01*
X388225000Y-236743750D02*
X388225000Y-237256250D01*
G75*
G02*
X388006250Y-237475000I-218750J0D01*
G01*
X387568750Y-237475000D01*
G75*
G02*
X387350000Y-237256250I0J218750D01*
G01*
X387350000Y-236743750D01*
G75*
G02*
X387568750Y-236525000I218750J0D01*
G01*
X388006250Y-236525000D01*
G75*
G02*
X388225000Y-236743750I0J-218750D01*
G01*
G37*
%TD*%
%TO.C,D84*%
G36*
G01*
X402225000Y-236743750D02*
X402225000Y-237256250D01*
G75*
G02*
X402006250Y-237475000I-218750J0D01*
G01*
X401568750Y-237475000D01*
G75*
G02*
X401350000Y-237256250I0J218750D01*
G01*
X401350000Y-236743750D01*
G75*
G02*
X401568750Y-236525000I218750J0D01*
G01*
X402006250Y-236525000D01*
G75*
G02*
X402225000Y-236743750I0J-218750D01*
G01*
G37*
G36*
G01*
X400650000Y-236743750D02*
X400650000Y-237256250D01*
G75*
G02*
X400431250Y-237475000I-218750J0D01*
G01*
X399993750Y-237475000D01*
G75*
G02*
X399775000Y-237256250I0J218750D01*
G01*
X399775000Y-236743750D01*
G75*
G02*
X399993750Y-236525000I218750J0D01*
G01*
X400431250Y-236525000D01*
G75*
G02*
X400650000Y-236743750I0J-218750D01*
G01*
G37*
%TD*%
%TO.C,D85*%
G36*
G01*
X413862500Y-236743750D02*
X413862500Y-237256250D01*
G75*
G02*
X413643750Y-237475000I-218750J0D01*
G01*
X413206250Y-237475000D01*
G75*
G02*
X412987500Y-237256250I0J218750D01*
G01*
X412987500Y-236743750D01*
G75*
G02*
X413206250Y-236525000I218750J0D01*
G01*
X413643750Y-236525000D01*
G75*
G02*
X413862500Y-236743750I0J-218750D01*
G01*
G37*
G36*
G01*
X415437500Y-236743750D02*
X415437500Y-237256250D01*
G75*
G02*
X415218750Y-237475000I-218750J0D01*
G01*
X414781250Y-237475000D01*
G75*
G02*
X414562500Y-237256250I0J218750D01*
G01*
X414562500Y-236743750D01*
G75*
G02*
X414781250Y-236525000I218750J0D01*
G01*
X415218750Y-236525000D01*
G75*
G02*
X415437500Y-236743750I0J-218750D01*
G01*
G37*
%TD*%
%TO.C,D86*%
G36*
G01*
X428437500Y-236743750D02*
X428437500Y-237256250D01*
G75*
G02*
X428218750Y-237475000I-218750J0D01*
G01*
X427781250Y-237475000D01*
G75*
G02*
X427562500Y-237256250I0J218750D01*
G01*
X427562500Y-236743750D01*
G75*
G02*
X427781250Y-236525000I218750J0D01*
G01*
X428218750Y-236525000D01*
G75*
G02*
X428437500Y-236743750I0J-218750D01*
G01*
G37*
G36*
G01*
X426862500Y-236743750D02*
X426862500Y-237256250D01*
G75*
G02*
X426643750Y-237475000I-218750J0D01*
G01*
X426206250Y-237475000D01*
G75*
G02*
X425987500Y-237256250I0J218750D01*
G01*
X425987500Y-236743750D01*
G75*
G02*
X426206250Y-236525000I218750J0D01*
G01*
X426643750Y-236525000D01*
G75*
G02*
X426862500Y-236743750I0J-218750D01*
G01*
G37*
%TD*%
%TO.C,D87*%
G36*
G01*
X438862500Y-236743750D02*
X438862500Y-237256250D01*
G75*
G02*
X438643750Y-237475000I-218750J0D01*
G01*
X438206250Y-237475000D01*
G75*
G02*
X437987500Y-237256250I0J218750D01*
G01*
X437987500Y-236743750D01*
G75*
G02*
X438206250Y-236525000I218750J0D01*
G01*
X438643750Y-236525000D01*
G75*
G02*
X438862500Y-236743750I0J-218750D01*
G01*
G37*
G36*
G01*
X440437500Y-236743750D02*
X440437500Y-237256250D01*
G75*
G02*
X440218750Y-237475000I-218750J0D01*
G01*
X439781250Y-237475000D01*
G75*
G02*
X439562500Y-237256250I0J218750D01*
G01*
X439562500Y-236743750D01*
G75*
G02*
X439781250Y-236525000I218750J0D01*
G01*
X440218750Y-236525000D01*
G75*
G02*
X440437500Y-236743750I0J-218750D01*
G01*
G37*
%TD*%
%TO.C,D89*%
G36*
G01*
X6650000Y-245743750D02*
X6650000Y-246256250D01*
G75*
G02*
X6431250Y-246475000I-218750J0D01*
G01*
X5993750Y-246475000D01*
G75*
G02*
X5775000Y-246256250I0J218750D01*
G01*
X5775000Y-245743750D01*
G75*
G02*
X5993750Y-245525000I218750J0D01*
G01*
X6431250Y-245525000D01*
G75*
G02*
X6650000Y-245743750I0J-218750D01*
G01*
G37*
G36*
G01*
X8225000Y-245743750D02*
X8225000Y-246256250D01*
G75*
G02*
X8006250Y-246475000I-218750J0D01*
G01*
X7568750Y-246475000D01*
G75*
G02*
X7350000Y-246256250I0J218750D01*
G01*
X7350000Y-245743750D01*
G75*
G02*
X7568750Y-245525000I218750J0D01*
G01*
X8006250Y-245525000D01*
G75*
G02*
X8225000Y-245743750I0J-218750D01*
G01*
G37*
%TD*%
%TO.C,D90*%
G36*
G01*
X28437500Y-245743750D02*
X28437500Y-246256250D01*
G75*
G02*
X28218750Y-246475000I-218750J0D01*
G01*
X27781250Y-246475000D01*
G75*
G02*
X27562500Y-246256250I0J218750D01*
G01*
X27562500Y-245743750D01*
G75*
G02*
X27781250Y-245525000I218750J0D01*
G01*
X28218750Y-245525000D01*
G75*
G02*
X28437500Y-245743750I0J-218750D01*
G01*
G37*
G36*
G01*
X26862500Y-245743750D02*
X26862500Y-246256250D01*
G75*
G02*
X26643750Y-246475000I-218750J0D01*
G01*
X26206250Y-246475000D01*
G75*
G02*
X25987500Y-246256250I0J218750D01*
G01*
X25987500Y-245743750D01*
G75*
G02*
X26206250Y-245525000I218750J0D01*
G01*
X26643750Y-245525000D01*
G75*
G02*
X26862500Y-245743750I0J-218750D01*
G01*
G37*
%TD*%
%TO.C,D91*%
G36*
G01*
X65862500Y-245743750D02*
X65862500Y-246256250D01*
G75*
G02*
X65643750Y-246475000I-218750J0D01*
G01*
X65206250Y-246475000D01*
G75*
G02*
X64987500Y-246256250I0J218750D01*
G01*
X64987500Y-245743750D01*
G75*
G02*
X65206250Y-245525000I218750J0D01*
G01*
X65643750Y-245525000D01*
G75*
G02*
X65862500Y-245743750I0J-218750D01*
G01*
G37*
G36*
G01*
X67437500Y-245743750D02*
X67437500Y-246256250D01*
G75*
G02*
X67218750Y-246475000I-218750J0D01*
G01*
X66781250Y-246475000D01*
G75*
G02*
X66562500Y-246256250I0J218750D01*
G01*
X66562500Y-245743750D01*
G75*
G02*
X66781250Y-245525000I218750J0D01*
G01*
X67218750Y-245525000D01*
G75*
G02*
X67437500Y-245743750I0J-218750D01*
G01*
G37*
%TD*%
%TO.C,D92*%
G36*
G01*
X101437500Y-245743750D02*
X101437500Y-246256250D01*
G75*
G02*
X101218750Y-246475000I-218750J0D01*
G01*
X100781250Y-246475000D01*
G75*
G02*
X100562500Y-246256250I0J218750D01*
G01*
X100562500Y-245743750D01*
G75*
G02*
X100781250Y-245525000I218750J0D01*
G01*
X101218750Y-245525000D01*
G75*
G02*
X101437500Y-245743750I0J-218750D01*
G01*
G37*
G36*
G01*
X99862500Y-245743750D02*
X99862500Y-246256250D01*
G75*
G02*
X99643750Y-246475000I-218750J0D01*
G01*
X99206250Y-246475000D01*
G75*
G02*
X98987500Y-246256250I0J218750D01*
G01*
X98987500Y-245743750D01*
G75*
G02*
X99206250Y-245525000I218750J0D01*
G01*
X99643750Y-245525000D01*
G75*
G02*
X99862500Y-245743750I0J-218750D01*
G01*
G37*
%TD*%
%TO.C,D93*%
G36*
G01*
X128862500Y-245743750D02*
X128862500Y-246256250D01*
G75*
G02*
X128643750Y-246475000I-218750J0D01*
G01*
X128206250Y-246475000D01*
G75*
G02*
X127987500Y-246256250I0J218750D01*
G01*
X127987500Y-245743750D01*
G75*
G02*
X128206250Y-245525000I218750J0D01*
G01*
X128643750Y-245525000D01*
G75*
G02*
X128862500Y-245743750I0J-218750D01*
G01*
G37*
G36*
G01*
X130437500Y-245743750D02*
X130437500Y-246256250D01*
G75*
G02*
X130218750Y-246475000I-218750J0D01*
G01*
X129781250Y-246475000D01*
G75*
G02*
X129562500Y-246256250I0J218750D01*
G01*
X129562500Y-245743750D01*
G75*
G02*
X129781250Y-245525000I218750J0D01*
G01*
X130218750Y-245525000D01*
G75*
G02*
X130437500Y-245743750I0J-218750D01*
G01*
G37*
%TD*%
%TO.C,D94*%
G36*
G01*
X160225000Y-245743750D02*
X160225000Y-246256250D01*
G75*
G02*
X160006250Y-246475000I-218750J0D01*
G01*
X159568750Y-246475000D01*
G75*
G02*
X159350000Y-246256250I0J218750D01*
G01*
X159350000Y-245743750D01*
G75*
G02*
X159568750Y-245525000I218750J0D01*
G01*
X160006250Y-245525000D01*
G75*
G02*
X160225000Y-245743750I0J-218750D01*
G01*
G37*
G36*
G01*
X158650000Y-245743750D02*
X158650000Y-246256250D01*
G75*
G02*
X158431250Y-246475000I-218750J0D01*
G01*
X157993750Y-246475000D01*
G75*
G02*
X157775000Y-246256250I0J218750D01*
G01*
X157775000Y-245743750D01*
G75*
G02*
X157993750Y-245525000I218750J0D01*
G01*
X158431250Y-245525000D01*
G75*
G02*
X158650000Y-245743750I0J-218750D01*
G01*
G37*
%TD*%
%TO.C,D95*%
G36*
G01*
X184650000Y-245743750D02*
X184650000Y-246256250D01*
G75*
G02*
X184431250Y-246475000I-218750J0D01*
G01*
X183993750Y-246475000D01*
G75*
G02*
X183775000Y-246256250I0J218750D01*
G01*
X183775000Y-245743750D01*
G75*
G02*
X183993750Y-245525000I218750J0D01*
G01*
X184431250Y-245525000D01*
G75*
G02*
X184650000Y-245743750I0J-218750D01*
G01*
G37*
G36*
G01*
X186225000Y-245743750D02*
X186225000Y-246256250D01*
G75*
G02*
X186006250Y-246475000I-218750J0D01*
G01*
X185568750Y-246475000D01*
G75*
G02*
X185350000Y-246256250I0J218750D01*
G01*
X185350000Y-245743750D01*
G75*
G02*
X185568750Y-245525000I218750J0D01*
G01*
X186006250Y-245525000D01*
G75*
G02*
X186225000Y-245743750I0J-218750D01*
G01*
G37*
%TD*%
%TO.C,D96*%
G36*
G01*
X211437500Y-245743750D02*
X211437500Y-246256250D01*
G75*
G02*
X211218750Y-246475000I-218750J0D01*
G01*
X210781250Y-246475000D01*
G75*
G02*
X210562500Y-246256250I0J218750D01*
G01*
X210562500Y-245743750D01*
G75*
G02*
X210781250Y-245525000I218750J0D01*
G01*
X211218750Y-245525000D01*
G75*
G02*
X211437500Y-245743750I0J-218750D01*
G01*
G37*
G36*
G01*
X209862500Y-245743750D02*
X209862500Y-246256250D01*
G75*
G02*
X209643750Y-246475000I-218750J0D01*
G01*
X209206250Y-246475000D01*
G75*
G02*
X208987500Y-246256250I0J218750D01*
G01*
X208987500Y-245743750D01*
G75*
G02*
X209206250Y-245525000I218750J0D01*
G01*
X209643750Y-245525000D01*
G75*
G02*
X209862500Y-245743750I0J-218750D01*
G01*
G37*
%TD*%
%TO.C,D97*%
G36*
G01*
X233650000Y-245743750D02*
X233650000Y-246256250D01*
G75*
G02*
X233431250Y-246475000I-218750J0D01*
G01*
X232993750Y-246475000D01*
G75*
G02*
X232775000Y-246256250I0J218750D01*
G01*
X232775000Y-245743750D01*
G75*
G02*
X232993750Y-245525000I218750J0D01*
G01*
X233431250Y-245525000D01*
G75*
G02*
X233650000Y-245743750I0J-218750D01*
G01*
G37*
G36*
G01*
X235225000Y-245743750D02*
X235225000Y-246256250D01*
G75*
G02*
X235006250Y-246475000I-218750J0D01*
G01*
X234568750Y-246475000D01*
G75*
G02*
X234350000Y-246256250I0J218750D01*
G01*
X234350000Y-245743750D01*
G75*
G02*
X234568750Y-245525000I218750J0D01*
G01*
X235006250Y-245525000D01*
G75*
G02*
X235225000Y-245743750I0J-218750D01*
G01*
G37*
%TD*%
%TO.C,D98*%
G36*
G01*
X258225000Y-245743750D02*
X258225000Y-246256250D01*
G75*
G02*
X258006250Y-246475000I-218750J0D01*
G01*
X257568750Y-246475000D01*
G75*
G02*
X257350000Y-246256250I0J218750D01*
G01*
X257350000Y-245743750D01*
G75*
G02*
X257568750Y-245525000I218750J0D01*
G01*
X258006250Y-245525000D01*
G75*
G02*
X258225000Y-245743750I0J-218750D01*
G01*
G37*
G36*
G01*
X256650000Y-245743750D02*
X256650000Y-246256250D01*
G75*
G02*
X256431250Y-246475000I-218750J0D01*
G01*
X255993750Y-246475000D01*
G75*
G02*
X255775000Y-246256250I0J218750D01*
G01*
X255775000Y-245743750D01*
G75*
G02*
X255993750Y-245525000I218750J0D01*
G01*
X256431250Y-245525000D01*
G75*
G02*
X256650000Y-245743750I0J-218750D01*
G01*
G37*
%TD*%
%TO.C,D99*%
G36*
G01*
X278862500Y-245743750D02*
X278862500Y-246256250D01*
G75*
G02*
X278643750Y-246475000I-218750J0D01*
G01*
X278206250Y-246475000D01*
G75*
G02*
X277987500Y-246256250I0J218750D01*
G01*
X277987500Y-245743750D01*
G75*
G02*
X278206250Y-245525000I218750J0D01*
G01*
X278643750Y-245525000D01*
G75*
G02*
X278862500Y-245743750I0J-218750D01*
G01*
G37*
G36*
G01*
X280437500Y-245743750D02*
X280437500Y-246256250D01*
G75*
G02*
X280218750Y-246475000I-218750J0D01*
G01*
X279781250Y-246475000D01*
G75*
G02*
X279562500Y-246256250I0J218750D01*
G01*
X279562500Y-245743750D01*
G75*
G02*
X279781250Y-245525000I218750J0D01*
G01*
X280218750Y-245525000D01*
G75*
G02*
X280437500Y-245743750I0J-218750D01*
G01*
G37*
%TD*%
%TO.C,D100*%
G36*
G01*
X301225000Y-245743750D02*
X301225000Y-246256250D01*
G75*
G02*
X301006250Y-246475000I-218750J0D01*
G01*
X300568750Y-246475000D01*
G75*
G02*
X300350000Y-246256250I0J218750D01*
G01*
X300350000Y-245743750D01*
G75*
G02*
X300568750Y-245525000I218750J0D01*
G01*
X301006250Y-245525000D01*
G75*
G02*
X301225000Y-245743750I0J-218750D01*
G01*
G37*
G36*
G01*
X299650000Y-245743750D02*
X299650000Y-246256250D01*
G75*
G02*
X299431250Y-246475000I-218750J0D01*
G01*
X298993750Y-246475000D01*
G75*
G02*
X298775000Y-246256250I0J218750D01*
G01*
X298775000Y-245743750D01*
G75*
G02*
X298993750Y-245525000I218750J0D01*
G01*
X299431250Y-245525000D01*
G75*
G02*
X299650000Y-245743750I0J-218750D01*
G01*
G37*
%TD*%
%TO.C,D101*%
G36*
G01*
X318650000Y-245743750D02*
X318650000Y-246256250D01*
G75*
G02*
X318431250Y-246475000I-218750J0D01*
G01*
X317993750Y-246475000D01*
G75*
G02*
X317775000Y-246256250I0J218750D01*
G01*
X317775000Y-245743750D01*
G75*
G02*
X317993750Y-245525000I218750J0D01*
G01*
X318431250Y-245525000D01*
G75*
G02*
X318650000Y-245743750I0J-218750D01*
G01*
G37*
G36*
G01*
X320225000Y-245743750D02*
X320225000Y-246256250D01*
G75*
G02*
X320006250Y-246475000I-218750J0D01*
G01*
X319568750Y-246475000D01*
G75*
G02*
X319350000Y-246256250I0J218750D01*
G01*
X319350000Y-245743750D01*
G75*
G02*
X319568750Y-245525000I218750J0D01*
G01*
X320006250Y-245525000D01*
G75*
G02*
X320225000Y-245743750I0J-218750D01*
G01*
G37*
%TD*%
%TO.C,D102*%
G36*
G01*
X337437500Y-245743750D02*
X337437500Y-246256250D01*
G75*
G02*
X337218750Y-246475000I-218750J0D01*
G01*
X336781250Y-246475000D01*
G75*
G02*
X336562500Y-246256250I0J218750D01*
G01*
X336562500Y-245743750D01*
G75*
G02*
X336781250Y-245525000I218750J0D01*
G01*
X337218750Y-245525000D01*
G75*
G02*
X337437500Y-245743750I0J-218750D01*
G01*
G37*
G36*
G01*
X335862500Y-245743750D02*
X335862500Y-246256250D01*
G75*
G02*
X335643750Y-246475000I-218750J0D01*
G01*
X335206250Y-246475000D01*
G75*
G02*
X334987500Y-246256250I0J218750D01*
G01*
X334987500Y-245743750D01*
G75*
G02*
X335206250Y-245525000I218750J0D01*
G01*
X335643750Y-245525000D01*
G75*
G02*
X335862500Y-245743750I0J-218750D01*
G01*
G37*
%TD*%
%TO.C,D103*%
G36*
G01*
X353862500Y-245743750D02*
X353862500Y-246256250D01*
G75*
G02*
X353643750Y-246475000I-218750J0D01*
G01*
X353206250Y-246475000D01*
G75*
G02*
X352987500Y-246256250I0J218750D01*
G01*
X352987500Y-245743750D01*
G75*
G02*
X353206250Y-245525000I218750J0D01*
G01*
X353643750Y-245525000D01*
G75*
G02*
X353862500Y-245743750I0J-218750D01*
G01*
G37*
G36*
G01*
X355437500Y-245743750D02*
X355437500Y-246256250D01*
G75*
G02*
X355218750Y-246475000I-218750J0D01*
G01*
X354781250Y-246475000D01*
G75*
G02*
X354562500Y-246256250I0J218750D01*
G01*
X354562500Y-245743750D01*
G75*
G02*
X354781250Y-245525000I218750J0D01*
G01*
X355218750Y-245525000D01*
G75*
G02*
X355437500Y-245743750I0J-218750D01*
G01*
G37*
%TD*%
%TO.C,D104*%
G36*
G01*
X370650000Y-245743750D02*
X370650000Y-246256250D01*
G75*
G02*
X370431250Y-246475000I-218750J0D01*
G01*
X369993750Y-246475000D01*
G75*
G02*
X369775000Y-246256250I0J218750D01*
G01*
X369775000Y-245743750D01*
G75*
G02*
X369993750Y-245525000I218750J0D01*
G01*
X370431250Y-245525000D01*
G75*
G02*
X370650000Y-245743750I0J-218750D01*
G01*
G37*
G36*
G01*
X372225000Y-245743750D02*
X372225000Y-246256250D01*
G75*
G02*
X372006250Y-246475000I-218750J0D01*
G01*
X371568750Y-246475000D01*
G75*
G02*
X371350000Y-246256250I0J218750D01*
G01*
X371350000Y-245743750D01*
G75*
G02*
X371568750Y-245525000I218750J0D01*
G01*
X372006250Y-245525000D01*
G75*
G02*
X372225000Y-245743750I0J-218750D01*
G01*
G37*
%TD*%
%TO.C,D105*%
G36*
G01*
X388225000Y-245743750D02*
X388225000Y-246256250D01*
G75*
G02*
X388006250Y-246475000I-218750J0D01*
G01*
X387568750Y-246475000D01*
G75*
G02*
X387350000Y-246256250I0J218750D01*
G01*
X387350000Y-245743750D01*
G75*
G02*
X387568750Y-245525000I218750J0D01*
G01*
X388006250Y-245525000D01*
G75*
G02*
X388225000Y-245743750I0J-218750D01*
G01*
G37*
G36*
G01*
X386650000Y-245743750D02*
X386650000Y-246256250D01*
G75*
G02*
X386431250Y-246475000I-218750J0D01*
G01*
X385993750Y-246475000D01*
G75*
G02*
X385775000Y-246256250I0J218750D01*
G01*
X385775000Y-245743750D01*
G75*
G02*
X385993750Y-245525000I218750J0D01*
G01*
X386431250Y-245525000D01*
G75*
G02*
X386650000Y-245743750I0J-218750D01*
G01*
G37*
%TD*%
%TO.C,D106*%
G36*
G01*
X402225000Y-245743750D02*
X402225000Y-246256250D01*
G75*
G02*
X402006250Y-246475000I-218750J0D01*
G01*
X401568750Y-246475000D01*
G75*
G02*
X401350000Y-246256250I0J218750D01*
G01*
X401350000Y-245743750D01*
G75*
G02*
X401568750Y-245525000I218750J0D01*
G01*
X402006250Y-245525000D01*
G75*
G02*
X402225000Y-245743750I0J-218750D01*
G01*
G37*
G36*
G01*
X400650000Y-245743750D02*
X400650000Y-246256250D01*
G75*
G02*
X400431250Y-246475000I-218750J0D01*
G01*
X399993750Y-246475000D01*
G75*
G02*
X399775000Y-246256250I0J218750D01*
G01*
X399775000Y-245743750D01*
G75*
G02*
X399993750Y-245525000I218750J0D01*
G01*
X400431250Y-245525000D01*
G75*
G02*
X400650000Y-245743750I0J-218750D01*
G01*
G37*
%TD*%
%TO.C,D107*%
G36*
G01*
X415437500Y-245743750D02*
X415437500Y-246256250D01*
G75*
G02*
X415218750Y-246475000I-218750J0D01*
G01*
X414781250Y-246475000D01*
G75*
G02*
X414562500Y-246256250I0J218750D01*
G01*
X414562500Y-245743750D01*
G75*
G02*
X414781250Y-245525000I218750J0D01*
G01*
X415218750Y-245525000D01*
G75*
G02*
X415437500Y-245743750I0J-218750D01*
G01*
G37*
G36*
G01*
X413862500Y-245743750D02*
X413862500Y-246256250D01*
G75*
G02*
X413643750Y-246475000I-218750J0D01*
G01*
X413206250Y-246475000D01*
G75*
G02*
X412987500Y-246256250I0J218750D01*
G01*
X412987500Y-245743750D01*
G75*
G02*
X413206250Y-245525000I218750J0D01*
G01*
X413643750Y-245525000D01*
G75*
G02*
X413862500Y-245743750I0J-218750D01*
G01*
G37*
%TD*%
%TO.C,D108*%
G36*
G01*
X426862500Y-245743750D02*
X426862500Y-246256250D01*
G75*
G02*
X426643750Y-246475000I-218750J0D01*
G01*
X426206250Y-246475000D01*
G75*
G02*
X425987500Y-246256250I0J218750D01*
G01*
X425987500Y-245743750D01*
G75*
G02*
X426206250Y-245525000I218750J0D01*
G01*
X426643750Y-245525000D01*
G75*
G02*
X426862500Y-245743750I0J-218750D01*
G01*
G37*
G36*
G01*
X428437500Y-245743750D02*
X428437500Y-246256250D01*
G75*
G02*
X428218750Y-246475000I-218750J0D01*
G01*
X427781250Y-246475000D01*
G75*
G02*
X427562500Y-246256250I0J218750D01*
G01*
X427562500Y-245743750D01*
G75*
G02*
X427781250Y-245525000I218750J0D01*
G01*
X428218750Y-245525000D01*
G75*
G02*
X428437500Y-245743750I0J-218750D01*
G01*
G37*
%TD*%
%TO.C,D109*%
G36*
G01*
X440437500Y-245743750D02*
X440437500Y-246256250D01*
G75*
G02*
X440218750Y-246475000I-218750J0D01*
G01*
X439781250Y-246475000D01*
G75*
G02*
X439562500Y-246256250I0J218750D01*
G01*
X439562500Y-245743750D01*
G75*
G02*
X439781250Y-245525000I218750J0D01*
G01*
X440218750Y-245525000D01*
G75*
G02*
X440437500Y-245743750I0J-218750D01*
G01*
G37*
G36*
G01*
X438862500Y-245743750D02*
X438862500Y-246256250D01*
G75*
G02*
X438643750Y-246475000I-218750J0D01*
G01*
X438206250Y-246475000D01*
G75*
G02*
X437987500Y-246256250I0J218750D01*
G01*
X437987500Y-245743750D01*
G75*
G02*
X438206250Y-245525000I218750J0D01*
G01*
X438643750Y-245525000D01*
G75*
G02*
X438862500Y-245743750I0J-218750D01*
G01*
G37*
%TD*%
%TO.C,D111*%
G36*
G01*
X8225000Y-254743750D02*
X8225000Y-255256250D01*
G75*
G02*
X8006250Y-255475000I-218750J0D01*
G01*
X7568750Y-255475000D01*
G75*
G02*
X7350000Y-255256250I0J218750D01*
G01*
X7350000Y-254743750D01*
G75*
G02*
X7568750Y-254525000I218750J0D01*
G01*
X8006250Y-254525000D01*
G75*
G02*
X8225000Y-254743750I0J-218750D01*
G01*
G37*
G36*
G01*
X6650000Y-254743750D02*
X6650000Y-255256250D01*
G75*
G02*
X6431250Y-255475000I-218750J0D01*
G01*
X5993750Y-255475000D01*
G75*
G02*
X5775000Y-255256250I0J218750D01*
G01*
X5775000Y-254743750D01*
G75*
G02*
X5993750Y-254525000I218750J0D01*
G01*
X6431250Y-254525000D01*
G75*
G02*
X6650000Y-254743750I0J-218750D01*
G01*
G37*
%TD*%
%TO.C,D112*%
G36*
G01*
X26862500Y-254743750D02*
X26862500Y-255256250D01*
G75*
G02*
X26643750Y-255475000I-218750J0D01*
G01*
X26206250Y-255475000D01*
G75*
G02*
X25987500Y-255256250I0J218750D01*
G01*
X25987500Y-254743750D01*
G75*
G02*
X26206250Y-254525000I218750J0D01*
G01*
X26643750Y-254525000D01*
G75*
G02*
X26862500Y-254743750I0J-218750D01*
G01*
G37*
G36*
G01*
X28437500Y-254743750D02*
X28437500Y-255256250D01*
G75*
G02*
X28218750Y-255475000I-218750J0D01*
G01*
X27781250Y-255475000D01*
G75*
G02*
X27562500Y-255256250I0J218750D01*
G01*
X27562500Y-254743750D01*
G75*
G02*
X27781250Y-254525000I218750J0D01*
G01*
X28218750Y-254525000D01*
G75*
G02*
X28437500Y-254743750I0J-218750D01*
G01*
G37*
%TD*%
%TO.C,D113*%
G36*
G01*
X67437500Y-254743750D02*
X67437500Y-255256250D01*
G75*
G02*
X67218750Y-255475000I-218750J0D01*
G01*
X66781250Y-255475000D01*
G75*
G02*
X66562500Y-255256250I0J218750D01*
G01*
X66562500Y-254743750D01*
G75*
G02*
X66781250Y-254525000I218750J0D01*
G01*
X67218750Y-254525000D01*
G75*
G02*
X67437500Y-254743750I0J-218750D01*
G01*
G37*
G36*
G01*
X65862500Y-254743750D02*
X65862500Y-255256250D01*
G75*
G02*
X65643750Y-255475000I-218750J0D01*
G01*
X65206250Y-255475000D01*
G75*
G02*
X64987500Y-255256250I0J218750D01*
G01*
X64987500Y-254743750D01*
G75*
G02*
X65206250Y-254525000I218750J0D01*
G01*
X65643750Y-254525000D01*
G75*
G02*
X65862500Y-254743750I0J-218750D01*
G01*
G37*
%TD*%
%TO.C,D114*%
G36*
G01*
X99862500Y-254743750D02*
X99862500Y-255256250D01*
G75*
G02*
X99643750Y-255475000I-218750J0D01*
G01*
X99206250Y-255475000D01*
G75*
G02*
X98987500Y-255256250I0J218750D01*
G01*
X98987500Y-254743750D01*
G75*
G02*
X99206250Y-254525000I218750J0D01*
G01*
X99643750Y-254525000D01*
G75*
G02*
X99862500Y-254743750I0J-218750D01*
G01*
G37*
G36*
G01*
X101437500Y-254743750D02*
X101437500Y-255256250D01*
G75*
G02*
X101218750Y-255475000I-218750J0D01*
G01*
X100781250Y-255475000D01*
G75*
G02*
X100562500Y-255256250I0J218750D01*
G01*
X100562500Y-254743750D01*
G75*
G02*
X100781250Y-254525000I218750J0D01*
G01*
X101218750Y-254525000D01*
G75*
G02*
X101437500Y-254743750I0J-218750D01*
G01*
G37*
%TD*%
%TO.C,D115*%
G36*
G01*
X130437500Y-254743750D02*
X130437500Y-255256250D01*
G75*
G02*
X130218750Y-255475000I-218750J0D01*
G01*
X129781250Y-255475000D01*
G75*
G02*
X129562500Y-255256250I0J218750D01*
G01*
X129562500Y-254743750D01*
G75*
G02*
X129781250Y-254525000I218750J0D01*
G01*
X130218750Y-254525000D01*
G75*
G02*
X130437500Y-254743750I0J-218750D01*
G01*
G37*
G36*
G01*
X128862500Y-254743750D02*
X128862500Y-255256250D01*
G75*
G02*
X128643750Y-255475000I-218750J0D01*
G01*
X128206250Y-255475000D01*
G75*
G02*
X127987500Y-255256250I0J218750D01*
G01*
X127987500Y-254743750D01*
G75*
G02*
X128206250Y-254525000I218750J0D01*
G01*
X128643750Y-254525000D01*
G75*
G02*
X128862500Y-254743750I0J-218750D01*
G01*
G37*
%TD*%
%TO.C,D116*%
G36*
G01*
X158650000Y-254743750D02*
X158650000Y-255256250D01*
G75*
G02*
X158431250Y-255475000I-218750J0D01*
G01*
X157993750Y-255475000D01*
G75*
G02*
X157775000Y-255256250I0J218750D01*
G01*
X157775000Y-254743750D01*
G75*
G02*
X157993750Y-254525000I218750J0D01*
G01*
X158431250Y-254525000D01*
G75*
G02*
X158650000Y-254743750I0J-218750D01*
G01*
G37*
G36*
G01*
X160225000Y-254743750D02*
X160225000Y-255256250D01*
G75*
G02*
X160006250Y-255475000I-218750J0D01*
G01*
X159568750Y-255475000D01*
G75*
G02*
X159350000Y-255256250I0J218750D01*
G01*
X159350000Y-254743750D01*
G75*
G02*
X159568750Y-254525000I218750J0D01*
G01*
X160006250Y-254525000D01*
G75*
G02*
X160225000Y-254743750I0J-218750D01*
G01*
G37*
%TD*%
%TO.C,D117*%
G36*
G01*
X186225000Y-254743750D02*
X186225000Y-255256250D01*
G75*
G02*
X186006250Y-255475000I-218750J0D01*
G01*
X185568750Y-255475000D01*
G75*
G02*
X185350000Y-255256250I0J218750D01*
G01*
X185350000Y-254743750D01*
G75*
G02*
X185568750Y-254525000I218750J0D01*
G01*
X186006250Y-254525000D01*
G75*
G02*
X186225000Y-254743750I0J-218750D01*
G01*
G37*
G36*
G01*
X184650000Y-254743750D02*
X184650000Y-255256250D01*
G75*
G02*
X184431250Y-255475000I-218750J0D01*
G01*
X183993750Y-255475000D01*
G75*
G02*
X183775000Y-255256250I0J218750D01*
G01*
X183775000Y-254743750D01*
G75*
G02*
X183993750Y-254525000I218750J0D01*
G01*
X184431250Y-254525000D01*
G75*
G02*
X184650000Y-254743750I0J-218750D01*
G01*
G37*
%TD*%
%TO.C,D118*%
G36*
G01*
X209862500Y-254743750D02*
X209862500Y-255256250D01*
G75*
G02*
X209643750Y-255475000I-218750J0D01*
G01*
X209206250Y-255475000D01*
G75*
G02*
X208987500Y-255256250I0J218750D01*
G01*
X208987500Y-254743750D01*
G75*
G02*
X209206250Y-254525000I218750J0D01*
G01*
X209643750Y-254525000D01*
G75*
G02*
X209862500Y-254743750I0J-218750D01*
G01*
G37*
G36*
G01*
X211437500Y-254743750D02*
X211437500Y-255256250D01*
G75*
G02*
X211218750Y-255475000I-218750J0D01*
G01*
X210781250Y-255475000D01*
G75*
G02*
X210562500Y-255256250I0J218750D01*
G01*
X210562500Y-254743750D01*
G75*
G02*
X210781250Y-254525000I218750J0D01*
G01*
X211218750Y-254525000D01*
G75*
G02*
X211437500Y-254743750I0J-218750D01*
G01*
G37*
%TD*%
%TO.C,D119*%
G36*
G01*
X235225000Y-254743750D02*
X235225000Y-255256250D01*
G75*
G02*
X235006250Y-255475000I-218750J0D01*
G01*
X234568750Y-255475000D01*
G75*
G02*
X234350000Y-255256250I0J218750D01*
G01*
X234350000Y-254743750D01*
G75*
G02*
X234568750Y-254525000I218750J0D01*
G01*
X235006250Y-254525000D01*
G75*
G02*
X235225000Y-254743750I0J-218750D01*
G01*
G37*
G36*
G01*
X233650000Y-254743750D02*
X233650000Y-255256250D01*
G75*
G02*
X233431250Y-255475000I-218750J0D01*
G01*
X232993750Y-255475000D01*
G75*
G02*
X232775000Y-255256250I0J218750D01*
G01*
X232775000Y-254743750D01*
G75*
G02*
X232993750Y-254525000I218750J0D01*
G01*
X233431250Y-254525000D01*
G75*
G02*
X233650000Y-254743750I0J-218750D01*
G01*
G37*
%TD*%
%TO.C,D120*%
G36*
G01*
X256650000Y-254743750D02*
X256650000Y-255256250D01*
G75*
G02*
X256431250Y-255475000I-218750J0D01*
G01*
X255993750Y-255475000D01*
G75*
G02*
X255775000Y-255256250I0J218750D01*
G01*
X255775000Y-254743750D01*
G75*
G02*
X255993750Y-254525000I218750J0D01*
G01*
X256431250Y-254525000D01*
G75*
G02*
X256650000Y-254743750I0J-218750D01*
G01*
G37*
G36*
G01*
X258225000Y-254743750D02*
X258225000Y-255256250D01*
G75*
G02*
X258006250Y-255475000I-218750J0D01*
G01*
X257568750Y-255475000D01*
G75*
G02*
X257350000Y-255256250I0J218750D01*
G01*
X257350000Y-254743750D01*
G75*
G02*
X257568750Y-254525000I218750J0D01*
G01*
X258006250Y-254525000D01*
G75*
G02*
X258225000Y-254743750I0J-218750D01*
G01*
G37*
%TD*%
%TO.C,D121*%
G36*
G01*
X280437500Y-254743750D02*
X280437500Y-255256250D01*
G75*
G02*
X280218750Y-255475000I-218750J0D01*
G01*
X279781250Y-255475000D01*
G75*
G02*
X279562500Y-255256250I0J218750D01*
G01*
X279562500Y-254743750D01*
G75*
G02*
X279781250Y-254525000I218750J0D01*
G01*
X280218750Y-254525000D01*
G75*
G02*
X280437500Y-254743750I0J-218750D01*
G01*
G37*
G36*
G01*
X278862500Y-254743750D02*
X278862500Y-255256250D01*
G75*
G02*
X278643750Y-255475000I-218750J0D01*
G01*
X278206250Y-255475000D01*
G75*
G02*
X277987500Y-255256250I0J218750D01*
G01*
X277987500Y-254743750D01*
G75*
G02*
X278206250Y-254525000I218750J0D01*
G01*
X278643750Y-254525000D01*
G75*
G02*
X278862500Y-254743750I0J-218750D01*
G01*
G37*
%TD*%
%TO.C,D122*%
G36*
G01*
X299650000Y-254743750D02*
X299650000Y-255256250D01*
G75*
G02*
X299431250Y-255475000I-218750J0D01*
G01*
X298993750Y-255475000D01*
G75*
G02*
X298775000Y-255256250I0J218750D01*
G01*
X298775000Y-254743750D01*
G75*
G02*
X298993750Y-254525000I218750J0D01*
G01*
X299431250Y-254525000D01*
G75*
G02*
X299650000Y-254743750I0J-218750D01*
G01*
G37*
G36*
G01*
X301225000Y-254743750D02*
X301225000Y-255256250D01*
G75*
G02*
X301006250Y-255475000I-218750J0D01*
G01*
X300568750Y-255475000D01*
G75*
G02*
X300350000Y-255256250I0J218750D01*
G01*
X300350000Y-254743750D01*
G75*
G02*
X300568750Y-254525000I218750J0D01*
G01*
X301006250Y-254525000D01*
G75*
G02*
X301225000Y-254743750I0J-218750D01*
G01*
G37*
%TD*%
%TO.C,D123*%
G36*
G01*
X320225000Y-254743750D02*
X320225000Y-255256250D01*
G75*
G02*
X320006250Y-255475000I-218750J0D01*
G01*
X319568750Y-255475000D01*
G75*
G02*
X319350000Y-255256250I0J218750D01*
G01*
X319350000Y-254743750D01*
G75*
G02*
X319568750Y-254525000I218750J0D01*
G01*
X320006250Y-254525000D01*
G75*
G02*
X320225000Y-254743750I0J-218750D01*
G01*
G37*
G36*
G01*
X318650000Y-254743750D02*
X318650000Y-255256250D01*
G75*
G02*
X318431250Y-255475000I-218750J0D01*
G01*
X317993750Y-255475000D01*
G75*
G02*
X317775000Y-255256250I0J218750D01*
G01*
X317775000Y-254743750D01*
G75*
G02*
X317993750Y-254525000I218750J0D01*
G01*
X318431250Y-254525000D01*
G75*
G02*
X318650000Y-254743750I0J-218750D01*
G01*
G37*
%TD*%
%TO.C,D124*%
G36*
G01*
X335862500Y-254743750D02*
X335862500Y-255256250D01*
G75*
G02*
X335643750Y-255475000I-218750J0D01*
G01*
X335206250Y-255475000D01*
G75*
G02*
X334987500Y-255256250I0J218750D01*
G01*
X334987500Y-254743750D01*
G75*
G02*
X335206250Y-254525000I218750J0D01*
G01*
X335643750Y-254525000D01*
G75*
G02*
X335862500Y-254743750I0J-218750D01*
G01*
G37*
G36*
G01*
X337437500Y-254743750D02*
X337437500Y-255256250D01*
G75*
G02*
X337218750Y-255475000I-218750J0D01*
G01*
X336781250Y-255475000D01*
G75*
G02*
X336562500Y-255256250I0J218750D01*
G01*
X336562500Y-254743750D01*
G75*
G02*
X336781250Y-254525000I218750J0D01*
G01*
X337218750Y-254525000D01*
G75*
G02*
X337437500Y-254743750I0J-218750D01*
G01*
G37*
%TD*%
%TO.C,D125*%
G36*
G01*
X355437500Y-254743750D02*
X355437500Y-255256250D01*
G75*
G02*
X355218750Y-255475000I-218750J0D01*
G01*
X354781250Y-255475000D01*
G75*
G02*
X354562500Y-255256250I0J218750D01*
G01*
X354562500Y-254743750D01*
G75*
G02*
X354781250Y-254525000I218750J0D01*
G01*
X355218750Y-254525000D01*
G75*
G02*
X355437500Y-254743750I0J-218750D01*
G01*
G37*
G36*
G01*
X353862500Y-254743750D02*
X353862500Y-255256250D01*
G75*
G02*
X353643750Y-255475000I-218750J0D01*
G01*
X353206250Y-255475000D01*
G75*
G02*
X352987500Y-255256250I0J218750D01*
G01*
X352987500Y-254743750D01*
G75*
G02*
X353206250Y-254525000I218750J0D01*
G01*
X353643750Y-254525000D01*
G75*
G02*
X353862500Y-254743750I0J-218750D01*
G01*
G37*
%TD*%
%TO.C,D126*%
G36*
G01*
X370650000Y-254743750D02*
X370650000Y-255256250D01*
G75*
G02*
X370431250Y-255475000I-218750J0D01*
G01*
X369993750Y-255475000D01*
G75*
G02*
X369775000Y-255256250I0J218750D01*
G01*
X369775000Y-254743750D01*
G75*
G02*
X369993750Y-254525000I218750J0D01*
G01*
X370431250Y-254525000D01*
G75*
G02*
X370650000Y-254743750I0J-218750D01*
G01*
G37*
G36*
G01*
X372225000Y-254743750D02*
X372225000Y-255256250D01*
G75*
G02*
X372006250Y-255475000I-218750J0D01*
G01*
X371568750Y-255475000D01*
G75*
G02*
X371350000Y-255256250I0J218750D01*
G01*
X371350000Y-254743750D01*
G75*
G02*
X371568750Y-254525000I218750J0D01*
G01*
X372006250Y-254525000D01*
G75*
G02*
X372225000Y-254743750I0J-218750D01*
G01*
G37*
%TD*%
%TO.C,D127*%
G36*
G01*
X388225000Y-254743750D02*
X388225000Y-255256250D01*
G75*
G02*
X388006250Y-255475000I-218750J0D01*
G01*
X387568750Y-255475000D01*
G75*
G02*
X387350000Y-255256250I0J218750D01*
G01*
X387350000Y-254743750D01*
G75*
G02*
X387568750Y-254525000I218750J0D01*
G01*
X388006250Y-254525000D01*
G75*
G02*
X388225000Y-254743750I0J-218750D01*
G01*
G37*
G36*
G01*
X386650000Y-254743750D02*
X386650000Y-255256250D01*
G75*
G02*
X386431250Y-255475000I-218750J0D01*
G01*
X385993750Y-255475000D01*
G75*
G02*
X385775000Y-255256250I0J218750D01*
G01*
X385775000Y-254743750D01*
G75*
G02*
X385993750Y-254525000I218750J0D01*
G01*
X386431250Y-254525000D01*
G75*
G02*
X386650000Y-254743750I0J-218750D01*
G01*
G37*
%TD*%
%TO.C,D128*%
G36*
G01*
X400650000Y-254743750D02*
X400650000Y-255256250D01*
G75*
G02*
X400431250Y-255475000I-218750J0D01*
G01*
X399993750Y-255475000D01*
G75*
G02*
X399775000Y-255256250I0J218750D01*
G01*
X399775000Y-254743750D01*
G75*
G02*
X399993750Y-254525000I218750J0D01*
G01*
X400431250Y-254525000D01*
G75*
G02*
X400650000Y-254743750I0J-218750D01*
G01*
G37*
G36*
G01*
X402225000Y-254743750D02*
X402225000Y-255256250D01*
G75*
G02*
X402006250Y-255475000I-218750J0D01*
G01*
X401568750Y-255475000D01*
G75*
G02*
X401350000Y-255256250I0J218750D01*
G01*
X401350000Y-254743750D01*
G75*
G02*
X401568750Y-254525000I218750J0D01*
G01*
X402006250Y-254525000D01*
G75*
G02*
X402225000Y-254743750I0J-218750D01*
G01*
G37*
%TD*%
%TO.C,D129*%
G36*
G01*
X415437500Y-254743750D02*
X415437500Y-255256250D01*
G75*
G02*
X415218750Y-255475000I-218750J0D01*
G01*
X414781250Y-255475000D01*
G75*
G02*
X414562500Y-255256250I0J218750D01*
G01*
X414562500Y-254743750D01*
G75*
G02*
X414781250Y-254525000I218750J0D01*
G01*
X415218750Y-254525000D01*
G75*
G02*
X415437500Y-254743750I0J-218750D01*
G01*
G37*
G36*
G01*
X413862500Y-254743750D02*
X413862500Y-255256250D01*
G75*
G02*
X413643750Y-255475000I-218750J0D01*
G01*
X413206250Y-255475000D01*
G75*
G02*
X412987500Y-255256250I0J218750D01*
G01*
X412987500Y-254743750D01*
G75*
G02*
X413206250Y-254525000I218750J0D01*
G01*
X413643750Y-254525000D01*
G75*
G02*
X413862500Y-254743750I0J-218750D01*
G01*
G37*
%TD*%
%TO.C,D130*%
G36*
G01*
X426862500Y-254743750D02*
X426862500Y-255256250D01*
G75*
G02*
X426643750Y-255475000I-218750J0D01*
G01*
X426206250Y-255475000D01*
G75*
G02*
X425987500Y-255256250I0J218750D01*
G01*
X425987500Y-254743750D01*
G75*
G02*
X426206250Y-254525000I218750J0D01*
G01*
X426643750Y-254525000D01*
G75*
G02*
X426862500Y-254743750I0J-218750D01*
G01*
G37*
G36*
G01*
X428437500Y-254743750D02*
X428437500Y-255256250D01*
G75*
G02*
X428218750Y-255475000I-218750J0D01*
G01*
X427781250Y-255475000D01*
G75*
G02*
X427562500Y-255256250I0J218750D01*
G01*
X427562500Y-254743750D01*
G75*
G02*
X427781250Y-254525000I218750J0D01*
G01*
X428218750Y-254525000D01*
G75*
G02*
X428437500Y-254743750I0J-218750D01*
G01*
G37*
%TD*%
%TO.C,D131*%
G36*
G01*
X440437500Y-254743750D02*
X440437500Y-255256250D01*
G75*
G02*
X440218750Y-255475000I-218750J0D01*
G01*
X439781250Y-255475000D01*
G75*
G02*
X439562500Y-255256250I0J218750D01*
G01*
X439562500Y-254743750D01*
G75*
G02*
X439781250Y-254525000I218750J0D01*
G01*
X440218750Y-254525000D01*
G75*
G02*
X440437500Y-254743750I0J-218750D01*
G01*
G37*
G36*
G01*
X438862500Y-254743750D02*
X438862500Y-255256250D01*
G75*
G02*
X438643750Y-255475000I-218750J0D01*
G01*
X438206250Y-255475000D01*
G75*
G02*
X437987500Y-255256250I0J218750D01*
G01*
X437987500Y-254743750D01*
G75*
G02*
X438206250Y-254525000I218750J0D01*
G01*
X438643750Y-254525000D01*
G75*
G02*
X438862500Y-254743750I0J-218750D01*
G01*
G37*
%TD*%
M02*
