%TF.GenerationSoftware,KiCad,Pcbnew,(5.1.8)-1*%
%TF.CreationDate,2021-03-15T17:42:39+02:00*%
%TF.ProjectId,guitar_first,67756974-6172-45f6-9669-7273742e6b69,rev?*%
%TF.SameCoordinates,Original*%
%TF.FileFunction,Copper,L1,Top*%
%TF.FilePolarity,Positive*%
%FSLAX46Y46*%
G04 Gerber Fmt 4.6, Leading zero omitted, Abs format (unit mm)*
G04 Created by KiCad (PCBNEW (5.1.8)-1) date 2021-03-15 17:42:39*
%MOMM*%
%LPD*%
G01*
G04 APERTURE LIST*
%TA.AperFunction,SMDPad,CuDef*%
%ADD10R,2.500000X2.500000*%
%TD*%
%TA.AperFunction,ViaPad*%
%ADD11C,0.800000*%
%TD*%
%TA.AperFunction,Conductor*%
%ADD12C,0.350000*%
%TD*%
%TA.AperFunction,Conductor*%
%ADD13C,0.250000*%
%TD*%
G04 APERTURE END LIST*
D10*
%TO.P,REF\u002A\u002A,1*%
%TO.N,/P1*%
X445000000Y-257000000D03*
%TD*%
%TO.P,REF\u002A\u002A,1*%
%TO.N,/P2*%
X445000000Y-252000000D03*
%TD*%
%TO.P,REF\u002A\u002A,1*%
%TO.N,/P3*%
X445000000Y-248000000D03*
%TD*%
%TO.P,REF\u002A\u002A,1*%
%TO.N,/P4*%
X445000000Y-243000000D03*
%TD*%
%TO.P,REF\u002A\u002A,1*%
%TO.N,/P5*%
X445000000Y-239000000D03*
%TD*%
%TO.P,REF\u002A\u002A,1*%
%TO.N,/P6*%
X445000000Y-234000000D03*
%TD*%
%TO.P,REF\u002A\u002A,1*%
%TO.N,/P7*%
X445000000Y-230000000D03*
%TD*%
%TO.P,REF\u002A\u002A,1*%
%TO.N,/P8*%
X445000000Y-225000000D03*
%TD*%
%TO.P,REF\u002A\u002A,1*%
%TO.N,/P9*%
X445000000Y-221000000D03*
%TD*%
%TO.P,REF\u002A\u002A,1*%
%TO.N,/P10*%
X445000000Y-216000000D03*
%TD*%
%TO.P,REF\u002A\u002A,1*%
%TO.N,/P11*%
X445000000Y-212000000D03*
%TD*%
%TO.P,REF\u002A\u002A,1*%
%TO.N,/P12*%
X445000000Y-207000000D03*
%TD*%
%TO.P,D1,1*%
%TO.N,/P12*%
%TA.AperFunction,SMDPad,CuDef*%
G36*
G01*
X8225000Y-209743750D02*
X8225000Y-210256250D01*
G75*
G02*
X8006250Y-210475000I-218750J0D01*
G01*
X7568750Y-210475000D01*
G75*
G02*
X7350000Y-210256250I0J218750D01*
G01*
X7350000Y-209743750D01*
G75*
G02*
X7568750Y-209525000I218750J0D01*
G01*
X8006250Y-209525000D01*
G75*
G02*
X8225000Y-209743750I0J-218750D01*
G01*
G37*
%TD.AperFunction*%
%TO.P,D1,2*%
%TO.N,/P1*%
%TA.AperFunction,SMDPad,CuDef*%
G36*
G01*
X6650000Y-209743750D02*
X6650000Y-210256250D01*
G75*
G02*
X6431250Y-210475000I-218750J0D01*
G01*
X5993750Y-210475000D01*
G75*
G02*
X5775000Y-210256250I0J218750D01*
G01*
X5775000Y-209743750D01*
G75*
G02*
X5993750Y-209525000I218750J0D01*
G01*
X6431250Y-209525000D01*
G75*
G02*
X6650000Y-209743750I0J-218750D01*
G01*
G37*
%TD.AperFunction*%
%TD*%
%TO.P,D2,1*%
%TO.N,/P12*%
%TA.AperFunction,SMDPad,CuDef*%
G36*
G01*
X28437500Y-209743750D02*
X28437500Y-210256250D01*
G75*
G02*
X28218750Y-210475000I-218750J0D01*
G01*
X27781250Y-210475000D01*
G75*
G02*
X27562500Y-210256250I0J218750D01*
G01*
X27562500Y-209743750D01*
G75*
G02*
X27781250Y-209525000I218750J0D01*
G01*
X28218750Y-209525000D01*
G75*
G02*
X28437500Y-209743750I0J-218750D01*
G01*
G37*
%TD.AperFunction*%
%TO.P,D2,2*%
%TO.N,/P2*%
%TA.AperFunction,SMDPad,CuDef*%
G36*
G01*
X26862500Y-209743750D02*
X26862500Y-210256250D01*
G75*
G02*
X26643750Y-210475000I-218750J0D01*
G01*
X26206250Y-210475000D01*
G75*
G02*
X25987500Y-210256250I0J218750D01*
G01*
X25987500Y-209743750D01*
G75*
G02*
X26206250Y-209525000I218750J0D01*
G01*
X26643750Y-209525000D01*
G75*
G02*
X26862500Y-209743750I0J-218750D01*
G01*
G37*
%TD.AperFunction*%
%TD*%
%TO.P,D3,2*%
%TO.N,/P3*%
%TA.AperFunction,SMDPad,CuDef*%
G36*
G01*
X65862500Y-209743750D02*
X65862500Y-210256250D01*
G75*
G02*
X65643750Y-210475000I-218750J0D01*
G01*
X65206250Y-210475000D01*
G75*
G02*
X64987500Y-210256250I0J218750D01*
G01*
X64987500Y-209743750D01*
G75*
G02*
X65206250Y-209525000I218750J0D01*
G01*
X65643750Y-209525000D01*
G75*
G02*
X65862500Y-209743750I0J-218750D01*
G01*
G37*
%TD.AperFunction*%
%TO.P,D3,1*%
%TO.N,/P12*%
%TA.AperFunction,SMDPad,CuDef*%
G36*
G01*
X67437500Y-209743750D02*
X67437500Y-210256250D01*
G75*
G02*
X67218750Y-210475000I-218750J0D01*
G01*
X66781250Y-210475000D01*
G75*
G02*
X66562500Y-210256250I0J218750D01*
G01*
X66562500Y-209743750D01*
G75*
G02*
X66781250Y-209525000I218750J0D01*
G01*
X67218750Y-209525000D01*
G75*
G02*
X67437500Y-209743750I0J-218750D01*
G01*
G37*
%TD.AperFunction*%
%TD*%
%TO.P,D4,1*%
%TO.N,/P12*%
%TA.AperFunction,SMDPad,CuDef*%
G36*
G01*
X101437500Y-209743750D02*
X101437500Y-210256250D01*
G75*
G02*
X101218750Y-210475000I-218750J0D01*
G01*
X100781250Y-210475000D01*
G75*
G02*
X100562500Y-210256250I0J218750D01*
G01*
X100562500Y-209743750D01*
G75*
G02*
X100781250Y-209525000I218750J0D01*
G01*
X101218750Y-209525000D01*
G75*
G02*
X101437500Y-209743750I0J-218750D01*
G01*
G37*
%TD.AperFunction*%
%TO.P,D4,2*%
%TO.N,/P4*%
%TA.AperFunction,SMDPad,CuDef*%
G36*
G01*
X99862500Y-209743750D02*
X99862500Y-210256250D01*
G75*
G02*
X99643750Y-210475000I-218750J0D01*
G01*
X99206250Y-210475000D01*
G75*
G02*
X98987500Y-210256250I0J218750D01*
G01*
X98987500Y-209743750D01*
G75*
G02*
X99206250Y-209525000I218750J0D01*
G01*
X99643750Y-209525000D01*
G75*
G02*
X99862500Y-209743750I0J-218750D01*
G01*
G37*
%TD.AperFunction*%
%TD*%
%TO.P,D5,2*%
%TO.N,/P5*%
%TA.AperFunction,SMDPad,CuDef*%
G36*
G01*
X128862500Y-209743750D02*
X128862500Y-210256250D01*
G75*
G02*
X128643750Y-210475000I-218750J0D01*
G01*
X128206250Y-210475000D01*
G75*
G02*
X127987500Y-210256250I0J218750D01*
G01*
X127987500Y-209743750D01*
G75*
G02*
X128206250Y-209525000I218750J0D01*
G01*
X128643750Y-209525000D01*
G75*
G02*
X128862500Y-209743750I0J-218750D01*
G01*
G37*
%TD.AperFunction*%
%TO.P,D5,1*%
%TO.N,/P12*%
%TA.AperFunction,SMDPad,CuDef*%
G36*
G01*
X130437500Y-209743750D02*
X130437500Y-210256250D01*
G75*
G02*
X130218750Y-210475000I-218750J0D01*
G01*
X129781250Y-210475000D01*
G75*
G02*
X129562500Y-210256250I0J218750D01*
G01*
X129562500Y-209743750D01*
G75*
G02*
X129781250Y-209525000I218750J0D01*
G01*
X130218750Y-209525000D01*
G75*
G02*
X130437500Y-209743750I0J-218750D01*
G01*
G37*
%TD.AperFunction*%
%TD*%
%TO.P,D6,1*%
%TO.N,/P12*%
%TA.AperFunction,SMDPad,CuDef*%
G36*
G01*
X160225000Y-209743750D02*
X160225000Y-210256250D01*
G75*
G02*
X160006250Y-210475000I-218750J0D01*
G01*
X159568750Y-210475000D01*
G75*
G02*
X159350000Y-210256250I0J218750D01*
G01*
X159350000Y-209743750D01*
G75*
G02*
X159568750Y-209525000I218750J0D01*
G01*
X160006250Y-209525000D01*
G75*
G02*
X160225000Y-209743750I0J-218750D01*
G01*
G37*
%TD.AperFunction*%
%TO.P,D6,2*%
%TO.N,/P6*%
%TA.AperFunction,SMDPad,CuDef*%
G36*
G01*
X158650000Y-209743750D02*
X158650000Y-210256250D01*
G75*
G02*
X158431250Y-210475000I-218750J0D01*
G01*
X157993750Y-210475000D01*
G75*
G02*
X157775000Y-210256250I0J218750D01*
G01*
X157775000Y-209743750D01*
G75*
G02*
X157993750Y-209525000I218750J0D01*
G01*
X158431250Y-209525000D01*
G75*
G02*
X158650000Y-209743750I0J-218750D01*
G01*
G37*
%TD.AperFunction*%
%TD*%
%TO.P,D7,2*%
%TO.N,/P7*%
%TA.AperFunction,SMDPad,CuDef*%
G36*
G01*
X184650000Y-209743750D02*
X184650000Y-210256250D01*
G75*
G02*
X184431250Y-210475000I-218750J0D01*
G01*
X183993750Y-210475000D01*
G75*
G02*
X183775000Y-210256250I0J218750D01*
G01*
X183775000Y-209743750D01*
G75*
G02*
X183993750Y-209525000I218750J0D01*
G01*
X184431250Y-209525000D01*
G75*
G02*
X184650000Y-209743750I0J-218750D01*
G01*
G37*
%TD.AperFunction*%
%TO.P,D7,1*%
%TO.N,/P12*%
%TA.AperFunction,SMDPad,CuDef*%
G36*
G01*
X186225000Y-209743750D02*
X186225000Y-210256250D01*
G75*
G02*
X186006250Y-210475000I-218750J0D01*
G01*
X185568750Y-210475000D01*
G75*
G02*
X185350000Y-210256250I0J218750D01*
G01*
X185350000Y-209743750D01*
G75*
G02*
X185568750Y-209525000I218750J0D01*
G01*
X186006250Y-209525000D01*
G75*
G02*
X186225000Y-209743750I0J-218750D01*
G01*
G37*
%TD.AperFunction*%
%TD*%
%TO.P,D8,1*%
%TO.N,/P12*%
%TA.AperFunction,SMDPad,CuDef*%
G36*
G01*
X211437500Y-209743750D02*
X211437500Y-210256250D01*
G75*
G02*
X211218750Y-210475000I-218750J0D01*
G01*
X210781250Y-210475000D01*
G75*
G02*
X210562500Y-210256250I0J218750D01*
G01*
X210562500Y-209743750D01*
G75*
G02*
X210781250Y-209525000I218750J0D01*
G01*
X211218750Y-209525000D01*
G75*
G02*
X211437500Y-209743750I0J-218750D01*
G01*
G37*
%TD.AperFunction*%
%TO.P,D8,2*%
%TO.N,/P8*%
%TA.AperFunction,SMDPad,CuDef*%
G36*
G01*
X209862500Y-209743750D02*
X209862500Y-210256250D01*
G75*
G02*
X209643750Y-210475000I-218750J0D01*
G01*
X209206250Y-210475000D01*
G75*
G02*
X208987500Y-210256250I0J218750D01*
G01*
X208987500Y-209743750D01*
G75*
G02*
X209206250Y-209525000I218750J0D01*
G01*
X209643750Y-209525000D01*
G75*
G02*
X209862500Y-209743750I0J-218750D01*
G01*
G37*
%TD.AperFunction*%
%TD*%
%TO.P,D9,2*%
%TO.N,/P9*%
%TA.AperFunction,SMDPad,CuDef*%
G36*
G01*
X233650000Y-209743750D02*
X233650000Y-210256250D01*
G75*
G02*
X233431250Y-210475000I-218750J0D01*
G01*
X232993750Y-210475000D01*
G75*
G02*
X232775000Y-210256250I0J218750D01*
G01*
X232775000Y-209743750D01*
G75*
G02*
X232993750Y-209525000I218750J0D01*
G01*
X233431250Y-209525000D01*
G75*
G02*
X233650000Y-209743750I0J-218750D01*
G01*
G37*
%TD.AperFunction*%
%TO.P,D9,1*%
%TO.N,/P12*%
%TA.AperFunction,SMDPad,CuDef*%
G36*
G01*
X235225000Y-209743750D02*
X235225000Y-210256250D01*
G75*
G02*
X235006250Y-210475000I-218750J0D01*
G01*
X234568750Y-210475000D01*
G75*
G02*
X234350000Y-210256250I0J218750D01*
G01*
X234350000Y-209743750D01*
G75*
G02*
X234568750Y-209525000I218750J0D01*
G01*
X235006250Y-209525000D01*
G75*
G02*
X235225000Y-209743750I0J-218750D01*
G01*
G37*
%TD.AperFunction*%
%TD*%
%TO.P,D10,1*%
%TO.N,/P12*%
%TA.AperFunction,SMDPad,CuDef*%
G36*
G01*
X258225000Y-209743750D02*
X258225000Y-210256250D01*
G75*
G02*
X258006250Y-210475000I-218750J0D01*
G01*
X257568750Y-210475000D01*
G75*
G02*
X257350000Y-210256250I0J218750D01*
G01*
X257350000Y-209743750D01*
G75*
G02*
X257568750Y-209525000I218750J0D01*
G01*
X258006250Y-209525000D01*
G75*
G02*
X258225000Y-209743750I0J-218750D01*
G01*
G37*
%TD.AperFunction*%
%TO.P,D10,2*%
%TO.N,/P10*%
%TA.AperFunction,SMDPad,CuDef*%
G36*
G01*
X256650000Y-209743750D02*
X256650000Y-210256250D01*
G75*
G02*
X256431250Y-210475000I-218750J0D01*
G01*
X255993750Y-210475000D01*
G75*
G02*
X255775000Y-210256250I0J218750D01*
G01*
X255775000Y-209743750D01*
G75*
G02*
X255993750Y-209525000I218750J0D01*
G01*
X256431250Y-209525000D01*
G75*
G02*
X256650000Y-209743750I0J-218750D01*
G01*
G37*
%TD.AperFunction*%
%TD*%
%TO.P,D11,1*%
%TO.N,/P12*%
%TA.AperFunction,SMDPad,CuDef*%
G36*
G01*
X280437500Y-209743750D02*
X280437500Y-210256250D01*
G75*
G02*
X280218750Y-210475000I-218750J0D01*
G01*
X279781250Y-210475000D01*
G75*
G02*
X279562500Y-210256250I0J218750D01*
G01*
X279562500Y-209743750D01*
G75*
G02*
X279781250Y-209525000I218750J0D01*
G01*
X280218750Y-209525000D01*
G75*
G02*
X280437500Y-209743750I0J-218750D01*
G01*
G37*
%TD.AperFunction*%
%TO.P,D11,2*%
%TO.N,/P11*%
%TA.AperFunction,SMDPad,CuDef*%
G36*
G01*
X278862500Y-209743750D02*
X278862500Y-210256250D01*
G75*
G02*
X278643750Y-210475000I-218750J0D01*
G01*
X278206250Y-210475000D01*
G75*
G02*
X277987500Y-210256250I0J218750D01*
G01*
X277987500Y-209743750D01*
G75*
G02*
X278206250Y-209525000I218750J0D01*
G01*
X278643750Y-209525000D01*
G75*
G02*
X278862500Y-209743750I0J-218750D01*
G01*
G37*
%TD.AperFunction*%
%TD*%
%TO.P,D12,1*%
%TO.N,/P11*%
%TA.AperFunction,SMDPad,CuDef*%
G36*
G01*
X301225000Y-209743750D02*
X301225000Y-210256250D01*
G75*
G02*
X301006250Y-210475000I-218750J0D01*
G01*
X300568750Y-210475000D01*
G75*
G02*
X300350000Y-210256250I0J218750D01*
G01*
X300350000Y-209743750D01*
G75*
G02*
X300568750Y-209525000I218750J0D01*
G01*
X301006250Y-209525000D01*
G75*
G02*
X301225000Y-209743750I0J-218750D01*
G01*
G37*
%TD.AperFunction*%
%TO.P,D12,2*%
%TO.N,/P1*%
%TA.AperFunction,SMDPad,CuDef*%
G36*
G01*
X299650000Y-209743750D02*
X299650000Y-210256250D01*
G75*
G02*
X299431250Y-210475000I-218750J0D01*
G01*
X298993750Y-210475000D01*
G75*
G02*
X298775000Y-210256250I0J218750D01*
G01*
X298775000Y-209743750D01*
G75*
G02*
X298993750Y-209525000I218750J0D01*
G01*
X299431250Y-209525000D01*
G75*
G02*
X299650000Y-209743750I0J-218750D01*
G01*
G37*
%TD.AperFunction*%
%TD*%
%TO.P,D13,2*%
%TO.N,/P2*%
%TA.AperFunction,SMDPad,CuDef*%
G36*
G01*
X318650000Y-209743750D02*
X318650000Y-210256250D01*
G75*
G02*
X318431250Y-210475000I-218750J0D01*
G01*
X317993750Y-210475000D01*
G75*
G02*
X317775000Y-210256250I0J218750D01*
G01*
X317775000Y-209743750D01*
G75*
G02*
X317993750Y-209525000I218750J0D01*
G01*
X318431250Y-209525000D01*
G75*
G02*
X318650000Y-209743750I0J-218750D01*
G01*
G37*
%TD.AperFunction*%
%TO.P,D13,1*%
%TO.N,/P11*%
%TA.AperFunction,SMDPad,CuDef*%
G36*
G01*
X320225000Y-209743750D02*
X320225000Y-210256250D01*
G75*
G02*
X320006250Y-210475000I-218750J0D01*
G01*
X319568750Y-210475000D01*
G75*
G02*
X319350000Y-210256250I0J218750D01*
G01*
X319350000Y-209743750D01*
G75*
G02*
X319568750Y-209525000I218750J0D01*
G01*
X320006250Y-209525000D01*
G75*
G02*
X320225000Y-209743750I0J-218750D01*
G01*
G37*
%TD.AperFunction*%
%TD*%
%TO.P,D14,1*%
%TO.N,/P11*%
%TA.AperFunction,SMDPad,CuDef*%
G36*
G01*
X337437500Y-209743750D02*
X337437500Y-210256250D01*
G75*
G02*
X337218750Y-210475000I-218750J0D01*
G01*
X336781250Y-210475000D01*
G75*
G02*
X336562500Y-210256250I0J218750D01*
G01*
X336562500Y-209743750D01*
G75*
G02*
X336781250Y-209525000I218750J0D01*
G01*
X337218750Y-209525000D01*
G75*
G02*
X337437500Y-209743750I0J-218750D01*
G01*
G37*
%TD.AperFunction*%
%TO.P,D14,2*%
%TO.N,/P3*%
%TA.AperFunction,SMDPad,CuDef*%
G36*
G01*
X335862500Y-209743750D02*
X335862500Y-210256250D01*
G75*
G02*
X335643750Y-210475000I-218750J0D01*
G01*
X335206250Y-210475000D01*
G75*
G02*
X334987500Y-210256250I0J218750D01*
G01*
X334987500Y-209743750D01*
G75*
G02*
X335206250Y-209525000I218750J0D01*
G01*
X335643750Y-209525000D01*
G75*
G02*
X335862500Y-209743750I0J-218750D01*
G01*
G37*
%TD.AperFunction*%
%TD*%
%TO.P,D15,2*%
%TO.N,/P4*%
%TA.AperFunction,SMDPad,CuDef*%
G36*
G01*
X353862500Y-209743750D02*
X353862500Y-210256250D01*
G75*
G02*
X353643750Y-210475000I-218750J0D01*
G01*
X353206250Y-210475000D01*
G75*
G02*
X352987500Y-210256250I0J218750D01*
G01*
X352987500Y-209743750D01*
G75*
G02*
X353206250Y-209525000I218750J0D01*
G01*
X353643750Y-209525000D01*
G75*
G02*
X353862500Y-209743750I0J-218750D01*
G01*
G37*
%TD.AperFunction*%
%TO.P,D15,1*%
%TO.N,/P11*%
%TA.AperFunction,SMDPad,CuDef*%
G36*
G01*
X355437500Y-209743750D02*
X355437500Y-210256250D01*
G75*
G02*
X355218750Y-210475000I-218750J0D01*
G01*
X354781250Y-210475000D01*
G75*
G02*
X354562500Y-210256250I0J218750D01*
G01*
X354562500Y-209743750D01*
G75*
G02*
X354781250Y-209525000I218750J0D01*
G01*
X355218750Y-209525000D01*
G75*
G02*
X355437500Y-209743750I0J-218750D01*
G01*
G37*
%TD.AperFunction*%
%TD*%
%TO.P,D16,1*%
%TO.N,/P11*%
%TA.AperFunction,SMDPad,CuDef*%
G36*
G01*
X372225000Y-209743750D02*
X372225000Y-210256250D01*
G75*
G02*
X372006250Y-210475000I-218750J0D01*
G01*
X371568750Y-210475000D01*
G75*
G02*
X371350000Y-210256250I0J218750D01*
G01*
X371350000Y-209743750D01*
G75*
G02*
X371568750Y-209525000I218750J0D01*
G01*
X372006250Y-209525000D01*
G75*
G02*
X372225000Y-209743750I0J-218750D01*
G01*
G37*
%TD.AperFunction*%
%TO.P,D16,2*%
%TO.N,/P5*%
%TA.AperFunction,SMDPad,CuDef*%
G36*
G01*
X370650000Y-209743750D02*
X370650000Y-210256250D01*
G75*
G02*
X370431250Y-210475000I-218750J0D01*
G01*
X369993750Y-210475000D01*
G75*
G02*
X369775000Y-210256250I0J218750D01*
G01*
X369775000Y-209743750D01*
G75*
G02*
X369993750Y-209525000I218750J0D01*
G01*
X370431250Y-209525000D01*
G75*
G02*
X370650000Y-209743750I0J-218750D01*
G01*
G37*
%TD.AperFunction*%
%TD*%
%TO.P,D17,2*%
%TO.N,/P6*%
%TA.AperFunction,SMDPad,CuDef*%
G36*
G01*
X386650000Y-209743750D02*
X386650000Y-210256250D01*
G75*
G02*
X386431250Y-210475000I-218750J0D01*
G01*
X385993750Y-210475000D01*
G75*
G02*
X385775000Y-210256250I0J218750D01*
G01*
X385775000Y-209743750D01*
G75*
G02*
X385993750Y-209525000I218750J0D01*
G01*
X386431250Y-209525000D01*
G75*
G02*
X386650000Y-209743750I0J-218750D01*
G01*
G37*
%TD.AperFunction*%
%TO.P,D17,1*%
%TO.N,/P11*%
%TA.AperFunction,SMDPad,CuDef*%
G36*
G01*
X388225000Y-209743750D02*
X388225000Y-210256250D01*
G75*
G02*
X388006250Y-210475000I-218750J0D01*
G01*
X387568750Y-210475000D01*
G75*
G02*
X387350000Y-210256250I0J218750D01*
G01*
X387350000Y-209743750D01*
G75*
G02*
X387568750Y-209525000I218750J0D01*
G01*
X388006250Y-209525000D01*
G75*
G02*
X388225000Y-209743750I0J-218750D01*
G01*
G37*
%TD.AperFunction*%
%TD*%
%TO.P,D18,1*%
%TO.N,/P11*%
%TA.AperFunction,SMDPad,CuDef*%
G36*
G01*
X402225000Y-209743750D02*
X402225000Y-210256250D01*
G75*
G02*
X402006250Y-210475000I-218750J0D01*
G01*
X401568750Y-210475000D01*
G75*
G02*
X401350000Y-210256250I0J218750D01*
G01*
X401350000Y-209743750D01*
G75*
G02*
X401568750Y-209525000I218750J0D01*
G01*
X402006250Y-209525000D01*
G75*
G02*
X402225000Y-209743750I0J-218750D01*
G01*
G37*
%TD.AperFunction*%
%TO.P,D18,2*%
%TO.N,/P7*%
%TA.AperFunction,SMDPad,CuDef*%
G36*
G01*
X400650000Y-209743750D02*
X400650000Y-210256250D01*
G75*
G02*
X400431250Y-210475000I-218750J0D01*
G01*
X399993750Y-210475000D01*
G75*
G02*
X399775000Y-210256250I0J218750D01*
G01*
X399775000Y-209743750D01*
G75*
G02*
X399993750Y-209525000I218750J0D01*
G01*
X400431250Y-209525000D01*
G75*
G02*
X400650000Y-209743750I0J-218750D01*
G01*
G37*
%TD.AperFunction*%
%TD*%
%TO.P,D19,1*%
%TO.N,/P11*%
%TA.AperFunction,SMDPad,CuDef*%
G36*
G01*
X415437500Y-209743750D02*
X415437500Y-210256250D01*
G75*
G02*
X415218750Y-210475000I-218750J0D01*
G01*
X414781250Y-210475000D01*
G75*
G02*
X414562500Y-210256250I0J218750D01*
G01*
X414562500Y-209743750D01*
G75*
G02*
X414781250Y-209525000I218750J0D01*
G01*
X415218750Y-209525000D01*
G75*
G02*
X415437500Y-209743750I0J-218750D01*
G01*
G37*
%TD.AperFunction*%
%TO.P,D19,2*%
%TO.N,/P8*%
%TA.AperFunction,SMDPad,CuDef*%
G36*
G01*
X413862500Y-209743750D02*
X413862500Y-210256250D01*
G75*
G02*
X413643750Y-210475000I-218750J0D01*
G01*
X413206250Y-210475000D01*
G75*
G02*
X412987500Y-210256250I0J218750D01*
G01*
X412987500Y-209743750D01*
G75*
G02*
X413206250Y-209525000I218750J0D01*
G01*
X413643750Y-209525000D01*
G75*
G02*
X413862500Y-209743750I0J-218750D01*
G01*
G37*
%TD.AperFunction*%
%TD*%
%TO.P,D20,1*%
%TO.N,/P11*%
%TA.AperFunction,SMDPad,CuDef*%
G36*
G01*
X428437500Y-209743750D02*
X428437500Y-210256250D01*
G75*
G02*
X428218750Y-210475000I-218750J0D01*
G01*
X427781250Y-210475000D01*
G75*
G02*
X427562500Y-210256250I0J218750D01*
G01*
X427562500Y-209743750D01*
G75*
G02*
X427781250Y-209525000I218750J0D01*
G01*
X428218750Y-209525000D01*
G75*
G02*
X428437500Y-209743750I0J-218750D01*
G01*
G37*
%TD.AperFunction*%
%TO.P,D20,2*%
%TO.N,/P9*%
%TA.AperFunction,SMDPad,CuDef*%
G36*
G01*
X426862500Y-209743750D02*
X426862500Y-210256250D01*
G75*
G02*
X426643750Y-210475000I-218750J0D01*
G01*
X426206250Y-210475000D01*
G75*
G02*
X425987500Y-210256250I0J218750D01*
G01*
X425987500Y-209743750D01*
G75*
G02*
X426206250Y-209525000I218750J0D01*
G01*
X426643750Y-209525000D01*
G75*
G02*
X426862500Y-209743750I0J-218750D01*
G01*
G37*
%TD.AperFunction*%
%TD*%
%TO.P,D21,2*%
%TO.N,/P10*%
%TA.AperFunction,SMDPad,CuDef*%
G36*
G01*
X438862500Y-209743750D02*
X438862500Y-210256250D01*
G75*
G02*
X438643750Y-210475000I-218750J0D01*
G01*
X438206250Y-210475000D01*
G75*
G02*
X437987500Y-210256250I0J218750D01*
G01*
X437987500Y-209743750D01*
G75*
G02*
X438206250Y-209525000I218750J0D01*
G01*
X438643750Y-209525000D01*
G75*
G02*
X438862500Y-209743750I0J-218750D01*
G01*
G37*
%TD.AperFunction*%
%TO.P,D21,1*%
%TO.N,/P11*%
%TA.AperFunction,SMDPad,CuDef*%
G36*
G01*
X440437500Y-209743750D02*
X440437500Y-210256250D01*
G75*
G02*
X440218750Y-210475000I-218750J0D01*
G01*
X439781250Y-210475000D01*
G75*
G02*
X439562500Y-210256250I0J218750D01*
G01*
X439562500Y-209743750D01*
G75*
G02*
X439781250Y-209525000I218750J0D01*
G01*
X440218750Y-209525000D01*
G75*
G02*
X440437500Y-209743750I0J-218750D01*
G01*
G37*
%TD.AperFunction*%
%TD*%
%TO.P,D23,1*%
%TO.N,/P10*%
%TA.AperFunction,SMDPad,CuDef*%
G36*
G01*
X8225000Y-218743750D02*
X8225000Y-219256250D01*
G75*
G02*
X8006250Y-219475000I-218750J0D01*
G01*
X7568750Y-219475000D01*
G75*
G02*
X7350000Y-219256250I0J218750D01*
G01*
X7350000Y-218743750D01*
G75*
G02*
X7568750Y-218525000I218750J0D01*
G01*
X8006250Y-218525000D01*
G75*
G02*
X8225000Y-218743750I0J-218750D01*
G01*
G37*
%TD.AperFunction*%
%TO.P,D23,2*%
%TO.N,/P1*%
%TA.AperFunction,SMDPad,CuDef*%
G36*
G01*
X6650000Y-218743750D02*
X6650000Y-219256250D01*
G75*
G02*
X6431250Y-219475000I-218750J0D01*
G01*
X5993750Y-219475000D01*
G75*
G02*
X5775000Y-219256250I0J218750D01*
G01*
X5775000Y-218743750D01*
G75*
G02*
X5993750Y-218525000I218750J0D01*
G01*
X6431250Y-218525000D01*
G75*
G02*
X6650000Y-218743750I0J-218750D01*
G01*
G37*
%TD.AperFunction*%
%TD*%
%TO.P,D24,1*%
%TO.N,/P10*%
%TA.AperFunction,SMDPad,CuDef*%
G36*
G01*
X28437500Y-218743750D02*
X28437500Y-219256250D01*
G75*
G02*
X28218750Y-219475000I-218750J0D01*
G01*
X27781250Y-219475000D01*
G75*
G02*
X27562500Y-219256250I0J218750D01*
G01*
X27562500Y-218743750D01*
G75*
G02*
X27781250Y-218525000I218750J0D01*
G01*
X28218750Y-218525000D01*
G75*
G02*
X28437500Y-218743750I0J-218750D01*
G01*
G37*
%TD.AperFunction*%
%TO.P,D24,2*%
%TO.N,/P2*%
%TA.AperFunction,SMDPad,CuDef*%
G36*
G01*
X26862500Y-218743750D02*
X26862500Y-219256250D01*
G75*
G02*
X26643750Y-219475000I-218750J0D01*
G01*
X26206250Y-219475000D01*
G75*
G02*
X25987500Y-219256250I0J218750D01*
G01*
X25987500Y-218743750D01*
G75*
G02*
X26206250Y-218525000I218750J0D01*
G01*
X26643750Y-218525000D01*
G75*
G02*
X26862500Y-218743750I0J-218750D01*
G01*
G37*
%TD.AperFunction*%
%TD*%
%TO.P,D25,2*%
%TO.N,/P3*%
%TA.AperFunction,SMDPad,CuDef*%
G36*
G01*
X65862500Y-218743750D02*
X65862500Y-219256250D01*
G75*
G02*
X65643750Y-219475000I-218750J0D01*
G01*
X65206250Y-219475000D01*
G75*
G02*
X64987500Y-219256250I0J218750D01*
G01*
X64987500Y-218743750D01*
G75*
G02*
X65206250Y-218525000I218750J0D01*
G01*
X65643750Y-218525000D01*
G75*
G02*
X65862500Y-218743750I0J-218750D01*
G01*
G37*
%TD.AperFunction*%
%TO.P,D25,1*%
%TO.N,/P10*%
%TA.AperFunction,SMDPad,CuDef*%
G36*
G01*
X67437500Y-218743750D02*
X67437500Y-219256250D01*
G75*
G02*
X67218750Y-219475000I-218750J0D01*
G01*
X66781250Y-219475000D01*
G75*
G02*
X66562500Y-219256250I0J218750D01*
G01*
X66562500Y-218743750D01*
G75*
G02*
X66781250Y-218525000I218750J0D01*
G01*
X67218750Y-218525000D01*
G75*
G02*
X67437500Y-218743750I0J-218750D01*
G01*
G37*
%TD.AperFunction*%
%TD*%
%TO.P,D26,1*%
%TO.N,/P10*%
%TA.AperFunction,SMDPad,CuDef*%
G36*
G01*
X101437500Y-218743750D02*
X101437500Y-219256250D01*
G75*
G02*
X101218750Y-219475000I-218750J0D01*
G01*
X100781250Y-219475000D01*
G75*
G02*
X100562500Y-219256250I0J218750D01*
G01*
X100562500Y-218743750D01*
G75*
G02*
X100781250Y-218525000I218750J0D01*
G01*
X101218750Y-218525000D01*
G75*
G02*
X101437500Y-218743750I0J-218750D01*
G01*
G37*
%TD.AperFunction*%
%TO.P,D26,2*%
%TO.N,/P4*%
%TA.AperFunction,SMDPad,CuDef*%
G36*
G01*
X99862500Y-218743750D02*
X99862500Y-219256250D01*
G75*
G02*
X99643750Y-219475000I-218750J0D01*
G01*
X99206250Y-219475000D01*
G75*
G02*
X98987500Y-219256250I0J218750D01*
G01*
X98987500Y-218743750D01*
G75*
G02*
X99206250Y-218525000I218750J0D01*
G01*
X99643750Y-218525000D01*
G75*
G02*
X99862500Y-218743750I0J-218750D01*
G01*
G37*
%TD.AperFunction*%
%TD*%
%TO.P,D27,2*%
%TO.N,/P5*%
%TA.AperFunction,SMDPad,CuDef*%
G36*
G01*
X128862500Y-218743750D02*
X128862500Y-219256250D01*
G75*
G02*
X128643750Y-219475000I-218750J0D01*
G01*
X128206250Y-219475000D01*
G75*
G02*
X127987500Y-219256250I0J218750D01*
G01*
X127987500Y-218743750D01*
G75*
G02*
X128206250Y-218525000I218750J0D01*
G01*
X128643750Y-218525000D01*
G75*
G02*
X128862500Y-218743750I0J-218750D01*
G01*
G37*
%TD.AperFunction*%
%TO.P,D27,1*%
%TO.N,/P10*%
%TA.AperFunction,SMDPad,CuDef*%
G36*
G01*
X130437500Y-218743750D02*
X130437500Y-219256250D01*
G75*
G02*
X130218750Y-219475000I-218750J0D01*
G01*
X129781250Y-219475000D01*
G75*
G02*
X129562500Y-219256250I0J218750D01*
G01*
X129562500Y-218743750D01*
G75*
G02*
X129781250Y-218525000I218750J0D01*
G01*
X130218750Y-218525000D01*
G75*
G02*
X130437500Y-218743750I0J-218750D01*
G01*
G37*
%TD.AperFunction*%
%TD*%
%TO.P,D28,1*%
%TO.N,/P10*%
%TA.AperFunction,SMDPad,CuDef*%
G36*
G01*
X160225000Y-218743750D02*
X160225000Y-219256250D01*
G75*
G02*
X160006250Y-219475000I-218750J0D01*
G01*
X159568750Y-219475000D01*
G75*
G02*
X159350000Y-219256250I0J218750D01*
G01*
X159350000Y-218743750D01*
G75*
G02*
X159568750Y-218525000I218750J0D01*
G01*
X160006250Y-218525000D01*
G75*
G02*
X160225000Y-218743750I0J-218750D01*
G01*
G37*
%TD.AperFunction*%
%TO.P,D28,2*%
%TO.N,/P6*%
%TA.AperFunction,SMDPad,CuDef*%
G36*
G01*
X158650000Y-218743750D02*
X158650000Y-219256250D01*
G75*
G02*
X158431250Y-219475000I-218750J0D01*
G01*
X157993750Y-219475000D01*
G75*
G02*
X157775000Y-219256250I0J218750D01*
G01*
X157775000Y-218743750D01*
G75*
G02*
X157993750Y-218525000I218750J0D01*
G01*
X158431250Y-218525000D01*
G75*
G02*
X158650000Y-218743750I0J-218750D01*
G01*
G37*
%TD.AperFunction*%
%TD*%
%TO.P,D29,1*%
%TO.N,/P10*%
%TA.AperFunction,SMDPad,CuDef*%
G36*
G01*
X186225000Y-218743750D02*
X186225000Y-219256250D01*
G75*
G02*
X186006250Y-219475000I-218750J0D01*
G01*
X185568750Y-219475000D01*
G75*
G02*
X185350000Y-219256250I0J218750D01*
G01*
X185350000Y-218743750D01*
G75*
G02*
X185568750Y-218525000I218750J0D01*
G01*
X186006250Y-218525000D01*
G75*
G02*
X186225000Y-218743750I0J-218750D01*
G01*
G37*
%TD.AperFunction*%
%TO.P,D29,2*%
%TO.N,/P7*%
%TA.AperFunction,SMDPad,CuDef*%
G36*
G01*
X184650000Y-218743750D02*
X184650000Y-219256250D01*
G75*
G02*
X184431250Y-219475000I-218750J0D01*
G01*
X183993750Y-219475000D01*
G75*
G02*
X183775000Y-219256250I0J218750D01*
G01*
X183775000Y-218743750D01*
G75*
G02*
X183993750Y-218525000I218750J0D01*
G01*
X184431250Y-218525000D01*
G75*
G02*
X184650000Y-218743750I0J-218750D01*
G01*
G37*
%TD.AperFunction*%
%TD*%
%TO.P,D30,1*%
%TO.N,/P10*%
%TA.AperFunction,SMDPad,CuDef*%
G36*
G01*
X211437500Y-218743750D02*
X211437500Y-219256250D01*
G75*
G02*
X211218750Y-219475000I-218750J0D01*
G01*
X210781250Y-219475000D01*
G75*
G02*
X210562500Y-219256250I0J218750D01*
G01*
X210562500Y-218743750D01*
G75*
G02*
X210781250Y-218525000I218750J0D01*
G01*
X211218750Y-218525000D01*
G75*
G02*
X211437500Y-218743750I0J-218750D01*
G01*
G37*
%TD.AperFunction*%
%TO.P,D30,2*%
%TO.N,/P8*%
%TA.AperFunction,SMDPad,CuDef*%
G36*
G01*
X209862500Y-218743750D02*
X209862500Y-219256250D01*
G75*
G02*
X209643750Y-219475000I-218750J0D01*
G01*
X209206250Y-219475000D01*
G75*
G02*
X208987500Y-219256250I0J218750D01*
G01*
X208987500Y-218743750D01*
G75*
G02*
X209206250Y-218525000I218750J0D01*
G01*
X209643750Y-218525000D01*
G75*
G02*
X209862500Y-218743750I0J-218750D01*
G01*
G37*
%TD.AperFunction*%
%TD*%
%TO.P,D31,2*%
%TO.N,/P9*%
%TA.AperFunction,SMDPad,CuDef*%
G36*
G01*
X233650000Y-218743750D02*
X233650000Y-219256250D01*
G75*
G02*
X233431250Y-219475000I-218750J0D01*
G01*
X232993750Y-219475000D01*
G75*
G02*
X232775000Y-219256250I0J218750D01*
G01*
X232775000Y-218743750D01*
G75*
G02*
X232993750Y-218525000I218750J0D01*
G01*
X233431250Y-218525000D01*
G75*
G02*
X233650000Y-218743750I0J-218750D01*
G01*
G37*
%TD.AperFunction*%
%TO.P,D31,1*%
%TO.N,/P10*%
%TA.AperFunction,SMDPad,CuDef*%
G36*
G01*
X235225000Y-218743750D02*
X235225000Y-219256250D01*
G75*
G02*
X235006250Y-219475000I-218750J0D01*
G01*
X234568750Y-219475000D01*
G75*
G02*
X234350000Y-219256250I0J218750D01*
G01*
X234350000Y-218743750D01*
G75*
G02*
X234568750Y-218525000I218750J0D01*
G01*
X235006250Y-218525000D01*
G75*
G02*
X235225000Y-218743750I0J-218750D01*
G01*
G37*
%TD.AperFunction*%
%TD*%
%TO.P,D32,1*%
%TO.N,/P10*%
%TA.AperFunction,SMDPad,CuDef*%
G36*
G01*
X258225000Y-218743750D02*
X258225000Y-219256250D01*
G75*
G02*
X258006250Y-219475000I-218750J0D01*
G01*
X257568750Y-219475000D01*
G75*
G02*
X257350000Y-219256250I0J218750D01*
G01*
X257350000Y-218743750D01*
G75*
G02*
X257568750Y-218525000I218750J0D01*
G01*
X258006250Y-218525000D01*
G75*
G02*
X258225000Y-218743750I0J-218750D01*
G01*
G37*
%TD.AperFunction*%
%TO.P,D32,2*%
%TO.N,/P11*%
%TA.AperFunction,SMDPad,CuDef*%
G36*
G01*
X256650000Y-218743750D02*
X256650000Y-219256250D01*
G75*
G02*
X256431250Y-219475000I-218750J0D01*
G01*
X255993750Y-219475000D01*
G75*
G02*
X255775000Y-219256250I0J218750D01*
G01*
X255775000Y-218743750D01*
G75*
G02*
X255993750Y-218525000I218750J0D01*
G01*
X256431250Y-218525000D01*
G75*
G02*
X256650000Y-218743750I0J-218750D01*
G01*
G37*
%TD.AperFunction*%
%TD*%
%TO.P,D33,2*%
%TO.N,/P12*%
%TA.AperFunction,SMDPad,CuDef*%
G36*
G01*
X278862500Y-218743750D02*
X278862500Y-219256250D01*
G75*
G02*
X278643750Y-219475000I-218750J0D01*
G01*
X278206250Y-219475000D01*
G75*
G02*
X277987500Y-219256250I0J218750D01*
G01*
X277987500Y-218743750D01*
G75*
G02*
X278206250Y-218525000I218750J0D01*
G01*
X278643750Y-218525000D01*
G75*
G02*
X278862500Y-218743750I0J-218750D01*
G01*
G37*
%TD.AperFunction*%
%TO.P,D33,1*%
%TO.N,/P10*%
%TA.AperFunction,SMDPad,CuDef*%
G36*
G01*
X280437500Y-218743750D02*
X280437500Y-219256250D01*
G75*
G02*
X280218750Y-219475000I-218750J0D01*
G01*
X279781250Y-219475000D01*
G75*
G02*
X279562500Y-219256250I0J218750D01*
G01*
X279562500Y-218743750D01*
G75*
G02*
X279781250Y-218525000I218750J0D01*
G01*
X280218750Y-218525000D01*
G75*
G02*
X280437500Y-218743750I0J-218750D01*
G01*
G37*
%TD.AperFunction*%
%TD*%
%TO.P,D34,2*%
%TO.N,/P1*%
%TA.AperFunction,SMDPad,CuDef*%
G36*
G01*
X299650000Y-218743750D02*
X299650000Y-219256250D01*
G75*
G02*
X299431250Y-219475000I-218750J0D01*
G01*
X298993750Y-219475000D01*
G75*
G02*
X298775000Y-219256250I0J218750D01*
G01*
X298775000Y-218743750D01*
G75*
G02*
X298993750Y-218525000I218750J0D01*
G01*
X299431250Y-218525000D01*
G75*
G02*
X299650000Y-218743750I0J-218750D01*
G01*
G37*
%TD.AperFunction*%
%TO.P,D34,1*%
%TO.N,/P9*%
%TA.AperFunction,SMDPad,CuDef*%
G36*
G01*
X301225000Y-218743750D02*
X301225000Y-219256250D01*
G75*
G02*
X301006250Y-219475000I-218750J0D01*
G01*
X300568750Y-219475000D01*
G75*
G02*
X300350000Y-219256250I0J218750D01*
G01*
X300350000Y-218743750D01*
G75*
G02*
X300568750Y-218525000I218750J0D01*
G01*
X301006250Y-218525000D01*
G75*
G02*
X301225000Y-218743750I0J-218750D01*
G01*
G37*
%TD.AperFunction*%
%TD*%
%TO.P,D35,1*%
%TO.N,/P9*%
%TA.AperFunction,SMDPad,CuDef*%
G36*
G01*
X320225000Y-218743750D02*
X320225000Y-219256250D01*
G75*
G02*
X320006250Y-219475000I-218750J0D01*
G01*
X319568750Y-219475000D01*
G75*
G02*
X319350000Y-219256250I0J218750D01*
G01*
X319350000Y-218743750D01*
G75*
G02*
X319568750Y-218525000I218750J0D01*
G01*
X320006250Y-218525000D01*
G75*
G02*
X320225000Y-218743750I0J-218750D01*
G01*
G37*
%TD.AperFunction*%
%TO.P,D35,2*%
%TO.N,/P2*%
%TA.AperFunction,SMDPad,CuDef*%
G36*
G01*
X318650000Y-218743750D02*
X318650000Y-219256250D01*
G75*
G02*
X318431250Y-219475000I-218750J0D01*
G01*
X317993750Y-219475000D01*
G75*
G02*
X317775000Y-219256250I0J218750D01*
G01*
X317775000Y-218743750D01*
G75*
G02*
X317993750Y-218525000I218750J0D01*
G01*
X318431250Y-218525000D01*
G75*
G02*
X318650000Y-218743750I0J-218750D01*
G01*
G37*
%TD.AperFunction*%
%TD*%
%TO.P,D36,2*%
%TO.N,/P3*%
%TA.AperFunction,SMDPad,CuDef*%
G36*
G01*
X335862500Y-218743750D02*
X335862500Y-219256250D01*
G75*
G02*
X335643750Y-219475000I-218750J0D01*
G01*
X335206250Y-219475000D01*
G75*
G02*
X334987500Y-219256250I0J218750D01*
G01*
X334987500Y-218743750D01*
G75*
G02*
X335206250Y-218525000I218750J0D01*
G01*
X335643750Y-218525000D01*
G75*
G02*
X335862500Y-218743750I0J-218750D01*
G01*
G37*
%TD.AperFunction*%
%TO.P,D36,1*%
%TO.N,/P9*%
%TA.AperFunction,SMDPad,CuDef*%
G36*
G01*
X337437500Y-218743750D02*
X337437500Y-219256250D01*
G75*
G02*
X337218750Y-219475000I-218750J0D01*
G01*
X336781250Y-219475000D01*
G75*
G02*
X336562500Y-219256250I0J218750D01*
G01*
X336562500Y-218743750D01*
G75*
G02*
X336781250Y-218525000I218750J0D01*
G01*
X337218750Y-218525000D01*
G75*
G02*
X337437500Y-218743750I0J-218750D01*
G01*
G37*
%TD.AperFunction*%
%TD*%
%TO.P,D37,2*%
%TO.N,/P4*%
%TA.AperFunction,SMDPad,CuDef*%
G36*
G01*
X353862500Y-218743750D02*
X353862500Y-219256250D01*
G75*
G02*
X353643750Y-219475000I-218750J0D01*
G01*
X353206250Y-219475000D01*
G75*
G02*
X352987500Y-219256250I0J218750D01*
G01*
X352987500Y-218743750D01*
G75*
G02*
X353206250Y-218525000I218750J0D01*
G01*
X353643750Y-218525000D01*
G75*
G02*
X353862500Y-218743750I0J-218750D01*
G01*
G37*
%TD.AperFunction*%
%TO.P,D37,1*%
%TO.N,/P9*%
%TA.AperFunction,SMDPad,CuDef*%
G36*
G01*
X355437500Y-218743750D02*
X355437500Y-219256250D01*
G75*
G02*
X355218750Y-219475000I-218750J0D01*
G01*
X354781250Y-219475000D01*
G75*
G02*
X354562500Y-219256250I0J218750D01*
G01*
X354562500Y-218743750D01*
G75*
G02*
X354781250Y-218525000I218750J0D01*
G01*
X355218750Y-218525000D01*
G75*
G02*
X355437500Y-218743750I0J-218750D01*
G01*
G37*
%TD.AperFunction*%
%TD*%
%TO.P,D38,1*%
%TO.N,/P9*%
%TA.AperFunction,SMDPad,CuDef*%
G36*
G01*
X372225000Y-218743750D02*
X372225000Y-219256250D01*
G75*
G02*
X372006250Y-219475000I-218750J0D01*
G01*
X371568750Y-219475000D01*
G75*
G02*
X371350000Y-219256250I0J218750D01*
G01*
X371350000Y-218743750D01*
G75*
G02*
X371568750Y-218525000I218750J0D01*
G01*
X372006250Y-218525000D01*
G75*
G02*
X372225000Y-218743750I0J-218750D01*
G01*
G37*
%TD.AperFunction*%
%TO.P,D38,2*%
%TO.N,/P5*%
%TA.AperFunction,SMDPad,CuDef*%
G36*
G01*
X370650000Y-218743750D02*
X370650000Y-219256250D01*
G75*
G02*
X370431250Y-219475000I-218750J0D01*
G01*
X369993750Y-219475000D01*
G75*
G02*
X369775000Y-219256250I0J218750D01*
G01*
X369775000Y-218743750D01*
G75*
G02*
X369993750Y-218525000I218750J0D01*
G01*
X370431250Y-218525000D01*
G75*
G02*
X370650000Y-218743750I0J-218750D01*
G01*
G37*
%TD.AperFunction*%
%TD*%
%TO.P,D39,1*%
%TO.N,/P9*%
%TA.AperFunction,SMDPad,CuDef*%
G36*
G01*
X388225000Y-218743750D02*
X388225000Y-219256250D01*
G75*
G02*
X388006250Y-219475000I-218750J0D01*
G01*
X387568750Y-219475000D01*
G75*
G02*
X387350000Y-219256250I0J218750D01*
G01*
X387350000Y-218743750D01*
G75*
G02*
X387568750Y-218525000I218750J0D01*
G01*
X388006250Y-218525000D01*
G75*
G02*
X388225000Y-218743750I0J-218750D01*
G01*
G37*
%TD.AperFunction*%
%TO.P,D39,2*%
%TO.N,/P6*%
%TA.AperFunction,SMDPad,CuDef*%
G36*
G01*
X386650000Y-218743750D02*
X386650000Y-219256250D01*
G75*
G02*
X386431250Y-219475000I-218750J0D01*
G01*
X385993750Y-219475000D01*
G75*
G02*
X385775000Y-219256250I0J218750D01*
G01*
X385775000Y-218743750D01*
G75*
G02*
X385993750Y-218525000I218750J0D01*
G01*
X386431250Y-218525000D01*
G75*
G02*
X386650000Y-218743750I0J-218750D01*
G01*
G37*
%TD.AperFunction*%
%TD*%
%TO.P,D40,1*%
%TO.N,/P9*%
%TA.AperFunction,SMDPad,CuDef*%
G36*
G01*
X402225000Y-218743750D02*
X402225000Y-219256250D01*
G75*
G02*
X402006250Y-219475000I-218750J0D01*
G01*
X401568750Y-219475000D01*
G75*
G02*
X401350000Y-219256250I0J218750D01*
G01*
X401350000Y-218743750D01*
G75*
G02*
X401568750Y-218525000I218750J0D01*
G01*
X402006250Y-218525000D01*
G75*
G02*
X402225000Y-218743750I0J-218750D01*
G01*
G37*
%TD.AperFunction*%
%TO.P,D40,2*%
%TO.N,/P7*%
%TA.AperFunction,SMDPad,CuDef*%
G36*
G01*
X400650000Y-218743750D02*
X400650000Y-219256250D01*
G75*
G02*
X400431250Y-219475000I-218750J0D01*
G01*
X399993750Y-219475000D01*
G75*
G02*
X399775000Y-219256250I0J218750D01*
G01*
X399775000Y-218743750D01*
G75*
G02*
X399993750Y-218525000I218750J0D01*
G01*
X400431250Y-218525000D01*
G75*
G02*
X400650000Y-218743750I0J-218750D01*
G01*
G37*
%TD.AperFunction*%
%TD*%
%TO.P,D41,2*%
%TO.N,/P8*%
%TA.AperFunction,SMDPad,CuDef*%
G36*
G01*
X413862500Y-218743750D02*
X413862500Y-219256250D01*
G75*
G02*
X413643750Y-219475000I-218750J0D01*
G01*
X413206250Y-219475000D01*
G75*
G02*
X412987500Y-219256250I0J218750D01*
G01*
X412987500Y-218743750D01*
G75*
G02*
X413206250Y-218525000I218750J0D01*
G01*
X413643750Y-218525000D01*
G75*
G02*
X413862500Y-218743750I0J-218750D01*
G01*
G37*
%TD.AperFunction*%
%TO.P,D41,1*%
%TO.N,/P9*%
%TA.AperFunction,SMDPad,CuDef*%
G36*
G01*
X415437500Y-218743750D02*
X415437500Y-219256250D01*
G75*
G02*
X415218750Y-219475000I-218750J0D01*
G01*
X414781250Y-219475000D01*
G75*
G02*
X414562500Y-219256250I0J218750D01*
G01*
X414562500Y-218743750D01*
G75*
G02*
X414781250Y-218525000I218750J0D01*
G01*
X415218750Y-218525000D01*
G75*
G02*
X415437500Y-218743750I0J-218750D01*
G01*
G37*
%TD.AperFunction*%
%TD*%
%TO.P,D42,1*%
%TO.N,/P9*%
%TA.AperFunction,SMDPad,CuDef*%
G36*
G01*
X428437500Y-218743750D02*
X428437500Y-219256250D01*
G75*
G02*
X428218750Y-219475000I-218750J0D01*
G01*
X427781250Y-219475000D01*
G75*
G02*
X427562500Y-219256250I0J218750D01*
G01*
X427562500Y-218743750D01*
G75*
G02*
X427781250Y-218525000I218750J0D01*
G01*
X428218750Y-218525000D01*
G75*
G02*
X428437500Y-218743750I0J-218750D01*
G01*
G37*
%TD.AperFunction*%
%TO.P,D42,2*%
%TO.N,/P10*%
%TA.AperFunction,SMDPad,CuDef*%
G36*
G01*
X426862500Y-218743750D02*
X426862500Y-219256250D01*
G75*
G02*
X426643750Y-219475000I-218750J0D01*
G01*
X426206250Y-219475000D01*
G75*
G02*
X425987500Y-219256250I0J218750D01*
G01*
X425987500Y-218743750D01*
G75*
G02*
X426206250Y-218525000I218750J0D01*
G01*
X426643750Y-218525000D01*
G75*
G02*
X426862500Y-218743750I0J-218750D01*
G01*
G37*
%TD.AperFunction*%
%TD*%
%TO.P,D43,2*%
%TO.N,/P11*%
%TA.AperFunction,SMDPad,CuDef*%
G36*
G01*
X438862500Y-218743750D02*
X438862500Y-219256250D01*
G75*
G02*
X438643750Y-219475000I-218750J0D01*
G01*
X438206250Y-219475000D01*
G75*
G02*
X437987500Y-219256250I0J218750D01*
G01*
X437987500Y-218743750D01*
G75*
G02*
X438206250Y-218525000I218750J0D01*
G01*
X438643750Y-218525000D01*
G75*
G02*
X438862500Y-218743750I0J-218750D01*
G01*
G37*
%TD.AperFunction*%
%TO.P,D43,1*%
%TO.N,/P9*%
%TA.AperFunction,SMDPad,CuDef*%
G36*
G01*
X440437500Y-218743750D02*
X440437500Y-219256250D01*
G75*
G02*
X440218750Y-219475000I-218750J0D01*
G01*
X439781250Y-219475000D01*
G75*
G02*
X439562500Y-219256250I0J218750D01*
G01*
X439562500Y-218743750D01*
G75*
G02*
X439781250Y-218525000I218750J0D01*
G01*
X440218750Y-218525000D01*
G75*
G02*
X440437500Y-218743750I0J-218750D01*
G01*
G37*
%TD.AperFunction*%
%TD*%
%TO.P,D45,2*%
%TO.N,/P1*%
%TA.AperFunction,SMDPad,CuDef*%
G36*
G01*
X6650000Y-227743750D02*
X6650000Y-228256250D01*
G75*
G02*
X6431250Y-228475000I-218750J0D01*
G01*
X5993750Y-228475000D01*
G75*
G02*
X5775000Y-228256250I0J218750D01*
G01*
X5775000Y-227743750D01*
G75*
G02*
X5993750Y-227525000I218750J0D01*
G01*
X6431250Y-227525000D01*
G75*
G02*
X6650000Y-227743750I0J-218750D01*
G01*
G37*
%TD.AperFunction*%
%TO.P,D45,1*%
%TO.N,/P8*%
%TA.AperFunction,SMDPad,CuDef*%
G36*
G01*
X8225000Y-227743750D02*
X8225000Y-228256250D01*
G75*
G02*
X8006250Y-228475000I-218750J0D01*
G01*
X7568750Y-228475000D01*
G75*
G02*
X7350000Y-228256250I0J218750D01*
G01*
X7350000Y-227743750D01*
G75*
G02*
X7568750Y-227525000I218750J0D01*
G01*
X8006250Y-227525000D01*
G75*
G02*
X8225000Y-227743750I0J-218750D01*
G01*
G37*
%TD.AperFunction*%
%TD*%
%TO.P,D46,1*%
%TO.N,/P8*%
%TA.AperFunction,SMDPad,CuDef*%
G36*
G01*
X28437500Y-227743750D02*
X28437500Y-228256250D01*
G75*
G02*
X28218750Y-228475000I-218750J0D01*
G01*
X27781250Y-228475000D01*
G75*
G02*
X27562500Y-228256250I0J218750D01*
G01*
X27562500Y-227743750D01*
G75*
G02*
X27781250Y-227525000I218750J0D01*
G01*
X28218750Y-227525000D01*
G75*
G02*
X28437500Y-227743750I0J-218750D01*
G01*
G37*
%TD.AperFunction*%
%TO.P,D46,2*%
%TO.N,/P2*%
%TA.AperFunction,SMDPad,CuDef*%
G36*
G01*
X26862500Y-227743750D02*
X26862500Y-228256250D01*
G75*
G02*
X26643750Y-228475000I-218750J0D01*
G01*
X26206250Y-228475000D01*
G75*
G02*
X25987500Y-228256250I0J218750D01*
G01*
X25987500Y-227743750D01*
G75*
G02*
X26206250Y-227525000I218750J0D01*
G01*
X26643750Y-227525000D01*
G75*
G02*
X26862500Y-227743750I0J-218750D01*
G01*
G37*
%TD.AperFunction*%
%TD*%
%TO.P,D47,2*%
%TO.N,/P3*%
%TA.AperFunction,SMDPad,CuDef*%
G36*
G01*
X65862500Y-227743750D02*
X65862500Y-228256250D01*
G75*
G02*
X65643750Y-228475000I-218750J0D01*
G01*
X65206250Y-228475000D01*
G75*
G02*
X64987500Y-228256250I0J218750D01*
G01*
X64987500Y-227743750D01*
G75*
G02*
X65206250Y-227525000I218750J0D01*
G01*
X65643750Y-227525000D01*
G75*
G02*
X65862500Y-227743750I0J-218750D01*
G01*
G37*
%TD.AperFunction*%
%TO.P,D47,1*%
%TO.N,/P8*%
%TA.AperFunction,SMDPad,CuDef*%
G36*
G01*
X67437500Y-227743750D02*
X67437500Y-228256250D01*
G75*
G02*
X67218750Y-228475000I-218750J0D01*
G01*
X66781250Y-228475000D01*
G75*
G02*
X66562500Y-228256250I0J218750D01*
G01*
X66562500Y-227743750D01*
G75*
G02*
X66781250Y-227525000I218750J0D01*
G01*
X67218750Y-227525000D01*
G75*
G02*
X67437500Y-227743750I0J-218750D01*
G01*
G37*
%TD.AperFunction*%
%TD*%
%TO.P,D48,1*%
%TO.N,/P8*%
%TA.AperFunction,SMDPad,CuDef*%
G36*
G01*
X101437500Y-227743750D02*
X101437500Y-228256250D01*
G75*
G02*
X101218750Y-228475000I-218750J0D01*
G01*
X100781250Y-228475000D01*
G75*
G02*
X100562500Y-228256250I0J218750D01*
G01*
X100562500Y-227743750D01*
G75*
G02*
X100781250Y-227525000I218750J0D01*
G01*
X101218750Y-227525000D01*
G75*
G02*
X101437500Y-227743750I0J-218750D01*
G01*
G37*
%TD.AperFunction*%
%TO.P,D48,2*%
%TO.N,/P4*%
%TA.AperFunction,SMDPad,CuDef*%
G36*
G01*
X99862500Y-227743750D02*
X99862500Y-228256250D01*
G75*
G02*
X99643750Y-228475000I-218750J0D01*
G01*
X99206250Y-228475000D01*
G75*
G02*
X98987500Y-228256250I0J218750D01*
G01*
X98987500Y-227743750D01*
G75*
G02*
X99206250Y-227525000I218750J0D01*
G01*
X99643750Y-227525000D01*
G75*
G02*
X99862500Y-227743750I0J-218750D01*
G01*
G37*
%TD.AperFunction*%
%TD*%
%TO.P,D49,2*%
%TO.N,/P5*%
%TA.AperFunction,SMDPad,CuDef*%
G36*
G01*
X128862500Y-227743750D02*
X128862500Y-228256250D01*
G75*
G02*
X128643750Y-228475000I-218750J0D01*
G01*
X128206250Y-228475000D01*
G75*
G02*
X127987500Y-228256250I0J218750D01*
G01*
X127987500Y-227743750D01*
G75*
G02*
X128206250Y-227525000I218750J0D01*
G01*
X128643750Y-227525000D01*
G75*
G02*
X128862500Y-227743750I0J-218750D01*
G01*
G37*
%TD.AperFunction*%
%TO.P,D49,1*%
%TO.N,/P8*%
%TA.AperFunction,SMDPad,CuDef*%
G36*
G01*
X130437500Y-227743750D02*
X130437500Y-228256250D01*
G75*
G02*
X130218750Y-228475000I-218750J0D01*
G01*
X129781250Y-228475000D01*
G75*
G02*
X129562500Y-228256250I0J218750D01*
G01*
X129562500Y-227743750D01*
G75*
G02*
X129781250Y-227525000I218750J0D01*
G01*
X130218750Y-227525000D01*
G75*
G02*
X130437500Y-227743750I0J-218750D01*
G01*
G37*
%TD.AperFunction*%
%TD*%
%TO.P,D50,1*%
%TO.N,/P8*%
%TA.AperFunction,SMDPad,CuDef*%
G36*
G01*
X160225000Y-227743750D02*
X160225000Y-228256250D01*
G75*
G02*
X160006250Y-228475000I-218750J0D01*
G01*
X159568750Y-228475000D01*
G75*
G02*
X159350000Y-228256250I0J218750D01*
G01*
X159350000Y-227743750D01*
G75*
G02*
X159568750Y-227525000I218750J0D01*
G01*
X160006250Y-227525000D01*
G75*
G02*
X160225000Y-227743750I0J-218750D01*
G01*
G37*
%TD.AperFunction*%
%TO.P,D50,2*%
%TO.N,/P6*%
%TA.AperFunction,SMDPad,CuDef*%
G36*
G01*
X158650000Y-227743750D02*
X158650000Y-228256250D01*
G75*
G02*
X158431250Y-228475000I-218750J0D01*
G01*
X157993750Y-228475000D01*
G75*
G02*
X157775000Y-228256250I0J218750D01*
G01*
X157775000Y-227743750D01*
G75*
G02*
X157993750Y-227525000I218750J0D01*
G01*
X158431250Y-227525000D01*
G75*
G02*
X158650000Y-227743750I0J-218750D01*
G01*
G37*
%TD.AperFunction*%
%TD*%
%TO.P,D51,2*%
%TO.N,/P7*%
%TA.AperFunction,SMDPad,CuDef*%
G36*
G01*
X184650000Y-227743750D02*
X184650000Y-228256250D01*
G75*
G02*
X184431250Y-228475000I-218750J0D01*
G01*
X183993750Y-228475000D01*
G75*
G02*
X183775000Y-228256250I0J218750D01*
G01*
X183775000Y-227743750D01*
G75*
G02*
X183993750Y-227525000I218750J0D01*
G01*
X184431250Y-227525000D01*
G75*
G02*
X184650000Y-227743750I0J-218750D01*
G01*
G37*
%TD.AperFunction*%
%TO.P,D51,1*%
%TO.N,/P8*%
%TA.AperFunction,SMDPad,CuDef*%
G36*
G01*
X186225000Y-227743750D02*
X186225000Y-228256250D01*
G75*
G02*
X186006250Y-228475000I-218750J0D01*
G01*
X185568750Y-228475000D01*
G75*
G02*
X185350000Y-228256250I0J218750D01*
G01*
X185350000Y-227743750D01*
G75*
G02*
X185568750Y-227525000I218750J0D01*
G01*
X186006250Y-227525000D01*
G75*
G02*
X186225000Y-227743750I0J-218750D01*
G01*
G37*
%TD.AperFunction*%
%TD*%
%TO.P,D52,1*%
%TO.N,/P8*%
%TA.AperFunction,SMDPad,CuDef*%
G36*
G01*
X211437500Y-227743750D02*
X211437500Y-228256250D01*
G75*
G02*
X211218750Y-228475000I-218750J0D01*
G01*
X210781250Y-228475000D01*
G75*
G02*
X210562500Y-228256250I0J218750D01*
G01*
X210562500Y-227743750D01*
G75*
G02*
X210781250Y-227525000I218750J0D01*
G01*
X211218750Y-227525000D01*
G75*
G02*
X211437500Y-227743750I0J-218750D01*
G01*
G37*
%TD.AperFunction*%
%TO.P,D52,2*%
%TO.N,/P9*%
%TA.AperFunction,SMDPad,CuDef*%
G36*
G01*
X209862500Y-227743750D02*
X209862500Y-228256250D01*
G75*
G02*
X209643750Y-228475000I-218750J0D01*
G01*
X209206250Y-228475000D01*
G75*
G02*
X208987500Y-228256250I0J218750D01*
G01*
X208987500Y-227743750D01*
G75*
G02*
X209206250Y-227525000I218750J0D01*
G01*
X209643750Y-227525000D01*
G75*
G02*
X209862500Y-227743750I0J-218750D01*
G01*
G37*
%TD.AperFunction*%
%TD*%
%TO.P,D53,2*%
%TO.N,/P10*%
%TA.AperFunction,SMDPad,CuDef*%
G36*
G01*
X233650000Y-227743750D02*
X233650000Y-228256250D01*
G75*
G02*
X233431250Y-228475000I-218750J0D01*
G01*
X232993750Y-228475000D01*
G75*
G02*
X232775000Y-228256250I0J218750D01*
G01*
X232775000Y-227743750D01*
G75*
G02*
X232993750Y-227525000I218750J0D01*
G01*
X233431250Y-227525000D01*
G75*
G02*
X233650000Y-227743750I0J-218750D01*
G01*
G37*
%TD.AperFunction*%
%TO.P,D53,1*%
%TO.N,/P8*%
%TA.AperFunction,SMDPad,CuDef*%
G36*
G01*
X235225000Y-227743750D02*
X235225000Y-228256250D01*
G75*
G02*
X235006250Y-228475000I-218750J0D01*
G01*
X234568750Y-228475000D01*
G75*
G02*
X234350000Y-228256250I0J218750D01*
G01*
X234350000Y-227743750D01*
G75*
G02*
X234568750Y-227525000I218750J0D01*
G01*
X235006250Y-227525000D01*
G75*
G02*
X235225000Y-227743750I0J-218750D01*
G01*
G37*
%TD.AperFunction*%
%TD*%
%TO.P,D54,1*%
%TO.N,/P8*%
%TA.AperFunction,SMDPad,CuDef*%
G36*
G01*
X258225000Y-227743750D02*
X258225000Y-228256250D01*
G75*
G02*
X258006250Y-228475000I-218750J0D01*
G01*
X257568750Y-228475000D01*
G75*
G02*
X257350000Y-228256250I0J218750D01*
G01*
X257350000Y-227743750D01*
G75*
G02*
X257568750Y-227525000I218750J0D01*
G01*
X258006250Y-227525000D01*
G75*
G02*
X258225000Y-227743750I0J-218750D01*
G01*
G37*
%TD.AperFunction*%
%TO.P,D54,2*%
%TO.N,/P11*%
%TA.AperFunction,SMDPad,CuDef*%
G36*
G01*
X256650000Y-227743750D02*
X256650000Y-228256250D01*
G75*
G02*
X256431250Y-228475000I-218750J0D01*
G01*
X255993750Y-228475000D01*
G75*
G02*
X255775000Y-228256250I0J218750D01*
G01*
X255775000Y-227743750D01*
G75*
G02*
X255993750Y-227525000I218750J0D01*
G01*
X256431250Y-227525000D01*
G75*
G02*
X256650000Y-227743750I0J-218750D01*
G01*
G37*
%TD.AperFunction*%
%TD*%
%TO.P,D55,1*%
%TO.N,/P8*%
%TA.AperFunction,SMDPad,CuDef*%
G36*
G01*
X280437500Y-227743750D02*
X280437500Y-228256250D01*
G75*
G02*
X280218750Y-228475000I-218750J0D01*
G01*
X279781250Y-228475000D01*
G75*
G02*
X279562500Y-228256250I0J218750D01*
G01*
X279562500Y-227743750D01*
G75*
G02*
X279781250Y-227525000I218750J0D01*
G01*
X280218750Y-227525000D01*
G75*
G02*
X280437500Y-227743750I0J-218750D01*
G01*
G37*
%TD.AperFunction*%
%TO.P,D55,2*%
%TO.N,/P12*%
%TA.AperFunction,SMDPad,CuDef*%
G36*
G01*
X278862500Y-227743750D02*
X278862500Y-228256250D01*
G75*
G02*
X278643750Y-228475000I-218750J0D01*
G01*
X278206250Y-228475000D01*
G75*
G02*
X277987500Y-228256250I0J218750D01*
G01*
X277987500Y-227743750D01*
G75*
G02*
X278206250Y-227525000I218750J0D01*
G01*
X278643750Y-227525000D01*
G75*
G02*
X278862500Y-227743750I0J-218750D01*
G01*
G37*
%TD.AperFunction*%
%TD*%
%TO.P,D56,2*%
%TO.N,/P1*%
%TA.AperFunction,SMDPad,CuDef*%
G36*
G01*
X299650000Y-227743750D02*
X299650000Y-228256250D01*
G75*
G02*
X299431250Y-228475000I-218750J0D01*
G01*
X298993750Y-228475000D01*
G75*
G02*
X298775000Y-228256250I0J218750D01*
G01*
X298775000Y-227743750D01*
G75*
G02*
X298993750Y-227525000I218750J0D01*
G01*
X299431250Y-227525000D01*
G75*
G02*
X299650000Y-227743750I0J-218750D01*
G01*
G37*
%TD.AperFunction*%
%TO.P,D56,1*%
%TO.N,/P7*%
%TA.AperFunction,SMDPad,CuDef*%
G36*
G01*
X301225000Y-227743750D02*
X301225000Y-228256250D01*
G75*
G02*
X301006250Y-228475000I-218750J0D01*
G01*
X300568750Y-228475000D01*
G75*
G02*
X300350000Y-228256250I0J218750D01*
G01*
X300350000Y-227743750D01*
G75*
G02*
X300568750Y-227525000I218750J0D01*
G01*
X301006250Y-227525000D01*
G75*
G02*
X301225000Y-227743750I0J-218750D01*
G01*
G37*
%TD.AperFunction*%
%TD*%
%TO.P,D57,1*%
%TO.N,/P7*%
%TA.AperFunction,SMDPad,CuDef*%
G36*
G01*
X320225000Y-227743750D02*
X320225000Y-228256250D01*
G75*
G02*
X320006250Y-228475000I-218750J0D01*
G01*
X319568750Y-228475000D01*
G75*
G02*
X319350000Y-228256250I0J218750D01*
G01*
X319350000Y-227743750D01*
G75*
G02*
X319568750Y-227525000I218750J0D01*
G01*
X320006250Y-227525000D01*
G75*
G02*
X320225000Y-227743750I0J-218750D01*
G01*
G37*
%TD.AperFunction*%
%TO.P,D57,2*%
%TO.N,/P2*%
%TA.AperFunction,SMDPad,CuDef*%
G36*
G01*
X318650000Y-227743750D02*
X318650000Y-228256250D01*
G75*
G02*
X318431250Y-228475000I-218750J0D01*
G01*
X317993750Y-228475000D01*
G75*
G02*
X317775000Y-228256250I0J218750D01*
G01*
X317775000Y-227743750D01*
G75*
G02*
X317993750Y-227525000I218750J0D01*
G01*
X318431250Y-227525000D01*
G75*
G02*
X318650000Y-227743750I0J-218750D01*
G01*
G37*
%TD.AperFunction*%
%TD*%
%TO.P,D58,2*%
%TO.N,/P3*%
%TA.AperFunction,SMDPad,CuDef*%
G36*
G01*
X335862500Y-227743750D02*
X335862500Y-228256250D01*
G75*
G02*
X335643750Y-228475000I-218750J0D01*
G01*
X335206250Y-228475000D01*
G75*
G02*
X334987500Y-228256250I0J218750D01*
G01*
X334987500Y-227743750D01*
G75*
G02*
X335206250Y-227525000I218750J0D01*
G01*
X335643750Y-227525000D01*
G75*
G02*
X335862500Y-227743750I0J-218750D01*
G01*
G37*
%TD.AperFunction*%
%TO.P,D58,1*%
%TO.N,/P7*%
%TA.AperFunction,SMDPad,CuDef*%
G36*
G01*
X337437500Y-227743750D02*
X337437500Y-228256250D01*
G75*
G02*
X337218750Y-228475000I-218750J0D01*
G01*
X336781250Y-228475000D01*
G75*
G02*
X336562500Y-228256250I0J218750D01*
G01*
X336562500Y-227743750D01*
G75*
G02*
X336781250Y-227525000I218750J0D01*
G01*
X337218750Y-227525000D01*
G75*
G02*
X337437500Y-227743750I0J-218750D01*
G01*
G37*
%TD.AperFunction*%
%TD*%
%TO.P,D59,1*%
%TO.N,/P7*%
%TA.AperFunction,SMDPad,CuDef*%
G36*
G01*
X355437500Y-227743750D02*
X355437500Y-228256250D01*
G75*
G02*
X355218750Y-228475000I-218750J0D01*
G01*
X354781250Y-228475000D01*
G75*
G02*
X354562500Y-228256250I0J218750D01*
G01*
X354562500Y-227743750D01*
G75*
G02*
X354781250Y-227525000I218750J0D01*
G01*
X355218750Y-227525000D01*
G75*
G02*
X355437500Y-227743750I0J-218750D01*
G01*
G37*
%TD.AperFunction*%
%TO.P,D59,2*%
%TO.N,/P4*%
%TA.AperFunction,SMDPad,CuDef*%
G36*
G01*
X353862500Y-227743750D02*
X353862500Y-228256250D01*
G75*
G02*
X353643750Y-228475000I-218750J0D01*
G01*
X353206250Y-228475000D01*
G75*
G02*
X352987500Y-228256250I0J218750D01*
G01*
X352987500Y-227743750D01*
G75*
G02*
X353206250Y-227525000I218750J0D01*
G01*
X353643750Y-227525000D01*
G75*
G02*
X353862500Y-227743750I0J-218750D01*
G01*
G37*
%TD.AperFunction*%
%TD*%
%TO.P,D60,2*%
%TO.N,/P5*%
%TA.AperFunction,SMDPad,CuDef*%
G36*
G01*
X370650000Y-227743750D02*
X370650000Y-228256250D01*
G75*
G02*
X370431250Y-228475000I-218750J0D01*
G01*
X369993750Y-228475000D01*
G75*
G02*
X369775000Y-228256250I0J218750D01*
G01*
X369775000Y-227743750D01*
G75*
G02*
X369993750Y-227525000I218750J0D01*
G01*
X370431250Y-227525000D01*
G75*
G02*
X370650000Y-227743750I0J-218750D01*
G01*
G37*
%TD.AperFunction*%
%TO.P,D60,1*%
%TO.N,/P7*%
%TA.AperFunction,SMDPad,CuDef*%
G36*
G01*
X372225000Y-227743750D02*
X372225000Y-228256250D01*
G75*
G02*
X372006250Y-228475000I-218750J0D01*
G01*
X371568750Y-228475000D01*
G75*
G02*
X371350000Y-228256250I0J218750D01*
G01*
X371350000Y-227743750D01*
G75*
G02*
X371568750Y-227525000I218750J0D01*
G01*
X372006250Y-227525000D01*
G75*
G02*
X372225000Y-227743750I0J-218750D01*
G01*
G37*
%TD.AperFunction*%
%TD*%
%TO.P,D61,1*%
%TO.N,/P7*%
%TA.AperFunction,SMDPad,CuDef*%
G36*
G01*
X388225000Y-227743750D02*
X388225000Y-228256250D01*
G75*
G02*
X388006250Y-228475000I-218750J0D01*
G01*
X387568750Y-228475000D01*
G75*
G02*
X387350000Y-228256250I0J218750D01*
G01*
X387350000Y-227743750D01*
G75*
G02*
X387568750Y-227525000I218750J0D01*
G01*
X388006250Y-227525000D01*
G75*
G02*
X388225000Y-227743750I0J-218750D01*
G01*
G37*
%TD.AperFunction*%
%TO.P,D61,2*%
%TO.N,/P6*%
%TA.AperFunction,SMDPad,CuDef*%
G36*
G01*
X386650000Y-227743750D02*
X386650000Y-228256250D01*
G75*
G02*
X386431250Y-228475000I-218750J0D01*
G01*
X385993750Y-228475000D01*
G75*
G02*
X385775000Y-228256250I0J218750D01*
G01*
X385775000Y-227743750D01*
G75*
G02*
X385993750Y-227525000I218750J0D01*
G01*
X386431250Y-227525000D01*
G75*
G02*
X386650000Y-227743750I0J-218750D01*
G01*
G37*
%TD.AperFunction*%
%TD*%
%TO.P,D62,2*%
%TO.N,/P8*%
%TA.AperFunction,SMDPad,CuDef*%
G36*
G01*
X400650000Y-227743750D02*
X400650000Y-228256250D01*
G75*
G02*
X400431250Y-228475000I-218750J0D01*
G01*
X399993750Y-228475000D01*
G75*
G02*
X399775000Y-228256250I0J218750D01*
G01*
X399775000Y-227743750D01*
G75*
G02*
X399993750Y-227525000I218750J0D01*
G01*
X400431250Y-227525000D01*
G75*
G02*
X400650000Y-227743750I0J-218750D01*
G01*
G37*
%TD.AperFunction*%
%TO.P,D62,1*%
%TO.N,/P7*%
%TA.AperFunction,SMDPad,CuDef*%
G36*
G01*
X402225000Y-227743750D02*
X402225000Y-228256250D01*
G75*
G02*
X402006250Y-228475000I-218750J0D01*
G01*
X401568750Y-228475000D01*
G75*
G02*
X401350000Y-228256250I0J218750D01*
G01*
X401350000Y-227743750D01*
G75*
G02*
X401568750Y-227525000I218750J0D01*
G01*
X402006250Y-227525000D01*
G75*
G02*
X402225000Y-227743750I0J-218750D01*
G01*
G37*
%TD.AperFunction*%
%TD*%
%TO.P,D63,2*%
%TO.N,/P9*%
%TA.AperFunction,SMDPad,CuDef*%
G36*
G01*
X413862500Y-227743750D02*
X413862500Y-228256250D01*
G75*
G02*
X413643750Y-228475000I-218750J0D01*
G01*
X413206250Y-228475000D01*
G75*
G02*
X412987500Y-228256250I0J218750D01*
G01*
X412987500Y-227743750D01*
G75*
G02*
X413206250Y-227525000I218750J0D01*
G01*
X413643750Y-227525000D01*
G75*
G02*
X413862500Y-227743750I0J-218750D01*
G01*
G37*
%TD.AperFunction*%
%TO.P,D63,1*%
%TO.N,/P7*%
%TA.AperFunction,SMDPad,CuDef*%
G36*
G01*
X415437500Y-227743750D02*
X415437500Y-228256250D01*
G75*
G02*
X415218750Y-228475000I-218750J0D01*
G01*
X414781250Y-228475000D01*
G75*
G02*
X414562500Y-228256250I0J218750D01*
G01*
X414562500Y-227743750D01*
G75*
G02*
X414781250Y-227525000I218750J0D01*
G01*
X415218750Y-227525000D01*
G75*
G02*
X415437500Y-227743750I0J-218750D01*
G01*
G37*
%TD.AperFunction*%
%TD*%
%TO.P,D64,2*%
%TO.N,/P10*%
%TA.AperFunction,SMDPad,CuDef*%
G36*
G01*
X426862500Y-227743750D02*
X426862500Y-228256250D01*
G75*
G02*
X426643750Y-228475000I-218750J0D01*
G01*
X426206250Y-228475000D01*
G75*
G02*
X425987500Y-228256250I0J218750D01*
G01*
X425987500Y-227743750D01*
G75*
G02*
X426206250Y-227525000I218750J0D01*
G01*
X426643750Y-227525000D01*
G75*
G02*
X426862500Y-227743750I0J-218750D01*
G01*
G37*
%TD.AperFunction*%
%TO.P,D64,1*%
%TO.N,/P7*%
%TA.AperFunction,SMDPad,CuDef*%
G36*
G01*
X428437500Y-227743750D02*
X428437500Y-228256250D01*
G75*
G02*
X428218750Y-228475000I-218750J0D01*
G01*
X427781250Y-228475000D01*
G75*
G02*
X427562500Y-228256250I0J218750D01*
G01*
X427562500Y-227743750D01*
G75*
G02*
X427781250Y-227525000I218750J0D01*
G01*
X428218750Y-227525000D01*
G75*
G02*
X428437500Y-227743750I0J-218750D01*
G01*
G37*
%TD.AperFunction*%
%TD*%
%TO.P,D65,1*%
%TO.N,/P7*%
%TA.AperFunction,SMDPad,CuDef*%
G36*
G01*
X440437500Y-227743750D02*
X440437500Y-228256250D01*
G75*
G02*
X440218750Y-228475000I-218750J0D01*
G01*
X439781250Y-228475000D01*
G75*
G02*
X439562500Y-228256250I0J218750D01*
G01*
X439562500Y-227743750D01*
G75*
G02*
X439781250Y-227525000I218750J0D01*
G01*
X440218750Y-227525000D01*
G75*
G02*
X440437500Y-227743750I0J-218750D01*
G01*
G37*
%TD.AperFunction*%
%TO.P,D65,2*%
%TO.N,/P11*%
%TA.AperFunction,SMDPad,CuDef*%
G36*
G01*
X438862500Y-227743750D02*
X438862500Y-228256250D01*
G75*
G02*
X438643750Y-228475000I-218750J0D01*
G01*
X438206250Y-228475000D01*
G75*
G02*
X437987500Y-228256250I0J218750D01*
G01*
X437987500Y-227743750D01*
G75*
G02*
X438206250Y-227525000I218750J0D01*
G01*
X438643750Y-227525000D01*
G75*
G02*
X438862500Y-227743750I0J-218750D01*
G01*
G37*
%TD.AperFunction*%
%TD*%
%TO.P,D67,1*%
%TO.N,/P6*%
%TA.AperFunction,SMDPad,CuDef*%
G36*
G01*
X8225000Y-236743750D02*
X8225000Y-237256250D01*
G75*
G02*
X8006250Y-237475000I-218750J0D01*
G01*
X7568750Y-237475000D01*
G75*
G02*
X7350000Y-237256250I0J218750D01*
G01*
X7350000Y-236743750D01*
G75*
G02*
X7568750Y-236525000I218750J0D01*
G01*
X8006250Y-236525000D01*
G75*
G02*
X8225000Y-236743750I0J-218750D01*
G01*
G37*
%TD.AperFunction*%
%TO.P,D67,2*%
%TO.N,/P1*%
%TA.AperFunction,SMDPad,CuDef*%
G36*
G01*
X6650000Y-236743750D02*
X6650000Y-237256250D01*
G75*
G02*
X6431250Y-237475000I-218750J0D01*
G01*
X5993750Y-237475000D01*
G75*
G02*
X5775000Y-237256250I0J218750D01*
G01*
X5775000Y-236743750D01*
G75*
G02*
X5993750Y-236525000I218750J0D01*
G01*
X6431250Y-236525000D01*
G75*
G02*
X6650000Y-236743750I0J-218750D01*
G01*
G37*
%TD.AperFunction*%
%TD*%
%TO.P,D68,2*%
%TO.N,/P2*%
%TA.AperFunction,SMDPad,CuDef*%
G36*
G01*
X26862500Y-236743750D02*
X26862500Y-237256250D01*
G75*
G02*
X26643750Y-237475000I-218750J0D01*
G01*
X26206250Y-237475000D01*
G75*
G02*
X25987500Y-237256250I0J218750D01*
G01*
X25987500Y-236743750D01*
G75*
G02*
X26206250Y-236525000I218750J0D01*
G01*
X26643750Y-236525000D01*
G75*
G02*
X26862500Y-236743750I0J-218750D01*
G01*
G37*
%TD.AperFunction*%
%TO.P,D68,1*%
%TO.N,/P6*%
%TA.AperFunction,SMDPad,CuDef*%
G36*
G01*
X28437500Y-236743750D02*
X28437500Y-237256250D01*
G75*
G02*
X28218750Y-237475000I-218750J0D01*
G01*
X27781250Y-237475000D01*
G75*
G02*
X27562500Y-237256250I0J218750D01*
G01*
X27562500Y-236743750D01*
G75*
G02*
X27781250Y-236525000I218750J0D01*
G01*
X28218750Y-236525000D01*
G75*
G02*
X28437500Y-236743750I0J-218750D01*
G01*
G37*
%TD.AperFunction*%
%TD*%
%TO.P,D69,1*%
%TO.N,/P6*%
%TA.AperFunction,SMDPad,CuDef*%
G36*
G01*
X67437500Y-236743750D02*
X67437500Y-237256250D01*
G75*
G02*
X67218750Y-237475000I-218750J0D01*
G01*
X66781250Y-237475000D01*
G75*
G02*
X66562500Y-237256250I0J218750D01*
G01*
X66562500Y-236743750D01*
G75*
G02*
X66781250Y-236525000I218750J0D01*
G01*
X67218750Y-236525000D01*
G75*
G02*
X67437500Y-236743750I0J-218750D01*
G01*
G37*
%TD.AperFunction*%
%TO.P,D69,2*%
%TO.N,/P3*%
%TA.AperFunction,SMDPad,CuDef*%
G36*
G01*
X65862500Y-236743750D02*
X65862500Y-237256250D01*
G75*
G02*
X65643750Y-237475000I-218750J0D01*
G01*
X65206250Y-237475000D01*
G75*
G02*
X64987500Y-237256250I0J218750D01*
G01*
X64987500Y-236743750D01*
G75*
G02*
X65206250Y-236525000I218750J0D01*
G01*
X65643750Y-236525000D01*
G75*
G02*
X65862500Y-236743750I0J-218750D01*
G01*
G37*
%TD.AperFunction*%
%TD*%
%TO.P,D70,2*%
%TO.N,/P4*%
%TA.AperFunction,SMDPad,CuDef*%
G36*
G01*
X99862500Y-236743750D02*
X99862500Y-237256250D01*
G75*
G02*
X99643750Y-237475000I-218750J0D01*
G01*
X99206250Y-237475000D01*
G75*
G02*
X98987500Y-237256250I0J218750D01*
G01*
X98987500Y-236743750D01*
G75*
G02*
X99206250Y-236525000I218750J0D01*
G01*
X99643750Y-236525000D01*
G75*
G02*
X99862500Y-236743750I0J-218750D01*
G01*
G37*
%TD.AperFunction*%
%TO.P,D70,1*%
%TO.N,/P6*%
%TA.AperFunction,SMDPad,CuDef*%
G36*
G01*
X101437500Y-236743750D02*
X101437500Y-237256250D01*
G75*
G02*
X101218750Y-237475000I-218750J0D01*
G01*
X100781250Y-237475000D01*
G75*
G02*
X100562500Y-237256250I0J218750D01*
G01*
X100562500Y-236743750D01*
G75*
G02*
X100781250Y-236525000I218750J0D01*
G01*
X101218750Y-236525000D01*
G75*
G02*
X101437500Y-236743750I0J-218750D01*
G01*
G37*
%TD.AperFunction*%
%TD*%
%TO.P,D71,2*%
%TO.N,/P5*%
%TA.AperFunction,SMDPad,CuDef*%
G36*
G01*
X128862500Y-236743750D02*
X128862500Y-237256250D01*
G75*
G02*
X128643750Y-237475000I-218750J0D01*
G01*
X128206250Y-237475000D01*
G75*
G02*
X127987500Y-237256250I0J218750D01*
G01*
X127987500Y-236743750D01*
G75*
G02*
X128206250Y-236525000I218750J0D01*
G01*
X128643750Y-236525000D01*
G75*
G02*
X128862500Y-236743750I0J-218750D01*
G01*
G37*
%TD.AperFunction*%
%TO.P,D71,1*%
%TO.N,/P6*%
%TA.AperFunction,SMDPad,CuDef*%
G36*
G01*
X130437500Y-236743750D02*
X130437500Y-237256250D01*
G75*
G02*
X130218750Y-237475000I-218750J0D01*
G01*
X129781250Y-237475000D01*
G75*
G02*
X129562500Y-237256250I0J218750D01*
G01*
X129562500Y-236743750D01*
G75*
G02*
X129781250Y-236525000I218750J0D01*
G01*
X130218750Y-236525000D01*
G75*
G02*
X130437500Y-236743750I0J-218750D01*
G01*
G37*
%TD.AperFunction*%
%TD*%
%TO.P,D72,1*%
%TO.N,/P6*%
%TA.AperFunction,SMDPad,CuDef*%
G36*
G01*
X160225000Y-236743750D02*
X160225000Y-237256250D01*
G75*
G02*
X160006250Y-237475000I-218750J0D01*
G01*
X159568750Y-237475000D01*
G75*
G02*
X159350000Y-237256250I0J218750D01*
G01*
X159350000Y-236743750D01*
G75*
G02*
X159568750Y-236525000I218750J0D01*
G01*
X160006250Y-236525000D01*
G75*
G02*
X160225000Y-236743750I0J-218750D01*
G01*
G37*
%TD.AperFunction*%
%TO.P,D72,2*%
%TO.N,/P7*%
%TA.AperFunction,SMDPad,CuDef*%
G36*
G01*
X158650000Y-236743750D02*
X158650000Y-237256250D01*
G75*
G02*
X158431250Y-237475000I-218750J0D01*
G01*
X157993750Y-237475000D01*
G75*
G02*
X157775000Y-237256250I0J218750D01*
G01*
X157775000Y-236743750D01*
G75*
G02*
X157993750Y-236525000I218750J0D01*
G01*
X158431250Y-236525000D01*
G75*
G02*
X158650000Y-236743750I0J-218750D01*
G01*
G37*
%TD.AperFunction*%
%TD*%
%TO.P,D73,2*%
%TO.N,/P8*%
%TA.AperFunction,SMDPad,CuDef*%
G36*
G01*
X184650000Y-236743750D02*
X184650000Y-237256250D01*
G75*
G02*
X184431250Y-237475000I-218750J0D01*
G01*
X183993750Y-237475000D01*
G75*
G02*
X183775000Y-237256250I0J218750D01*
G01*
X183775000Y-236743750D01*
G75*
G02*
X183993750Y-236525000I218750J0D01*
G01*
X184431250Y-236525000D01*
G75*
G02*
X184650000Y-236743750I0J-218750D01*
G01*
G37*
%TD.AperFunction*%
%TO.P,D73,1*%
%TO.N,/P6*%
%TA.AperFunction,SMDPad,CuDef*%
G36*
G01*
X186225000Y-236743750D02*
X186225000Y-237256250D01*
G75*
G02*
X186006250Y-237475000I-218750J0D01*
G01*
X185568750Y-237475000D01*
G75*
G02*
X185350000Y-237256250I0J218750D01*
G01*
X185350000Y-236743750D01*
G75*
G02*
X185568750Y-236525000I218750J0D01*
G01*
X186006250Y-236525000D01*
G75*
G02*
X186225000Y-236743750I0J-218750D01*
G01*
G37*
%TD.AperFunction*%
%TD*%
%TO.P,D74,2*%
%TO.N,/P9*%
%TA.AperFunction,SMDPad,CuDef*%
G36*
G01*
X209862500Y-236743750D02*
X209862500Y-237256250D01*
G75*
G02*
X209643750Y-237475000I-218750J0D01*
G01*
X209206250Y-237475000D01*
G75*
G02*
X208987500Y-237256250I0J218750D01*
G01*
X208987500Y-236743750D01*
G75*
G02*
X209206250Y-236525000I218750J0D01*
G01*
X209643750Y-236525000D01*
G75*
G02*
X209862500Y-236743750I0J-218750D01*
G01*
G37*
%TD.AperFunction*%
%TO.P,D74,1*%
%TO.N,/P6*%
%TA.AperFunction,SMDPad,CuDef*%
G36*
G01*
X211437500Y-236743750D02*
X211437500Y-237256250D01*
G75*
G02*
X211218750Y-237475000I-218750J0D01*
G01*
X210781250Y-237475000D01*
G75*
G02*
X210562500Y-237256250I0J218750D01*
G01*
X210562500Y-236743750D01*
G75*
G02*
X210781250Y-236525000I218750J0D01*
G01*
X211218750Y-236525000D01*
G75*
G02*
X211437500Y-236743750I0J-218750D01*
G01*
G37*
%TD.AperFunction*%
%TD*%
%TO.P,D75,1*%
%TO.N,/P6*%
%TA.AperFunction,SMDPad,CuDef*%
G36*
G01*
X235225000Y-236743750D02*
X235225000Y-237256250D01*
G75*
G02*
X235006250Y-237475000I-218750J0D01*
G01*
X234568750Y-237475000D01*
G75*
G02*
X234350000Y-237256250I0J218750D01*
G01*
X234350000Y-236743750D01*
G75*
G02*
X234568750Y-236525000I218750J0D01*
G01*
X235006250Y-236525000D01*
G75*
G02*
X235225000Y-236743750I0J-218750D01*
G01*
G37*
%TD.AperFunction*%
%TO.P,D75,2*%
%TO.N,/P10*%
%TA.AperFunction,SMDPad,CuDef*%
G36*
G01*
X233650000Y-236743750D02*
X233650000Y-237256250D01*
G75*
G02*
X233431250Y-237475000I-218750J0D01*
G01*
X232993750Y-237475000D01*
G75*
G02*
X232775000Y-237256250I0J218750D01*
G01*
X232775000Y-236743750D01*
G75*
G02*
X232993750Y-236525000I218750J0D01*
G01*
X233431250Y-236525000D01*
G75*
G02*
X233650000Y-236743750I0J-218750D01*
G01*
G37*
%TD.AperFunction*%
%TD*%
%TO.P,D76,2*%
%TO.N,/P11*%
%TA.AperFunction,SMDPad,CuDef*%
G36*
G01*
X256650000Y-236743750D02*
X256650000Y-237256250D01*
G75*
G02*
X256431250Y-237475000I-218750J0D01*
G01*
X255993750Y-237475000D01*
G75*
G02*
X255775000Y-237256250I0J218750D01*
G01*
X255775000Y-236743750D01*
G75*
G02*
X255993750Y-236525000I218750J0D01*
G01*
X256431250Y-236525000D01*
G75*
G02*
X256650000Y-236743750I0J-218750D01*
G01*
G37*
%TD.AperFunction*%
%TO.P,D76,1*%
%TO.N,/P6*%
%TA.AperFunction,SMDPad,CuDef*%
G36*
G01*
X258225000Y-236743750D02*
X258225000Y-237256250D01*
G75*
G02*
X258006250Y-237475000I-218750J0D01*
G01*
X257568750Y-237475000D01*
G75*
G02*
X257350000Y-237256250I0J218750D01*
G01*
X257350000Y-236743750D01*
G75*
G02*
X257568750Y-236525000I218750J0D01*
G01*
X258006250Y-236525000D01*
G75*
G02*
X258225000Y-236743750I0J-218750D01*
G01*
G37*
%TD.AperFunction*%
%TD*%
%TO.P,D77,1*%
%TO.N,/P6*%
%TA.AperFunction,SMDPad,CuDef*%
G36*
G01*
X280437500Y-236743750D02*
X280437500Y-237256250D01*
G75*
G02*
X280218750Y-237475000I-218750J0D01*
G01*
X279781250Y-237475000D01*
G75*
G02*
X279562500Y-237256250I0J218750D01*
G01*
X279562500Y-236743750D01*
G75*
G02*
X279781250Y-236525000I218750J0D01*
G01*
X280218750Y-236525000D01*
G75*
G02*
X280437500Y-236743750I0J-218750D01*
G01*
G37*
%TD.AperFunction*%
%TO.P,D77,2*%
%TO.N,/P12*%
%TA.AperFunction,SMDPad,CuDef*%
G36*
G01*
X278862500Y-236743750D02*
X278862500Y-237256250D01*
G75*
G02*
X278643750Y-237475000I-218750J0D01*
G01*
X278206250Y-237475000D01*
G75*
G02*
X277987500Y-237256250I0J218750D01*
G01*
X277987500Y-236743750D01*
G75*
G02*
X278206250Y-236525000I218750J0D01*
G01*
X278643750Y-236525000D01*
G75*
G02*
X278862500Y-236743750I0J-218750D01*
G01*
G37*
%TD.AperFunction*%
%TD*%
%TO.P,D78,1*%
%TO.N,/P5*%
%TA.AperFunction,SMDPad,CuDef*%
G36*
G01*
X301225000Y-236743750D02*
X301225000Y-237256250D01*
G75*
G02*
X301006250Y-237475000I-218750J0D01*
G01*
X300568750Y-237475000D01*
G75*
G02*
X300350000Y-237256250I0J218750D01*
G01*
X300350000Y-236743750D01*
G75*
G02*
X300568750Y-236525000I218750J0D01*
G01*
X301006250Y-236525000D01*
G75*
G02*
X301225000Y-236743750I0J-218750D01*
G01*
G37*
%TD.AperFunction*%
%TO.P,D78,2*%
%TO.N,/P1*%
%TA.AperFunction,SMDPad,CuDef*%
G36*
G01*
X299650000Y-236743750D02*
X299650000Y-237256250D01*
G75*
G02*
X299431250Y-237475000I-218750J0D01*
G01*
X298993750Y-237475000D01*
G75*
G02*
X298775000Y-237256250I0J218750D01*
G01*
X298775000Y-236743750D01*
G75*
G02*
X298993750Y-236525000I218750J0D01*
G01*
X299431250Y-236525000D01*
G75*
G02*
X299650000Y-236743750I0J-218750D01*
G01*
G37*
%TD.AperFunction*%
%TD*%
%TO.P,D79,2*%
%TO.N,/P2*%
%TA.AperFunction,SMDPad,CuDef*%
G36*
G01*
X318650000Y-236743750D02*
X318650000Y-237256250D01*
G75*
G02*
X318431250Y-237475000I-218750J0D01*
G01*
X317993750Y-237475000D01*
G75*
G02*
X317775000Y-237256250I0J218750D01*
G01*
X317775000Y-236743750D01*
G75*
G02*
X317993750Y-236525000I218750J0D01*
G01*
X318431250Y-236525000D01*
G75*
G02*
X318650000Y-236743750I0J-218750D01*
G01*
G37*
%TD.AperFunction*%
%TO.P,D79,1*%
%TO.N,/P5*%
%TA.AperFunction,SMDPad,CuDef*%
G36*
G01*
X320225000Y-236743750D02*
X320225000Y-237256250D01*
G75*
G02*
X320006250Y-237475000I-218750J0D01*
G01*
X319568750Y-237475000D01*
G75*
G02*
X319350000Y-237256250I0J218750D01*
G01*
X319350000Y-236743750D01*
G75*
G02*
X319568750Y-236525000I218750J0D01*
G01*
X320006250Y-236525000D01*
G75*
G02*
X320225000Y-236743750I0J-218750D01*
G01*
G37*
%TD.AperFunction*%
%TD*%
%TO.P,D80,1*%
%TO.N,/P5*%
%TA.AperFunction,SMDPad,CuDef*%
G36*
G01*
X337437500Y-236743750D02*
X337437500Y-237256250D01*
G75*
G02*
X337218750Y-237475000I-218750J0D01*
G01*
X336781250Y-237475000D01*
G75*
G02*
X336562500Y-237256250I0J218750D01*
G01*
X336562500Y-236743750D01*
G75*
G02*
X336781250Y-236525000I218750J0D01*
G01*
X337218750Y-236525000D01*
G75*
G02*
X337437500Y-236743750I0J-218750D01*
G01*
G37*
%TD.AperFunction*%
%TO.P,D80,2*%
%TO.N,/P3*%
%TA.AperFunction,SMDPad,CuDef*%
G36*
G01*
X335862500Y-236743750D02*
X335862500Y-237256250D01*
G75*
G02*
X335643750Y-237475000I-218750J0D01*
G01*
X335206250Y-237475000D01*
G75*
G02*
X334987500Y-237256250I0J218750D01*
G01*
X334987500Y-236743750D01*
G75*
G02*
X335206250Y-236525000I218750J0D01*
G01*
X335643750Y-236525000D01*
G75*
G02*
X335862500Y-236743750I0J-218750D01*
G01*
G37*
%TD.AperFunction*%
%TD*%
%TO.P,D81,2*%
%TO.N,/P4*%
%TA.AperFunction,SMDPad,CuDef*%
G36*
G01*
X353862500Y-236743750D02*
X353862500Y-237256250D01*
G75*
G02*
X353643750Y-237475000I-218750J0D01*
G01*
X353206250Y-237475000D01*
G75*
G02*
X352987500Y-237256250I0J218750D01*
G01*
X352987500Y-236743750D01*
G75*
G02*
X353206250Y-236525000I218750J0D01*
G01*
X353643750Y-236525000D01*
G75*
G02*
X353862500Y-236743750I0J-218750D01*
G01*
G37*
%TD.AperFunction*%
%TO.P,D81,1*%
%TO.N,/P5*%
%TA.AperFunction,SMDPad,CuDef*%
G36*
G01*
X355437500Y-236743750D02*
X355437500Y-237256250D01*
G75*
G02*
X355218750Y-237475000I-218750J0D01*
G01*
X354781250Y-237475000D01*
G75*
G02*
X354562500Y-237256250I0J218750D01*
G01*
X354562500Y-236743750D01*
G75*
G02*
X354781250Y-236525000I218750J0D01*
G01*
X355218750Y-236525000D01*
G75*
G02*
X355437500Y-236743750I0J-218750D01*
G01*
G37*
%TD.AperFunction*%
%TD*%
%TO.P,D82,1*%
%TO.N,/P5*%
%TA.AperFunction,SMDPad,CuDef*%
G36*
G01*
X372225000Y-236743750D02*
X372225000Y-237256250D01*
G75*
G02*
X372006250Y-237475000I-218750J0D01*
G01*
X371568750Y-237475000D01*
G75*
G02*
X371350000Y-237256250I0J218750D01*
G01*
X371350000Y-236743750D01*
G75*
G02*
X371568750Y-236525000I218750J0D01*
G01*
X372006250Y-236525000D01*
G75*
G02*
X372225000Y-236743750I0J-218750D01*
G01*
G37*
%TD.AperFunction*%
%TO.P,D82,2*%
%TO.N,/P6*%
%TA.AperFunction,SMDPad,CuDef*%
G36*
G01*
X370650000Y-236743750D02*
X370650000Y-237256250D01*
G75*
G02*
X370431250Y-237475000I-218750J0D01*
G01*
X369993750Y-237475000D01*
G75*
G02*
X369775000Y-237256250I0J218750D01*
G01*
X369775000Y-236743750D01*
G75*
G02*
X369993750Y-236525000I218750J0D01*
G01*
X370431250Y-236525000D01*
G75*
G02*
X370650000Y-236743750I0J-218750D01*
G01*
G37*
%TD.AperFunction*%
%TD*%
%TO.P,D83,2*%
%TO.N,/P7*%
%TA.AperFunction,SMDPad,CuDef*%
G36*
G01*
X386650000Y-236743750D02*
X386650000Y-237256250D01*
G75*
G02*
X386431250Y-237475000I-218750J0D01*
G01*
X385993750Y-237475000D01*
G75*
G02*
X385775000Y-237256250I0J218750D01*
G01*
X385775000Y-236743750D01*
G75*
G02*
X385993750Y-236525000I218750J0D01*
G01*
X386431250Y-236525000D01*
G75*
G02*
X386650000Y-236743750I0J-218750D01*
G01*
G37*
%TD.AperFunction*%
%TO.P,D83,1*%
%TO.N,/P5*%
%TA.AperFunction,SMDPad,CuDef*%
G36*
G01*
X388225000Y-236743750D02*
X388225000Y-237256250D01*
G75*
G02*
X388006250Y-237475000I-218750J0D01*
G01*
X387568750Y-237475000D01*
G75*
G02*
X387350000Y-237256250I0J218750D01*
G01*
X387350000Y-236743750D01*
G75*
G02*
X387568750Y-236525000I218750J0D01*
G01*
X388006250Y-236525000D01*
G75*
G02*
X388225000Y-236743750I0J-218750D01*
G01*
G37*
%TD.AperFunction*%
%TD*%
%TO.P,D84,1*%
%TO.N,/P5*%
%TA.AperFunction,SMDPad,CuDef*%
G36*
G01*
X402225000Y-236743750D02*
X402225000Y-237256250D01*
G75*
G02*
X402006250Y-237475000I-218750J0D01*
G01*
X401568750Y-237475000D01*
G75*
G02*
X401350000Y-237256250I0J218750D01*
G01*
X401350000Y-236743750D01*
G75*
G02*
X401568750Y-236525000I218750J0D01*
G01*
X402006250Y-236525000D01*
G75*
G02*
X402225000Y-236743750I0J-218750D01*
G01*
G37*
%TD.AperFunction*%
%TO.P,D84,2*%
%TO.N,/P8*%
%TA.AperFunction,SMDPad,CuDef*%
G36*
G01*
X400650000Y-236743750D02*
X400650000Y-237256250D01*
G75*
G02*
X400431250Y-237475000I-218750J0D01*
G01*
X399993750Y-237475000D01*
G75*
G02*
X399775000Y-237256250I0J218750D01*
G01*
X399775000Y-236743750D01*
G75*
G02*
X399993750Y-236525000I218750J0D01*
G01*
X400431250Y-236525000D01*
G75*
G02*
X400650000Y-236743750I0J-218750D01*
G01*
G37*
%TD.AperFunction*%
%TD*%
%TO.P,D85,2*%
%TO.N,/P9*%
%TA.AperFunction,SMDPad,CuDef*%
G36*
G01*
X413862500Y-236743750D02*
X413862500Y-237256250D01*
G75*
G02*
X413643750Y-237475000I-218750J0D01*
G01*
X413206250Y-237475000D01*
G75*
G02*
X412987500Y-237256250I0J218750D01*
G01*
X412987500Y-236743750D01*
G75*
G02*
X413206250Y-236525000I218750J0D01*
G01*
X413643750Y-236525000D01*
G75*
G02*
X413862500Y-236743750I0J-218750D01*
G01*
G37*
%TD.AperFunction*%
%TO.P,D85,1*%
%TO.N,/P5*%
%TA.AperFunction,SMDPad,CuDef*%
G36*
G01*
X415437500Y-236743750D02*
X415437500Y-237256250D01*
G75*
G02*
X415218750Y-237475000I-218750J0D01*
G01*
X414781250Y-237475000D01*
G75*
G02*
X414562500Y-237256250I0J218750D01*
G01*
X414562500Y-236743750D01*
G75*
G02*
X414781250Y-236525000I218750J0D01*
G01*
X415218750Y-236525000D01*
G75*
G02*
X415437500Y-236743750I0J-218750D01*
G01*
G37*
%TD.AperFunction*%
%TD*%
%TO.P,D86,1*%
%TO.N,/P5*%
%TA.AperFunction,SMDPad,CuDef*%
G36*
G01*
X428437500Y-236743750D02*
X428437500Y-237256250D01*
G75*
G02*
X428218750Y-237475000I-218750J0D01*
G01*
X427781250Y-237475000D01*
G75*
G02*
X427562500Y-237256250I0J218750D01*
G01*
X427562500Y-236743750D01*
G75*
G02*
X427781250Y-236525000I218750J0D01*
G01*
X428218750Y-236525000D01*
G75*
G02*
X428437500Y-236743750I0J-218750D01*
G01*
G37*
%TD.AperFunction*%
%TO.P,D86,2*%
%TO.N,/P10*%
%TA.AperFunction,SMDPad,CuDef*%
G36*
G01*
X426862500Y-236743750D02*
X426862500Y-237256250D01*
G75*
G02*
X426643750Y-237475000I-218750J0D01*
G01*
X426206250Y-237475000D01*
G75*
G02*
X425987500Y-237256250I0J218750D01*
G01*
X425987500Y-236743750D01*
G75*
G02*
X426206250Y-236525000I218750J0D01*
G01*
X426643750Y-236525000D01*
G75*
G02*
X426862500Y-236743750I0J-218750D01*
G01*
G37*
%TD.AperFunction*%
%TD*%
%TO.P,D87,2*%
%TO.N,/P11*%
%TA.AperFunction,SMDPad,CuDef*%
G36*
G01*
X438862500Y-236743750D02*
X438862500Y-237256250D01*
G75*
G02*
X438643750Y-237475000I-218750J0D01*
G01*
X438206250Y-237475000D01*
G75*
G02*
X437987500Y-237256250I0J218750D01*
G01*
X437987500Y-236743750D01*
G75*
G02*
X438206250Y-236525000I218750J0D01*
G01*
X438643750Y-236525000D01*
G75*
G02*
X438862500Y-236743750I0J-218750D01*
G01*
G37*
%TD.AperFunction*%
%TO.P,D87,1*%
%TO.N,/P5*%
%TA.AperFunction,SMDPad,CuDef*%
G36*
G01*
X440437500Y-236743750D02*
X440437500Y-237256250D01*
G75*
G02*
X440218750Y-237475000I-218750J0D01*
G01*
X439781250Y-237475000D01*
G75*
G02*
X439562500Y-237256250I0J218750D01*
G01*
X439562500Y-236743750D01*
G75*
G02*
X439781250Y-236525000I218750J0D01*
G01*
X440218750Y-236525000D01*
G75*
G02*
X440437500Y-236743750I0J-218750D01*
G01*
G37*
%TD.AperFunction*%
%TD*%
%TO.P,D89,2*%
%TO.N,/P1*%
%TA.AperFunction,SMDPad,CuDef*%
G36*
G01*
X6650000Y-245743750D02*
X6650000Y-246256250D01*
G75*
G02*
X6431250Y-246475000I-218750J0D01*
G01*
X5993750Y-246475000D01*
G75*
G02*
X5775000Y-246256250I0J218750D01*
G01*
X5775000Y-245743750D01*
G75*
G02*
X5993750Y-245525000I218750J0D01*
G01*
X6431250Y-245525000D01*
G75*
G02*
X6650000Y-245743750I0J-218750D01*
G01*
G37*
%TD.AperFunction*%
%TO.P,D89,1*%
%TO.N,/P4*%
%TA.AperFunction,SMDPad,CuDef*%
G36*
G01*
X8225000Y-245743750D02*
X8225000Y-246256250D01*
G75*
G02*
X8006250Y-246475000I-218750J0D01*
G01*
X7568750Y-246475000D01*
G75*
G02*
X7350000Y-246256250I0J218750D01*
G01*
X7350000Y-245743750D01*
G75*
G02*
X7568750Y-245525000I218750J0D01*
G01*
X8006250Y-245525000D01*
G75*
G02*
X8225000Y-245743750I0J-218750D01*
G01*
G37*
%TD.AperFunction*%
%TD*%
%TO.P,D90,1*%
%TO.N,/P4*%
%TA.AperFunction,SMDPad,CuDef*%
G36*
G01*
X28437500Y-245743750D02*
X28437500Y-246256250D01*
G75*
G02*
X28218750Y-246475000I-218750J0D01*
G01*
X27781250Y-246475000D01*
G75*
G02*
X27562500Y-246256250I0J218750D01*
G01*
X27562500Y-245743750D01*
G75*
G02*
X27781250Y-245525000I218750J0D01*
G01*
X28218750Y-245525000D01*
G75*
G02*
X28437500Y-245743750I0J-218750D01*
G01*
G37*
%TD.AperFunction*%
%TO.P,D90,2*%
%TO.N,/P2*%
%TA.AperFunction,SMDPad,CuDef*%
G36*
G01*
X26862500Y-245743750D02*
X26862500Y-246256250D01*
G75*
G02*
X26643750Y-246475000I-218750J0D01*
G01*
X26206250Y-246475000D01*
G75*
G02*
X25987500Y-246256250I0J218750D01*
G01*
X25987500Y-245743750D01*
G75*
G02*
X26206250Y-245525000I218750J0D01*
G01*
X26643750Y-245525000D01*
G75*
G02*
X26862500Y-245743750I0J-218750D01*
G01*
G37*
%TD.AperFunction*%
%TD*%
%TO.P,D91,2*%
%TO.N,/P3*%
%TA.AperFunction,SMDPad,CuDef*%
G36*
G01*
X65862500Y-245743750D02*
X65862500Y-246256250D01*
G75*
G02*
X65643750Y-246475000I-218750J0D01*
G01*
X65206250Y-246475000D01*
G75*
G02*
X64987500Y-246256250I0J218750D01*
G01*
X64987500Y-245743750D01*
G75*
G02*
X65206250Y-245525000I218750J0D01*
G01*
X65643750Y-245525000D01*
G75*
G02*
X65862500Y-245743750I0J-218750D01*
G01*
G37*
%TD.AperFunction*%
%TO.P,D91,1*%
%TO.N,/P4*%
%TA.AperFunction,SMDPad,CuDef*%
G36*
G01*
X67437500Y-245743750D02*
X67437500Y-246256250D01*
G75*
G02*
X67218750Y-246475000I-218750J0D01*
G01*
X66781250Y-246475000D01*
G75*
G02*
X66562500Y-246256250I0J218750D01*
G01*
X66562500Y-245743750D01*
G75*
G02*
X66781250Y-245525000I218750J0D01*
G01*
X67218750Y-245525000D01*
G75*
G02*
X67437500Y-245743750I0J-218750D01*
G01*
G37*
%TD.AperFunction*%
%TD*%
%TO.P,D92,1*%
%TO.N,/P4*%
%TA.AperFunction,SMDPad,CuDef*%
G36*
G01*
X101437500Y-245743750D02*
X101437500Y-246256250D01*
G75*
G02*
X101218750Y-246475000I-218750J0D01*
G01*
X100781250Y-246475000D01*
G75*
G02*
X100562500Y-246256250I0J218750D01*
G01*
X100562500Y-245743750D01*
G75*
G02*
X100781250Y-245525000I218750J0D01*
G01*
X101218750Y-245525000D01*
G75*
G02*
X101437500Y-245743750I0J-218750D01*
G01*
G37*
%TD.AperFunction*%
%TO.P,D92,2*%
%TO.N,/P5*%
%TA.AperFunction,SMDPad,CuDef*%
G36*
G01*
X99862500Y-245743750D02*
X99862500Y-246256250D01*
G75*
G02*
X99643750Y-246475000I-218750J0D01*
G01*
X99206250Y-246475000D01*
G75*
G02*
X98987500Y-246256250I0J218750D01*
G01*
X98987500Y-245743750D01*
G75*
G02*
X99206250Y-245525000I218750J0D01*
G01*
X99643750Y-245525000D01*
G75*
G02*
X99862500Y-245743750I0J-218750D01*
G01*
G37*
%TD.AperFunction*%
%TD*%
%TO.P,D93,2*%
%TO.N,/P6*%
%TA.AperFunction,SMDPad,CuDef*%
G36*
G01*
X128862500Y-245743750D02*
X128862500Y-246256250D01*
G75*
G02*
X128643750Y-246475000I-218750J0D01*
G01*
X128206250Y-246475000D01*
G75*
G02*
X127987500Y-246256250I0J218750D01*
G01*
X127987500Y-245743750D01*
G75*
G02*
X128206250Y-245525000I218750J0D01*
G01*
X128643750Y-245525000D01*
G75*
G02*
X128862500Y-245743750I0J-218750D01*
G01*
G37*
%TD.AperFunction*%
%TO.P,D93,1*%
%TO.N,/P4*%
%TA.AperFunction,SMDPad,CuDef*%
G36*
G01*
X130437500Y-245743750D02*
X130437500Y-246256250D01*
G75*
G02*
X130218750Y-246475000I-218750J0D01*
G01*
X129781250Y-246475000D01*
G75*
G02*
X129562500Y-246256250I0J218750D01*
G01*
X129562500Y-245743750D01*
G75*
G02*
X129781250Y-245525000I218750J0D01*
G01*
X130218750Y-245525000D01*
G75*
G02*
X130437500Y-245743750I0J-218750D01*
G01*
G37*
%TD.AperFunction*%
%TD*%
%TO.P,D94,1*%
%TO.N,/P4*%
%TA.AperFunction,SMDPad,CuDef*%
G36*
G01*
X160225000Y-245743750D02*
X160225000Y-246256250D01*
G75*
G02*
X160006250Y-246475000I-218750J0D01*
G01*
X159568750Y-246475000D01*
G75*
G02*
X159350000Y-246256250I0J218750D01*
G01*
X159350000Y-245743750D01*
G75*
G02*
X159568750Y-245525000I218750J0D01*
G01*
X160006250Y-245525000D01*
G75*
G02*
X160225000Y-245743750I0J-218750D01*
G01*
G37*
%TD.AperFunction*%
%TO.P,D94,2*%
%TO.N,/P7*%
%TA.AperFunction,SMDPad,CuDef*%
G36*
G01*
X158650000Y-245743750D02*
X158650000Y-246256250D01*
G75*
G02*
X158431250Y-246475000I-218750J0D01*
G01*
X157993750Y-246475000D01*
G75*
G02*
X157775000Y-246256250I0J218750D01*
G01*
X157775000Y-245743750D01*
G75*
G02*
X157993750Y-245525000I218750J0D01*
G01*
X158431250Y-245525000D01*
G75*
G02*
X158650000Y-245743750I0J-218750D01*
G01*
G37*
%TD.AperFunction*%
%TD*%
%TO.P,D95,2*%
%TO.N,/P8*%
%TA.AperFunction,SMDPad,CuDef*%
G36*
G01*
X184650000Y-245743750D02*
X184650000Y-246256250D01*
G75*
G02*
X184431250Y-246475000I-218750J0D01*
G01*
X183993750Y-246475000D01*
G75*
G02*
X183775000Y-246256250I0J218750D01*
G01*
X183775000Y-245743750D01*
G75*
G02*
X183993750Y-245525000I218750J0D01*
G01*
X184431250Y-245525000D01*
G75*
G02*
X184650000Y-245743750I0J-218750D01*
G01*
G37*
%TD.AperFunction*%
%TO.P,D95,1*%
%TO.N,/P4*%
%TA.AperFunction,SMDPad,CuDef*%
G36*
G01*
X186225000Y-245743750D02*
X186225000Y-246256250D01*
G75*
G02*
X186006250Y-246475000I-218750J0D01*
G01*
X185568750Y-246475000D01*
G75*
G02*
X185350000Y-246256250I0J218750D01*
G01*
X185350000Y-245743750D01*
G75*
G02*
X185568750Y-245525000I218750J0D01*
G01*
X186006250Y-245525000D01*
G75*
G02*
X186225000Y-245743750I0J-218750D01*
G01*
G37*
%TD.AperFunction*%
%TD*%
%TO.P,D96,1*%
%TO.N,/P4*%
%TA.AperFunction,SMDPad,CuDef*%
G36*
G01*
X211437500Y-245743750D02*
X211437500Y-246256250D01*
G75*
G02*
X211218750Y-246475000I-218750J0D01*
G01*
X210781250Y-246475000D01*
G75*
G02*
X210562500Y-246256250I0J218750D01*
G01*
X210562500Y-245743750D01*
G75*
G02*
X210781250Y-245525000I218750J0D01*
G01*
X211218750Y-245525000D01*
G75*
G02*
X211437500Y-245743750I0J-218750D01*
G01*
G37*
%TD.AperFunction*%
%TO.P,D96,2*%
%TO.N,/P9*%
%TA.AperFunction,SMDPad,CuDef*%
G36*
G01*
X209862500Y-245743750D02*
X209862500Y-246256250D01*
G75*
G02*
X209643750Y-246475000I-218750J0D01*
G01*
X209206250Y-246475000D01*
G75*
G02*
X208987500Y-246256250I0J218750D01*
G01*
X208987500Y-245743750D01*
G75*
G02*
X209206250Y-245525000I218750J0D01*
G01*
X209643750Y-245525000D01*
G75*
G02*
X209862500Y-245743750I0J-218750D01*
G01*
G37*
%TD.AperFunction*%
%TD*%
%TO.P,D97,2*%
%TO.N,/P10*%
%TA.AperFunction,SMDPad,CuDef*%
G36*
G01*
X233650000Y-245743750D02*
X233650000Y-246256250D01*
G75*
G02*
X233431250Y-246475000I-218750J0D01*
G01*
X232993750Y-246475000D01*
G75*
G02*
X232775000Y-246256250I0J218750D01*
G01*
X232775000Y-245743750D01*
G75*
G02*
X232993750Y-245525000I218750J0D01*
G01*
X233431250Y-245525000D01*
G75*
G02*
X233650000Y-245743750I0J-218750D01*
G01*
G37*
%TD.AperFunction*%
%TO.P,D97,1*%
%TO.N,/P4*%
%TA.AperFunction,SMDPad,CuDef*%
G36*
G01*
X235225000Y-245743750D02*
X235225000Y-246256250D01*
G75*
G02*
X235006250Y-246475000I-218750J0D01*
G01*
X234568750Y-246475000D01*
G75*
G02*
X234350000Y-246256250I0J218750D01*
G01*
X234350000Y-245743750D01*
G75*
G02*
X234568750Y-245525000I218750J0D01*
G01*
X235006250Y-245525000D01*
G75*
G02*
X235225000Y-245743750I0J-218750D01*
G01*
G37*
%TD.AperFunction*%
%TD*%
%TO.P,D98,1*%
%TO.N,/P4*%
%TA.AperFunction,SMDPad,CuDef*%
G36*
G01*
X258225000Y-245743750D02*
X258225000Y-246256250D01*
G75*
G02*
X258006250Y-246475000I-218750J0D01*
G01*
X257568750Y-246475000D01*
G75*
G02*
X257350000Y-246256250I0J218750D01*
G01*
X257350000Y-245743750D01*
G75*
G02*
X257568750Y-245525000I218750J0D01*
G01*
X258006250Y-245525000D01*
G75*
G02*
X258225000Y-245743750I0J-218750D01*
G01*
G37*
%TD.AperFunction*%
%TO.P,D98,2*%
%TO.N,/P11*%
%TA.AperFunction,SMDPad,CuDef*%
G36*
G01*
X256650000Y-245743750D02*
X256650000Y-246256250D01*
G75*
G02*
X256431250Y-246475000I-218750J0D01*
G01*
X255993750Y-246475000D01*
G75*
G02*
X255775000Y-246256250I0J218750D01*
G01*
X255775000Y-245743750D01*
G75*
G02*
X255993750Y-245525000I218750J0D01*
G01*
X256431250Y-245525000D01*
G75*
G02*
X256650000Y-245743750I0J-218750D01*
G01*
G37*
%TD.AperFunction*%
%TD*%
%TO.P,D99,2*%
%TO.N,/P12*%
%TA.AperFunction,SMDPad,CuDef*%
G36*
G01*
X278862500Y-245743750D02*
X278862500Y-246256250D01*
G75*
G02*
X278643750Y-246475000I-218750J0D01*
G01*
X278206250Y-246475000D01*
G75*
G02*
X277987500Y-246256250I0J218750D01*
G01*
X277987500Y-245743750D01*
G75*
G02*
X278206250Y-245525000I218750J0D01*
G01*
X278643750Y-245525000D01*
G75*
G02*
X278862500Y-245743750I0J-218750D01*
G01*
G37*
%TD.AperFunction*%
%TO.P,D99,1*%
%TO.N,/P4*%
%TA.AperFunction,SMDPad,CuDef*%
G36*
G01*
X280437500Y-245743750D02*
X280437500Y-246256250D01*
G75*
G02*
X280218750Y-246475000I-218750J0D01*
G01*
X279781250Y-246475000D01*
G75*
G02*
X279562500Y-246256250I0J218750D01*
G01*
X279562500Y-245743750D01*
G75*
G02*
X279781250Y-245525000I218750J0D01*
G01*
X280218750Y-245525000D01*
G75*
G02*
X280437500Y-245743750I0J-218750D01*
G01*
G37*
%TD.AperFunction*%
%TD*%
%TO.P,D100,1*%
%TO.N,/P3*%
%TA.AperFunction,SMDPad,CuDef*%
G36*
G01*
X301225000Y-245743750D02*
X301225000Y-246256250D01*
G75*
G02*
X301006250Y-246475000I-218750J0D01*
G01*
X300568750Y-246475000D01*
G75*
G02*
X300350000Y-246256250I0J218750D01*
G01*
X300350000Y-245743750D01*
G75*
G02*
X300568750Y-245525000I218750J0D01*
G01*
X301006250Y-245525000D01*
G75*
G02*
X301225000Y-245743750I0J-218750D01*
G01*
G37*
%TD.AperFunction*%
%TO.P,D100,2*%
%TO.N,/P1*%
%TA.AperFunction,SMDPad,CuDef*%
G36*
G01*
X299650000Y-245743750D02*
X299650000Y-246256250D01*
G75*
G02*
X299431250Y-246475000I-218750J0D01*
G01*
X298993750Y-246475000D01*
G75*
G02*
X298775000Y-246256250I0J218750D01*
G01*
X298775000Y-245743750D01*
G75*
G02*
X298993750Y-245525000I218750J0D01*
G01*
X299431250Y-245525000D01*
G75*
G02*
X299650000Y-245743750I0J-218750D01*
G01*
G37*
%TD.AperFunction*%
%TD*%
%TO.P,D101,2*%
%TO.N,/P2*%
%TA.AperFunction,SMDPad,CuDef*%
G36*
G01*
X318650000Y-245743750D02*
X318650000Y-246256250D01*
G75*
G02*
X318431250Y-246475000I-218750J0D01*
G01*
X317993750Y-246475000D01*
G75*
G02*
X317775000Y-246256250I0J218750D01*
G01*
X317775000Y-245743750D01*
G75*
G02*
X317993750Y-245525000I218750J0D01*
G01*
X318431250Y-245525000D01*
G75*
G02*
X318650000Y-245743750I0J-218750D01*
G01*
G37*
%TD.AperFunction*%
%TO.P,D101,1*%
%TO.N,/P3*%
%TA.AperFunction,SMDPad,CuDef*%
G36*
G01*
X320225000Y-245743750D02*
X320225000Y-246256250D01*
G75*
G02*
X320006250Y-246475000I-218750J0D01*
G01*
X319568750Y-246475000D01*
G75*
G02*
X319350000Y-246256250I0J218750D01*
G01*
X319350000Y-245743750D01*
G75*
G02*
X319568750Y-245525000I218750J0D01*
G01*
X320006250Y-245525000D01*
G75*
G02*
X320225000Y-245743750I0J-218750D01*
G01*
G37*
%TD.AperFunction*%
%TD*%
%TO.P,D102,1*%
%TO.N,/P3*%
%TA.AperFunction,SMDPad,CuDef*%
G36*
G01*
X337437500Y-245743750D02*
X337437500Y-246256250D01*
G75*
G02*
X337218750Y-246475000I-218750J0D01*
G01*
X336781250Y-246475000D01*
G75*
G02*
X336562500Y-246256250I0J218750D01*
G01*
X336562500Y-245743750D01*
G75*
G02*
X336781250Y-245525000I218750J0D01*
G01*
X337218750Y-245525000D01*
G75*
G02*
X337437500Y-245743750I0J-218750D01*
G01*
G37*
%TD.AperFunction*%
%TO.P,D102,2*%
%TO.N,/P4*%
%TA.AperFunction,SMDPad,CuDef*%
G36*
G01*
X335862500Y-245743750D02*
X335862500Y-246256250D01*
G75*
G02*
X335643750Y-246475000I-218750J0D01*
G01*
X335206250Y-246475000D01*
G75*
G02*
X334987500Y-246256250I0J218750D01*
G01*
X334987500Y-245743750D01*
G75*
G02*
X335206250Y-245525000I218750J0D01*
G01*
X335643750Y-245525000D01*
G75*
G02*
X335862500Y-245743750I0J-218750D01*
G01*
G37*
%TD.AperFunction*%
%TD*%
%TO.P,D103,2*%
%TO.N,/P5*%
%TA.AperFunction,SMDPad,CuDef*%
G36*
G01*
X353862500Y-245743750D02*
X353862500Y-246256250D01*
G75*
G02*
X353643750Y-246475000I-218750J0D01*
G01*
X353206250Y-246475000D01*
G75*
G02*
X352987500Y-246256250I0J218750D01*
G01*
X352987500Y-245743750D01*
G75*
G02*
X353206250Y-245525000I218750J0D01*
G01*
X353643750Y-245525000D01*
G75*
G02*
X353862500Y-245743750I0J-218750D01*
G01*
G37*
%TD.AperFunction*%
%TO.P,D103,1*%
%TO.N,/P3*%
%TA.AperFunction,SMDPad,CuDef*%
G36*
G01*
X355437500Y-245743750D02*
X355437500Y-246256250D01*
G75*
G02*
X355218750Y-246475000I-218750J0D01*
G01*
X354781250Y-246475000D01*
G75*
G02*
X354562500Y-246256250I0J218750D01*
G01*
X354562500Y-245743750D01*
G75*
G02*
X354781250Y-245525000I218750J0D01*
G01*
X355218750Y-245525000D01*
G75*
G02*
X355437500Y-245743750I0J-218750D01*
G01*
G37*
%TD.AperFunction*%
%TD*%
%TO.P,D104,2*%
%TO.N,/P6*%
%TA.AperFunction,SMDPad,CuDef*%
G36*
G01*
X370650000Y-245743750D02*
X370650000Y-246256250D01*
G75*
G02*
X370431250Y-246475000I-218750J0D01*
G01*
X369993750Y-246475000D01*
G75*
G02*
X369775000Y-246256250I0J218750D01*
G01*
X369775000Y-245743750D01*
G75*
G02*
X369993750Y-245525000I218750J0D01*
G01*
X370431250Y-245525000D01*
G75*
G02*
X370650000Y-245743750I0J-218750D01*
G01*
G37*
%TD.AperFunction*%
%TO.P,D104,1*%
%TO.N,/P3*%
%TA.AperFunction,SMDPad,CuDef*%
G36*
G01*
X372225000Y-245743750D02*
X372225000Y-246256250D01*
G75*
G02*
X372006250Y-246475000I-218750J0D01*
G01*
X371568750Y-246475000D01*
G75*
G02*
X371350000Y-246256250I0J218750D01*
G01*
X371350000Y-245743750D01*
G75*
G02*
X371568750Y-245525000I218750J0D01*
G01*
X372006250Y-245525000D01*
G75*
G02*
X372225000Y-245743750I0J-218750D01*
G01*
G37*
%TD.AperFunction*%
%TD*%
%TO.P,D105,1*%
%TO.N,/P3*%
%TA.AperFunction,SMDPad,CuDef*%
G36*
G01*
X388225000Y-245743750D02*
X388225000Y-246256250D01*
G75*
G02*
X388006250Y-246475000I-218750J0D01*
G01*
X387568750Y-246475000D01*
G75*
G02*
X387350000Y-246256250I0J218750D01*
G01*
X387350000Y-245743750D01*
G75*
G02*
X387568750Y-245525000I218750J0D01*
G01*
X388006250Y-245525000D01*
G75*
G02*
X388225000Y-245743750I0J-218750D01*
G01*
G37*
%TD.AperFunction*%
%TO.P,D105,2*%
%TO.N,/P7*%
%TA.AperFunction,SMDPad,CuDef*%
G36*
G01*
X386650000Y-245743750D02*
X386650000Y-246256250D01*
G75*
G02*
X386431250Y-246475000I-218750J0D01*
G01*
X385993750Y-246475000D01*
G75*
G02*
X385775000Y-246256250I0J218750D01*
G01*
X385775000Y-245743750D01*
G75*
G02*
X385993750Y-245525000I218750J0D01*
G01*
X386431250Y-245525000D01*
G75*
G02*
X386650000Y-245743750I0J-218750D01*
G01*
G37*
%TD.AperFunction*%
%TD*%
%TO.P,D106,1*%
%TO.N,/P3*%
%TA.AperFunction,SMDPad,CuDef*%
G36*
G01*
X402225000Y-245743750D02*
X402225000Y-246256250D01*
G75*
G02*
X402006250Y-246475000I-218750J0D01*
G01*
X401568750Y-246475000D01*
G75*
G02*
X401350000Y-246256250I0J218750D01*
G01*
X401350000Y-245743750D01*
G75*
G02*
X401568750Y-245525000I218750J0D01*
G01*
X402006250Y-245525000D01*
G75*
G02*
X402225000Y-245743750I0J-218750D01*
G01*
G37*
%TD.AperFunction*%
%TO.P,D106,2*%
%TO.N,/P8*%
%TA.AperFunction,SMDPad,CuDef*%
G36*
G01*
X400650000Y-245743750D02*
X400650000Y-246256250D01*
G75*
G02*
X400431250Y-246475000I-218750J0D01*
G01*
X399993750Y-246475000D01*
G75*
G02*
X399775000Y-246256250I0J218750D01*
G01*
X399775000Y-245743750D01*
G75*
G02*
X399993750Y-245525000I218750J0D01*
G01*
X400431250Y-245525000D01*
G75*
G02*
X400650000Y-245743750I0J-218750D01*
G01*
G37*
%TD.AperFunction*%
%TD*%
%TO.P,D107,1*%
%TO.N,/P3*%
%TA.AperFunction,SMDPad,CuDef*%
G36*
G01*
X415437500Y-245743750D02*
X415437500Y-246256250D01*
G75*
G02*
X415218750Y-246475000I-218750J0D01*
G01*
X414781250Y-246475000D01*
G75*
G02*
X414562500Y-246256250I0J218750D01*
G01*
X414562500Y-245743750D01*
G75*
G02*
X414781250Y-245525000I218750J0D01*
G01*
X415218750Y-245525000D01*
G75*
G02*
X415437500Y-245743750I0J-218750D01*
G01*
G37*
%TD.AperFunction*%
%TO.P,D107,2*%
%TO.N,/P9*%
%TA.AperFunction,SMDPad,CuDef*%
G36*
G01*
X413862500Y-245743750D02*
X413862500Y-246256250D01*
G75*
G02*
X413643750Y-246475000I-218750J0D01*
G01*
X413206250Y-246475000D01*
G75*
G02*
X412987500Y-246256250I0J218750D01*
G01*
X412987500Y-245743750D01*
G75*
G02*
X413206250Y-245525000I218750J0D01*
G01*
X413643750Y-245525000D01*
G75*
G02*
X413862500Y-245743750I0J-218750D01*
G01*
G37*
%TD.AperFunction*%
%TD*%
%TO.P,D108,2*%
%TO.N,/P10*%
%TA.AperFunction,SMDPad,CuDef*%
G36*
G01*
X426862500Y-245743750D02*
X426862500Y-246256250D01*
G75*
G02*
X426643750Y-246475000I-218750J0D01*
G01*
X426206250Y-246475000D01*
G75*
G02*
X425987500Y-246256250I0J218750D01*
G01*
X425987500Y-245743750D01*
G75*
G02*
X426206250Y-245525000I218750J0D01*
G01*
X426643750Y-245525000D01*
G75*
G02*
X426862500Y-245743750I0J-218750D01*
G01*
G37*
%TD.AperFunction*%
%TO.P,D108,1*%
%TO.N,/P3*%
%TA.AperFunction,SMDPad,CuDef*%
G36*
G01*
X428437500Y-245743750D02*
X428437500Y-246256250D01*
G75*
G02*
X428218750Y-246475000I-218750J0D01*
G01*
X427781250Y-246475000D01*
G75*
G02*
X427562500Y-246256250I0J218750D01*
G01*
X427562500Y-245743750D01*
G75*
G02*
X427781250Y-245525000I218750J0D01*
G01*
X428218750Y-245525000D01*
G75*
G02*
X428437500Y-245743750I0J-218750D01*
G01*
G37*
%TD.AperFunction*%
%TD*%
%TO.P,D109,1*%
%TO.N,/P3*%
%TA.AperFunction,SMDPad,CuDef*%
G36*
G01*
X440437500Y-245743750D02*
X440437500Y-246256250D01*
G75*
G02*
X440218750Y-246475000I-218750J0D01*
G01*
X439781250Y-246475000D01*
G75*
G02*
X439562500Y-246256250I0J218750D01*
G01*
X439562500Y-245743750D01*
G75*
G02*
X439781250Y-245525000I218750J0D01*
G01*
X440218750Y-245525000D01*
G75*
G02*
X440437500Y-245743750I0J-218750D01*
G01*
G37*
%TD.AperFunction*%
%TO.P,D109,2*%
%TO.N,/P11*%
%TA.AperFunction,SMDPad,CuDef*%
G36*
G01*
X438862500Y-245743750D02*
X438862500Y-246256250D01*
G75*
G02*
X438643750Y-246475000I-218750J0D01*
G01*
X438206250Y-246475000D01*
G75*
G02*
X437987500Y-246256250I0J218750D01*
G01*
X437987500Y-245743750D01*
G75*
G02*
X438206250Y-245525000I218750J0D01*
G01*
X438643750Y-245525000D01*
G75*
G02*
X438862500Y-245743750I0J-218750D01*
G01*
G37*
%TD.AperFunction*%
%TD*%
%TO.P,D111,1*%
%TO.N,/P2*%
%TA.AperFunction,SMDPad,CuDef*%
G36*
G01*
X8225000Y-254743750D02*
X8225000Y-255256250D01*
G75*
G02*
X8006250Y-255475000I-218750J0D01*
G01*
X7568750Y-255475000D01*
G75*
G02*
X7350000Y-255256250I0J218750D01*
G01*
X7350000Y-254743750D01*
G75*
G02*
X7568750Y-254525000I218750J0D01*
G01*
X8006250Y-254525000D01*
G75*
G02*
X8225000Y-254743750I0J-218750D01*
G01*
G37*
%TD.AperFunction*%
%TO.P,D111,2*%
%TO.N,/P1*%
%TA.AperFunction,SMDPad,CuDef*%
G36*
G01*
X6650000Y-254743750D02*
X6650000Y-255256250D01*
G75*
G02*
X6431250Y-255475000I-218750J0D01*
G01*
X5993750Y-255475000D01*
G75*
G02*
X5775000Y-255256250I0J218750D01*
G01*
X5775000Y-254743750D01*
G75*
G02*
X5993750Y-254525000I218750J0D01*
G01*
X6431250Y-254525000D01*
G75*
G02*
X6650000Y-254743750I0J-218750D01*
G01*
G37*
%TD.AperFunction*%
%TD*%
%TO.P,D112,2*%
%TO.N,/P3*%
%TA.AperFunction,SMDPad,CuDef*%
G36*
G01*
X26862500Y-254743750D02*
X26862500Y-255256250D01*
G75*
G02*
X26643750Y-255475000I-218750J0D01*
G01*
X26206250Y-255475000D01*
G75*
G02*
X25987500Y-255256250I0J218750D01*
G01*
X25987500Y-254743750D01*
G75*
G02*
X26206250Y-254525000I218750J0D01*
G01*
X26643750Y-254525000D01*
G75*
G02*
X26862500Y-254743750I0J-218750D01*
G01*
G37*
%TD.AperFunction*%
%TO.P,D112,1*%
%TO.N,/P2*%
%TA.AperFunction,SMDPad,CuDef*%
G36*
G01*
X28437500Y-254743750D02*
X28437500Y-255256250D01*
G75*
G02*
X28218750Y-255475000I-218750J0D01*
G01*
X27781250Y-255475000D01*
G75*
G02*
X27562500Y-255256250I0J218750D01*
G01*
X27562500Y-254743750D01*
G75*
G02*
X27781250Y-254525000I218750J0D01*
G01*
X28218750Y-254525000D01*
G75*
G02*
X28437500Y-254743750I0J-218750D01*
G01*
G37*
%TD.AperFunction*%
%TD*%
%TO.P,D113,1*%
%TO.N,/P2*%
%TA.AperFunction,SMDPad,CuDef*%
G36*
G01*
X67437500Y-254743750D02*
X67437500Y-255256250D01*
G75*
G02*
X67218750Y-255475000I-218750J0D01*
G01*
X66781250Y-255475000D01*
G75*
G02*
X66562500Y-255256250I0J218750D01*
G01*
X66562500Y-254743750D01*
G75*
G02*
X66781250Y-254525000I218750J0D01*
G01*
X67218750Y-254525000D01*
G75*
G02*
X67437500Y-254743750I0J-218750D01*
G01*
G37*
%TD.AperFunction*%
%TO.P,D113,2*%
%TO.N,/P4*%
%TA.AperFunction,SMDPad,CuDef*%
G36*
G01*
X65862500Y-254743750D02*
X65862500Y-255256250D01*
G75*
G02*
X65643750Y-255475000I-218750J0D01*
G01*
X65206250Y-255475000D01*
G75*
G02*
X64987500Y-255256250I0J218750D01*
G01*
X64987500Y-254743750D01*
G75*
G02*
X65206250Y-254525000I218750J0D01*
G01*
X65643750Y-254525000D01*
G75*
G02*
X65862500Y-254743750I0J-218750D01*
G01*
G37*
%TD.AperFunction*%
%TD*%
%TO.P,D114,2*%
%TO.N,/P5*%
%TA.AperFunction,SMDPad,CuDef*%
G36*
G01*
X99862500Y-254743750D02*
X99862500Y-255256250D01*
G75*
G02*
X99643750Y-255475000I-218750J0D01*
G01*
X99206250Y-255475000D01*
G75*
G02*
X98987500Y-255256250I0J218750D01*
G01*
X98987500Y-254743750D01*
G75*
G02*
X99206250Y-254525000I218750J0D01*
G01*
X99643750Y-254525000D01*
G75*
G02*
X99862500Y-254743750I0J-218750D01*
G01*
G37*
%TD.AperFunction*%
%TO.P,D114,1*%
%TO.N,/P2*%
%TA.AperFunction,SMDPad,CuDef*%
G36*
G01*
X101437500Y-254743750D02*
X101437500Y-255256250D01*
G75*
G02*
X101218750Y-255475000I-218750J0D01*
G01*
X100781250Y-255475000D01*
G75*
G02*
X100562500Y-255256250I0J218750D01*
G01*
X100562500Y-254743750D01*
G75*
G02*
X100781250Y-254525000I218750J0D01*
G01*
X101218750Y-254525000D01*
G75*
G02*
X101437500Y-254743750I0J-218750D01*
G01*
G37*
%TD.AperFunction*%
%TD*%
%TO.P,D115,1*%
%TO.N,/P2*%
%TA.AperFunction,SMDPad,CuDef*%
G36*
G01*
X130437500Y-254743750D02*
X130437500Y-255256250D01*
G75*
G02*
X130218750Y-255475000I-218750J0D01*
G01*
X129781250Y-255475000D01*
G75*
G02*
X129562500Y-255256250I0J218750D01*
G01*
X129562500Y-254743750D01*
G75*
G02*
X129781250Y-254525000I218750J0D01*
G01*
X130218750Y-254525000D01*
G75*
G02*
X130437500Y-254743750I0J-218750D01*
G01*
G37*
%TD.AperFunction*%
%TO.P,D115,2*%
%TO.N,/P6*%
%TA.AperFunction,SMDPad,CuDef*%
G36*
G01*
X128862500Y-254743750D02*
X128862500Y-255256250D01*
G75*
G02*
X128643750Y-255475000I-218750J0D01*
G01*
X128206250Y-255475000D01*
G75*
G02*
X127987500Y-255256250I0J218750D01*
G01*
X127987500Y-254743750D01*
G75*
G02*
X128206250Y-254525000I218750J0D01*
G01*
X128643750Y-254525000D01*
G75*
G02*
X128862500Y-254743750I0J-218750D01*
G01*
G37*
%TD.AperFunction*%
%TD*%
%TO.P,D116,2*%
%TO.N,/P7*%
%TA.AperFunction,SMDPad,CuDef*%
G36*
G01*
X158650000Y-254743750D02*
X158650000Y-255256250D01*
G75*
G02*
X158431250Y-255475000I-218750J0D01*
G01*
X157993750Y-255475000D01*
G75*
G02*
X157775000Y-255256250I0J218750D01*
G01*
X157775000Y-254743750D01*
G75*
G02*
X157993750Y-254525000I218750J0D01*
G01*
X158431250Y-254525000D01*
G75*
G02*
X158650000Y-254743750I0J-218750D01*
G01*
G37*
%TD.AperFunction*%
%TO.P,D116,1*%
%TO.N,/P2*%
%TA.AperFunction,SMDPad,CuDef*%
G36*
G01*
X160225000Y-254743750D02*
X160225000Y-255256250D01*
G75*
G02*
X160006250Y-255475000I-218750J0D01*
G01*
X159568750Y-255475000D01*
G75*
G02*
X159350000Y-255256250I0J218750D01*
G01*
X159350000Y-254743750D01*
G75*
G02*
X159568750Y-254525000I218750J0D01*
G01*
X160006250Y-254525000D01*
G75*
G02*
X160225000Y-254743750I0J-218750D01*
G01*
G37*
%TD.AperFunction*%
%TD*%
%TO.P,D117,1*%
%TO.N,/P2*%
%TA.AperFunction,SMDPad,CuDef*%
G36*
G01*
X186225000Y-254743750D02*
X186225000Y-255256250D01*
G75*
G02*
X186006250Y-255475000I-218750J0D01*
G01*
X185568750Y-255475000D01*
G75*
G02*
X185350000Y-255256250I0J218750D01*
G01*
X185350000Y-254743750D01*
G75*
G02*
X185568750Y-254525000I218750J0D01*
G01*
X186006250Y-254525000D01*
G75*
G02*
X186225000Y-254743750I0J-218750D01*
G01*
G37*
%TD.AperFunction*%
%TO.P,D117,2*%
%TO.N,/P8*%
%TA.AperFunction,SMDPad,CuDef*%
G36*
G01*
X184650000Y-254743750D02*
X184650000Y-255256250D01*
G75*
G02*
X184431250Y-255475000I-218750J0D01*
G01*
X183993750Y-255475000D01*
G75*
G02*
X183775000Y-255256250I0J218750D01*
G01*
X183775000Y-254743750D01*
G75*
G02*
X183993750Y-254525000I218750J0D01*
G01*
X184431250Y-254525000D01*
G75*
G02*
X184650000Y-254743750I0J-218750D01*
G01*
G37*
%TD.AperFunction*%
%TD*%
%TO.P,D118,2*%
%TO.N,/P9*%
%TA.AperFunction,SMDPad,CuDef*%
G36*
G01*
X209862500Y-254743750D02*
X209862500Y-255256250D01*
G75*
G02*
X209643750Y-255475000I-218750J0D01*
G01*
X209206250Y-255475000D01*
G75*
G02*
X208987500Y-255256250I0J218750D01*
G01*
X208987500Y-254743750D01*
G75*
G02*
X209206250Y-254525000I218750J0D01*
G01*
X209643750Y-254525000D01*
G75*
G02*
X209862500Y-254743750I0J-218750D01*
G01*
G37*
%TD.AperFunction*%
%TO.P,D118,1*%
%TO.N,/P2*%
%TA.AperFunction,SMDPad,CuDef*%
G36*
G01*
X211437500Y-254743750D02*
X211437500Y-255256250D01*
G75*
G02*
X211218750Y-255475000I-218750J0D01*
G01*
X210781250Y-255475000D01*
G75*
G02*
X210562500Y-255256250I0J218750D01*
G01*
X210562500Y-254743750D01*
G75*
G02*
X210781250Y-254525000I218750J0D01*
G01*
X211218750Y-254525000D01*
G75*
G02*
X211437500Y-254743750I0J-218750D01*
G01*
G37*
%TD.AperFunction*%
%TD*%
%TO.P,D119,1*%
%TO.N,/P2*%
%TA.AperFunction,SMDPad,CuDef*%
G36*
G01*
X235225000Y-254743750D02*
X235225000Y-255256250D01*
G75*
G02*
X235006250Y-255475000I-218750J0D01*
G01*
X234568750Y-255475000D01*
G75*
G02*
X234350000Y-255256250I0J218750D01*
G01*
X234350000Y-254743750D01*
G75*
G02*
X234568750Y-254525000I218750J0D01*
G01*
X235006250Y-254525000D01*
G75*
G02*
X235225000Y-254743750I0J-218750D01*
G01*
G37*
%TD.AperFunction*%
%TO.P,D119,2*%
%TO.N,/P10*%
%TA.AperFunction,SMDPad,CuDef*%
G36*
G01*
X233650000Y-254743750D02*
X233650000Y-255256250D01*
G75*
G02*
X233431250Y-255475000I-218750J0D01*
G01*
X232993750Y-255475000D01*
G75*
G02*
X232775000Y-255256250I0J218750D01*
G01*
X232775000Y-254743750D01*
G75*
G02*
X232993750Y-254525000I218750J0D01*
G01*
X233431250Y-254525000D01*
G75*
G02*
X233650000Y-254743750I0J-218750D01*
G01*
G37*
%TD.AperFunction*%
%TD*%
%TO.P,D120,2*%
%TO.N,/P11*%
%TA.AperFunction,SMDPad,CuDef*%
G36*
G01*
X256650000Y-254743750D02*
X256650000Y-255256250D01*
G75*
G02*
X256431250Y-255475000I-218750J0D01*
G01*
X255993750Y-255475000D01*
G75*
G02*
X255775000Y-255256250I0J218750D01*
G01*
X255775000Y-254743750D01*
G75*
G02*
X255993750Y-254525000I218750J0D01*
G01*
X256431250Y-254525000D01*
G75*
G02*
X256650000Y-254743750I0J-218750D01*
G01*
G37*
%TD.AperFunction*%
%TO.P,D120,1*%
%TO.N,/P2*%
%TA.AperFunction,SMDPad,CuDef*%
G36*
G01*
X258225000Y-254743750D02*
X258225000Y-255256250D01*
G75*
G02*
X258006250Y-255475000I-218750J0D01*
G01*
X257568750Y-255475000D01*
G75*
G02*
X257350000Y-255256250I0J218750D01*
G01*
X257350000Y-254743750D01*
G75*
G02*
X257568750Y-254525000I218750J0D01*
G01*
X258006250Y-254525000D01*
G75*
G02*
X258225000Y-254743750I0J-218750D01*
G01*
G37*
%TD.AperFunction*%
%TD*%
%TO.P,D121,1*%
%TO.N,/P2*%
%TA.AperFunction,SMDPad,CuDef*%
G36*
G01*
X280437500Y-254743750D02*
X280437500Y-255256250D01*
G75*
G02*
X280218750Y-255475000I-218750J0D01*
G01*
X279781250Y-255475000D01*
G75*
G02*
X279562500Y-255256250I0J218750D01*
G01*
X279562500Y-254743750D01*
G75*
G02*
X279781250Y-254525000I218750J0D01*
G01*
X280218750Y-254525000D01*
G75*
G02*
X280437500Y-254743750I0J-218750D01*
G01*
G37*
%TD.AperFunction*%
%TO.P,D121,2*%
%TO.N,/P12*%
%TA.AperFunction,SMDPad,CuDef*%
G36*
G01*
X278862500Y-254743750D02*
X278862500Y-255256250D01*
G75*
G02*
X278643750Y-255475000I-218750J0D01*
G01*
X278206250Y-255475000D01*
G75*
G02*
X277987500Y-255256250I0J218750D01*
G01*
X277987500Y-254743750D01*
G75*
G02*
X278206250Y-254525000I218750J0D01*
G01*
X278643750Y-254525000D01*
G75*
G02*
X278862500Y-254743750I0J-218750D01*
G01*
G37*
%TD.AperFunction*%
%TD*%
%TO.P,D122,2*%
%TO.N,/P2*%
%TA.AperFunction,SMDPad,CuDef*%
G36*
G01*
X299650000Y-254743750D02*
X299650000Y-255256250D01*
G75*
G02*
X299431250Y-255475000I-218750J0D01*
G01*
X298993750Y-255475000D01*
G75*
G02*
X298775000Y-255256250I0J218750D01*
G01*
X298775000Y-254743750D01*
G75*
G02*
X298993750Y-254525000I218750J0D01*
G01*
X299431250Y-254525000D01*
G75*
G02*
X299650000Y-254743750I0J-218750D01*
G01*
G37*
%TD.AperFunction*%
%TO.P,D122,1*%
%TO.N,/P1*%
%TA.AperFunction,SMDPad,CuDef*%
G36*
G01*
X301225000Y-254743750D02*
X301225000Y-255256250D01*
G75*
G02*
X301006250Y-255475000I-218750J0D01*
G01*
X300568750Y-255475000D01*
G75*
G02*
X300350000Y-255256250I0J218750D01*
G01*
X300350000Y-254743750D01*
G75*
G02*
X300568750Y-254525000I218750J0D01*
G01*
X301006250Y-254525000D01*
G75*
G02*
X301225000Y-254743750I0J-218750D01*
G01*
G37*
%TD.AperFunction*%
%TD*%
%TO.P,D123,1*%
%TO.N,/P1*%
%TA.AperFunction,SMDPad,CuDef*%
G36*
G01*
X320225000Y-254743750D02*
X320225000Y-255256250D01*
G75*
G02*
X320006250Y-255475000I-218750J0D01*
G01*
X319568750Y-255475000D01*
G75*
G02*
X319350000Y-255256250I0J218750D01*
G01*
X319350000Y-254743750D01*
G75*
G02*
X319568750Y-254525000I218750J0D01*
G01*
X320006250Y-254525000D01*
G75*
G02*
X320225000Y-254743750I0J-218750D01*
G01*
G37*
%TD.AperFunction*%
%TO.P,D123,2*%
%TO.N,/P3*%
%TA.AperFunction,SMDPad,CuDef*%
G36*
G01*
X318650000Y-254743750D02*
X318650000Y-255256250D01*
G75*
G02*
X318431250Y-255475000I-218750J0D01*
G01*
X317993750Y-255475000D01*
G75*
G02*
X317775000Y-255256250I0J218750D01*
G01*
X317775000Y-254743750D01*
G75*
G02*
X317993750Y-254525000I218750J0D01*
G01*
X318431250Y-254525000D01*
G75*
G02*
X318650000Y-254743750I0J-218750D01*
G01*
G37*
%TD.AperFunction*%
%TD*%
%TO.P,D124,2*%
%TO.N,/P4*%
%TA.AperFunction,SMDPad,CuDef*%
G36*
G01*
X335862500Y-254743750D02*
X335862500Y-255256250D01*
G75*
G02*
X335643750Y-255475000I-218750J0D01*
G01*
X335206250Y-255475000D01*
G75*
G02*
X334987500Y-255256250I0J218750D01*
G01*
X334987500Y-254743750D01*
G75*
G02*
X335206250Y-254525000I218750J0D01*
G01*
X335643750Y-254525000D01*
G75*
G02*
X335862500Y-254743750I0J-218750D01*
G01*
G37*
%TD.AperFunction*%
%TO.P,D124,1*%
%TO.N,/P1*%
%TA.AperFunction,SMDPad,CuDef*%
G36*
G01*
X337437500Y-254743750D02*
X337437500Y-255256250D01*
G75*
G02*
X337218750Y-255475000I-218750J0D01*
G01*
X336781250Y-255475000D01*
G75*
G02*
X336562500Y-255256250I0J218750D01*
G01*
X336562500Y-254743750D01*
G75*
G02*
X336781250Y-254525000I218750J0D01*
G01*
X337218750Y-254525000D01*
G75*
G02*
X337437500Y-254743750I0J-218750D01*
G01*
G37*
%TD.AperFunction*%
%TD*%
%TO.P,D125,1*%
%TO.N,/P1*%
%TA.AperFunction,SMDPad,CuDef*%
G36*
G01*
X355437500Y-254743750D02*
X355437500Y-255256250D01*
G75*
G02*
X355218750Y-255475000I-218750J0D01*
G01*
X354781250Y-255475000D01*
G75*
G02*
X354562500Y-255256250I0J218750D01*
G01*
X354562500Y-254743750D01*
G75*
G02*
X354781250Y-254525000I218750J0D01*
G01*
X355218750Y-254525000D01*
G75*
G02*
X355437500Y-254743750I0J-218750D01*
G01*
G37*
%TD.AperFunction*%
%TO.P,D125,2*%
%TO.N,/P5*%
%TA.AperFunction,SMDPad,CuDef*%
G36*
G01*
X353862500Y-254743750D02*
X353862500Y-255256250D01*
G75*
G02*
X353643750Y-255475000I-218750J0D01*
G01*
X353206250Y-255475000D01*
G75*
G02*
X352987500Y-255256250I0J218750D01*
G01*
X352987500Y-254743750D01*
G75*
G02*
X353206250Y-254525000I218750J0D01*
G01*
X353643750Y-254525000D01*
G75*
G02*
X353862500Y-254743750I0J-218750D01*
G01*
G37*
%TD.AperFunction*%
%TD*%
%TO.P,D126,2*%
%TO.N,/P6*%
%TA.AperFunction,SMDPad,CuDef*%
G36*
G01*
X370650000Y-254743750D02*
X370650000Y-255256250D01*
G75*
G02*
X370431250Y-255475000I-218750J0D01*
G01*
X369993750Y-255475000D01*
G75*
G02*
X369775000Y-255256250I0J218750D01*
G01*
X369775000Y-254743750D01*
G75*
G02*
X369993750Y-254525000I218750J0D01*
G01*
X370431250Y-254525000D01*
G75*
G02*
X370650000Y-254743750I0J-218750D01*
G01*
G37*
%TD.AperFunction*%
%TO.P,D126,1*%
%TO.N,/P1*%
%TA.AperFunction,SMDPad,CuDef*%
G36*
G01*
X372225000Y-254743750D02*
X372225000Y-255256250D01*
G75*
G02*
X372006250Y-255475000I-218750J0D01*
G01*
X371568750Y-255475000D01*
G75*
G02*
X371350000Y-255256250I0J218750D01*
G01*
X371350000Y-254743750D01*
G75*
G02*
X371568750Y-254525000I218750J0D01*
G01*
X372006250Y-254525000D01*
G75*
G02*
X372225000Y-254743750I0J-218750D01*
G01*
G37*
%TD.AperFunction*%
%TD*%
%TO.P,D127,1*%
%TO.N,/P1*%
%TA.AperFunction,SMDPad,CuDef*%
G36*
G01*
X388225000Y-254743750D02*
X388225000Y-255256250D01*
G75*
G02*
X388006250Y-255475000I-218750J0D01*
G01*
X387568750Y-255475000D01*
G75*
G02*
X387350000Y-255256250I0J218750D01*
G01*
X387350000Y-254743750D01*
G75*
G02*
X387568750Y-254525000I218750J0D01*
G01*
X388006250Y-254525000D01*
G75*
G02*
X388225000Y-254743750I0J-218750D01*
G01*
G37*
%TD.AperFunction*%
%TO.P,D127,2*%
%TO.N,/P7*%
%TA.AperFunction,SMDPad,CuDef*%
G36*
G01*
X386650000Y-254743750D02*
X386650000Y-255256250D01*
G75*
G02*
X386431250Y-255475000I-218750J0D01*
G01*
X385993750Y-255475000D01*
G75*
G02*
X385775000Y-255256250I0J218750D01*
G01*
X385775000Y-254743750D01*
G75*
G02*
X385993750Y-254525000I218750J0D01*
G01*
X386431250Y-254525000D01*
G75*
G02*
X386650000Y-254743750I0J-218750D01*
G01*
G37*
%TD.AperFunction*%
%TD*%
%TO.P,D128,2*%
%TO.N,/P8*%
%TA.AperFunction,SMDPad,CuDef*%
G36*
G01*
X400650000Y-254743750D02*
X400650000Y-255256250D01*
G75*
G02*
X400431250Y-255475000I-218750J0D01*
G01*
X399993750Y-255475000D01*
G75*
G02*
X399775000Y-255256250I0J218750D01*
G01*
X399775000Y-254743750D01*
G75*
G02*
X399993750Y-254525000I218750J0D01*
G01*
X400431250Y-254525000D01*
G75*
G02*
X400650000Y-254743750I0J-218750D01*
G01*
G37*
%TD.AperFunction*%
%TO.P,D128,1*%
%TO.N,/P1*%
%TA.AperFunction,SMDPad,CuDef*%
G36*
G01*
X402225000Y-254743750D02*
X402225000Y-255256250D01*
G75*
G02*
X402006250Y-255475000I-218750J0D01*
G01*
X401568750Y-255475000D01*
G75*
G02*
X401350000Y-255256250I0J218750D01*
G01*
X401350000Y-254743750D01*
G75*
G02*
X401568750Y-254525000I218750J0D01*
G01*
X402006250Y-254525000D01*
G75*
G02*
X402225000Y-254743750I0J-218750D01*
G01*
G37*
%TD.AperFunction*%
%TD*%
%TO.P,D129,1*%
%TO.N,/P1*%
%TA.AperFunction,SMDPad,CuDef*%
G36*
G01*
X415437500Y-254743750D02*
X415437500Y-255256250D01*
G75*
G02*
X415218750Y-255475000I-218750J0D01*
G01*
X414781250Y-255475000D01*
G75*
G02*
X414562500Y-255256250I0J218750D01*
G01*
X414562500Y-254743750D01*
G75*
G02*
X414781250Y-254525000I218750J0D01*
G01*
X415218750Y-254525000D01*
G75*
G02*
X415437500Y-254743750I0J-218750D01*
G01*
G37*
%TD.AperFunction*%
%TO.P,D129,2*%
%TO.N,/P9*%
%TA.AperFunction,SMDPad,CuDef*%
G36*
G01*
X413862500Y-254743750D02*
X413862500Y-255256250D01*
G75*
G02*
X413643750Y-255475000I-218750J0D01*
G01*
X413206250Y-255475000D01*
G75*
G02*
X412987500Y-255256250I0J218750D01*
G01*
X412987500Y-254743750D01*
G75*
G02*
X413206250Y-254525000I218750J0D01*
G01*
X413643750Y-254525000D01*
G75*
G02*
X413862500Y-254743750I0J-218750D01*
G01*
G37*
%TD.AperFunction*%
%TD*%
%TO.P,D130,2*%
%TO.N,/P10*%
%TA.AperFunction,SMDPad,CuDef*%
G36*
G01*
X426862500Y-254743750D02*
X426862500Y-255256250D01*
G75*
G02*
X426643750Y-255475000I-218750J0D01*
G01*
X426206250Y-255475000D01*
G75*
G02*
X425987500Y-255256250I0J218750D01*
G01*
X425987500Y-254743750D01*
G75*
G02*
X426206250Y-254525000I218750J0D01*
G01*
X426643750Y-254525000D01*
G75*
G02*
X426862500Y-254743750I0J-218750D01*
G01*
G37*
%TD.AperFunction*%
%TO.P,D130,1*%
%TO.N,/P1*%
%TA.AperFunction,SMDPad,CuDef*%
G36*
G01*
X428437500Y-254743750D02*
X428437500Y-255256250D01*
G75*
G02*
X428218750Y-255475000I-218750J0D01*
G01*
X427781250Y-255475000D01*
G75*
G02*
X427562500Y-255256250I0J218750D01*
G01*
X427562500Y-254743750D01*
G75*
G02*
X427781250Y-254525000I218750J0D01*
G01*
X428218750Y-254525000D01*
G75*
G02*
X428437500Y-254743750I0J-218750D01*
G01*
G37*
%TD.AperFunction*%
%TD*%
%TO.P,D131,1*%
%TO.N,/P1*%
%TA.AperFunction,SMDPad,CuDef*%
G36*
G01*
X440437500Y-254743750D02*
X440437500Y-255256250D01*
G75*
G02*
X440218750Y-255475000I-218750J0D01*
G01*
X439781250Y-255475000D01*
G75*
G02*
X439562500Y-255256250I0J218750D01*
G01*
X439562500Y-254743750D01*
G75*
G02*
X439781250Y-254525000I218750J0D01*
G01*
X440218750Y-254525000D01*
G75*
G02*
X440437500Y-254743750I0J-218750D01*
G01*
G37*
%TD.AperFunction*%
%TO.P,D131,2*%
%TO.N,/P11*%
%TA.AperFunction,SMDPad,CuDef*%
G36*
G01*
X438862500Y-254743750D02*
X438862500Y-255256250D01*
G75*
G02*
X438643750Y-255475000I-218750J0D01*
G01*
X438206250Y-255475000D01*
G75*
G02*
X437987500Y-255256250I0J218750D01*
G01*
X437987500Y-254743750D01*
G75*
G02*
X438206250Y-254525000I218750J0D01*
G01*
X438643750Y-254525000D01*
G75*
G02*
X438862500Y-254743750I0J-218750D01*
G01*
G37*
%TD.AperFunction*%
%TD*%
D11*
%TO.N,/P12*%
X285000000Y-210000000D03*
X274000000Y-219000000D03*
X274000000Y-228000000D03*
X274000000Y-237000000D03*
X274000000Y-246000000D03*
X274000000Y-255000000D03*
%TO.N,/P1*%
X4000000Y-210000000D03*
X4000000Y-219000000D03*
X4000000Y-228000000D03*
X4000000Y-237000000D03*
X4000000Y-246000000D03*
X4000000Y-255000000D03*
X295000000Y-219000000D03*
X295000000Y-228000000D03*
X295000000Y-237000000D03*
X295000000Y-246000000D03*
X295000000Y-255000000D03*
X295000000Y-210000000D03*
%TO.N,/P2*%
X315000000Y-210000000D03*
X315000000Y-219000000D03*
X314000000Y-250000000D03*
X315000000Y-246000000D03*
X315000000Y-237000000D03*
X315000000Y-228000000D03*
X17000000Y-219000000D03*
X17000000Y-228000000D03*
X17000000Y-237000000D03*
X17000000Y-210000000D03*
X17000000Y-246000000D03*
%TO.N,/P3*%
X332000000Y-210000000D03*
X332000000Y-219000000D03*
X332000000Y-228000000D03*
X332000000Y-237000000D03*
X316000000Y-255000000D03*
X323000000Y-246000000D03*
X49000000Y-210000000D03*
X49000000Y-219000000D03*
X49000000Y-228000000D03*
X23000000Y-255000000D03*
X49000000Y-237000000D03*
X49000000Y-248000000D03*
%TO.N,/P4*%
X333000000Y-255000000D03*
X333000000Y-246000000D03*
X351000000Y-237000000D03*
X351000000Y-228000000D03*
X351000000Y-219000000D03*
X351000000Y-210000000D03*
X95000000Y-237000000D03*
X95000000Y-228000000D03*
X95000000Y-219000000D03*
X95000000Y-210000000D03*
X53000000Y-255000000D03*
X53000000Y-246000000D03*
%TO.N,/P5*%
X367000000Y-228000000D03*
X367000000Y-219000000D03*
X367000000Y-210000000D03*
X351000000Y-246000000D03*
X351000000Y-255000000D03*
X118000000Y-228000000D03*
X118000000Y-219000000D03*
X118000000Y-210000000D03*
X118000000Y-237000000D03*
X95000000Y-255000000D03*
X95000000Y-246000000D03*
X359000000Y-237000000D03*
%TO.N,/P6*%
X367000000Y-255000000D03*
X367000000Y-246000000D03*
X367000000Y-237000000D03*
X383000000Y-210000000D03*
X383000000Y-219000000D03*
X383000000Y-228000000D03*
X151000000Y-210000000D03*
X151000000Y-219000000D03*
X151000000Y-228000000D03*
X125000000Y-255000000D03*
X125000000Y-246000000D03*
X125000000Y-236000000D03*
%TO.N,/P7*%
X397000000Y-219000000D03*
X397000000Y-210000000D03*
X391000000Y-228000000D03*
X383000000Y-246000000D03*
X383000000Y-255000000D03*
X383000000Y-237000000D03*
X178000000Y-210000000D03*
X178000000Y-219000000D03*
X178000000Y-228000000D03*
X154000000Y-237000000D03*
X154000000Y-246000000D03*
X154000000Y-255000000D03*
%TO.N,/P8*%
X397000000Y-255000000D03*
X397000000Y-246000000D03*
X397000000Y-237000000D03*
X397000000Y-228000000D03*
X410000000Y-210000000D03*
X410000000Y-219000000D03*
X205000000Y-210000000D03*
X205000000Y-219000000D03*
X180000000Y-255000000D03*
X180000000Y-246000000D03*
X180000000Y-237000000D03*
%TO.N,/P9*%
X419000000Y-219000000D03*
X424000000Y-210000000D03*
X410000000Y-228000000D03*
X410000000Y-237000000D03*
X410000000Y-246000000D03*
X410000000Y-255000000D03*
X226000000Y-219000000D03*
X226000000Y-210000000D03*
X204000000Y-255000000D03*
X204000000Y-246000000D03*
X204000000Y-237000000D03*
X204000000Y-228000000D03*
%TO.N,/P10*%
X238250000Y-219000000D03*
X424000000Y-219000000D03*
X424000000Y-228000000D03*
X424000000Y-237000000D03*
X436000000Y-210000000D03*
X424000000Y-246000000D03*
X424000000Y-255000000D03*
X229000000Y-228000000D03*
X229000000Y-237000000D03*
X229000000Y-246000000D03*
X229000000Y-255000000D03*
%TO.N,/P11*%
X441750000Y-210000000D03*
X436000000Y-219000000D03*
X436000000Y-228000000D03*
X436000000Y-237000000D03*
X436000000Y-246000000D03*
X436000000Y-255000000D03*
X271000000Y-210000000D03*
X252000000Y-219000000D03*
X252000000Y-255000000D03*
X252000000Y-246000000D03*
X252000000Y-237000000D03*
X252000000Y-228000000D03*
%TD*%
D12*
%TO.N,/P12*%
X7787500Y-210000000D02*
X7787500Y-209962500D01*
X7787500Y-209962500D02*
X10750000Y-207000000D01*
X28000000Y-207750000D02*
X28750000Y-207000000D01*
X28000000Y-210000000D02*
X28000000Y-207750000D01*
X10750000Y-207000000D02*
X28750000Y-207000000D01*
X67000000Y-208000000D02*
X68000000Y-207000000D01*
X67000000Y-210000000D02*
X67000000Y-208000000D01*
X28750000Y-207000000D02*
X68000000Y-207000000D01*
X101000000Y-210000000D02*
X101000000Y-207750000D01*
X101000000Y-207750000D02*
X101750000Y-207000000D01*
X68000000Y-207000000D02*
X101750000Y-207000000D01*
X130000000Y-208000000D02*
X131000000Y-207000000D01*
X130000000Y-210000000D02*
X130000000Y-208000000D01*
X101750000Y-207000000D02*
X131000000Y-207000000D01*
X159787500Y-207712500D02*
X160500000Y-207000000D01*
X159787500Y-210000000D02*
X159787500Y-207712500D01*
X131000000Y-207000000D02*
X160500000Y-207000000D01*
X185787500Y-207712500D02*
X186500000Y-207000000D01*
X185787500Y-210000000D02*
X185787500Y-207712500D01*
X160500000Y-207000000D02*
X186500000Y-207000000D01*
X211000000Y-207500000D02*
X211500000Y-207000000D01*
X211000000Y-210000000D02*
X211000000Y-207500000D01*
X186500000Y-207000000D02*
X211500000Y-207000000D01*
X234787500Y-207712500D02*
X235500000Y-207000000D01*
X234787500Y-210000000D02*
X234787500Y-207712500D01*
X211500000Y-207000000D02*
X235500000Y-207000000D01*
X257787500Y-207712500D02*
X258500000Y-207000000D01*
X257787500Y-210000000D02*
X257787500Y-207712500D01*
X235500000Y-207000000D02*
X258500000Y-207000000D01*
X280000000Y-208000000D02*
X281000000Y-207000000D01*
X280000000Y-210000000D02*
X280000000Y-208000000D01*
X258500000Y-207000000D02*
X281000000Y-207000000D01*
X285000000Y-207500000D02*
X285500000Y-207000000D01*
X285000000Y-210000000D02*
X285000000Y-207500000D01*
X285500000Y-207000000D02*
X445000000Y-207000000D01*
X281000000Y-207000000D02*
X285500000Y-207000000D01*
X278425000Y-219000000D02*
X274000000Y-219000000D01*
X278425000Y-228000000D02*
X274000000Y-228000000D01*
X278425000Y-237000000D02*
X274000000Y-237000000D01*
X278425000Y-246000000D02*
X274000000Y-246000000D01*
X278425000Y-255000000D02*
X274000000Y-255000000D01*
D13*
%TO.N,/P1*%
X444000000Y-258000000D02*
X445000000Y-257000000D01*
D12*
X6212500Y-210000000D02*
X4000000Y-210000000D01*
X6212500Y-219000000D02*
X4000000Y-219000000D01*
X6212500Y-228000000D02*
X4000000Y-228000000D01*
X6212500Y-237000000D02*
X4000000Y-237000000D01*
X6212500Y-246000000D02*
X4000000Y-246000000D01*
X6212500Y-255000000D02*
X4000000Y-255000000D01*
X8212500Y-257000000D02*
X17750000Y-257000000D01*
X6212500Y-255000000D02*
X8212500Y-257000000D01*
X17750000Y-257000000D02*
X17250000Y-257000000D01*
X295000000Y-256250000D02*
X295750000Y-257000000D01*
X295000000Y-255000000D02*
X295000000Y-256250000D01*
X295750000Y-257000000D02*
X17750000Y-257000000D01*
X319787500Y-255000000D02*
X319787500Y-256287500D01*
X319787500Y-256287500D02*
X320500000Y-257000000D01*
X337000000Y-255000000D02*
X337000000Y-256250000D01*
X337750000Y-257000000D02*
X320500000Y-257000000D01*
X337000000Y-256250000D02*
X337750000Y-257000000D01*
X355000000Y-255000000D02*
X355000000Y-256250000D01*
X355750000Y-257000000D02*
X337750000Y-257000000D01*
X355000000Y-256250000D02*
X355750000Y-257000000D01*
X371787500Y-256287500D02*
X372500000Y-257000000D01*
X371787500Y-255000000D02*
X371787500Y-256287500D01*
X372500000Y-257000000D02*
X355750000Y-257000000D01*
X387787500Y-256287500D02*
X388500000Y-257000000D01*
X387787500Y-255000000D02*
X387787500Y-256287500D01*
X388500000Y-257000000D02*
X372500000Y-257000000D01*
X401787500Y-256037500D02*
X402750000Y-257000000D01*
X401787500Y-255000000D02*
X401787500Y-256037500D01*
X402750000Y-257000000D02*
X388500000Y-257000000D01*
X415000000Y-256000000D02*
X416000000Y-257000000D01*
X415000000Y-255000000D02*
X415000000Y-256000000D01*
X416000000Y-257000000D02*
X402750000Y-257000000D01*
X428000000Y-256000000D02*
X429000000Y-257000000D01*
X428000000Y-255000000D02*
X428000000Y-256000000D01*
X429000000Y-257000000D02*
X416000000Y-257000000D01*
X440000000Y-256000000D02*
X441000000Y-257000000D01*
X440000000Y-255000000D02*
X440000000Y-256000000D01*
X441000000Y-257000000D02*
X429000000Y-257000000D01*
X445000000Y-257000000D02*
X441000000Y-257000000D01*
X299212500Y-246000000D02*
X295000000Y-246000000D01*
X300787500Y-255787500D02*
X302000000Y-257000000D01*
X300787500Y-255000000D02*
X300787500Y-255787500D01*
X302000000Y-257000000D02*
X295750000Y-257000000D01*
X320500000Y-257000000D02*
X302000000Y-257000000D01*
X299212500Y-237000000D02*
X295000000Y-237000000D01*
X299212500Y-228000000D02*
X295000000Y-228000000D01*
X299212500Y-219000000D02*
X295000000Y-219000000D01*
X299212500Y-210000000D02*
X295000000Y-210000000D01*
D13*
%TO.N,/P2*%
X444974990Y-252025010D02*
X445000000Y-252000000D01*
D12*
X26425000Y-219000000D02*
X17000000Y-219000000D01*
X26425000Y-228000000D02*
X17000000Y-228000000D01*
X26425000Y-237000000D02*
X17000000Y-237000000D01*
X26425000Y-210000000D02*
X17000000Y-210000000D01*
D13*
X7787500Y-255000000D02*
X8000000Y-255000000D01*
D12*
X10787500Y-252000000D02*
X7787500Y-255000000D01*
X28000000Y-252750000D02*
X28750000Y-252000000D01*
X28000000Y-255000000D02*
X28000000Y-252750000D01*
X17000000Y-251250000D02*
X17750000Y-252000000D01*
X17000000Y-246000000D02*
X17000000Y-251250000D01*
X17750000Y-252000000D02*
X10787500Y-252000000D01*
X28750000Y-252000000D02*
X17750000Y-252000000D01*
X26425000Y-246000000D02*
X17000000Y-246000000D01*
X67000000Y-252750000D02*
X67750000Y-252000000D01*
X67000000Y-255000000D02*
X67000000Y-252750000D01*
X67750000Y-252000000D02*
X28750000Y-252000000D01*
X101000000Y-252500000D02*
X101500000Y-252000000D01*
X101000000Y-255000000D02*
X101000000Y-252500000D01*
X101500000Y-252000000D02*
X67750000Y-252000000D01*
X130000000Y-253000000D02*
X131000000Y-252000000D01*
X130000000Y-255000000D02*
X130000000Y-253000000D01*
X131000000Y-252000000D02*
X101500000Y-252000000D01*
X159787500Y-252962500D02*
X160750000Y-252000000D01*
X159787500Y-255000000D02*
X159787500Y-252962500D01*
X160750000Y-252000000D02*
X131000000Y-252000000D01*
X185787500Y-252712500D02*
X186500000Y-252000000D01*
X185787500Y-255000000D02*
X185787500Y-252712500D01*
X186500000Y-252000000D02*
X160750000Y-252000000D01*
X211000000Y-252750000D02*
X211750000Y-252000000D01*
X211000000Y-255000000D02*
X211000000Y-252750000D01*
X211750000Y-252000000D02*
X186500000Y-252000000D01*
X234787500Y-252712500D02*
X235500000Y-252000000D01*
X235500000Y-252000000D02*
X211750000Y-252000000D01*
X234787500Y-255000000D02*
X234787500Y-252712500D01*
X257787500Y-252962500D02*
X258750000Y-252000000D01*
X257787500Y-255000000D02*
X257787500Y-252962500D01*
X258750000Y-252000000D02*
X235500000Y-252000000D01*
X280000000Y-252750000D02*
X280750000Y-252000000D01*
X280000000Y-255000000D02*
X280000000Y-252750000D01*
X280750000Y-252000000D02*
X258750000Y-252000000D01*
X299212500Y-255000000D02*
X299212500Y-253037500D01*
X300250000Y-252000000D02*
X280750000Y-252000000D01*
X299212500Y-253037500D02*
X300250000Y-252000000D01*
X314000000Y-251000000D02*
X315000000Y-252000000D01*
X314000000Y-250000000D02*
X314000000Y-251000000D01*
X315000000Y-252000000D02*
X300250000Y-252000000D01*
X445000000Y-252000000D02*
X315000000Y-252000000D01*
X318212500Y-210000000D02*
X315000000Y-210000000D01*
X318212500Y-219000000D02*
X315000000Y-219000000D01*
X318212500Y-228000000D02*
X315000000Y-228000000D01*
X318212500Y-237000000D02*
X315000000Y-237000000D01*
X318212500Y-246000000D02*
X315000000Y-246000000D01*
D13*
%TO.N,/P3*%
X444000000Y-249000000D02*
X445000000Y-248000000D01*
D12*
X65425000Y-210000000D02*
X49000000Y-210000000D01*
X65425000Y-219000000D02*
X49000000Y-219000000D01*
X65425000Y-228000000D02*
X49000000Y-228000000D01*
X65425000Y-237000000D02*
X49000000Y-237000000D01*
X65425000Y-247675000D02*
X65750000Y-248000000D01*
X65425000Y-246000000D02*
X65425000Y-247675000D01*
X65750000Y-248000000D02*
X49000000Y-248000000D01*
X300787500Y-247287500D02*
X301500000Y-248000000D01*
X300787500Y-246000000D02*
X300787500Y-247287500D01*
X301500000Y-248000000D02*
X65750000Y-248000000D01*
X319787500Y-246000000D02*
X323000000Y-246000000D01*
X323000000Y-247500000D02*
X323500000Y-248000000D01*
X323000000Y-246000000D02*
X323000000Y-247500000D01*
X323500000Y-248000000D02*
X301500000Y-248000000D01*
X337000000Y-247250000D02*
X337750000Y-248000000D01*
X337000000Y-246000000D02*
X337000000Y-247250000D01*
X337750000Y-248000000D02*
X323500000Y-248000000D01*
X355000000Y-247250000D02*
X355750000Y-248000000D01*
X355000000Y-246000000D02*
X355000000Y-247250000D01*
X355750000Y-248000000D02*
X337750000Y-248000000D01*
X371787500Y-246000000D02*
X371787500Y-247537500D01*
X371787500Y-247537500D02*
X372250000Y-248000000D01*
X372250000Y-248000000D02*
X355750000Y-248000000D01*
X387787500Y-247287500D02*
X388500000Y-248000000D01*
X387787500Y-246000000D02*
X387787500Y-247287500D01*
X388500000Y-248000000D02*
X372250000Y-248000000D01*
X402250000Y-248000000D02*
X388500000Y-248000000D01*
X401787500Y-247537500D02*
X402250000Y-248000000D01*
X401787500Y-246000000D02*
X401787500Y-247537500D01*
X415000000Y-246000000D02*
X415000000Y-247500000D01*
X415000000Y-247500000D02*
X415500000Y-248000000D01*
X415500000Y-248000000D02*
X402250000Y-248000000D01*
X428000000Y-247250000D02*
X428750000Y-248000000D01*
X428000000Y-246000000D02*
X428000000Y-247250000D01*
X428750000Y-248000000D02*
X415500000Y-248000000D01*
X440000000Y-247000000D02*
X441000000Y-248000000D01*
X440000000Y-246000000D02*
X440000000Y-247000000D01*
X441000000Y-248000000D02*
X428750000Y-248000000D01*
X445000000Y-248000000D02*
X441000000Y-248000000D01*
X26425000Y-255000000D02*
X23000000Y-255000000D01*
X335425000Y-210000000D02*
X332000000Y-210000000D01*
X335425000Y-219000000D02*
X332000000Y-219000000D01*
X335425000Y-228000000D02*
X332000000Y-228000000D01*
X335425000Y-237000000D02*
X332000000Y-237000000D01*
X318212500Y-255000000D02*
X316000000Y-255000000D01*
%TO.N,/P4*%
X7787500Y-245962500D02*
X7787500Y-246000000D01*
X10750000Y-243000000D02*
X7787500Y-245962500D01*
X28000000Y-243500000D02*
X28500000Y-243000000D01*
X28000000Y-246000000D02*
X28000000Y-243500000D01*
X28500000Y-243000000D02*
X10750000Y-243000000D01*
X53000000Y-243750000D02*
X53750000Y-243000000D01*
X53000000Y-246000000D02*
X53000000Y-243750000D01*
X53750000Y-243000000D02*
X28500000Y-243000000D01*
X67000000Y-243750000D02*
X67750000Y-243000000D01*
X67000000Y-246000000D02*
X67000000Y-243750000D01*
X67750000Y-243000000D02*
X53750000Y-243000000D01*
X95000000Y-242250000D02*
X95750000Y-243000000D01*
X95000000Y-237000000D02*
X95000000Y-242250000D01*
X95750000Y-243000000D02*
X67750000Y-243000000D01*
X101000000Y-243500000D02*
X101500000Y-243000000D01*
X101000000Y-246000000D02*
X101000000Y-243500000D01*
X101500000Y-243000000D02*
X95750000Y-243000000D01*
X130000000Y-243500000D02*
X130500000Y-243000000D01*
X130500000Y-243000000D02*
X101500000Y-243000000D01*
X130000000Y-246000000D02*
X130000000Y-243500000D01*
X159787500Y-243462500D02*
X160250000Y-243000000D01*
X159787500Y-246000000D02*
X159787500Y-243462500D01*
X160250000Y-243000000D02*
X130500000Y-243000000D01*
X185787500Y-243712500D02*
X186500000Y-243000000D01*
X185787500Y-246000000D02*
X185787500Y-243712500D01*
X186500000Y-243000000D02*
X160250000Y-243000000D01*
X211000000Y-243750000D02*
X211750000Y-243000000D01*
X211000000Y-246000000D02*
X211000000Y-243750000D01*
X211750000Y-243000000D02*
X186500000Y-243000000D01*
X234787500Y-243962500D02*
X235750000Y-243000000D01*
X234787500Y-246000000D02*
X234787500Y-243962500D01*
X235750000Y-243000000D02*
X211750000Y-243000000D01*
X257787500Y-243962500D02*
X258750000Y-243000000D01*
X258750000Y-243000000D02*
X235750000Y-243000000D01*
X257787500Y-246000000D02*
X257787500Y-243962500D01*
X280000000Y-243750000D02*
X280750000Y-243000000D01*
X280000000Y-246000000D02*
X280000000Y-243750000D01*
X280750000Y-243000000D02*
X258750000Y-243000000D01*
X333000000Y-244000000D02*
X334000000Y-243000000D01*
X333000000Y-246000000D02*
X333000000Y-244000000D01*
X334000000Y-243000000D02*
X280750000Y-243000000D01*
X445000000Y-243000000D02*
X334000000Y-243000000D01*
X65425000Y-255000000D02*
X53000000Y-255000000D01*
X99425000Y-210000000D02*
X95000000Y-210000000D01*
X99425000Y-219000000D02*
X95000000Y-219000000D01*
X99425000Y-228000000D02*
X95000000Y-228000000D01*
X99425000Y-237000000D02*
X95000000Y-237000000D01*
X353425000Y-210000000D02*
X351000000Y-210000000D01*
X353425000Y-219000000D02*
X351000000Y-219000000D01*
X353425000Y-228000000D02*
X351000000Y-228000000D01*
X353425000Y-237000000D02*
X351000000Y-237000000D01*
X335425000Y-246000000D02*
X333000000Y-246000000D01*
X335425000Y-255000000D02*
X333000000Y-255000000D01*
D13*
%TO.N,/P5*%
X300787500Y-237000000D02*
X301000000Y-237000000D01*
X444025010Y-239974990D02*
X445000000Y-239000000D01*
D12*
X118000000Y-237000000D02*
X120000000Y-239000000D01*
X120000000Y-239000000D02*
X123500000Y-239000000D01*
X123500000Y-239000000D02*
X122750000Y-239000000D01*
X300787500Y-238287500D02*
X301500000Y-239000000D01*
X300787500Y-237000000D02*
X300787500Y-238287500D01*
X301500000Y-239000000D02*
X123500000Y-239000000D01*
X319787500Y-238287500D02*
X320500000Y-239000000D01*
X319787500Y-237000000D02*
X319787500Y-238287500D01*
X320500000Y-239000000D02*
X301500000Y-239000000D01*
X337000000Y-238000000D02*
X338000000Y-239000000D01*
X337000000Y-237000000D02*
X337000000Y-238000000D01*
X338000000Y-239000000D02*
X320500000Y-239000000D01*
X355000000Y-237000000D02*
X359000000Y-237000000D01*
X359000000Y-238500000D02*
X359500000Y-239000000D01*
X359000000Y-237000000D02*
X359000000Y-238500000D01*
X359500000Y-239000000D02*
X338000000Y-239000000D01*
X371787500Y-238037500D02*
X372750000Y-239000000D01*
X371787500Y-237000000D02*
X371787500Y-238037500D01*
X372750000Y-239000000D02*
X359500000Y-239000000D01*
X387787500Y-238287500D02*
X388500000Y-239000000D01*
X387787500Y-237000000D02*
X387787500Y-238287500D01*
X388500000Y-239000000D02*
X372750000Y-239000000D01*
X401787500Y-238537500D02*
X402250000Y-239000000D01*
X401787500Y-237000000D02*
X401787500Y-238537500D01*
X402250000Y-239000000D02*
X388500000Y-239000000D01*
X415000000Y-238000000D02*
X416000000Y-239000000D01*
X415000000Y-237000000D02*
X415000000Y-238000000D01*
X416000000Y-239000000D02*
X402250000Y-239000000D01*
X428000000Y-238250000D02*
X428750000Y-239000000D01*
X428000000Y-237000000D02*
X428000000Y-238250000D01*
X428750000Y-239000000D02*
X416000000Y-239000000D01*
X440000000Y-238000000D02*
X441000000Y-239000000D01*
X440000000Y-237000000D02*
X440000000Y-238000000D01*
X441000000Y-239000000D02*
X428750000Y-239000000D01*
X445000000Y-239000000D02*
X441000000Y-239000000D01*
X370212500Y-228000000D02*
X367000000Y-228000000D01*
X370212500Y-219000000D02*
X367000000Y-219000000D01*
X370212500Y-210000000D02*
X367000000Y-210000000D01*
X99425000Y-246000000D02*
X95000000Y-246000000D01*
X99425000Y-255000000D02*
X95000000Y-255000000D01*
X128425000Y-228000000D02*
X118000000Y-228000000D01*
X128425000Y-219000000D02*
X118000000Y-219000000D01*
X128425000Y-210000000D02*
X118000000Y-210000000D01*
X128425000Y-237000000D02*
X118000000Y-237000000D01*
X353425000Y-255000000D02*
X351000000Y-255000000D01*
X353425000Y-246000000D02*
X351000000Y-246000000D01*
%TO.N,/P6*%
X7787500Y-236525000D02*
X10312500Y-234000000D01*
X7787500Y-237000000D02*
X7787500Y-236525000D01*
X28000000Y-235000000D02*
X29000000Y-234000000D01*
X28000000Y-237000000D02*
X28000000Y-235000000D01*
X10312500Y-234000000D02*
X29000000Y-234000000D01*
X67000000Y-234750000D02*
X67750000Y-234000000D01*
X67000000Y-237000000D02*
X67000000Y-234750000D01*
X29000000Y-234000000D02*
X67750000Y-234000000D01*
X101000000Y-235000000D02*
X102000000Y-234000000D01*
X101000000Y-237000000D02*
X101000000Y-235000000D01*
X67750000Y-234000000D02*
X102000000Y-234000000D01*
X130000000Y-237000000D02*
X130000000Y-235250000D01*
X130000000Y-235250000D02*
X131250000Y-234000000D01*
X125000000Y-235000000D02*
X126000000Y-234000000D01*
X125000000Y-236000000D02*
X125000000Y-235000000D01*
X126000000Y-234000000D02*
X131250000Y-234000000D01*
X102000000Y-234000000D02*
X126000000Y-234000000D01*
X151000000Y-233000000D02*
X152000000Y-234000000D01*
X151000000Y-228000000D02*
X151000000Y-233000000D01*
X131250000Y-234000000D02*
X152000000Y-234000000D01*
X159787500Y-234962500D02*
X160750000Y-234000000D01*
X159787500Y-237000000D02*
X159787500Y-234962500D01*
X152000000Y-234000000D02*
X160750000Y-234000000D01*
X185787500Y-234712500D02*
X186500000Y-234000000D01*
X185787500Y-237000000D02*
X185787500Y-234712500D01*
X160750000Y-234000000D02*
X186500000Y-234000000D01*
X211000000Y-234750000D02*
X211750000Y-234000000D01*
X211000000Y-237000000D02*
X211000000Y-234750000D01*
X186500000Y-234000000D02*
X211750000Y-234000000D01*
X234787500Y-234962500D02*
X235750000Y-234000000D01*
X234787500Y-237000000D02*
X234787500Y-234962500D01*
X211750000Y-234000000D02*
X235750000Y-234000000D01*
X257787500Y-234962500D02*
X258750000Y-234000000D01*
X257787500Y-237000000D02*
X257787500Y-234962500D01*
X235750000Y-234000000D02*
X258750000Y-234000000D01*
X280000000Y-234750000D02*
X280750000Y-234000000D01*
X280000000Y-237000000D02*
X280000000Y-234750000D01*
X258750000Y-234000000D02*
X280750000Y-234000000D01*
X367000000Y-237000000D02*
X367000000Y-235000000D01*
X367000000Y-235000000D02*
X368000000Y-234000000D01*
X368000000Y-234000000D02*
X445000000Y-234000000D01*
X280750000Y-234000000D02*
X368000000Y-234000000D01*
X386212500Y-210000000D02*
X383000000Y-210000000D01*
X386212500Y-219000000D02*
X383000000Y-219000000D01*
X386212500Y-228000000D02*
X383000000Y-228000000D01*
X370212500Y-255000000D02*
X367000000Y-255000000D01*
X370212500Y-246000000D02*
X367000000Y-246000000D01*
X370212500Y-237000000D02*
X367000000Y-237000000D01*
X128425000Y-255000000D02*
X125000000Y-255000000D01*
X128425000Y-246000000D02*
X125000000Y-246000000D01*
X158212500Y-228000000D02*
X151000000Y-228000000D01*
X158212500Y-219000000D02*
X151000000Y-219000000D01*
X158212500Y-210000000D02*
X151000000Y-210000000D01*
D13*
%TO.N,/P7*%
X444025010Y-230974990D02*
X445000000Y-230000000D01*
D12*
X178000000Y-228000000D02*
X178000000Y-229500000D01*
X178500000Y-230000000D02*
X179750000Y-230000000D01*
X178000000Y-229500000D02*
X178500000Y-230000000D01*
X179750000Y-230000000D02*
X179250000Y-230000000D01*
X300787500Y-229537500D02*
X301250000Y-230000000D01*
X300787500Y-228000000D02*
X300787500Y-229537500D01*
X301250000Y-230000000D02*
X179750000Y-230000000D01*
X319787500Y-229287500D02*
X320500000Y-230000000D01*
X320500000Y-230000000D02*
X301250000Y-230000000D01*
X319787500Y-228000000D02*
X319787500Y-229287500D01*
X337000000Y-229500000D02*
X337500000Y-230000000D01*
X337000000Y-228000000D02*
X337000000Y-229500000D01*
X337500000Y-230000000D02*
X320500000Y-230000000D01*
X355000000Y-229250000D02*
X355750000Y-230000000D01*
X355000000Y-228000000D02*
X355000000Y-229250000D01*
X355750000Y-230000000D02*
X337500000Y-230000000D01*
X371787500Y-229037500D02*
X372750000Y-230000000D01*
X371787500Y-228000000D02*
X371787500Y-229037500D01*
X372750000Y-230000000D02*
X355750000Y-230000000D01*
X387787500Y-228000000D02*
X391000000Y-228000000D01*
X391000000Y-229250000D02*
X391750000Y-230000000D01*
X391000000Y-228000000D02*
X391000000Y-229250000D01*
X391750000Y-230000000D02*
X372750000Y-230000000D01*
X401787500Y-228000000D02*
X401787500Y-229037500D01*
X401787500Y-229037500D02*
X402750000Y-230000000D01*
X402750000Y-230000000D02*
X391750000Y-230000000D01*
X415000000Y-229000000D02*
X416000000Y-230000000D01*
X415000000Y-228000000D02*
X415000000Y-229000000D01*
X416000000Y-230000000D02*
X402750000Y-230000000D01*
X428000000Y-229500000D02*
X428500000Y-230000000D01*
X428000000Y-228000000D02*
X428000000Y-229500000D01*
X428500000Y-230000000D02*
X416000000Y-230000000D01*
X440000000Y-229000000D02*
X441000000Y-230000000D01*
X440000000Y-228000000D02*
X440000000Y-229000000D01*
X441000000Y-230000000D02*
X428500000Y-230000000D01*
X445000000Y-230000000D02*
X441000000Y-230000000D01*
X400212500Y-210000000D02*
X397000000Y-210000000D01*
X400212500Y-219000000D02*
X397000000Y-219000000D01*
X386212500Y-237000000D02*
X383000000Y-237000000D01*
X386212500Y-246000000D02*
X383000000Y-246000000D01*
X386212500Y-255000000D02*
X383000000Y-255000000D01*
X158212500Y-255000000D02*
X154000000Y-255000000D01*
X158212500Y-246000000D02*
X154000000Y-246000000D01*
X158212500Y-237000000D02*
X154000000Y-237000000D01*
X184212500Y-219000000D02*
X178000000Y-219000000D01*
X184212500Y-210000000D02*
X178000000Y-210000000D01*
X184212500Y-228000000D02*
X178000000Y-228000000D01*
%TO.N,/P8*%
X10787500Y-225000000D02*
X7787500Y-228000000D01*
X28000000Y-225750000D02*
X28750000Y-225000000D01*
X28000000Y-228000000D02*
X28000000Y-225750000D01*
X28750000Y-225000000D02*
X10787500Y-225000000D01*
X67000000Y-225750000D02*
X67750000Y-225000000D01*
X67000000Y-228000000D02*
X67000000Y-225750000D01*
X67750000Y-225000000D02*
X28750000Y-225000000D01*
X101000000Y-228000000D02*
X101000000Y-225750000D01*
X101000000Y-225750000D02*
X101750000Y-225000000D01*
X101750000Y-225000000D02*
X67750000Y-225000000D01*
X130000000Y-225750000D02*
X130750000Y-225000000D01*
X130000000Y-228000000D02*
X130000000Y-225750000D01*
X130750000Y-225000000D02*
X101750000Y-225000000D01*
X159787500Y-225962500D02*
X160750000Y-225000000D01*
X159787500Y-228000000D02*
X159787500Y-225962500D01*
X160750000Y-225000000D02*
X130750000Y-225000000D01*
X185787500Y-226212500D02*
X187000000Y-225000000D01*
X185787500Y-228000000D02*
X185787500Y-226212500D01*
X187000000Y-225000000D02*
X160750000Y-225000000D01*
X205000000Y-224000000D02*
X206000000Y-225000000D01*
X205000000Y-219000000D02*
X205000000Y-224000000D01*
X206000000Y-225000000D02*
X187000000Y-225000000D01*
X211000000Y-225750000D02*
X211750000Y-225000000D01*
X211000000Y-228000000D02*
X211000000Y-225750000D01*
X211750000Y-225000000D02*
X206000000Y-225000000D01*
X234787500Y-225462500D02*
X235250000Y-225000000D01*
X234787500Y-228000000D02*
X234787500Y-225462500D01*
X235250000Y-225000000D02*
X211750000Y-225000000D01*
X257787500Y-225712500D02*
X258500000Y-225000000D01*
X257787500Y-228000000D02*
X257787500Y-225712500D01*
X258500000Y-225000000D02*
X235250000Y-225000000D01*
X280000000Y-225500000D02*
X280500000Y-225000000D01*
X280000000Y-228000000D02*
X280000000Y-225500000D01*
X280500000Y-225000000D02*
X258500000Y-225000000D01*
X397000000Y-225750000D02*
X397750000Y-225000000D01*
X397000000Y-228000000D02*
X397000000Y-225750000D01*
X397750000Y-225000000D02*
X280500000Y-225000000D01*
X445000000Y-225000000D02*
X397750000Y-225000000D01*
X413425000Y-210000000D02*
X410000000Y-210000000D01*
X413425000Y-219000000D02*
X410000000Y-219000000D01*
X400212500Y-255000000D02*
X397000000Y-255000000D01*
X400212500Y-246000000D02*
X397000000Y-246000000D01*
X400212500Y-237000000D02*
X397000000Y-237000000D01*
X400212500Y-228000000D02*
X397000000Y-228000000D01*
X184212500Y-255000000D02*
X180000000Y-255000000D01*
X184212500Y-246000000D02*
X180000000Y-246000000D01*
X184212500Y-237000000D02*
X180000000Y-237000000D01*
X209425000Y-219000000D02*
X205000000Y-219000000D01*
X209425000Y-210000000D02*
X205000000Y-210000000D01*
D13*
%TO.N,/P9*%
X300787500Y-219000000D02*
X301000000Y-219000000D01*
X444025010Y-221974990D02*
X445000000Y-221000000D01*
D12*
X226000000Y-219500000D02*
X226000000Y-219000000D01*
X227500000Y-221000000D02*
X226000000Y-219500000D01*
X300787500Y-220537500D02*
X301250000Y-221000000D01*
X300787500Y-219000000D02*
X300787500Y-220537500D01*
X301250000Y-221000000D02*
X227500000Y-221000000D01*
X319787500Y-220037500D02*
X320750000Y-221000000D01*
X319787500Y-219000000D02*
X319787500Y-220037500D01*
X320750000Y-221000000D02*
X301250000Y-221000000D01*
X337000000Y-220250000D02*
X337750000Y-221000000D01*
X337000000Y-219000000D02*
X337000000Y-220250000D01*
X337750000Y-221000000D02*
X320750000Y-221000000D01*
X355000000Y-220250000D02*
X355750000Y-221000000D01*
X355000000Y-219000000D02*
X355000000Y-220250000D01*
X355750000Y-221000000D02*
X337750000Y-221000000D01*
X371787500Y-220037500D02*
X372750000Y-221000000D01*
X371787500Y-219000000D02*
X371787500Y-220037500D01*
X372750000Y-221000000D02*
X355750000Y-221000000D01*
X387787500Y-220037500D02*
X388750000Y-221000000D01*
X387787500Y-219000000D02*
X387787500Y-220037500D01*
X388750000Y-221000000D02*
X372750000Y-221000000D01*
X401787500Y-220037500D02*
X402750000Y-221000000D01*
X401787500Y-219000000D02*
X401787500Y-220037500D01*
X402750000Y-221000000D02*
X388750000Y-221000000D01*
X415000000Y-219000000D02*
X419000000Y-219000000D01*
X419000000Y-220500000D02*
X419500000Y-221000000D01*
X419000000Y-219000000D02*
X419000000Y-220500000D01*
X419500000Y-221000000D02*
X402750000Y-221000000D01*
X428000000Y-220250000D02*
X428750000Y-221000000D01*
X428000000Y-219000000D02*
X428000000Y-220250000D01*
X428750000Y-221000000D02*
X419500000Y-221000000D01*
X440000000Y-220250000D02*
X440750000Y-221000000D01*
X440000000Y-219000000D02*
X440000000Y-220250000D01*
X440750000Y-221000000D02*
X428750000Y-221000000D01*
X445000000Y-221000000D02*
X440750000Y-221000000D01*
X426425000Y-210000000D02*
X424000000Y-210000000D01*
X413425000Y-228000000D02*
X410000000Y-228000000D01*
X413425000Y-237000000D02*
X410000000Y-237000000D01*
X413425000Y-246000000D02*
X410000000Y-246000000D01*
X413425000Y-255000000D02*
X410000000Y-255000000D01*
X209425000Y-255000000D02*
X204000000Y-255000000D01*
X209425000Y-246000000D02*
X204000000Y-246000000D01*
X209425000Y-237000000D02*
X204000000Y-237000000D01*
X209425000Y-228000000D02*
X204000000Y-228000000D01*
X233212500Y-210000000D02*
X226000000Y-210000000D01*
X233212500Y-219000000D02*
X226000000Y-219000000D01*
%TO.N,/P10*%
X10750000Y-216037500D02*
X7787500Y-219000000D01*
X10750000Y-216000000D02*
X10750000Y-216037500D01*
X28000000Y-219000000D02*
X28000000Y-216750000D01*
X28000000Y-216750000D02*
X28750000Y-216000000D01*
X28750000Y-216000000D02*
X10750000Y-216000000D01*
X67000000Y-217000000D02*
X68000000Y-216000000D01*
X67000000Y-219000000D02*
X67000000Y-217000000D01*
X68000000Y-216000000D02*
X28750000Y-216000000D01*
X101000000Y-219000000D02*
X101000000Y-216500000D01*
X101500000Y-216000000D02*
X68000000Y-216000000D01*
X101000000Y-216500000D02*
X101500000Y-216000000D01*
X130000000Y-216500000D02*
X130500000Y-216000000D01*
X130000000Y-219000000D02*
X130000000Y-216500000D01*
X130500000Y-216000000D02*
X101500000Y-216000000D01*
X159787500Y-216712500D02*
X160500000Y-216000000D01*
X159787500Y-219000000D02*
X159787500Y-216712500D01*
X160500000Y-216000000D02*
X130500000Y-216000000D01*
X185787500Y-216462500D02*
X186250000Y-216000000D01*
X185787500Y-219000000D02*
X185787500Y-216462500D01*
X186250000Y-216000000D02*
X160500000Y-216000000D01*
X211000000Y-216750000D02*
X211750000Y-216000000D01*
X211000000Y-219000000D02*
X211000000Y-216750000D01*
X211750000Y-216000000D02*
X186250000Y-216000000D01*
X234787500Y-216712500D02*
X235500000Y-216000000D01*
X234787500Y-219000000D02*
X234787500Y-216712500D01*
X235500000Y-216000000D02*
X211750000Y-216000000D01*
X256212500Y-215212500D02*
X257000000Y-216000000D01*
X256212500Y-210000000D02*
X256212500Y-215212500D01*
X257787500Y-216712500D02*
X258500000Y-216000000D01*
X257787500Y-219000000D02*
X257787500Y-216712500D01*
X258500000Y-216000000D02*
X257000000Y-216000000D01*
X280000000Y-216750000D02*
X280750000Y-216000000D01*
X280000000Y-219000000D02*
X280000000Y-216750000D01*
X280750000Y-216000000D02*
X258500000Y-216000000D01*
X424000000Y-216750000D02*
X424750000Y-216000000D01*
X424000000Y-219000000D02*
X424000000Y-216750000D01*
X424750000Y-216000000D02*
X280750000Y-216000000D01*
X445000000Y-216000000D02*
X424750000Y-216000000D01*
X238250000Y-216750000D02*
X239000000Y-216000000D01*
X238250000Y-219000000D02*
X238250000Y-216750000D01*
X239000000Y-216000000D02*
X235500000Y-216000000D01*
X257000000Y-216000000D02*
X239000000Y-216000000D01*
X438425000Y-210000000D02*
X436000000Y-210000000D01*
X426425000Y-255000000D02*
X424000000Y-255000000D01*
X426425000Y-246000000D02*
X424000000Y-246000000D01*
X426425000Y-237000000D02*
X424000000Y-237000000D01*
X426425000Y-228000000D02*
X424000000Y-228000000D01*
X426425000Y-219000000D02*
X424000000Y-219000000D01*
X233212500Y-228000000D02*
X229000000Y-228000000D01*
X233212500Y-237000000D02*
X229000000Y-237000000D01*
X233212500Y-246000000D02*
X229000000Y-246000000D01*
X233212500Y-255000000D02*
X229000000Y-255000000D01*
D13*
%TO.N,/P11*%
X300787500Y-210000000D02*
X301000000Y-210000000D01*
X443025010Y-212974990D02*
X443025010Y-212974990D01*
X444025010Y-212974990D02*
X445000000Y-212000000D01*
X443025010Y-212974990D02*
X444025010Y-212974990D01*
D12*
X300787500Y-211287500D02*
X301500000Y-212000000D01*
X300787500Y-210000000D02*
X300787500Y-211287500D01*
X273000000Y-212000000D02*
X302250000Y-212000000D01*
X271000000Y-210000000D02*
X273000000Y-212000000D01*
X301500000Y-212000000D02*
X302250000Y-212000000D01*
X319787500Y-211287500D02*
X320500000Y-212000000D01*
X319787500Y-210000000D02*
X319787500Y-211287500D01*
X302250000Y-212000000D02*
X320500000Y-212000000D01*
X337000000Y-211500000D02*
X337500000Y-212000000D01*
X337000000Y-210000000D02*
X337000000Y-211500000D01*
X320500000Y-212000000D02*
X337500000Y-212000000D01*
X355000000Y-211000000D02*
X356000000Y-212000000D01*
X355000000Y-210000000D02*
X355000000Y-211000000D01*
X337500000Y-212000000D02*
X356000000Y-212000000D01*
X371787500Y-211287500D02*
X372500000Y-212000000D01*
X371787500Y-210000000D02*
X371787500Y-211287500D01*
X356000000Y-212000000D02*
X372500000Y-212000000D01*
X387787500Y-211287500D02*
X388500000Y-212000000D01*
X387787500Y-210000000D02*
X387787500Y-211287500D01*
X372500000Y-212000000D02*
X388500000Y-212000000D01*
X401787500Y-211037500D02*
X402750000Y-212000000D01*
X401787500Y-210000000D02*
X401787500Y-211037500D01*
X388500000Y-212000000D02*
X402750000Y-212000000D01*
X415000000Y-211250000D02*
X415750000Y-212000000D01*
X415000000Y-210000000D02*
X415000000Y-211250000D01*
X402750000Y-212000000D02*
X415750000Y-212000000D01*
X428000000Y-211000000D02*
X429000000Y-212000000D01*
X428000000Y-210000000D02*
X428000000Y-211000000D01*
X415750000Y-212000000D02*
X429000000Y-212000000D01*
X429000000Y-212000000D02*
X440500000Y-212000000D01*
X440000000Y-210000000D02*
X441750000Y-210000000D01*
X441750000Y-210000000D02*
X441750000Y-211500000D01*
X441750000Y-211500000D02*
X442250000Y-212000000D01*
X442250000Y-212000000D02*
X445000000Y-212000000D01*
X440500000Y-212000000D02*
X442250000Y-212000000D01*
X438425000Y-219000000D02*
X436000000Y-219000000D01*
X438425000Y-228000000D02*
X436000000Y-228000000D01*
X438425000Y-237000000D02*
X436000000Y-237000000D01*
X438425000Y-246000000D02*
X436000000Y-246000000D01*
X438425000Y-255000000D02*
X436000000Y-255000000D01*
X256212500Y-255000000D02*
X252000000Y-255000000D01*
X256212500Y-246000000D02*
X252000000Y-246000000D01*
X256212500Y-237000000D02*
X252000000Y-237000000D01*
X256212500Y-228000000D02*
X252000000Y-228000000D01*
X256212500Y-219000000D02*
X252000000Y-219000000D01*
X278425000Y-210000000D02*
X271000000Y-210000000D01*
%TD*%
M02*
