M48
; DRILL file {KiCad (5.1.8)-1} date 03/15/21 17:45:32
; FORMAT={-:-/ absolute / inch / decimal}
; #@! TF.CreationDate,2021-03-15T17:45:32+02:00
; #@! TF.GenerationSoftware,Kicad,Pcbnew,(5.1.8)-1
FMAT,2
INCH
T1C0.0157
T2C0.0300
T3C0.0315
T4C0.0320
T5C0.0394
T6C0.0906
%
G90
G05
T1
X3.435Y-4.1634
X3.435Y-4.5177
X3.435Y-4.872
X3.435Y-5.2264
X3.435Y-5.5807
X3.435Y-5.935
X7.6476Y-5.935
X7.7657Y-4.1634
X8.002Y-4.1634
X8.5925Y-5.935
X9.498Y-5.935
X10.4429Y-5.935
T2
X8.35Y-4.1965
X8.35Y-4.4965
X8.45Y-4.1965
X8.45Y-4.4965
X8.55Y-4.1965
X8.55Y-4.4965
X8.65Y-4.1965
X8.65Y-4.4965
X8.75Y-4.1965
X8.75Y-4.4965
X8.85Y-4.1965
X8.85Y-4.4965
X8.95Y-4.1965
X8.95Y-4.4965
X9.05Y-4.1965
X9.05Y-4.4965
T3
X6.2453Y-2.7461
X6.5453Y-2.7461
T4
X8.5925Y-5.3445
X8.5925Y-5.5445
X8.8925Y-5.3445
X8.8925Y-5.5445
X10.4429Y-5.3445
X10.4429Y-5.5445
X10.7429Y-5.3445
X10.7429Y-5.5445
X9.498Y-5.3445
X9.498Y-5.5445
X9.798Y-5.3445
X9.798Y-5.5445
X7.6476Y-5.3445
X7.6476Y-5.5445
X7.9476Y-5.3445
X7.9476Y-5.5445
T5
X4.6846Y-4.1579
X4.6846Y-4.2579
X4.6846Y-4.3579
X4.6846Y-4.4579
X4.6846Y-4.5579
X4.6846Y-4.6579
X4.6846Y-4.7579
X4.6846Y-4.8579
X4.6846Y-4.9579
X4.6846Y-5.0579
X4.6846Y-5.2177
X4.6846Y-5.3177
X4.6846Y-5.4177
X4.6846Y-5.5177
X4.6846Y-5.6177
X4.6846Y-5.7177
X4.6846Y-5.8177
X4.6846Y-5.9177
X6.5846Y-4.5177
X6.5846Y-4.6177
X6.5846Y-4.7177
X6.5846Y-4.8177
X6.5846Y-4.9177
X6.5846Y-5.0177
X6.5846Y-5.1177
X6.5846Y-5.2177
X6.5846Y-5.4177
X6.5846Y-5.5177
X6.5846Y-5.6177
X6.5846Y-5.7177
X6.5846Y-5.8177
X6.5846Y-5.9177
X8.5512Y-3.9366
X8.6512Y-3.9366
X8.7512Y-3.9366
X8.8512Y-3.9366
X8.9512Y-3.9366
X9.0512Y-3.9366
X9.1512Y-3.9366
X9.2512Y-3.9366
X9.3512Y-3.9366
X9.4512Y-3.9366
X9.5512Y-3.9366
X9.6512Y-3.9366
X9.7512Y-3.9366
X9.8512Y-3.9366
X9.9512Y-3.9366
X10.0512Y-3.9366
X10.6299Y-4.3209
X10.6299Y-4.4193
X10.6299Y-4.5177
T6
X10.5Y-4.2224
X10.5Y-4.6161
T0
M30
