%TF.GenerationSoftware,KiCad,Pcbnew,(5.1.8)-1*%
%TF.CreationDate,2021-04-22T01:43:49+03:00*%
%TF.ProjectId,guitar_second,67756974-6172-45f7-9365-636f6e642e6b,rev?*%
%TF.SameCoordinates,Original*%
%TF.FileFunction,Legend,Top*%
%TF.FilePolarity,Positive*%
%FSLAX46Y46*%
G04 Gerber Fmt 4.6, Leading zero omitted, Abs format (unit mm)*
G04 Created by KiCad (PCBNEW (5.1.8)-1) date 2021-04-22 01:43:49*
%MOMM*%
%LPD*%
G01*
G04 APERTURE LIST*
%ADD10C,0.120000*%
%ADD11C,0.150000*%
G04 APERTURE END LIST*
D10*
%TO.C,U1*%
X216860000Y-107310000D02*
X237180000Y-107310000D01*
X237180000Y-107310000D02*
X237180000Y-112390000D01*
X237180000Y-112390000D02*
X216860000Y-112390000D01*
X216860000Y-112390000D02*
X216860000Y-107310000D01*
X216860000Y-108580000D02*
G75*
G02*
X218130000Y-109850000I0J-1270000D01*
G01*
X216860000Y-108580000D02*
G75*
G02*
X216860000Y-111120000I0J-1270000D01*
G01*
%TO.C,LCD1*%
X181640000Y-102530000D02*
X181640000Y-66970000D01*
X181640000Y-66970000D02*
X262920000Y-66970000D01*
X262920000Y-66970000D02*
X262920000Y-102530000D01*
X262920000Y-102530000D02*
X181640000Y-102530000D01*
X181640000Y-102530000D02*
X181640000Y-92370000D01*
X186720000Y-97450000D02*
X186720000Y-72050000D01*
X186720000Y-72050000D02*
X257840000Y-72050000D01*
X257840000Y-72050000D02*
X257840000Y-97450000D01*
X257840000Y-97450000D02*
X186720000Y-97450000D01*
%TO.C,REF\u002A\u002A*%
X126550000Y-71450000D02*
X126550000Y-68050000D01*
X129950000Y-71450000D02*
X126550000Y-71450000D01*
X129950000Y-68050000D02*
X129950000Y-71450000D01*
X126550000Y-68050000D02*
X129950000Y-68050000D01*
X135050000Y-71450000D02*
X135050000Y-68050000D01*
X138450000Y-71450000D02*
X135050000Y-71450000D01*
X138450000Y-68050000D02*
X138450000Y-71450000D01*
X135050000Y-68050000D02*
X138450000Y-68050000D01*
X30800000Y-154200000D02*
X30800000Y-151300000D01*
X33700000Y-154200000D02*
X30800000Y-154200000D01*
X33700000Y-151300000D02*
X33700000Y-154200000D01*
X30800000Y-151300000D02*
X33700000Y-151300000D01*
X30800000Y-149200000D02*
X30800000Y-146300000D01*
X33700000Y-149200000D02*
X30800000Y-149200000D01*
X33700000Y-146300000D02*
X33700000Y-149200000D01*
X30800000Y-146300000D02*
X33700000Y-146300000D01*
X30800000Y-145200000D02*
X30800000Y-142300000D01*
X33700000Y-145200000D02*
X30800000Y-145200000D01*
X33700000Y-142300000D02*
X33700000Y-145200000D01*
X30800000Y-142300000D02*
X33700000Y-142300000D01*
X30800000Y-140200000D02*
X30800000Y-137300000D01*
X33700000Y-140200000D02*
X30800000Y-140200000D01*
X33700000Y-137300000D02*
X33700000Y-140200000D01*
X30800000Y-137300000D02*
X33700000Y-137300000D01*
X30800000Y-136200000D02*
X30800000Y-133300000D01*
X33700000Y-136200000D02*
X30800000Y-136200000D01*
X33700000Y-133300000D02*
X33700000Y-136200000D01*
X30800000Y-133300000D02*
X33700000Y-133300000D01*
X30800000Y-131200000D02*
X30800000Y-128300000D01*
X33700000Y-131200000D02*
X30800000Y-131200000D01*
X33700000Y-128300000D02*
X33700000Y-131200000D01*
X30800000Y-128300000D02*
X33700000Y-128300000D01*
X30800000Y-127200000D02*
X30800000Y-124300000D01*
X33700000Y-127200000D02*
X30800000Y-127200000D01*
X33700000Y-124300000D02*
X33700000Y-127200000D01*
X30800000Y-124300000D02*
X33700000Y-124300000D01*
X30800000Y-122200000D02*
X30800000Y-119300000D01*
X33700000Y-122200000D02*
X30800000Y-122200000D01*
X33700000Y-119300000D02*
X33700000Y-122200000D01*
X30800000Y-119300000D02*
X33700000Y-119300000D01*
X30800000Y-118200000D02*
X30800000Y-115300000D01*
X33700000Y-118200000D02*
X30800000Y-118200000D01*
X33700000Y-115300000D02*
X33700000Y-118200000D01*
X30800000Y-115300000D02*
X33700000Y-115300000D01*
X30800000Y-113200000D02*
X30800000Y-110300000D01*
X33700000Y-113200000D02*
X30800000Y-113200000D01*
X33700000Y-110300000D02*
X33700000Y-113200000D01*
X30800000Y-110300000D02*
X33700000Y-110300000D01*
X30800000Y-109200000D02*
X30800000Y-106300000D01*
X33700000Y-109200000D02*
X30800000Y-109200000D01*
X33700000Y-106300000D02*
X33700000Y-109200000D01*
X30800000Y-106300000D02*
X33700000Y-106300000D01*
X30800000Y-104200000D02*
X30800000Y-101300000D01*
X33700000Y-104200000D02*
X30800000Y-104200000D01*
X33700000Y-101300000D02*
X33700000Y-104200000D01*
X30800000Y-101300000D02*
X33700000Y-101300000D01*
%TO.C,A1*%
X131940000Y-155520000D02*
X164710000Y-155520000D01*
X164710000Y-155520000D02*
X167250000Y-152980000D01*
X167250000Y-152980000D02*
X169920000Y-152980000D01*
X169920000Y-152980000D02*
X169920000Y-86680000D01*
X169920000Y-86680000D02*
X166740000Y-86680000D01*
X166740000Y-86680000D02*
X166740000Y-84780000D01*
X166740000Y-84780000D02*
X157600000Y-84780000D01*
X157600000Y-84780000D02*
X157600000Y-86680000D01*
X157600000Y-86680000D02*
X137530000Y-86680000D01*
X137530000Y-86680000D02*
X137530000Y-80330000D01*
X137530000Y-80330000D02*
X125850000Y-80330000D01*
X125850000Y-80330000D02*
X125850000Y-86680000D01*
X125850000Y-86680000D02*
X116320000Y-86680000D01*
X116320000Y-86680000D02*
X116320000Y-151330000D01*
X116320000Y-151330000D02*
X117970000Y-152980000D01*
X117970000Y-152980000D02*
X129400000Y-152980000D01*
X129400000Y-152980000D02*
X131940000Y-155520000D01*
%TO.C,D22*%
X92947500Y-105015000D02*
X90662500Y-105015000D01*
X92947500Y-106485000D02*
X92947500Y-105015000D01*
X90662500Y-106485000D02*
X92947500Y-106485000D01*
%TO.C,D44*%
X92947500Y-114015000D02*
X90662500Y-114015000D01*
X92947500Y-115485000D02*
X92947500Y-114015000D01*
X90662500Y-115485000D02*
X92947500Y-115485000D01*
%TO.C,D66*%
X92947500Y-123015000D02*
X90662500Y-123015000D01*
X92947500Y-124485000D02*
X92947500Y-123015000D01*
X90662500Y-124485000D02*
X92947500Y-124485000D01*
%TO.C,D88*%
X90662500Y-133485000D02*
X92947500Y-133485000D01*
X92947500Y-133485000D02*
X92947500Y-132015000D01*
X92947500Y-132015000D02*
X90662500Y-132015000D01*
%TO.C,D110*%
X92947500Y-141015000D02*
X90662500Y-141015000D01*
X92947500Y-142485000D02*
X92947500Y-141015000D01*
X90662500Y-142485000D02*
X92947500Y-142485000D01*
%TO.C,D132*%
X92947500Y-150015000D02*
X90662500Y-150015000D01*
X92947500Y-151485000D02*
X92947500Y-150015000D01*
X90662500Y-151485000D02*
X92947500Y-151485000D01*
%TO.C,R1*%
X200985000Y-106610436D02*
X200985000Y-107064564D01*
X199515000Y-106610436D02*
X199515000Y-107064564D01*
%TO.C,R2*%
X206235000Y-106522936D02*
X206235000Y-106977064D01*
X204765000Y-106522936D02*
X204765000Y-106977064D01*
%TO.C,R3*%
X216265000Y-118685436D02*
X216265000Y-119139564D01*
X217735000Y-118685436D02*
X217735000Y-119139564D01*
%TO.C,R4*%
X222485000Y-118685436D02*
X222485000Y-119139564D01*
X221015000Y-118685436D02*
X221015000Y-119139564D01*
%TO.C,R5*%
X226515000Y-118685436D02*
X226515000Y-119139564D01*
X227985000Y-118685436D02*
X227985000Y-119139564D01*
%TO.C,R6*%
X101110436Y-150015000D02*
X101564564Y-150015000D01*
X101110436Y-151485000D02*
X101564564Y-151485000D01*
%TO.C,R7*%
X104022936Y-147485000D02*
X104477064Y-147485000D01*
X104022936Y-146015000D02*
X104477064Y-146015000D01*
%TO.C,R8*%
X101110436Y-141015000D02*
X101564564Y-141015000D01*
X101110436Y-142485000D02*
X101564564Y-142485000D01*
%TO.C,R9*%
X104022936Y-137485000D02*
X104477064Y-137485000D01*
X104022936Y-136015000D02*
X104477064Y-136015000D01*
%TO.C,R10*%
X101022936Y-132015000D02*
X101477064Y-132015000D01*
X101022936Y-133485000D02*
X101477064Y-133485000D01*
%TO.C,R11*%
X104022936Y-128485000D02*
X104477064Y-128485000D01*
X104022936Y-127015000D02*
X104477064Y-127015000D01*
%TO.C,R12*%
X101022936Y-123015000D02*
X101477064Y-123015000D01*
X101022936Y-124485000D02*
X101477064Y-124485000D01*
%TO.C,R13*%
X104022936Y-119485000D02*
X104477064Y-119485000D01*
X104022936Y-118015000D02*
X104477064Y-118015000D01*
%TO.C,R14*%
X101022936Y-115485000D02*
X101477064Y-115485000D01*
X101022936Y-114015000D02*
X101477064Y-114015000D01*
%TO.C,R15*%
X104022936Y-109015000D02*
X104477064Y-109015000D01*
X104022936Y-110485000D02*
X104477064Y-110485000D01*
%TO.C,R16*%
X101022936Y-105015000D02*
X101477064Y-105015000D01*
X101022936Y-106485000D02*
X101477064Y-106485000D01*
%TO.C,R17*%
X104022936Y-101485000D02*
X104477064Y-101485000D01*
X104022936Y-100015000D02*
X104477064Y-100015000D01*
%TO.C,R18*%
X217564564Y-102015000D02*
X217110436Y-102015000D01*
X217564564Y-103485000D02*
X217110436Y-103485000D01*
%TO.C,R19*%
X194985000Y-147977064D02*
X194985000Y-147522936D01*
X193515000Y-147977064D02*
X193515000Y-147522936D01*
%TO.C,R20*%
X218985000Y-147977064D02*
X218985000Y-147522936D01*
X217515000Y-147977064D02*
X217515000Y-147522936D01*
%TO.C,R21*%
X240515000Y-147977064D02*
X240515000Y-147522936D01*
X241985000Y-147977064D02*
X241985000Y-147522936D01*
%TO.C,R22*%
X264515000Y-147977064D02*
X264515000Y-147522936D01*
X265985000Y-147977064D02*
X265985000Y-147522936D01*
%TO.C,RV1*%
X269255000Y-107229000D02*
X273520000Y-107229000D01*
X269255000Y-117270000D02*
X273520000Y-117270000D01*
X266480000Y-109806000D02*
X266480000Y-114695000D01*
X273520000Y-107229000D02*
X273520000Y-117270000D01*
X273520000Y-108880000D02*
X274320000Y-108880000D01*
X273520000Y-115620000D02*
X274320000Y-115620000D01*
X273520000Y-108880000D02*
X273520000Y-115620000D01*
X274320000Y-108880000D02*
X274320000Y-115620000D01*
X274320000Y-109130000D02*
X281720000Y-109130000D01*
X274320000Y-115370000D02*
X281720000Y-115370000D01*
X274320000Y-109130000D02*
X274320000Y-115370000D01*
X281720000Y-109130000D02*
X281720000Y-115370000D01*
%TO.C,SW1*%
X165850000Y-71860000D02*
X159029000Y-71860000D01*
X165850000Y-67640000D02*
X159029000Y-67640000D01*
X165850000Y-71860000D02*
X165850000Y-70790000D01*
X165850000Y-68710000D02*
X165850000Y-67640000D01*
X159029000Y-71860000D02*
X159029000Y-70740000D01*
X159029000Y-68760000D02*
X159029000Y-67640000D01*
X166090000Y-72100000D02*
X164707000Y-72100000D01*
X166090000Y-72100000D02*
X166090000Y-70790000D01*
X164250000Y-70385000D02*
X164250000Y-69115000D01*
X164250000Y-69115000D02*
X160630000Y-69115000D01*
X160630000Y-69115000D02*
X160630000Y-70385000D01*
X160630000Y-70385000D02*
X164250000Y-70385000D01*
X164250000Y-70265000D02*
X163043333Y-70265000D01*
X164250000Y-70145000D02*
X163043333Y-70145000D01*
X164250000Y-70025000D02*
X163043333Y-70025000D01*
X164250000Y-69905000D02*
X163043333Y-69905000D01*
X164250000Y-69785000D02*
X163043333Y-69785000D01*
X164250000Y-69665000D02*
X163043333Y-69665000D01*
X164250000Y-69545000D02*
X163043333Y-69545000D01*
X164250000Y-69425000D02*
X163043333Y-69425000D01*
X164250000Y-69305000D02*
X163043333Y-69305000D01*
X164250000Y-69185000D02*
X163043333Y-69185000D01*
X163043333Y-70385000D02*
X163043333Y-69115000D01*
%TO.C,SW2*%
X194250000Y-134480000D02*
X201870000Y-134480000D01*
X201870000Y-134480000D02*
X201870000Y-134780000D01*
X201870000Y-142100000D02*
X194250000Y-142100000D01*
X194250000Y-134480000D02*
X194250000Y-134780000D01*
X201870000Y-136720000D02*
X201870000Y-139860000D01*
X194250000Y-136720000D02*
X194250000Y-139860000D01*
X201870000Y-141800000D02*
X201870000Y-142100000D01*
X194250000Y-141800000D02*
X194250000Y-142100000D01*
X200600000Y-138290000D02*
G75*
G03*
X200600000Y-138290000I-2540000J0D01*
G01*
%TO.C,SW3*%
X224600000Y-138290000D02*
G75*
G03*
X224600000Y-138290000I-2540000J0D01*
G01*
X218250000Y-141800000D02*
X218250000Y-142100000D01*
X225870000Y-141800000D02*
X225870000Y-142100000D01*
X218250000Y-136720000D02*
X218250000Y-139860000D01*
X225870000Y-136720000D02*
X225870000Y-139860000D01*
X218250000Y-134480000D02*
X218250000Y-134780000D01*
X225870000Y-142100000D02*
X218250000Y-142100000D01*
X225870000Y-134480000D02*
X225870000Y-134780000D01*
X218250000Y-134480000D02*
X225870000Y-134480000D01*
%TO.C,SW4*%
X247600000Y-138290000D02*
G75*
G03*
X247600000Y-138290000I-2540000J0D01*
G01*
X241250000Y-141800000D02*
X241250000Y-142100000D01*
X248870000Y-141800000D02*
X248870000Y-142100000D01*
X241250000Y-136720000D02*
X241250000Y-139860000D01*
X248870000Y-136720000D02*
X248870000Y-139860000D01*
X241250000Y-134480000D02*
X241250000Y-134780000D01*
X248870000Y-142100000D02*
X241250000Y-142100000D01*
X248870000Y-134480000D02*
X248870000Y-134780000D01*
X241250000Y-134480000D02*
X248870000Y-134480000D01*
%TO.C,SW5*%
X265250000Y-134480000D02*
X272870000Y-134480000D01*
X272870000Y-134480000D02*
X272870000Y-134780000D01*
X272870000Y-142100000D02*
X265250000Y-142100000D01*
X265250000Y-134480000D02*
X265250000Y-134780000D01*
X272870000Y-136720000D02*
X272870000Y-139860000D01*
X265250000Y-136720000D02*
X265250000Y-139860000D01*
X272870000Y-141800000D02*
X272870000Y-142100000D01*
X265250000Y-141800000D02*
X265250000Y-142100000D01*
X271600000Y-138290000D02*
G75*
G03*
X271600000Y-138290000I-2540000J0D01*
G01*
%TO.C,U1*%
D11*
X224988095Y-103452380D02*
X224988095Y-104261904D01*
X225035714Y-104357142D01*
X225083333Y-104404761D01*
X225178571Y-104452380D01*
X225369047Y-104452380D01*
X225464285Y-104404761D01*
X225511904Y-104357142D01*
X225559523Y-104261904D01*
X225559523Y-103452380D01*
X226559523Y-104452380D02*
X225988095Y-104452380D01*
X226273809Y-104452380D02*
X226273809Y-103452380D01*
X226178571Y-103595238D01*
X226083333Y-103690476D01*
X225988095Y-103738095D01*
%TO.C,LCD1*%
X237202380Y-85916666D02*
X237202380Y-86392857D01*
X236202380Y-86392857D01*
X237107142Y-85011904D02*
X237154761Y-85059523D01*
X237202380Y-85202380D01*
X237202380Y-85297619D01*
X237154761Y-85440476D01*
X237059523Y-85535714D01*
X236964285Y-85583333D01*
X236773809Y-85630952D01*
X236630952Y-85630952D01*
X236440476Y-85583333D01*
X236345238Y-85535714D01*
X236250000Y-85440476D01*
X236202380Y-85297619D01*
X236202380Y-85202380D01*
X236250000Y-85059523D01*
X236297619Y-85011904D01*
X237202380Y-84583333D02*
X236202380Y-84583333D01*
X236202380Y-84345238D01*
X236250000Y-84202380D01*
X236345238Y-84107142D01*
X236440476Y-84059523D01*
X236630952Y-84011904D01*
X236773809Y-84011904D01*
X236964285Y-84059523D01*
X237059523Y-84107142D01*
X237154761Y-84202380D01*
X237202380Y-84345238D01*
X237202380Y-84583333D01*
X237202380Y-83059523D02*
X237202380Y-83630952D01*
X237202380Y-83345238D02*
X236202380Y-83345238D01*
X236345238Y-83440476D01*
X236440476Y-83535714D01*
X236488095Y-83630952D01*
%TO.C,REF\u002A\u002A*%
X126916666Y-67804380D02*
X126583333Y-67328190D01*
X126345238Y-67804380D02*
X126345238Y-66804380D01*
X126726190Y-66804380D01*
X126821428Y-66852000D01*
X126869047Y-66899619D01*
X126916666Y-66994857D01*
X126916666Y-67137714D01*
X126869047Y-67232952D01*
X126821428Y-67280571D01*
X126726190Y-67328190D01*
X126345238Y-67328190D01*
X127345238Y-67280571D02*
X127678571Y-67280571D01*
X127821428Y-67804380D02*
X127345238Y-67804380D01*
X127345238Y-66804380D01*
X127821428Y-66804380D01*
X128583333Y-67280571D02*
X128250000Y-67280571D01*
X128250000Y-67804380D02*
X128250000Y-66804380D01*
X128726190Y-66804380D01*
X129250000Y-66804380D02*
X129250000Y-67042476D01*
X129011904Y-66947238D02*
X129250000Y-67042476D01*
X129488095Y-66947238D01*
X129107142Y-67232952D02*
X129250000Y-67042476D01*
X129392857Y-67232952D01*
X130011904Y-66804380D02*
X130011904Y-67042476D01*
X129773809Y-66947238D02*
X130011904Y-67042476D01*
X130250000Y-66947238D01*
X129869047Y-67232952D02*
X130011904Y-67042476D01*
X130154761Y-67232952D01*
X127869047Y-72371428D02*
X128630952Y-72371428D01*
X135416666Y-67804380D02*
X135083333Y-67328190D01*
X134845238Y-67804380D02*
X134845238Y-66804380D01*
X135226190Y-66804380D01*
X135321428Y-66852000D01*
X135369047Y-66899619D01*
X135416666Y-66994857D01*
X135416666Y-67137714D01*
X135369047Y-67232952D01*
X135321428Y-67280571D01*
X135226190Y-67328190D01*
X134845238Y-67328190D01*
X135845238Y-67280571D02*
X136178571Y-67280571D01*
X136321428Y-67804380D02*
X135845238Y-67804380D01*
X135845238Y-66804380D01*
X136321428Y-66804380D01*
X137083333Y-67280571D02*
X136750000Y-67280571D01*
X136750000Y-67804380D02*
X136750000Y-66804380D01*
X137226190Y-66804380D01*
X137750000Y-66804380D02*
X137750000Y-67042476D01*
X137511904Y-66947238D02*
X137750000Y-67042476D01*
X137988095Y-66947238D01*
X137607142Y-67232952D02*
X137750000Y-67042476D01*
X137892857Y-67232952D01*
X138511904Y-66804380D02*
X138511904Y-67042476D01*
X138273809Y-66947238D02*
X138511904Y-67042476D01*
X138750000Y-66947238D01*
X138369047Y-67232952D02*
X138511904Y-67042476D01*
X138654761Y-67232952D01*
X136369047Y-72371428D02*
X137130952Y-72371428D01*
X136750000Y-72752380D02*
X136750000Y-71990476D01*
X30916666Y-151054380D02*
X30583333Y-150578190D01*
X30345238Y-151054380D02*
X30345238Y-150054380D01*
X30726190Y-150054380D01*
X30821428Y-150102000D01*
X30869047Y-150149619D01*
X30916666Y-150244857D01*
X30916666Y-150387714D01*
X30869047Y-150482952D01*
X30821428Y-150530571D01*
X30726190Y-150578190D01*
X30345238Y-150578190D01*
X31345238Y-150530571D02*
X31678571Y-150530571D01*
X31821428Y-151054380D02*
X31345238Y-151054380D01*
X31345238Y-150054380D01*
X31821428Y-150054380D01*
X32583333Y-150530571D02*
X32250000Y-150530571D01*
X32250000Y-151054380D02*
X32250000Y-150054380D01*
X32726190Y-150054380D01*
X33250000Y-150054380D02*
X33250000Y-150292476D01*
X33011904Y-150197238D02*
X33250000Y-150292476D01*
X33488095Y-150197238D01*
X33107142Y-150482952D02*
X33250000Y-150292476D01*
X33392857Y-150482952D01*
X34011904Y-150054380D02*
X34011904Y-150292476D01*
X33773809Y-150197238D02*
X34011904Y-150292476D01*
X34250000Y-150197238D01*
X33869047Y-150482952D02*
X34011904Y-150292476D01*
X34154761Y-150482952D01*
X30916666Y-146054380D02*
X30583333Y-145578190D01*
X30345238Y-146054380D02*
X30345238Y-145054380D01*
X30726190Y-145054380D01*
X30821428Y-145102000D01*
X30869047Y-145149619D01*
X30916666Y-145244857D01*
X30916666Y-145387714D01*
X30869047Y-145482952D01*
X30821428Y-145530571D01*
X30726190Y-145578190D01*
X30345238Y-145578190D01*
X31345238Y-145530571D02*
X31678571Y-145530571D01*
X31821428Y-146054380D02*
X31345238Y-146054380D01*
X31345238Y-145054380D01*
X31821428Y-145054380D01*
X32583333Y-145530571D02*
X32250000Y-145530571D01*
X32250000Y-146054380D02*
X32250000Y-145054380D01*
X32726190Y-145054380D01*
X33250000Y-145054380D02*
X33250000Y-145292476D01*
X33011904Y-145197238D02*
X33250000Y-145292476D01*
X33488095Y-145197238D01*
X33107142Y-145482952D02*
X33250000Y-145292476D01*
X33392857Y-145482952D01*
X34011904Y-145054380D02*
X34011904Y-145292476D01*
X33773809Y-145197238D02*
X34011904Y-145292476D01*
X34250000Y-145197238D01*
X33869047Y-145482952D02*
X34011904Y-145292476D01*
X34154761Y-145482952D01*
X30916666Y-142054380D02*
X30583333Y-141578190D01*
X30345238Y-142054380D02*
X30345238Y-141054380D01*
X30726190Y-141054380D01*
X30821428Y-141102000D01*
X30869047Y-141149619D01*
X30916666Y-141244857D01*
X30916666Y-141387714D01*
X30869047Y-141482952D01*
X30821428Y-141530571D01*
X30726190Y-141578190D01*
X30345238Y-141578190D01*
X31345238Y-141530571D02*
X31678571Y-141530571D01*
X31821428Y-142054380D02*
X31345238Y-142054380D01*
X31345238Y-141054380D01*
X31821428Y-141054380D01*
X32583333Y-141530571D02*
X32250000Y-141530571D01*
X32250000Y-142054380D02*
X32250000Y-141054380D01*
X32726190Y-141054380D01*
X33250000Y-141054380D02*
X33250000Y-141292476D01*
X33011904Y-141197238D02*
X33250000Y-141292476D01*
X33488095Y-141197238D01*
X33107142Y-141482952D02*
X33250000Y-141292476D01*
X33392857Y-141482952D01*
X34011904Y-141054380D02*
X34011904Y-141292476D01*
X33773809Y-141197238D02*
X34011904Y-141292476D01*
X34250000Y-141197238D01*
X33869047Y-141482952D02*
X34011904Y-141292476D01*
X34154761Y-141482952D01*
X30916666Y-137054380D02*
X30583333Y-136578190D01*
X30345238Y-137054380D02*
X30345238Y-136054380D01*
X30726190Y-136054380D01*
X30821428Y-136102000D01*
X30869047Y-136149619D01*
X30916666Y-136244857D01*
X30916666Y-136387714D01*
X30869047Y-136482952D01*
X30821428Y-136530571D01*
X30726190Y-136578190D01*
X30345238Y-136578190D01*
X31345238Y-136530571D02*
X31678571Y-136530571D01*
X31821428Y-137054380D02*
X31345238Y-137054380D01*
X31345238Y-136054380D01*
X31821428Y-136054380D01*
X32583333Y-136530571D02*
X32250000Y-136530571D01*
X32250000Y-137054380D02*
X32250000Y-136054380D01*
X32726190Y-136054380D01*
X33250000Y-136054380D02*
X33250000Y-136292476D01*
X33011904Y-136197238D02*
X33250000Y-136292476D01*
X33488095Y-136197238D01*
X33107142Y-136482952D02*
X33250000Y-136292476D01*
X33392857Y-136482952D01*
X34011904Y-136054380D02*
X34011904Y-136292476D01*
X33773809Y-136197238D02*
X34011904Y-136292476D01*
X34250000Y-136197238D01*
X33869047Y-136482952D02*
X34011904Y-136292476D01*
X34154761Y-136482952D01*
X30916666Y-133054380D02*
X30583333Y-132578190D01*
X30345238Y-133054380D02*
X30345238Y-132054380D01*
X30726190Y-132054380D01*
X30821428Y-132102000D01*
X30869047Y-132149619D01*
X30916666Y-132244857D01*
X30916666Y-132387714D01*
X30869047Y-132482952D01*
X30821428Y-132530571D01*
X30726190Y-132578190D01*
X30345238Y-132578190D01*
X31345238Y-132530571D02*
X31678571Y-132530571D01*
X31821428Y-133054380D02*
X31345238Y-133054380D01*
X31345238Y-132054380D01*
X31821428Y-132054380D01*
X32583333Y-132530571D02*
X32250000Y-132530571D01*
X32250000Y-133054380D02*
X32250000Y-132054380D01*
X32726190Y-132054380D01*
X33250000Y-132054380D02*
X33250000Y-132292476D01*
X33011904Y-132197238D02*
X33250000Y-132292476D01*
X33488095Y-132197238D01*
X33107142Y-132482952D02*
X33250000Y-132292476D01*
X33392857Y-132482952D01*
X34011904Y-132054380D02*
X34011904Y-132292476D01*
X33773809Y-132197238D02*
X34011904Y-132292476D01*
X34250000Y-132197238D01*
X33869047Y-132482952D02*
X34011904Y-132292476D01*
X34154761Y-132482952D01*
X30916666Y-128054380D02*
X30583333Y-127578190D01*
X30345238Y-128054380D02*
X30345238Y-127054380D01*
X30726190Y-127054380D01*
X30821428Y-127102000D01*
X30869047Y-127149619D01*
X30916666Y-127244857D01*
X30916666Y-127387714D01*
X30869047Y-127482952D01*
X30821428Y-127530571D01*
X30726190Y-127578190D01*
X30345238Y-127578190D01*
X31345238Y-127530571D02*
X31678571Y-127530571D01*
X31821428Y-128054380D02*
X31345238Y-128054380D01*
X31345238Y-127054380D01*
X31821428Y-127054380D01*
X32583333Y-127530571D02*
X32250000Y-127530571D01*
X32250000Y-128054380D02*
X32250000Y-127054380D01*
X32726190Y-127054380D01*
X33250000Y-127054380D02*
X33250000Y-127292476D01*
X33011904Y-127197238D02*
X33250000Y-127292476D01*
X33488095Y-127197238D01*
X33107142Y-127482952D02*
X33250000Y-127292476D01*
X33392857Y-127482952D01*
X34011904Y-127054380D02*
X34011904Y-127292476D01*
X33773809Y-127197238D02*
X34011904Y-127292476D01*
X34250000Y-127197238D01*
X33869047Y-127482952D02*
X34011904Y-127292476D01*
X34154761Y-127482952D01*
X30916666Y-124054380D02*
X30583333Y-123578190D01*
X30345238Y-124054380D02*
X30345238Y-123054380D01*
X30726190Y-123054380D01*
X30821428Y-123102000D01*
X30869047Y-123149619D01*
X30916666Y-123244857D01*
X30916666Y-123387714D01*
X30869047Y-123482952D01*
X30821428Y-123530571D01*
X30726190Y-123578190D01*
X30345238Y-123578190D01*
X31345238Y-123530571D02*
X31678571Y-123530571D01*
X31821428Y-124054380D02*
X31345238Y-124054380D01*
X31345238Y-123054380D01*
X31821428Y-123054380D01*
X32583333Y-123530571D02*
X32250000Y-123530571D01*
X32250000Y-124054380D02*
X32250000Y-123054380D01*
X32726190Y-123054380D01*
X33250000Y-123054380D02*
X33250000Y-123292476D01*
X33011904Y-123197238D02*
X33250000Y-123292476D01*
X33488095Y-123197238D01*
X33107142Y-123482952D02*
X33250000Y-123292476D01*
X33392857Y-123482952D01*
X34011904Y-123054380D02*
X34011904Y-123292476D01*
X33773809Y-123197238D02*
X34011904Y-123292476D01*
X34250000Y-123197238D01*
X33869047Y-123482952D02*
X34011904Y-123292476D01*
X34154761Y-123482952D01*
X30916666Y-119054380D02*
X30583333Y-118578190D01*
X30345238Y-119054380D02*
X30345238Y-118054380D01*
X30726190Y-118054380D01*
X30821428Y-118102000D01*
X30869047Y-118149619D01*
X30916666Y-118244857D01*
X30916666Y-118387714D01*
X30869047Y-118482952D01*
X30821428Y-118530571D01*
X30726190Y-118578190D01*
X30345238Y-118578190D01*
X31345238Y-118530571D02*
X31678571Y-118530571D01*
X31821428Y-119054380D02*
X31345238Y-119054380D01*
X31345238Y-118054380D01*
X31821428Y-118054380D01*
X32583333Y-118530571D02*
X32250000Y-118530571D01*
X32250000Y-119054380D02*
X32250000Y-118054380D01*
X32726190Y-118054380D01*
X33250000Y-118054380D02*
X33250000Y-118292476D01*
X33011904Y-118197238D02*
X33250000Y-118292476D01*
X33488095Y-118197238D01*
X33107142Y-118482952D02*
X33250000Y-118292476D01*
X33392857Y-118482952D01*
X34011904Y-118054380D02*
X34011904Y-118292476D01*
X33773809Y-118197238D02*
X34011904Y-118292476D01*
X34250000Y-118197238D01*
X33869047Y-118482952D02*
X34011904Y-118292476D01*
X34154761Y-118482952D01*
X30916666Y-115054380D02*
X30583333Y-114578190D01*
X30345238Y-115054380D02*
X30345238Y-114054380D01*
X30726190Y-114054380D01*
X30821428Y-114102000D01*
X30869047Y-114149619D01*
X30916666Y-114244857D01*
X30916666Y-114387714D01*
X30869047Y-114482952D01*
X30821428Y-114530571D01*
X30726190Y-114578190D01*
X30345238Y-114578190D01*
X31345238Y-114530571D02*
X31678571Y-114530571D01*
X31821428Y-115054380D02*
X31345238Y-115054380D01*
X31345238Y-114054380D01*
X31821428Y-114054380D01*
X32583333Y-114530571D02*
X32250000Y-114530571D01*
X32250000Y-115054380D02*
X32250000Y-114054380D01*
X32726190Y-114054380D01*
X33250000Y-114054380D02*
X33250000Y-114292476D01*
X33011904Y-114197238D02*
X33250000Y-114292476D01*
X33488095Y-114197238D01*
X33107142Y-114482952D02*
X33250000Y-114292476D01*
X33392857Y-114482952D01*
X34011904Y-114054380D02*
X34011904Y-114292476D01*
X33773809Y-114197238D02*
X34011904Y-114292476D01*
X34250000Y-114197238D01*
X33869047Y-114482952D02*
X34011904Y-114292476D01*
X34154761Y-114482952D01*
X30916666Y-110054380D02*
X30583333Y-109578190D01*
X30345238Y-110054380D02*
X30345238Y-109054380D01*
X30726190Y-109054380D01*
X30821428Y-109102000D01*
X30869047Y-109149619D01*
X30916666Y-109244857D01*
X30916666Y-109387714D01*
X30869047Y-109482952D01*
X30821428Y-109530571D01*
X30726190Y-109578190D01*
X30345238Y-109578190D01*
X31345238Y-109530571D02*
X31678571Y-109530571D01*
X31821428Y-110054380D02*
X31345238Y-110054380D01*
X31345238Y-109054380D01*
X31821428Y-109054380D01*
X32583333Y-109530571D02*
X32250000Y-109530571D01*
X32250000Y-110054380D02*
X32250000Y-109054380D01*
X32726190Y-109054380D01*
X33250000Y-109054380D02*
X33250000Y-109292476D01*
X33011904Y-109197238D02*
X33250000Y-109292476D01*
X33488095Y-109197238D01*
X33107142Y-109482952D02*
X33250000Y-109292476D01*
X33392857Y-109482952D01*
X34011904Y-109054380D02*
X34011904Y-109292476D01*
X33773809Y-109197238D02*
X34011904Y-109292476D01*
X34250000Y-109197238D01*
X33869047Y-109482952D02*
X34011904Y-109292476D01*
X34154761Y-109482952D01*
X30916666Y-106054380D02*
X30583333Y-105578190D01*
X30345238Y-106054380D02*
X30345238Y-105054380D01*
X30726190Y-105054380D01*
X30821428Y-105102000D01*
X30869047Y-105149619D01*
X30916666Y-105244857D01*
X30916666Y-105387714D01*
X30869047Y-105482952D01*
X30821428Y-105530571D01*
X30726190Y-105578190D01*
X30345238Y-105578190D01*
X31345238Y-105530571D02*
X31678571Y-105530571D01*
X31821428Y-106054380D02*
X31345238Y-106054380D01*
X31345238Y-105054380D01*
X31821428Y-105054380D01*
X32583333Y-105530571D02*
X32250000Y-105530571D01*
X32250000Y-106054380D02*
X32250000Y-105054380D01*
X32726190Y-105054380D01*
X33250000Y-105054380D02*
X33250000Y-105292476D01*
X33011904Y-105197238D02*
X33250000Y-105292476D01*
X33488095Y-105197238D01*
X33107142Y-105482952D02*
X33250000Y-105292476D01*
X33392857Y-105482952D01*
X34011904Y-105054380D02*
X34011904Y-105292476D01*
X33773809Y-105197238D02*
X34011904Y-105292476D01*
X34250000Y-105197238D01*
X33869047Y-105482952D02*
X34011904Y-105292476D01*
X34154761Y-105482952D01*
X30916666Y-101054380D02*
X30583333Y-100578190D01*
X30345238Y-101054380D02*
X30345238Y-100054380D01*
X30726190Y-100054380D01*
X30821428Y-100102000D01*
X30869047Y-100149619D01*
X30916666Y-100244857D01*
X30916666Y-100387714D01*
X30869047Y-100482952D01*
X30821428Y-100530571D01*
X30726190Y-100578190D01*
X30345238Y-100578190D01*
X31345238Y-100530571D02*
X31678571Y-100530571D01*
X31821428Y-101054380D02*
X31345238Y-101054380D01*
X31345238Y-100054380D01*
X31821428Y-100054380D01*
X32583333Y-100530571D02*
X32250000Y-100530571D01*
X32250000Y-101054380D02*
X32250000Y-100054380D01*
X32726190Y-100054380D01*
X33250000Y-100054380D02*
X33250000Y-100292476D01*
X33011904Y-100197238D02*
X33250000Y-100292476D01*
X33488095Y-100197238D01*
X33107142Y-100482952D02*
X33250000Y-100292476D01*
X33392857Y-100482952D01*
X34011904Y-100054380D02*
X34011904Y-100292476D01*
X33773809Y-100197238D02*
X34011904Y-100292476D01*
X34250000Y-100197238D01*
X33869047Y-100482952D02*
X34011904Y-100292476D01*
X34154761Y-100482952D01*
%TO.C,A1*%
X171226666Y-116734285D02*
X171226666Y-116258095D01*
X171512380Y-116829523D02*
X170512380Y-116496190D01*
X171512380Y-116162857D01*
X171512380Y-115305714D02*
X171512380Y-115877142D01*
X171512380Y-115591428D02*
X170512380Y-115591428D01*
X170655238Y-115686666D01*
X170750476Y-115781904D01*
X170798095Y-115877142D01*
%TO.C,D22*%
X90248214Y-107632380D02*
X90248214Y-106632380D01*
X90486309Y-106632380D01*
X90629166Y-106680000D01*
X90724404Y-106775238D01*
X90772023Y-106870476D01*
X90819642Y-107060952D01*
X90819642Y-107203809D01*
X90772023Y-107394285D01*
X90724404Y-107489523D01*
X90629166Y-107584761D01*
X90486309Y-107632380D01*
X90248214Y-107632380D01*
X91200595Y-106727619D02*
X91248214Y-106680000D01*
X91343452Y-106632380D01*
X91581547Y-106632380D01*
X91676785Y-106680000D01*
X91724404Y-106727619D01*
X91772023Y-106822857D01*
X91772023Y-106918095D01*
X91724404Y-107060952D01*
X91152976Y-107632380D01*
X91772023Y-107632380D01*
X92152976Y-106727619D02*
X92200595Y-106680000D01*
X92295833Y-106632380D01*
X92533928Y-106632380D01*
X92629166Y-106680000D01*
X92676785Y-106727619D01*
X92724404Y-106822857D01*
X92724404Y-106918095D01*
X92676785Y-107060952D01*
X92105357Y-107632380D01*
X92724404Y-107632380D01*
%TO.C,D44*%
X90248214Y-116632380D02*
X90248214Y-115632380D01*
X90486309Y-115632380D01*
X90629166Y-115680000D01*
X90724404Y-115775238D01*
X90772023Y-115870476D01*
X90819642Y-116060952D01*
X90819642Y-116203809D01*
X90772023Y-116394285D01*
X90724404Y-116489523D01*
X90629166Y-116584761D01*
X90486309Y-116632380D01*
X90248214Y-116632380D01*
X91676785Y-115965714D02*
X91676785Y-116632380D01*
X91438690Y-115584761D02*
X91200595Y-116299047D01*
X91819642Y-116299047D01*
X92629166Y-115965714D02*
X92629166Y-116632380D01*
X92391071Y-115584761D02*
X92152976Y-116299047D01*
X92772023Y-116299047D01*
%TO.C,D66*%
X90248214Y-125632380D02*
X90248214Y-124632380D01*
X90486309Y-124632380D01*
X90629166Y-124680000D01*
X90724404Y-124775238D01*
X90772023Y-124870476D01*
X90819642Y-125060952D01*
X90819642Y-125203809D01*
X90772023Y-125394285D01*
X90724404Y-125489523D01*
X90629166Y-125584761D01*
X90486309Y-125632380D01*
X90248214Y-125632380D01*
X91676785Y-124632380D02*
X91486309Y-124632380D01*
X91391071Y-124680000D01*
X91343452Y-124727619D01*
X91248214Y-124870476D01*
X91200595Y-125060952D01*
X91200595Y-125441904D01*
X91248214Y-125537142D01*
X91295833Y-125584761D01*
X91391071Y-125632380D01*
X91581547Y-125632380D01*
X91676785Y-125584761D01*
X91724404Y-125537142D01*
X91772023Y-125441904D01*
X91772023Y-125203809D01*
X91724404Y-125108571D01*
X91676785Y-125060952D01*
X91581547Y-125013333D01*
X91391071Y-125013333D01*
X91295833Y-125060952D01*
X91248214Y-125108571D01*
X91200595Y-125203809D01*
X92629166Y-124632380D02*
X92438690Y-124632380D01*
X92343452Y-124680000D01*
X92295833Y-124727619D01*
X92200595Y-124870476D01*
X92152976Y-125060952D01*
X92152976Y-125441904D01*
X92200595Y-125537142D01*
X92248214Y-125584761D01*
X92343452Y-125632380D01*
X92533928Y-125632380D01*
X92629166Y-125584761D01*
X92676785Y-125537142D01*
X92724404Y-125441904D01*
X92724404Y-125203809D01*
X92676785Y-125108571D01*
X92629166Y-125060952D01*
X92533928Y-125013333D01*
X92343452Y-125013333D01*
X92248214Y-125060952D01*
X92200595Y-125108571D01*
X92152976Y-125203809D01*
%TO.C,D88*%
X90248214Y-134632380D02*
X90248214Y-133632380D01*
X90486309Y-133632380D01*
X90629166Y-133680000D01*
X90724404Y-133775238D01*
X90772023Y-133870476D01*
X90819642Y-134060952D01*
X90819642Y-134203809D01*
X90772023Y-134394285D01*
X90724404Y-134489523D01*
X90629166Y-134584761D01*
X90486309Y-134632380D01*
X90248214Y-134632380D01*
X91391071Y-134060952D02*
X91295833Y-134013333D01*
X91248214Y-133965714D01*
X91200595Y-133870476D01*
X91200595Y-133822857D01*
X91248214Y-133727619D01*
X91295833Y-133680000D01*
X91391071Y-133632380D01*
X91581547Y-133632380D01*
X91676785Y-133680000D01*
X91724404Y-133727619D01*
X91772023Y-133822857D01*
X91772023Y-133870476D01*
X91724404Y-133965714D01*
X91676785Y-134013333D01*
X91581547Y-134060952D01*
X91391071Y-134060952D01*
X91295833Y-134108571D01*
X91248214Y-134156190D01*
X91200595Y-134251428D01*
X91200595Y-134441904D01*
X91248214Y-134537142D01*
X91295833Y-134584761D01*
X91391071Y-134632380D01*
X91581547Y-134632380D01*
X91676785Y-134584761D01*
X91724404Y-134537142D01*
X91772023Y-134441904D01*
X91772023Y-134251428D01*
X91724404Y-134156190D01*
X91676785Y-134108571D01*
X91581547Y-134060952D01*
X92343452Y-134060952D02*
X92248214Y-134013333D01*
X92200595Y-133965714D01*
X92152976Y-133870476D01*
X92152976Y-133822857D01*
X92200595Y-133727619D01*
X92248214Y-133680000D01*
X92343452Y-133632380D01*
X92533928Y-133632380D01*
X92629166Y-133680000D01*
X92676785Y-133727619D01*
X92724404Y-133822857D01*
X92724404Y-133870476D01*
X92676785Y-133965714D01*
X92629166Y-134013333D01*
X92533928Y-134060952D01*
X92343452Y-134060952D01*
X92248214Y-134108571D01*
X92200595Y-134156190D01*
X92152976Y-134251428D01*
X92152976Y-134441904D01*
X92200595Y-134537142D01*
X92248214Y-134584761D01*
X92343452Y-134632380D01*
X92533928Y-134632380D01*
X92629166Y-134584761D01*
X92676785Y-134537142D01*
X92724404Y-134441904D01*
X92724404Y-134251428D01*
X92676785Y-134156190D01*
X92629166Y-134108571D01*
X92533928Y-134060952D01*
%TO.C,D110*%
X89772023Y-143632380D02*
X89772023Y-142632380D01*
X90010119Y-142632380D01*
X90152976Y-142680000D01*
X90248214Y-142775238D01*
X90295833Y-142870476D01*
X90343452Y-143060952D01*
X90343452Y-143203809D01*
X90295833Y-143394285D01*
X90248214Y-143489523D01*
X90152976Y-143584761D01*
X90010119Y-143632380D01*
X89772023Y-143632380D01*
X91295833Y-143632380D02*
X90724404Y-143632380D01*
X91010119Y-143632380D02*
X91010119Y-142632380D01*
X90914880Y-142775238D01*
X90819642Y-142870476D01*
X90724404Y-142918095D01*
X92248214Y-143632380D02*
X91676785Y-143632380D01*
X91962500Y-143632380D02*
X91962500Y-142632380D01*
X91867261Y-142775238D01*
X91772023Y-142870476D01*
X91676785Y-142918095D01*
X92867261Y-142632380D02*
X92962500Y-142632380D01*
X93057738Y-142680000D01*
X93105357Y-142727619D01*
X93152976Y-142822857D01*
X93200595Y-143013333D01*
X93200595Y-143251428D01*
X93152976Y-143441904D01*
X93105357Y-143537142D01*
X93057738Y-143584761D01*
X92962500Y-143632380D01*
X92867261Y-143632380D01*
X92772023Y-143584761D01*
X92724404Y-143537142D01*
X92676785Y-143441904D01*
X92629166Y-143251428D01*
X92629166Y-143013333D01*
X92676785Y-142822857D01*
X92724404Y-142727619D01*
X92772023Y-142680000D01*
X92867261Y-142632380D01*
%TO.C,D132*%
X89772023Y-152632380D02*
X89772023Y-151632380D01*
X90010119Y-151632380D01*
X90152976Y-151680000D01*
X90248214Y-151775238D01*
X90295833Y-151870476D01*
X90343452Y-152060952D01*
X90343452Y-152203809D01*
X90295833Y-152394285D01*
X90248214Y-152489523D01*
X90152976Y-152584761D01*
X90010119Y-152632380D01*
X89772023Y-152632380D01*
X91295833Y-152632380D02*
X90724404Y-152632380D01*
X91010119Y-152632380D02*
X91010119Y-151632380D01*
X90914880Y-151775238D01*
X90819642Y-151870476D01*
X90724404Y-151918095D01*
X91629166Y-151632380D02*
X92248214Y-151632380D01*
X91914880Y-152013333D01*
X92057738Y-152013333D01*
X92152976Y-152060952D01*
X92200595Y-152108571D01*
X92248214Y-152203809D01*
X92248214Y-152441904D01*
X92200595Y-152537142D01*
X92152976Y-152584761D01*
X92057738Y-152632380D01*
X91772023Y-152632380D01*
X91676785Y-152584761D01*
X91629166Y-152537142D01*
X92629166Y-151727619D02*
X92676785Y-151680000D01*
X92772023Y-151632380D01*
X93010119Y-151632380D01*
X93105357Y-151680000D01*
X93152976Y-151727619D01*
X93200595Y-151822857D01*
X93200595Y-151918095D01*
X93152976Y-152060952D01*
X92581547Y-152632380D01*
X93200595Y-152632380D01*
%TO.C,R1*%
X202352380Y-107004166D02*
X201876190Y-107337500D01*
X202352380Y-107575595D02*
X201352380Y-107575595D01*
X201352380Y-107194642D01*
X201400000Y-107099404D01*
X201447619Y-107051785D01*
X201542857Y-107004166D01*
X201685714Y-107004166D01*
X201780952Y-107051785D01*
X201828571Y-107099404D01*
X201876190Y-107194642D01*
X201876190Y-107575595D01*
X202352380Y-106051785D02*
X202352380Y-106623214D01*
X202352380Y-106337500D02*
X201352380Y-106337500D01*
X201495238Y-106432738D01*
X201590476Y-106527976D01*
X201638095Y-106623214D01*
X199052380Y-107432738D02*
X199052380Y-108004166D01*
X199052380Y-107718452D02*
X198052380Y-107718452D01*
X198195238Y-107813690D01*
X198290476Y-107908928D01*
X198338095Y-108004166D01*
X198052380Y-106813690D02*
X198052380Y-106718452D01*
X198100000Y-106623214D01*
X198147619Y-106575595D01*
X198242857Y-106527976D01*
X198433333Y-106480357D01*
X198671428Y-106480357D01*
X198861904Y-106527976D01*
X198957142Y-106575595D01*
X199004761Y-106623214D01*
X199052380Y-106718452D01*
X199052380Y-106813690D01*
X199004761Y-106908928D01*
X198957142Y-106956547D01*
X198861904Y-107004166D01*
X198671428Y-107051785D01*
X198433333Y-107051785D01*
X198242857Y-107004166D01*
X198147619Y-106956547D01*
X198100000Y-106908928D01*
X198052380Y-106813690D01*
X199052380Y-106051785D02*
X198052380Y-106051785D01*
X198671428Y-105956547D02*
X199052380Y-105670833D01*
X198385714Y-105670833D02*
X198766666Y-106051785D01*
%TO.C,R2*%
X207602380Y-106916666D02*
X207126190Y-107250000D01*
X207602380Y-107488095D02*
X206602380Y-107488095D01*
X206602380Y-107107142D01*
X206650000Y-107011904D01*
X206697619Y-106964285D01*
X206792857Y-106916666D01*
X206935714Y-106916666D01*
X207030952Y-106964285D01*
X207078571Y-107011904D01*
X207126190Y-107107142D01*
X207126190Y-107488095D01*
X206697619Y-106535714D02*
X206650000Y-106488095D01*
X206602380Y-106392857D01*
X206602380Y-106154761D01*
X206650000Y-106059523D01*
X206697619Y-106011904D01*
X206792857Y-105964285D01*
X206888095Y-105964285D01*
X207030952Y-106011904D01*
X207602380Y-106583333D01*
X207602380Y-105964285D01*
X204302380Y-107345238D02*
X204302380Y-107916666D01*
X204302380Y-107630952D02*
X203302380Y-107630952D01*
X203445238Y-107726190D01*
X203540476Y-107821428D01*
X203588095Y-107916666D01*
X203302380Y-106726190D02*
X203302380Y-106630952D01*
X203350000Y-106535714D01*
X203397619Y-106488095D01*
X203492857Y-106440476D01*
X203683333Y-106392857D01*
X203921428Y-106392857D01*
X204111904Y-106440476D01*
X204207142Y-106488095D01*
X204254761Y-106535714D01*
X204302380Y-106630952D01*
X204302380Y-106726190D01*
X204254761Y-106821428D01*
X204207142Y-106869047D01*
X204111904Y-106916666D01*
X203921428Y-106964285D01*
X203683333Y-106964285D01*
X203492857Y-106916666D01*
X203397619Y-106869047D01*
X203350000Y-106821428D01*
X203302380Y-106726190D01*
X204302380Y-105964285D02*
X203302380Y-105964285D01*
X203921428Y-105869047D02*
X204302380Y-105583333D01*
X203635714Y-105583333D02*
X204016666Y-105964285D01*
%TO.C,R3*%
X219102380Y-119079166D02*
X218626190Y-119412500D01*
X219102380Y-119650595D02*
X218102380Y-119650595D01*
X218102380Y-119269642D01*
X218150000Y-119174404D01*
X218197619Y-119126785D01*
X218292857Y-119079166D01*
X218435714Y-119079166D01*
X218530952Y-119126785D01*
X218578571Y-119174404D01*
X218626190Y-119269642D01*
X218626190Y-119650595D01*
X218102380Y-118745833D02*
X218102380Y-118126785D01*
X218483333Y-118460119D01*
X218483333Y-118317261D01*
X218530952Y-118222023D01*
X218578571Y-118174404D01*
X218673809Y-118126785D01*
X218911904Y-118126785D01*
X219007142Y-118174404D01*
X219054761Y-118222023D01*
X219102380Y-118317261D01*
X219102380Y-118602976D01*
X219054761Y-118698214D01*
X219007142Y-118745833D01*
X215802380Y-119507738D02*
X215802380Y-120079166D01*
X215802380Y-119793452D02*
X214802380Y-119793452D01*
X214945238Y-119888690D01*
X215040476Y-119983928D01*
X215088095Y-120079166D01*
X214802380Y-118888690D02*
X214802380Y-118793452D01*
X214850000Y-118698214D01*
X214897619Y-118650595D01*
X214992857Y-118602976D01*
X215183333Y-118555357D01*
X215421428Y-118555357D01*
X215611904Y-118602976D01*
X215707142Y-118650595D01*
X215754761Y-118698214D01*
X215802380Y-118793452D01*
X215802380Y-118888690D01*
X215754761Y-118983928D01*
X215707142Y-119031547D01*
X215611904Y-119079166D01*
X215421428Y-119126785D01*
X215183333Y-119126785D01*
X214992857Y-119079166D01*
X214897619Y-119031547D01*
X214850000Y-118983928D01*
X214802380Y-118888690D01*
X215802380Y-118126785D02*
X214802380Y-118126785D01*
X215421428Y-118031547D02*
X215802380Y-117745833D01*
X215135714Y-117745833D02*
X215516666Y-118126785D01*
%TO.C,R4*%
X223852380Y-119079166D02*
X223376190Y-119412500D01*
X223852380Y-119650595D02*
X222852380Y-119650595D01*
X222852380Y-119269642D01*
X222900000Y-119174404D01*
X222947619Y-119126785D01*
X223042857Y-119079166D01*
X223185714Y-119079166D01*
X223280952Y-119126785D01*
X223328571Y-119174404D01*
X223376190Y-119269642D01*
X223376190Y-119650595D01*
X223185714Y-118222023D02*
X223852380Y-118222023D01*
X222804761Y-118460119D02*
X223519047Y-118698214D01*
X223519047Y-118079166D01*
X220552380Y-119507738D02*
X220552380Y-120079166D01*
X220552380Y-119793452D02*
X219552380Y-119793452D01*
X219695238Y-119888690D01*
X219790476Y-119983928D01*
X219838095Y-120079166D01*
X219552380Y-118888690D02*
X219552380Y-118793452D01*
X219600000Y-118698214D01*
X219647619Y-118650595D01*
X219742857Y-118602976D01*
X219933333Y-118555357D01*
X220171428Y-118555357D01*
X220361904Y-118602976D01*
X220457142Y-118650595D01*
X220504761Y-118698214D01*
X220552380Y-118793452D01*
X220552380Y-118888690D01*
X220504761Y-118983928D01*
X220457142Y-119031547D01*
X220361904Y-119079166D01*
X220171428Y-119126785D01*
X219933333Y-119126785D01*
X219742857Y-119079166D01*
X219647619Y-119031547D01*
X219600000Y-118983928D01*
X219552380Y-118888690D01*
X220552380Y-118126785D02*
X219552380Y-118126785D01*
X220171428Y-118031547D02*
X220552380Y-117745833D01*
X219885714Y-117745833D02*
X220266666Y-118126785D01*
%TO.C,R5*%
X229352380Y-119079166D02*
X228876190Y-119412500D01*
X229352380Y-119650595D02*
X228352380Y-119650595D01*
X228352380Y-119269642D01*
X228400000Y-119174404D01*
X228447619Y-119126785D01*
X228542857Y-119079166D01*
X228685714Y-119079166D01*
X228780952Y-119126785D01*
X228828571Y-119174404D01*
X228876190Y-119269642D01*
X228876190Y-119650595D01*
X228352380Y-118174404D02*
X228352380Y-118650595D01*
X228828571Y-118698214D01*
X228780952Y-118650595D01*
X228733333Y-118555357D01*
X228733333Y-118317261D01*
X228780952Y-118222023D01*
X228828571Y-118174404D01*
X228923809Y-118126785D01*
X229161904Y-118126785D01*
X229257142Y-118174404D01*
X229304761Y-118222023D01*
X229352380Y-118317261D01*
X229352380Y-118555357D01*
X229304761Y-118650595D01*
X229257142Y-118698214D01*
X226052380Y-119507738D02*
X226052380Y-120079166D01*
X226052380Y-119793452D02*
X225052380Y-119793452D01*
X225195238Y-119888690D01*
X225290476Y-119983928D01*
X225338095Y-120079166D01*
X225052380Y-118888690D02*
X225052380Y-118793452D01*
X225100000Y-118698214D01*
X225147619Y-118650595D01*
X225242857Y-118602976D01*
X225433333Y-118555357D01*
X225671428Y-118555357D01*
X225861904Y-118602976D01*
X225957142Y-118650595D01*
X226004761Y-118698214D01*
X226052380Y-118793452D01*
X226052380Y-118888690D01*
X226004761Y-118983928D01*
X225957142Y-119031547D01*
X225861904Y-119079166D01*
X225671428Y-119126785D01*
X225433333Y-119126785D01*
X225242857Y-119079166D01*
X225147619Y-119031547D01*
X225100000Y-118983928D01*
X225052380Y-118888690D01*
X226052380Y-118126785D02*
X225052380Y-118126785D01*
X225671428Y-118031547D02*
X226052380Y-117745833D01*
X225385714Y-117745833D02*
X225766666Y-118126785D01*
%TO.C,R6*%
X101170833Y-149552380D02*
X100837500Y-149076190D01*
X100599404Y-149552380D02*
X100599404Y-148552380D01*
X100980357Y-148552380D01*
X101075595Y-148600000D01*
X101123214Y-148647619D01*
X101170833Y-148742857D01*
X101170833Y-148885714D01*
X101123214Y-148980952D01*
X101075595Y-149028571D01*
X100980357Y-149076190D01*
X100599404Y-149076190D01*
X102027976Y-148552380D02*
X101837500Y-148552380D01*
X101742261Y-148600000D01*
X101694642Y-148647619D01*
X101599404Y-148790476D01*
X101551785Y-148980952D01*
X101551785Y-149361904D01*
X101599404Y-149457142D01*
X101647023Y-149504761D01*
X101742261Y-149552380D01*
X101932738Y-149552380D01*
X102027976Y-149504761D01*
X102075595Y-149457142D01*
X102123214Y-149361904D01*
X102123214Y-149123809D01*
X102075595Y-149028571D01*
X102027976Y-148980952D01*
X101932738Y-148933333D01*
X101742261Y-148933333D01*
X101647023Y-148980952D01*
X101599404Y-149028571D01*
X101551785Y-149123809D01*
X100099404Y-151947619D02*
X100147023Y-151900000D01*
X100242261Y-151852380D01*
X100480357Y-151852380D01*
X100575595Y-151900000D01*
X100623214Y-151947619D01*
X100670833Y-152042857D01*
X100670833Y-152138095D01*
X100623214Y-152280952D01*
X100051785Y-152852380D01*
X100670833Y-152852380D01*
X101051785Y-151947619D02*
X101099404Y-151900000D01*
X101194642Y-151852380D01*
X101432738Y-151852380D01*
X101527976Y-151900000D01*
X101575595Y-151947619D01*
X101623214Y-152042857D01*
X101623214Y-152138095D01*
X101575595Y-152280952D01*
X101004166Y-152852380D01*
X101623214Y-152852380D01*
X102242261Y-151852380D02*
X102337500Y-151852380D01*
X102432738Y-151900000D01*
X102480357Y-151947619D01*
X102527976Y-152042857D01*
X102575595Y-152233333D01*
X102575595Y-152471428D01*
X102527976Y-152661904D01*
X102480357Y-152757142D01*
X102432738Y-152804761D01*
X102337500Y-152852380D01*
X102242261Y-152852380D01*
X102147023Y-152804761D01*
X102099404Y-152757142D01*
X102051785Y-152661904D01*
X102004166Y-152471428D01*
X102004166Y-152233333D01*
X102051785Y-152042857D01*
X102099404Y-151947619D01*
X102147023Y-151900000D01*
X102242261Y-151852380D01*
%TO.C,R7*%
X104083333Y-145552380D02*
X103750000Y-145076190D01*
X103511904Y-145552380D02*
X103511904Y-144552380D01*
X103892857Y-144552380D01*
X103988095Y-144600000D01*
X104035714Y-144647619D01*
X104083333Y-144742857D01*
X104083333Y-144885714D01*
X104035714Y-144980952D01*
X103988095Y-145028571D01*
X103892857Y-145076190D01*
X103511904Y-145076190D01*
X104416666Y-144552380D02*
X105083333Y-144552380D01*
X104654761Y-145552380D01*
X103011904Y-147947619D02*
X103059523Y-147900000D01*
X103154761Y-147852380D01*
X103392857Y-147852380D01*
X103488095Y-147900000D01*
X103535714Y-147947619D01*
X103583333Y-148042857D01*
X103583333Y-148138095D01*
X103535714Y-148280952D01*
X102964285Y-148852380D01*
X103583333Y-148852380D01*
X103964285Y-147947619D02*
X104011904Y-147900000D01*
X104107142Y-147852380D01*
X104345238Y-147852380D01*
X104440476Y-147900000D01*
X104488095Y-147947619D01*
X104535714Y-148042857D01*
X104535714Y-148138095D01*
X104488095Y-148280952D01*
X103916666Y-148852380D01*
X104535714Y-148852380D01*
X105154761Y-147852380D02*
X105250000Y-147852380D01*
X105345238Y-147900000D01*
X105392857Y-147947619D01*
X105440476Y-148042857D01*
X105488095Y-148233333D01*
X105488095Y-148471428D01*
X105440476Y-148661904D01*
X105392857Y-148757142D01*
X105345238Y-148804761D01*
X105250000Y-148852380D01*
X105154761Y-148852380D01*
X105059523Y-148804761D01*
X105011904Y-148757142D01*
X104964285Y-148661904D01*
X104916666Y-148471428D01*
X104916666Y-148233333D01*
X104964285Y-148042857D01*
X105011904Y-147947619D01*
X105059523Y-147900000D01*
X105154761Y-147852380D01*
%TO.C,R8*%
X101170833Y-140552380D02*
X100837500Y-140076190D01*
X100599404Y-140552380D02*
X100599404Y-139552380D01*
X100980357Y-139552380D01*
X101075595Y-139600000D01*
X101123214Y-139647619D01*
X101170833Y-139742857D01*
X101170833Y-139885714D01*
X101123214Y-139980952D01*
X101075595Y-140028571D01*
X100980357Y-140076190D01*
X100599404Y-140076190D01*
X101742261Y-139980952D02*
X101647023Y-139933333D01*
X101599404Y-139885714D01*
X101551785Y-139790476D01*
X101551785Y-139742857D01*
X101599404Y-139647619D01*
X101647023Y-139600000D01*
X101742261Y-139552380D01*
X101932738Y-139552380D01*
X102027976Y-139600000D01*
X102075595Y-139647619D01*
X102123214Y-139742857D01*
X102123214Y-139790476D01*
X102075595Y-139885714D01*
X102027976Y-139933333D01*
X101932738Y-139980952D01*
X101742261Y-139980952D01*
X101647023Y-140028571D01*
X101599404Y-140076190D01*
X101551785Y-140171428D01*
X101551785Y-140361904D01*
X101599404Y-140457142D01*
X101647023Y-140504761D01*
X101742261Y-140552380D01*
X101932738Y-140552380D01*
X102027976Y-140504761D01*
X102075595Y-140457142D01*
X102123214Y-140361904D01*
X102123214Y-140171428D01*
X102075595Y-140076190D01*
X102027976Y-140028571D01*
X101932738Y-139980952D01*
X100099404Y-142947619D02*
X100147023Y-142900000D01*
X100242261Y-142852380D01*
X100480357Y-142852380D01*
X100575595Y-142900000D01*
X100623214Y-142947619D01*
X100670833Y-143042857D01*
X100670833Y-143138095D01*
X100623214Y-143280952D01*
X100051785Y-143852380D01*
X100670833Y-143852380D01*
X101051785Y-142947619D02*
X101099404Y-142900000D01*
X101194642Y-142852380D01*
X101432738Y-142852380D01*
X101527976Y-142900000D01*
X101575595Y-142947619D01*
X101623214Y-143042857D01*
X101623214Y-143138095D01*
X101575595Y-143280952D01*
X101004166Y-143852380D01*
X101623214Y-143852380D01*
X102242261Y-142852380D02*
X102337500Y-142852380D01*
X102432738Y-142900000D01*
X102480357Y-142947619D01*
X102527976Y-143042857D01*
X102575595Y-143233333D01*
X102575595Y-143471428D01*
X102527976Y-143661904D01*
X102480357Y-143757142D01*
X102432738Y-143804761D01*
X102337500Y-143852380D01*
X102242261Y-143852380D01*
X102147023Y-143804761D01*
X102099404Y-143757142D01*
X102051785Y-143661904D01*
X102004166Y-143471428D01*
X102004166Y-143233333D01*
X102051785Y-143042857D01*
X102099404Y-142947619D01*
X102147023Y-142900000D01*
X102242261Y-142852380D01*
%TO.C,R9*%
X104083333Y-135552380D02*
X103750000Y-135076190D01*
X103511904Y-135552380D02*
X103511904Y-134552380D01*
X103892857Y-134552380D01*
X103988095Y-134600000D01*
X104035714Y-134647619D01*
X104083333Y-134742857D01*
X104083333Y-134885714D01*
X104035714Y-134980952D01*
X103988095Y-135028571D01*
X103892857Y-135076190D01*
X103511904Y-135076190D01*
X104559523Y-135552380D02*
X104750000Y-135552380D01*
X104845238Y-135504761D01*
X104892857Y-135457142D01*
X104988095Y-135314285D01*
X105035714Y-135123809D01*
X105035714Y-134742857D01*
X104988095Y-134647619D01*
X104940476Y-134600000D01*
X104845238Y-134552380D01*
X104654761Y-134552380D01*
X104559523Y-134600000D01*
X104511904Y-134647619D01*
X104464285Y-134742857D01*
X104464285Y-134980952D01*
X104511904Y-135076190D01*
X104559523Y-135123809D01*
X104654761Y-135171428D01*
X104845238Y-135171428D01*
X104940476Y-135123809D01*
X104988095Y-135076190D01*
X105035714Y-134980952D01*
X103011904Y-137947619D02*
X103059523Y-137900000D01*
X103154761Y-137852380D01*
X103392857Y-137852380D01*
X103488095Y-137900000D01*
X103535714Y-137947619D01*
X103583333Y-138042857D01*
X103583333Y-138138095D01*
X103535714Y-138280952D01*
X102964285Y-138852380D01*
X103583333Y-138852380D01*
X103964285Y-137947619D02*
X104011904Y-137900000D01*
X104107142Y-137852380D01*
X104345238Y-137852380D01*
X104440476Y-137900000D01*
X104488095Y-137947619D01*
X104535714Y-138042857D01*
X104535714Y-138138095D01*
X104488095Y-138280952D01*
X103916666Y-138852380D01*
X104535714Y-138852380D01*
X105154761Y-137852380D02*
X105250000Y-137852380D01*
X105345238Y-137900000D01*
X105392857Y-137947619D01*
X105440476Y-138042857D01*
X105488095Y-138233333D01*
X105488095Y-138471428D01*
X105440476Y-138661904D01*
X105392857Y-138757142D01*
X105345238Y-138804761D01*
X105250000Y-138852380D01*
X105154761Y-138852380D01*
X105059523Y-138804761D01*
X105011904Y-138757142D01*
X104964285Y-138661904D01*
X104916666Y-138471428D01*
X104916666Y-138233333D01*
X104964285Y-138042857D01*
X105011904Y-137947619D01*
X105059523Y-137900000D01*
X105154761Y-137852380D01*
%TO.C,R10*%
X100607142Y-131552380D02*
X100273809Y-131076190D01*
X100035714Y-131552380D02*
X100035714Y-130552380D01*
X100416666Y-130552380D01*
X100511904Y-130600000D01*
X100559523Y-130647619D01*
X100607142Y-130742857D01*
X100607142Y-130885714D01*
X100559523Y-130980952D01*
X100511904Y-131028571D01*
X100416666Y-131076190D01*
X100035714Y-131076190D01*
X101559523Y-131552380D02*
X100988095Y-131552380D01*
X101273809Y-131552380D02*
X101273809Y-130552380D01*
X101178571Y-130695238D01*
X101083333Y-130790476D01*
X100988095Y-130838095D01*
X102178571Y-130552380D02*
X102273809Y-130552380D01*
X102369047Y-130600000D01*
X102416666Y-130647619D01*
X102464285Y-130742857D01*
X102511904Y-130933333D01*
X102511904Y-131171428D01*
X102464285Y-131361904D01*
X102416666Y-131457142D01*
X102369047Y-131504761D01*
X102273809Y-131552380D01*
X102178571Y-131552380D01*
X102083333Y-131504761D01*
X102035714Y-131457142D01*
X101988095Y-131361904D01*
X101940476Y-131171428D01*
X101940476Y-130933333D01*
X101988095Y-130742857D01*
X102035714Y-130647619D01*
X102083333Y-130600000D01*
X102178571Y-130552380D01*
X100011904Y-133947619D02*
X100059523Y-133900000D01*
X100154761Y-133852380D01*
X100392857Y-133852380D01*
X100488095Y-133900000D01*
X100535714Y-133947619D01*
X100583333Y-134042857D01*
X100583333Y-134138095D01*
X100535714Y-134280952D01*
X99964285Y-134852380D01*
X100583333Y-134852380D01*
X100964285Y-133947619D02*
X101011904Y-133900000D01*
X101107142Y-133852380D01*
X101345238Y-133852380D01*
X101440476Y-133900000D01*
X101488095Y-133947619D01*
X101535714Y-134042857D01*
X101535714Y-134138095D01*
X101488095Y-134280952D01*
X100916666Y-134852380D01*
X101535714Y-134852380D01*
X102154761Y-133852380D02*
X102250000Y-133852380D01*
X102345238Y-133900000D01*
X102392857Y-133947619D01*
X102440476Y-134042857D01*
X102488095Y-134233333D01*
X102488095Y-134471428D01*
X102440476Y-134661904D01*
X102392857Y-134757142D01*
X102345238Y-134804761D01*
X102250000Y-134852380D01*
X102154761Y-134852380D01*
X102059523Y-134804761D01*
X102011904Y-134757142D01*
X101964285Y-134661904D01*
X101916666Y-134471428D01*
X101916666Y-134233333D01*
X101964285Y-134042857D01*
X102011904Y-133947619D01*
X102059523Y-133900000D01*
X102154761Y-133852380D01*
%TO.C,R11*%
X103607142Y-126552380D02*
X103273809Y-126076190D01*
X103035714Y-126552380D02*
X103035714Y-125552380D01*
X103416666Y-125552380D01*
X103511904Y-125600000D01*
X103559523Y-125647619D01*
X103607142Y-125742857D01*
X103607142Y-125885714D01*
X103559523Y-125980952D01*
X103511904Y-126028571D01*
X103416666Y-126076190D01*
X103035714Y-126076190D01*
X104559523Y-126552380D02*
X103988095Y-126552380D01*
X104273809Y-126552380D02*
X104273809Y-125552380D01*
X104178571Y-125695238D01*
X104083333Y-125790476D01*
X103988095Y-125838095D01*
X105511904Y-126552380D02*
X104940476Y-126552380D01*
X105226190Y-126552380D02*
X105226190Y-125552380D01*
X105130952Y-125695238D01*
X105035714Y-125790476D01*
X104940476Y-125838095D01*
X103011904Y-128947619D02*
X103059523Y-128900000D01*
X103154761Y-128852380D01*
X103392857Y-128852380D01*
X103488095Y-128900000D01*
X103535714Y-128947619D01*
X103583333Y-129042857D01*
X103583333Y-129138095D01*
X103535714Y-129280952D01*
X102964285Y-129852380D01*
X103583333Y-129852380D01*
X103964285Y-128947619D02*
X104011904Y-128900000D01*
X104107142Y-128852380D01*
X104345238Y-128852380D01*
X104440476Y-128900000D01*
X104488095Y-128947619D01*
X104535714Y-129042857D01*
X104535714Y-129138095D01*
X104488095Y-129280952D01*
X103916666Y-129852380D01*
X104535714Y-129852380D01*
X105154761Y-128852380D02*
X105250000Y-128852380D01*
X105345238Y-128900000D01*
X105392857Y-128947619D01*
X105440476Y-129042857D01*
X105488095Y-129233333D01*
X105488095Y-129471428D01*
X105440476Y-129661904D01*
X105392857Y-129757142D01*
X105345238Y-129804761D01*
X105250000Y-129852380D01*
X105154761Y-129852380D01*
X105059523Y-129804761D01*
X105011904Y-129757142D01*
X104964285Y-129661904D01*
X104916666Y-129471428D01*
X104916666Y-129233333D01*
X104964285Y-129042857D01*
X105011904Y-128947619D01*
X105059523Y-128900000D01*
X105154761Y-128852380D01*
%TO.C,R12*%
X100607142Y-122552380D02*
X100273809Y-122076190D01*
X100035714Y-122552380D02*
X100035714Y-121552380D01*
X100416666Y-121552380D01*
X100511904Y-121600000D01*
X100559523Y-121647619D01*
X100607142Y-121742857D01*
X100607142Y-121885714D01*
X100559523Y-121980952D01*
X100511904Y-122028571D01*
X100416666Y-122076190D01*
X100035714Y-122076190D01*
X101559523Y-122552380D02*
X100988095Y-122552380D01*
X101273809Y-122552380D02*
X101273809Y-121552380D01*
X101178571Y-121695238D01*
X101083333Y-121790476D01*
X100988095Y-121838095D01*
X101940476Y-121647619D02*
X101988095Y-121600000D01*
X102083333Y-121552380D01*
X102321428Y-121552380D01*
X102416666Y-121600000D01*
X102464285Y-121647619D01*
X102511904Y-121742857D01*
X102511904Y-121838095D01*
X102464285Y-121980952D01*
X101892857Y-122552380D01*
X102511904Y-122552380D01*
X100011904Y-124947619D02*
X100059523Y-124900000D01*
X100154761Y-124852380D01*
X100392857Y-124852380D01*
X100488095Y-124900000D01*
X100535714Y-124947619D01*
X100583333Y-125042857D01*
X100583333Y-125138095D01*
X100535714Y-125280952D01*
X99964285Y-125852380D01*
X100583333Y-125852380D01*
X100964285Y-124947619D02*
X101011904Y-124900000D01*
X101107142Y-124852380D01*
X101345238Y-124852380D01*
X101440476Y-124900000D01*
X101488095Y-124947619D01*
X101535714Y-125042857D01*
X101535714Y-125138095D01*
X101488095Y-125280952D01*
X100916666Y-125852380D01*
X101535714Y-125852380D01*
X102154761Y-124852380D02*
X102250000Y-124852380D01*
X102345238Y-124900000D01*
X102392857Y-124947619D01*
X102440476Y-125042857D01*
X102488095Y-125233333D01*
X102488095Y-125471428D01*
X102440476Y-125661904D01*
X102392857Y-125757142D01*
X102345238Y-125804761D01*
X102250000Y-125852380D01*
X102154761Y-125852380D01*
X102059523Y-125804761D01*
X102011904Y-125757142D01*
X101964285Y-125661904D01*
X101916666Y-125471428D01*
X101916666Y-125233333D01*
X101964285Y-125042857D01*
X102011904Y-124947619D01*
X102059523Y-124900000D01*
X102154761Y-124852380D01*
%TO.C,R13*%
X103607142Y-117552380D02*
X103273809Y-117076190D01*
X103035714Y-117552380D02*
X103035714Y-116552380D01*
X103416666Y-116552380D01*
X103511904Y-116600000D01*
X103559523Y-116647619D01*
X103607142Y-116742857D01*
X103607142Y-116885714D01*
X103559523Y-116980952D01*
X103511904Y-117028571D01*
X103416666Y-117076190D01*
X103035714Y-117076190D01*
X104559523Y-117552380D02*
X103988095Y-117552380D01*
X104273809Y-117552380D02*
X104273809Y-116552380D01*
X104178571Y-116695238D01*
X104083333Y-116790476D01*
X103988095Y-116838095D01*
X104892857Y-116552380D02*
X105511904Y-116552380D01*
X105178571Y-116933333D01*
X105321428Y-116933333D01*
X105416666Y-116980952D01*
X105464285Y-117028571D01*
X105511904Y-117123809D01*
X105511904Y-117361904D01*
X105464285Y-117457142D01*
X105416666Y-117504761D01*
X105321428Y-117552380D01*
X105035714Y-117552380D01*
X104940476Y-117504761D01*
X104892857Y-117457142D01*
X103011904Y-119947619D02*
X103059523Y-119900000D01*
X103154761Y-119852380D01*
X103392857Y-119852380D01*
X103488095Y-119900000D01*
X103535714Y-119947619D01*
X103583333Y-120042857D01*
X103583333Y-120138095D01*
X103535714Y-120280952D01*
X102964285Y-120852380D01*
X103583333Y-120852380D01*
X103964285Y-119947619D02*
X104011904Y-119900000D01*
X104107142Y-119852380D01*
X104345238Y-119852380D01*
X104440476Y-119900000D01*
X104488095Y-119947619D01*
X104535714Y-120042857D01*
X104535714Y-120138095D01*
X104488095Y-120280952D01*
X103916666Y-120852380D01*
X104535714Y-120852380D01*
X105154761Y-119852380D02*
X105250000Y-119852380D01*
X105345238Y-119900000D01*
X105392857Y-119947619D01*
X105440476Y-120042857D01*
X105488095Y-120233333D01*
X105488095Y-120471428D01*
X105440476Y-120661904D01*
X105392857Y-120757142D01*
X105345238Y-120804761D01*
X105250000Y-120852380D01*
X105154761Y-120852380D01*
X105059523Y-120804761D01*
X105011904Y-120757142D01*
X104964285Y-120661904D01*
X104916666Y-120471428D01*
X104916666Y-120233333D01*
X104964285Y-120042857D01*
X105011904Y-119947619D01*
X105059523Y-119900000D01*
X105154761Y-119852380D01*
%TO.C,R14*%
X100607142Y-113552380D02*
X100273809Y-113076190D01*
X100035714Y-113552380D02*
X100035714Y-112552380D01*
X100416666Y-112552380D01*
X100511904Y-112600000D01*
X100559523Y-112647619D01*
X100607142Y-112742857D01*
X100607142Y-112885714D01*
X100559523Y-112980952D01*
X100511904Y-113028571D01*
X100416666Y-113076190D01*
X100035714Y-113076190D01*
X101559523Y-113552380D02*
X100988095Y-113552380D01*
X101273809Y-113552380D02*
X101273809Y-112552380D01*
X101178571Y-112695238D01*
X101083333Y-112790476D01*
X100988095Y-112838095D01*
X102416666Y-112885714D02*
X102416666Y-113552380D01*
X102178571Y-112504761D02*
X101940476Y-113219047D01*
X102559523Y-113219047D01*
X100011904Y-115947619D02*
X100059523Y-115900000D01*
X100154761Y-115852380D01*
X100392857Y-115852380D01*
X100488095Y-115900000D01*
X100535714Y-115947619D01*
X100583333Y-116042857D01*
X100583333Y-116138095D01*
X100535714Y-116280952D01*
X99964285Y-116852380D01*
X100583333Y-116852380D01*
X100964285Y-115947619D02*
X101011904Y-115900000D01*
X101107142Y-115852380D01*
X101345238Y-115852380D01*
X101440476Y-115900000D01*
X101488095Y-115947619D01*
X101535714Y-116042857D01*
X101535714Y-116138095D01*
X101488095Y-116280952D01*
X100916666Y-116852380D01*
X101535714Y-116852380D01*
X102154761Y-115852380D02*
X102250000Y-115852380D01*
X102345238Y-115900000D01*
X102392857Y-115947619D01*
X102440476Y-116042857D01*
X102488095Y-116233333D01*
X102488095Y-116471428D01*
X102440476Y-116661904D01*
X102392857Y-116757142D01*
X102345238Y-116804761D01*
X102250000Y-116852380D01*
X102154761Y-116852380D01*
X102059523Y-116804761D01*
X102011904Y-116757142D01*
X101964285Y-116661904D01*
X101916666Y-116471428D01*
X101916666Y-116233333D01*
X101964285Y-116042857D01*
X102011904Y-115947619D01*
X102059523Y-115900000D01*
X102154761Y-115852380D01*
%TO.C,R15*%
X103607142Y-108552380D02*
X103273809Y-108076190D01*
X103035714Y-108552380D02*
X103035714Y-107552380D01*
X103416666Y-107552380D01*
X103511904Y-107600000D01*
X103559523Y-107647619D01*
X103607142Y-107742857D01*
X103607142Y-107885714D01*
X103559523Y-107980952D01*
X103511904Y-108028571D01*
X103416666Y-108076190D01*
X103035714Y-108076190D01*
X104559523Y-108552380D02*
X103988095Y-108552380D01*
X104273809Y-108552380D02*
X104273809Y-107552380D01*
X104178571Y-107695238D01*
X104083333Y-107790476D01*
X103988095Y-107838095D01*
X105464285Y-107552380D02*
X104988095Y-107552380D01*
X104940476Y-108028571D01*
X104988095Y-107980952D01*
X105083333Y-107933333D01*
X105321428Y-107933333D01*
X105416666Y-107980952D01*
X105464285Y-108028571D01*
X105511904Y-108123809D01*
X105511904Y-108361904D01*
X105464285Y-108457142D01*
X105416666Y-108504761D01*
X105321428Y-108552380D01*
X105083333Y-108552380D01*
X104988095Y-108504761D01*
X104940476Y-108457142D01*
X103011904Y-110947619D02*
X103059523Y-110900000D01*
X103154761Y-110852380D01*
X103392857Y-110852380D01*
X103488095Y-110900000D01*
X103535714Y-110947619D01*
X103583333Y-111042857D01*
X103583333Y-111138095D01*
X103535714Y-111280952D01*
X102964285Y-111852380D01*
X103583333Y-111852380D01*
X103964285Y-110947619D02*
X104011904Y-110900000D01*
X104107142Y-110852380D01*
X104345238Y-110852380D01*
X104440476Y-110900000D01*
X104488095Y-110947619D01*
X104535714Y-111042857D01*
X104535714Y-111138095D01*
X104488095Y-111280952D01*
X103916666Y-111852380D01*
X104535714Y-111852380D01*
X105154761Y-110852380D02*
X105250000Y-110852380D01*
X105345238Y-110900000D01*
X105392857Y-110947619D01*
X105440476Y-111042857D01*
X105488095Y-111233333D01*
X105488095Y-111471428D01*
X105440476Y-111661904D01*
X105392857Y-111757142D01*
X105345238Y-111804761D01*
X105250000Y-111852380D01*
X105154761Y-111852380D01*
X105059523Y-111804761D01*
X105011904Y-111757142D01*
X104964285Y-111661904D01*
X104916666Y-111471428D01*
X104916666Y-111233333D01*
X104964285Y-111042857D01*
X105011904Y-110947619D01*
X105059523Y-110900000D01*
X105154761Y-110852380D01*
%TO.C,R16*%
X100607142Y-104552380D02*
X100273809Y-104076190D01*
X100035714Y-104552380D02*
X100035714Y-103552380D01*
X100416666Y-103552380D01*
X100511904Y-103600000D01*
X100559523Y-103647619D01*
X100607142Y-103742857D01*
X100607142Y-103885714D01*
X100559523Y-103980952D01*
X100511904Y-104028571D01*
X100416666Y-104076190D01*
X100035714Y-104076190D01*
X101559523Y-104552380D02*
X100988095Y-104552380D01*
X101273809Y-104552380D02*
X101273809Y-103552380D01*
X101178571Y-103695238D01*
X101083333Y-103790476D01*
X100988095Y-103838095D01*
X102416666Y-103552380D02*
X102226190Y-103552380D01*
X102130952Y-103600000D01*
X102083333Y-103647619D01*
X101988095Y-103790476D01*
X101940476Y-103980952D01*
X101940476Y-104361904D01*
X101988095Y-104457142D01*
X102035714Y-104504761D01*
X102130952Y-104552380D01*
X102321428Y-104552380D01*
X102416666Y-104504761D01*
X102464285Y-104457142D01*
X102511904Y-104361904D01*
X102511904Y-104123809D01*
X102464285Y-104028571D01*
X102416666Y-103980952D01*
X102321428Y-103933333D01*
X102130952Y-103933333D01*
X102035714Y-103980952D01*
X101988095Y-104028571D01*
X101940476Y-104123809D01*
X100011904Y-106947619D02*
X100059523Y-106900000D01*
X100154761Y-106852380D01*
X100392857Y-106852380D01*
X100488095Y-106900000D01*
X100535714Y-106947619D01*
X100583333Y-107042857D01*
X100583333Y-107138095D01*
X100535714Y-107280952D01*
X99964285Y-107852380D01*
X100583333Y-107852380D01*
X100964285Y-106947619D02*
X101011904Y-106900000D01*
X101107142Y-106852380D01*
X101345238Y-106852380D01*
X101440476Y-106900000D01*
X101488095Y-106947619D01*
X101535714Y-107042857D01*
X101535714Y-107138095D01*
X101488095Y-107280952D01*
X100916666Y-107852380D01*
X101535714Y-107852380D01*
X102154761Y-106852380D02*
X102250000Y-106852380D01*
X102345238Y-106900000D01*
X102392857Y-106947619D01*
X102440476Y-107042857D01*
X102488095Y-107233333D01*
X102488095Y-107471428D01*
X102440476Y-107661904D01*
X102392857Y-107757142D01*
X102345238Y-107804761D01*
X102250000Y-107852380D01*
X102154761Y-107852380D01*
X102059523Y-107804761D01*
X102011904Y-107757142D01*
X101964285Y-107661904D01*
X101916666Y-107471428D01*
X101916666Y-107233333D01*
X101964285Y-107042857D01*
X102011904Y-106947619D01*
X102059523Y-106900000D01*
X102154761Y-106852380D01*
%TO.C,R17*%
X103607142Y-99552380D02*
X103273809Y-99076190D01*
X103035714Y-99552380D02*
X103035714Y-98552380D01*
X103416666Y-98552380D01*
X103511904Y-98600000D01*
X103559523Y-98647619D01*
X103607142Y-98742857D01*
X103607142Y-98885714D01*
X103559523Y-98980952D01*
X103511904Y-99028571D01*
X103416666Y-99076190D01*
X103035714Y-99076190D01*
X104559523Y-99552380D02*
X103988095Y-99552380D01*
X104273809Y-99552380D02*
X104273809Y-98552380D01*
X104178571Y-98695238D01*
X104083333Y-98790476D01*
X103988095Y-98838095D01*
X104892857Y-98552380D02*
X105559523Y-98552380D01*
X105130952Y-99552380D01*
X103011904Y-101947619D02*
X103059523Y-101900000D01*
X103154761Y-101852380D01*
X103392857Y-101852380D01*
X103488095Y-101900000D01*
X103535714Y-101947619D01*
X103583333Y-102042857D01*
X103583333Y-102138095D01*
X103535714Y-102280952D01*
X102964285Y-102852380D01*
X103583333Y-102852380D01*
X103964285Y-101947619D02*
X104011904Y-101900000D01*
X104107142Y-101852380D01*
X104345238Y-101852380D01*
X104440476Y-101900000D01*
X104488095Y-101947619D01*
X104535714Y-102042857D01*
X104535714Y-102138095D01*
X104488095Y-102280952D01*
X103916666Y-102852380D01*
X104535714Y-102852380D01*
X105154761Y-101852380D02*
X105250000Y-101852380D01*
X105345238Y-101900000D01*
X105392857Y-101947619D01*
X105440476Y-102042857D01*
X105488095Y-102233333D01*
X105488095Y-102471428D01*
X105440476Y-102661904D01*
X105392857Y-102757142D01*
X105345238Y-102804761D01*
X105250000Y-102852380D01*
X105154761Y-102852380D01*
X105059523Y-102804761D01*
X105011904Y-102757142D01*
X104964285Y-102661904D01*
X104916666Y-102471428D01*
X104916666Y-102233333D01*
X104964285Y-102042857D01*
X105011904Y-101947619D01*
X105059523Y-101900000D01*
X105154761Y-101852380D01*
%TO.C,R18*%
X216694642Y-104852380D02*
X216361309Y-104376190D01*
X216123214Y-104852380D02*
X216123214Y-103852380D01*
X216504166Y-103852380D01*
X216599404Y-103900000D01*
X216647023Y-103947619D01*
X216694642Y-104042857D01*
X216694642Y-104185714D01*
X216647023Y-104280952D01*
X216599404Y-104328571D01*
X216504166Y-104376190D01*
X216123214Y-104376190D01*
X217647023Y-104852380D02*
X217075595Y-104852380D01*
X217361309Y-104852380D02*
X217361309Y-103852380D01*
X217266071Y-103995238D01*
X217170833Y-104090476D01*
X217075595Y-104138095D01*
X218218452Y-104280952D02*
X218123214Y-104233333D01*
X218075595Y-104185714D01*
X218027976Y-104090476D01*
X218027976Y-104042857D01*
X218075595Y-103947619D01*
X218123214Y-103900000D01*
X218218452Y-103852380D01*
X218408928Y-103852380D01*
X218504166Y-103900000D01*
X218551785Y-103947619D01*
X218599404Y-104042857D01*
X218599404Y-104090476D01*
X218551785Y-104185714D01*
X218504166Y-104233333D01*
X218408928Y-104280952D01*
X218218452Y-104280952D01*
X218123214Y-104328571D01*
X218075595Y-104376190D01*
X218027976Y-104471428D01*
X218027976Y-104661904D01*
X218075595Y-104757142D01*
X218123214Y-104804761D01*
X218218452Y-104852380D01*
X218408928Y-104852380D01*
X218504166Y-104804761D01*
X218551785Y-104757142D01*
X218599404Y-104661904D01*
X218599404Y-104471428D01*
X218551785Y-104376190D01*
X218504166Y-104328571D01*
X218408928Y-104280952D01*
X216051785Y-100552380D02*
X216670833Y-100552380D01*
X216337500Y-100933333D01*
X216480357Y-100933333D01*
X216575595Y-100980952D01*
X216623214Y-101028571D01*
X216670833Y-101123809D01*
X216670833Y-101361904D01*
X216623214Y-101457142D01*
X216575595Y-101504761D01*
X216480357Y-101552380D01*
X216194642Y-101552380D01*
X216099404Y-101504761D01*
X216051785Y-101457142D01*
X217004166Y-100552380D02*
X217623214Y-100552380D01*
X217289880Y-100933333D01*
X217432738Y-100933333D01*
X217527976Y-100980952D01*
X217575595Y-101028571D01*
X217623214Y-101123809D01*
X217623214Y-101361904D01*
X217575595Y-101457142D01*
X217527976Y-101504761D01*
X217432738Y-101552380D01*
X217147023Y-101552380D01*
X217051785Y-101504761D01*
X217004166Y-101457142D01*
X218242261Y-100552380D02*
X218337500Y-100552380D01*
X218432738Y-100600000D01*
X218480357Y-100647619D01*
X218527976Y-100742857D01*
X218575595Y-100933333D01*
X218575595Y-101171428D01*
X218527976Y-101361904D01*
X218480357Y-101457142D01*
X218432738Y-101504761D01*
X218337500Y-101552380D01*
X218242261Y-101552380D01*
X218147023Y-101504761D01*
X218099404Y-101457142D01*
X218051785Y-101361904D01*
X218004166Y-101171428D01*
X218004166Y-100933333D01*
X218051785Y-100742857D01*
X218099404Y-100647619D01*
X218147023Y-100600000D01*
X218242261Y-100552380D01*
%TO.C,R19*%
X193052380Y-148392857D02*
X192576190Y-148726190D01*
X193052380Y-148964285D02*
X192052380Y-148964285D01*
X192052380Y-148583333D01*
X192100000Y-148488095D01*
X192147619Y-148440476D01*
X192242857Y-148392857D01*
X192385714Y-148392857D01*
X192480952Y-148440476D01*
X192528571Y-148488095D01*
X192576190Y-148583333D01*
X192576190Y-148964285D01*
X193052380Y-147440476D02*
X193052380Y-148011904D01*
X193052380Y-147726190D02*
X192052380Y-147726190D01*
X192195238Y-147821428D01*
X192290476Y-147916666D01*
X192338095Y-148011904D01*
X193052380Y-146964285D02*
X193052380Y-146773809D01*
X193004761Y-146678571D01*
X192957142Y-146630952D01*
X192814285Y-146535714D01*
X192623809Y-146488095D01*
X192242857Y-146488095D01*
X192147619Y-146535714D01*
X192100000Y-146583333D01*
X192052380Y-146678571D01*
X192052380Y-146869047D01*
X192100000Y-146964285D01*
X192147619Y-147011904D01*
X192242857Y-147059523D01*
X192480952Y-147059523D01*
X192576190Y-147011904D01*
X192623809Y-146964285D01*
X192671428Y-146869047D01*
X192671428Y-146678571D01*
X192623809Y-146583333D01*
X192576190Y-146535714D01*
X192480952Y-146488095D01*
X196352380Y-148345238D02*
X196352380Y-148916666D01*
X196352380Y-148630952D02*
X195352380Y-148630952D01*
X195495238Y-148726190D01*
X195590476Y-148821428D01*
X195638095Y-148916666D01*
X195352380Y-147726190D02*
X195352380Y-147630952D01*
X195400000Y-147535714D01*
X195447619Y-147488095D01*
X195542857Y-147440476D01*
X195733333Y-147392857D01*
X195971428Y-147392857D01*
X196161904Y-147440476D01*
X196257142Y-147488095D01*
X196304761Y-147535714D01*
X196352380Y-147630952D01*
X196352380Y-147726190D01*
X196304761Y-147821428D01*
X196257142Y-147869047D01*
X196161904Y-147916666D01*
X195971428Y-147964285D01*
X195733333Y-147964285D01*
X195542857Y-147916666D01*
X195447619Y-147869047D01*
X195400000Y-147821428D01*
X195352380Y-147726190D01*
X196352380Y-146964285D02*
X195352380Y-146964285D01*
X195971428Y-146869047D02*
X196352380Y-146583333D01*
X195685714Y-146583333D02*
X196066666Y-146964285D01*
%TO.C,R20*%
X217052380Y-148392857D02*
X216576190Y-148726190D01*
X217052380Y-148964285D02*
X216052380Y-148964285D01*
X216052380Y-148583333D01*
X216100000Y-148488095D01*
X216147619Y-148440476D01*
X216242857Y-148392857D01*
X216385714Y-148392857D01*
X216480952Y-148440476D01*
X216528571Y-148488095D01*
X216576190Y-148583333D01*
X216576190Y-148964285D01*
X216147619Y-148011904D02*
X216100000Y-147964285D01*
X216052380Y-147869047D01*
X216052380Y-147630952D01*
X216100000Y-147535714D01*
X216147619Y-147488095D01*
X216242857Y-147440476D01*
X216338095Y-147440476D01*
X216480952Y-147488095D01*
X217052380Y-148059523D01*
X217052380Y-147440476D01*
X216052380Y-146821428D02*
X216052380Y-146726190D01*
X216100000Y-146630952D01*
X216147619Y-146583333D01*
X216242857Y-146535714D01*
X216433333Y-146488095D01*
X216671428Y-146488095D01*
X216861904Y-146535714D01*
X216957142Y-146583333D01*
X217004761Y-146630952D01*
X217052380Y-146726190D01*
X217052380Y-146821428D01*
X217004761Y-146916666D01*
X216957142Y-146964285D01*
X216861904Y-147011904D01*
X216671428Y-147059523D01*
X216433333Y-147059523D01*
X216242857Y-147011904D01*
X216147619Y-146964285D01*
X216100000Y-146916666D01*
X216052380Y-146821428D01*
X220352380Y-148345238D02*
X220352380Y-148916666D01*
X220352380Y-148630952D02*
X219352380Y-148630952D01*
X219495238Y-148726190D01*
X219590476Y-148821428D01*
X219638095Y-148916666D01*
X219352380Y-147726190D02*
X219352380Y-147630952D01*
X219400000Y-147535714D01*
X219447619Y-147488095D01*
X219542857Y-147440476D01*
X219733333Y-147392857D01*
X219971428Y-147392857D01*
X220161904Y-147440476D01*
X220257142Y-147488095D01*
X220304761Y-147535714D01*
X220352380Y-147630952D01*
X220352380Y-147726190D01*
X220304761Y-147821428D01*
X220257142Y-147869047D01*
X220161904Y-147916666D01*
X219971428Y-147964285D01*
X219733333Y-147964285D01*
X219542857Y-147916666D01*
X219447619Y-147869047D01*
X219400000Y-147821428D01*
X219352380Y-147726190D01*
X220352380Y-146964285D02*
X219352380Y-146964285D01*
X219971428Y-146869047D02*
X220352380Y-146583333D01*
X219685714Y-146583333D02*
X220066666Y-146964285D01*
%TO.C,R21*%
X240052380Y-148392857D02*
X239576190Y-148726190D01*
X240052380Y-148964285D02*
X239052380Y-148964285D01*
X239052380Y-148583333D01*
X239100000Y-148488095D01*
X239147619Y-148440476D01*
X239242857Y-148392857D01*
X239385714Y-148392857D01*
X239480952Y-148440476D01*
X239528571Y-148488095D01*
X239576190Y-148583333D01*
X239576190Y-148964285D01*
X239147619Y-148011904D02*
X239100000Y-147964285D01*
X239052380Y-147869047D01*
X239052380Y-147630952D01*
X239100000Y-147535714D01*
X239147619Y-147488095D01*
X239242857Y-147440476D01*
X239338095Y-147440476D01*
X239480952Y-147488095D01*
X240052380Y-148059523D01*
X240052380Y-147440476D01*
X240052380Y-146488095D02*
X240052380Y-147059523D01*
X240052380Y-146773809D02*
X239052380Y-146773809D01*
X239195238Y-146869047D01*
X239290476Y-146964285D01*
X239338095Y-147059523D01*
X243352380Y-148345238D02*
X243352380Y-148916666D01*
X243352380Y-148630952D02*
X242352380Y-148630952D01*
X242495238Y-148726190D01*
X242590476Y-148821428D01*
X242638095Y-148916666D01*
X242352380Y-147726190D02*
X242352380Y-147630952D01*
X242400000Y-147535714D01*
X242447619Y-147488095D01*
X242542857Y-147440476D01*
X242733333Y-147392857D01*
X242971428Y-147392857D01*
X243161904Y-147440476D01*
X243257142Y-147488095D01*
X243304761Y-147535714D01*
X243352380Y-147630952D01*
X243352380Y-147726190D01*
X243304761Y-147821428D01*
X243257142Y-147869047D01*
X243161904Y-147916666D01*
X242971428Y-147964285D01*
X242733333Y-147964285D01*
X242542857Y-147916666D01*
X242447619Y-147869047D01*
X242400000Y-147821428D01*
X242352380Y-147726190D01*
X243352380Y-146964285D02*
X242352380Y-146964285D01*
X242971428Y-146869047D02*
X243352380Y-146583333D01*
X242685714Y-146583333D02*
X243066666Y-146964285D01*
%TO.C,R22*%
X264052380Y-148392857D02*
X263576190Y-148726190D01*
X264052380Y-148964285D02*
X263052380Y-148964285D01*
X263052380Y-148583333D01*
X263100000Y-148488095D01*
X263147619Y-148440476D01*
X263242857Y-148392857D01*
X263385714Y-148392857D01*
X263480952Y-148440476D01*
X263528571Y-148488095D01*
X263576190Y-148583333D01*
X263576190Y-148964285D01*
X263147619Y-148011904D02*
X263100000Y-147964285D01*
X263052380Y-147869047D01*
X263052380Y-147630952D01*
X263100000Y-147535714D01*
X263147619Y-147488095D01*
X263242857Y-147440476D01*
X263338095Y-147440476D01*
X263480952Y-147488095D01*
X264052380Y-148059523D01*
X264052380Y-147440476D01*
X263147619Y-147059523D02*
X263100000Y-147011904D01*
X263052380Y-146916666D01*
X263052380Y-146678571D01*
X263100000Y-146583333D01*
X263147619Y-146535714D01*
X263242857Y-146488095D01*
X263338095Y-146488095D01*
X263480952Y-146535714D01*
X264052380Y-147107142D01*
X264052380Y-146488095D01*
X267352380Y-148345238D02*
X267352380Y-148916666D01*
X267352380Y-148630952D02*
X266352380Y-148630952D01*
X266495238Y-148726190D01*
X266590476Y-148821428D01*
X266638095Y-148916666D01*
X266352380Y-147726190D02*
X266352380Y-147630952D01*
X266400000Y-147535714D01*
X266447619Y-147488095D01*
X266542857Y-147440476D01*
X266733333Y-147392857D01*
X266971428Y-147392857D01*
X267161904Y-147440476D01*
X267257142Y-147488095D01*
X267304761Y-147535714D01*
X267352380Y-147630952D01*
X267352380Y-147726190D01*
X267304761Y-147821428D01*
X267257142Y-147869047D01*
X267161904Y-147916666D01*
X266971428Y-147964285D01*
X266733333Y-147964285D01*
X266542857Y-147916666D01*
X266447619Y-147869047D01*
X266400000Y-147821428D01*
X266352380Y-147726190D01*
X267352380Y-146964285D02*
X266352380Y-146964285D01*
X266971428Y-146869047D02*
X267352380Y-146583333D01*
X266685714Y-146583333D02*
X267066666Y-146964285D01*
%TO.C,RV1*%
X269404761Y-104152380D02*
X269071428Y-103676190D01*
X268833333Y-104152380D02*
X268833333Y-103152380D01*
X269214285Y-103152380D01*
X269309523Y-103200000D01*
X269357142Y-103247619D01*
X269404761Y-103342857D01*
X269404761Y-103485714D01*
X269357142Y-103580952D01*
X269309523Y-103628571D01*
X269214285Y-103676190D01*
X268833333Y-103676190D01*
X269690476Y-103152380D02*
X270023809Y-104152380D01*
X270357142Y-103152380D01*
X271214285Y-104152380D02*
X270642857Y-104152380D01*
X270928571Y-104152380D02*
X270928571Y-103152380D01*
X270833333Y-103295238D01*
X270738095Y-103390476D01*
X270642857Y-103438095D01*
X269404761Y-121252380D02*
X268833333Y-121252380D01*
X269119047Y-121252380D02*
X269119047Y-120252380D01*
X269023809Y-120395238D01*
X268928571Y-120490476D01*
X268833333Y-120538095D01*
X270023809Y-120252380D02*
X270119047Y-120252380D01*
X270214285Y-120300000D01*
X270261904Y-120347619D01*
X270309523Y-120442857D01*
X270357142Y-120633333D01*
X270357142Y-120871428D01*
X270309523Y-121061904D01*
X270261904Y-121157142D01*
X270214285Y-121204761D01*
X270119047Y-121252380D01*
X270023809Y-121252380D01*
X269928571Y-121204761D01*
X269880952Y-121157142D01*
X269833333Y-121061904D01*
X269785714Y-120871428D01*
X269785714Y-120633333D01*
X269833333Y-120442857D01*
X269880952Y-120347619D01*
X269928571Y-120300000D01*
X270023809Y-120252380D01*
X270785714Y-121252380D02*
X270785714Y-120252380D01*
X270880952Y-120871428D02*
X271166666Y-121252380D01*
X271166666Y-120585714D02*
X270785714Y-120966666D01*
%TO.C,SW1*%
X161106666Y-73264761D02*
X161249523Y-73312380D01*
X161487619Y-73312380D01*
X161582857Y-73264761D01*
X161630476Y-73217142D01*
X161678095Y-73121904D01*
X161678095Y-73026666D01*
X161630476Y-72931428D01*
X161582857Y-72883809D01*
X161487619Y-72836190D01*
X161297142Y-72788571D01*
X161201904Y-72740952D01*
X161154285Y-72693333D01*
X161106666Y-72598095D01*
X161106666Y-72502857D01*
X161154285Y-72407619D01*
X161201904Y-72360000D01*
X161297142Y-72312380D01*
X161535238Y-72312380D01*
X161678095Y-72360000D01*
X162011428Y-72312380D02*
X162249523Y-73312380D01*
X162440000Y-72598095D01*
X162630476Y-73312380D01*
X162868571Y-72312380D01*
X163773333Y-73312380D02*
X163201904Y-73312380D01*
X163487619Y-73312380D02*
X163487619Y-72312380D01*
X163392380Y-72455238D01*
X163297142Y-72550476D01*
X163201904Y-72598095D01*
%TO.C,SW2*%
X196726666Y-134074761D02*
X196869523Y-134122380D01*
X197107619Y-134122380D01*
X197202857Y-134074761D01*
X197250476Y-134027142D01*
X197298095Y-133931904D01*
X197298095Y-133836666D01*
X197250476Y-133741428D01*
X197202857Y-133693809D01*
X197107619Y-133646190D01*
X196917142Y-133598571D01*
X196821904Y-133550952D01*
X196774285Y-133503333D01*
X196726666Y-133408095D01*
X196726666Y-133312857D01*
X196774285Y-133217619D01*
X196821904Y-133170000D01*
X196917142Y-133122380D01*
X197155238Y-133122380D01*
X197298095Y-133170000D01*
X197631428Y-133122380D02*
X197869523Y-134122380D01*
X198060000Y-133408095D01*
X198250476Y-134122380D01*
X198488571Y-133122380D01*
X198821904Y-133217619D02*
X198869523Y-133170000D01*
X198964761Y-133122380D01*
X199202857Y-133122380D01*
X199298095Y-133170000D01*
X199345714Y-133217619D01*
X199393333Y-133312857D01*
X199393333Y-133408095D01*
X199345714Y-133550952D01*
X198774285Y-134122380D01*
X199393333Y-134122380D01*
%TO.C,SW3*%
X220726666Y-134074761D02*
X220869523Y-134122380D01*
X221107619Y-134122380D01*
X221202857Y-134074761D01*
X221250476Y-134027142D01*
X221298095Y-133931904D01*
X221298095Y-133836666D01*
X221250476Y-133741428D01*
X221202857Y-133693809D01*
X221107619Y-133646190D01*
X220917142Y-133598571D01*
X220821904Y-133550952D01*
X220774285Y-133503333D01*
X220726666Y-133408095D01*
X220726666Y-133312857D01*
X220774285Y-133217619D01*
X220821904Y-133170000D01*
X220917142Y-133122380D01*
X221155238Y-133122380D01*
X221298095Y-133170000D01*
X221631428Y-133122380D02*
X221869523Y-134122380D01*
X222060000Y-133408095D01*
X222250476Y-134122380D01*
X222488571Y-133122380D01*
X222774285Y-133122380D02*
X223393333Y-133122380D01*
X223060000Y-133503333D01*
X223202857Y-133503333D01*
X223298095Y-133550952D01*
X223345714Y-133598571D01*
X223393333Y-133693809D01*
X223393333Y-133931904D01*
X223345714Y-134027142D01*
X223298095Y-134074761D01*
X223202857Y-134122380D01*
X222917142Y-134122380D01*
X222821904Y-134074761D01*
X222774285Y-134027142D01*
%TO.C,SW4*%
X243726666Y-134074761D02*
X243869523Y-134122380D01*
X244107619Y-134122380D01*
X244202857Y-134074761D01*
X244250476Y-134027142D01*
X244298095Y-133931904D01*
X244298095Y-133836666D01*
X244250476Y-133741428D01*
X244202857Y-133693809D01*
X244107619Y-133646190D01*
X243917142Y-133598571D01*
X243821904Y-133550952D01*
X243774285Y-133503333D01*
X243726666Y-133408095D01*
X243726666Y-133312857D01*
X243774285Y-133217619D01*
X243821904Y-133170000D01*
X243917142Y-133122380D01*
X244155238Y-133122380D01*
X244298095Y-133170000D01*
X244631428Y-133122380D02*
X244869523Y-134122380D01*
X245060000Y-133408095D01*
X245250476Y-134122380D01*
X245488571Y-133122380D01*
X246298095Y-133455714D02*
X246298095Y-134122380D01*
X246060000Y-133074761D02*
X245821904Y-133789047D01*
X246440952Y-133789047D01*
%TO.C,SW5*%
X267726666Y-134074761D02*
X267869523Y-134122380D01*
X268107619Y-134122380D01*
X268202857Y-134074761D01*
X268250476Y-134027142D01*
X268298095Y-133931904D01*
X268298095Y-133836666D01*
X268250476Y-133741428D01*
X268202857Y-133693809D01*
X268107619Y-133646190D01*
X267917142Y-133598571D01*
X267821904Y-133550952D01*
X267774285Y-133503333D01*
X267726666Y-133408095D01*
X267726666Y-133312857D01*
X267774285Y-133217619D01*
X267821904Y-133170000D01*
X267917142Y-133122380D01*
X268155238Y-133122380D01*
X268298095Y-133170000D01*
X268631428Y-133122380D02*
X268869523Y-134122380D01*
X269060000Y-133408095D01*
X269250476Y-134122380D01*
X269488571Y-133122380D01*
X270345714Y-133122380D02*
X269869523Y-133122380D01*
X269821904Y-133598571D01*
X269869523Y-133550952D01*
X269964761Y-133503333D01*
X270202857Y-133503333D01*
X270298095Y-133550952D01*
X270345714Y-133598571D01*
X270393333Y-133693809D01*
X270393333Y-133931904D01*
X270345714Y-134027142D01*
X270298095Y-134074761D01*
X270202857Y-134122380D01*
X269964761Y-134122380D01*
X269869523Y-134074761D01*
X269821904Y-134027142D01*
%TD*%
M02*
