%TF.GenerationSoftware,KiCad,Pcbnew,(5.1.8)-1*%
%TF.CreationDate,2021-03-15T17:45:29+02:00*%
%TF.ProjectId,guitar_second,67756974-6172-45f7-9365-636f6e642e6b,rev?*%
%TF.SameCoordinates,Original*%
%TF.FileFunction,Soldermask,Bot*%
%TF.FilePolarity,Negative*%
%FSLAX46Y46*%
G04 Gerber Fmt 4.6, Leading zero omitted, Abs format (unit mm)*
G04 Created by KiCad (PCBNEW (5.1.8)-1) date 2021-03-15 17:45:29*
%MOMM*%
%LPD*%
G01*
G04 APERTURE LIST*
%ADD10C,1.524000*%
%ADD11R,2.500000X2.500000*%
%ADD12O,1.600000X1.600000*%
%ADD13R,1.600000X1.600000*%
%ADD14C,1.800000*%
%ADD15C,4.600000*%
%ADD16C,1.397000*%
G04 APERTURE END LIST*
D10*
%TO.C,LCD1*%
X252760000Y-99990000D03*
X250220000Y-99990000D03*
X247680000Y-99990000D03*
X245140000Y-99990000D03*
X242600000Y-99990000D03*
X240060000Y-99990000D03*
X237520000Y-99990000D03*
X234980000Y-99990000D03*
X232440000Y-99990000D03*
X229900000Y-99990000D03*
X227360000Y-99990000D03*
X224820000Y-99990000D03*
X222280000Y-99990000D03*
X219740000Y-99990000D03*
X217200000Y-99990000D03*
X255300000Y-99990000D03*
%TD*%
%TO.C,U1*%
X229870000Y-114210000D03*
X227330000Y-114210000D03*
X224790000Y-114210000D03*
X222250000Y-114210000D03*
X219710000Y-114210000D03*
X217170000Y-114210000D03*
X214630000Y-114210000D03*
X212090000Y-114210000D03*
X229870000Y-106590000D03*
X227330000Y-106590000D03*
X224790000Y-106590000D03*
X222250000Y-106590000D03*
X219710000Y-106590000D03*
X217170000Y-106590000D03*
X214630000Y-106590000D03*
X212090000Y-106590000D03*
%TD*%
D11*
%TO.C,REF\u002A\u002A*%
X32250000Y-102750000D03*
%TD*%
%TO.C,REF\u002A\u002A*%
X32250000Y-107750000D03*
%TD*%
%TO.C,REF\u002A\u002A*%
X32250000Y-111750000D03*
%TD*%
%TO.C,REF\u002A\u002A*%
X32250000Y-116750000D03*
%TD*%
%TO.C,REF\u002A\u002A*%
X32250000Y-120750000D03*
%TD*%
%TO.C,REF\u002A\u002A*%
X32250000Y-125750000D03*
%TD*%
%TO.C,REF\u002A\u002A*%
X32250000Y-129750000D03*
%TD*%
%TO.C,REF\u002A\u002A*%
X32250000Y-134750000D03*
%TD*%
%TO.C,REF\u002A\u002A*%
X32250000Y-138750000D03*
%TD*%
%TO.C,REF\u002A\u002A*%
X32250000Y-143750000D03*
%TD*%
%TO.C,REF\u002A\u002A*%
X32250000Y-147750000D03*
%TD*%
%TO.C,REF\u002A\u002A*%
X32250000Y-152750000D03*
%TD*%
D12*
%TO.C,A1*%
X118990000Y-105610000D03*
X118990000Y-108150000D03*
D13*
X167250000Y-114750000D03*
D12*
X118990000Y-145230000D03*
X167250000Y-117290000D03*
X118990000Y-142690000D03*
X167250000Y-119830000D03*
X118990000Y-140150000D03*
X167250000Y-122370000D03*
X118990000Y-137610000D03*
X167250000Y-124910000D03*
X118990000Y-135070000D03*
X167250000Y-127450000D03*
X118990000Y-132530000D03*
X167250000Y-129990000D03*
X118990000Y-128470000D03*
X167250000Y-132530000D03*
X118990000Y-125930000D03*
X167250000Y-137610000D03*
X118990000Y-123390000D03*
X167250000Y-140150000D03*
X118990000Y-120850000D03*
X167250000Y-142690000D03*
X118990000Y-118310000D03*
X167250000Y-145230000D03*
X118990000Y-115770000D03*
X167250000Y-147770000D03*
X118990000Y-113230000D03*
X167250000Y-150310000D03*
X118990000Y-110690000D03*
X118990000Y-150310000D03*
X118990000Y-147770000D03*
%TD*%
D14*
%TO.C,RV1*%
X270000000Y-109750000D03*
X270000000Y-112250000D03*
X270000000Y-114750000D03*
D15*
X266700000Y-107250000D03*
X266700000Y-117250000D03*
%TD*%
D13*
%TO.C,SW1*%
X166250000Y-69750000D03*
D12*
X158630000Y-69750000D03*
%TD*%
D16*
%TO.C,SW2*%
X201870000Y-135750000D03*
X201870000Y-140830000D03*
X194250000Y-135750000D03*
X194250000Y-140830000D03*
%TD*%
%TO.C,SW3*%
X218250000Y-140830000D03*
X218250000Y-135750000D03*
X225870000Y-140830000D03*
X225870000Y-135750000D03*
%TD*%
%TO.C,SW4*%
X241250000Y-140830000D03*
X241250000Y-135750000D03*
X248870000Y-140830000D03*
X248870000Y-135750000D03*
%TD*%
%TO.C,SW5*%
X272870000Y-135750000D03*
X272870000Y-140830000D03*
X265250000Y-135750000D03*
X265250000Y-140830000D03*
%TD*%
M02*
